<svg xmlns:xlink="http://www.w3.org/1999/xlink" xmlns="http://www.w3.org/2000/svg" class="icon club-logo" aria-hidden="true" width="200"  height="200" ><defs><symbol viewBox="0 0 200 200" id="icn-aflc-fre" xmlns="http://www.w3.org/2000/svg"><g fill="none" fill-rule="evenodd"><path fill="#A5ACAF" d="M99.608 26.75c-23.352 0-38.92 3.892-38.92 3.892v67.921c0 6.09.739 10.83 7.784 15.438 3.548 2.32 31.136 20.325 31.136 20.325s27.588-18.005 31.137-20.325c7.045-4.607 7.784-9.349 7.784-15.438V30.642s-15.568-3.892-38.92-3.892"></path><path fill="#331C54" d="M136.193 98.564c0 2.906-.181 5.271-1.066 7.365-.962 2.278-2.76 4.221-5.66 6.117-3.069 2.006-24.385 15.919-29.86 19.491-5.472-3.572-26.789-17.485-29.856-19.491-2.9-1.896-4.7-3.839-5.661-6.117-.886-2.094-1.066-4.46-1.066-7.365V43.07c5.166-1.017 18.556-3.242 36.584-3.242 18.03 0 31.417 2.225 36.585 3.242v55.493z"></path><path fill="#FFF" d="M84.818 97.007v4.67h22.658l6.922-5.93v-16.94l-6.922-5.93H103.5v4.67h2.25l3.978 3.409v12.64l-3.977 3.41H93.38v-19.46h2.335v-4.67H84.818v4.67h3.892v19.46z"></path><path fill="#FFF" d="M99.608 52.524a2.873 2.873 0 012.87 2.87 2.873 2.873 0 01-2.87 2.87 2.873 2.873 0 01-2.87-2.87 2.873 2.873 0 012.87-2.87zM97.273 95.45h4.67V68.985h17.125v-4.671h-17.125v-1.83a7.463 7.463 0 00-2.335-14.552 7.462 7.462 0 00-7.462 7.463 7.467 7.467 0 005.127 7.09v1.829H80.15v4.671h17.124V95.45z"></path><path fill="#FFF" d="M121.403 90.735v6.383c0 2.225-.575 3.203-2.649 4.552-1.356.885-12.008 7.751-16.81 10.847v-9.281h-4.67v9.28A12923.64 12923.64 0 0180.46 101.67c-2.074-1.35-2.649-2.327-2.649-4.552v-6.383h-4.67v7.861c0 2.135.354 4.126 3.371 6.074 3.02 1.946 23.095 14.91 23.095 14.91s20.077-12.964 23.094-14.91c3.019-1.948 3.371-3.939 3.371-6.074v-7.86h-4.67z"></path><path fill="#331C54" d="M74.704 37.1v-4.613c1.388-.177 2.776-.337 4.165-.482v.997c-.943.098-1.883.205-2.826.318v.865c.673-.08 1.346-.157 2.017-.23v.775c-.671.075-1.344.151-2.017.23v.923c.943-.113 1.883-.219 2.826-.318v1.054c-1.389.146-2.777.306-4.165.48m9.436-.81a4.478 4.478 0 01-2.521-.515l.539-.859c.645.33 1.364.508 2.009.457.693-.054.97-.308.97-.578 0-.778-3.29-.052-3.29-1.729 0-.832.927-1.588 2.297-1.695.992-.078 1.72.19 2.294.588-.204.254-.412.508-.615.763-.487-.298-1.124-.481-1.712-.435-.617.05-.977.288-.977.564 0 .74 3.319.097 3.319 1.74 0 .9-.999 1.596-2.314 1.699m7.716-4.187v3.581c-.452.018-.902.037-1.353.059v-3.583c-.57.026-1.137.055-1.707.086v-1.032a194.11 194.11 0 014.759-.203v1.032c-.567.017-1.133.037-1.7.06m3.289 3.48v-.992c.329-.005.657-.013.986-.019v.991c-.329.005-.657.012-.986.02m7.094-.034V31.5c.423.007.617-.254.617-.559l.625.011v4.615a194.3 194.3 0 00-1.242-.02m7.43-2.695c0-.477-.36-.898-1.027-.928-.597-.027-.944.23-.944.645v.083c0 .41.312.698.915.725.465.02.79-.122 1.056-.338v-.187zm-1.082 3.032c-.84-.037-1.485-.298-2.033-.726.181-.238.36-.477.541-.714.416.306.929.5 1.415.522.804.036 1.164-.416 1.164-1.08v-.264c-.346.287-.755.46-1.324.435-1.132-.047-1.796-.637-1.796-1.434v-.09c0-.894.825-1.623 2.102-1.566 1.332.061 2.226.96 2.226 2.255v.533c0 1.304-.88 2.192-2.295 2.129zm8.255-2.54c0-.478-.36-.912-1.024-.965-.596-.05-.942.194-.942.61v.084c0 .409.311.71.914.757.465.039.79-.094 1.053-.299v-.187zm-1.08 2.992c-.838-.067-1.483-.35-2.03-.798l.541-.696c.416.322.928.534 1.412.572.803.067 1.163-.372 1.163-1.037v-.263c-.344.275-.753.433-1.322.388-1.128-.09-1.794-.702-1.794-1.5v-.09c0-.894.826-1.593 2.1-1.49 1.329.109 2.222 1.04 2.222 2.335v.534c0 1.304-.88 2.16-2.292 2.045zm6.902-2.844c-.434.425-.87.851-1.306 1.28.436.047.872.096 1.306.147v-1.427zm1.201 2.45v1.068c-.4-.05-.8-.097-1.2-.145V35.8c-.833-.097-1.664-.19-2.496-.274v-.798c.857-.827 1.711-1.65 2.565-2.468l1.131.136v2.668l.733.09v.88l-.733-.091z"></path><path fill="#000" d="M60.691 144.438h5.082v1.67h-3.237v.98h3.149v1.64h-3.149v2.318h-1.845zm11.725 3.096c.715 0 .964-.142.964-.749 0-.633-.233-.776-.972-.776h-1.481v1.525h1.489zm-.294 1.532h-1.195v1.98h-1.801v-6.608h3.353c2.363 0 2.765 1.035 2.765 2.276 0 .82-.206 1.692-1.276 2.114l1.204 2.218h-1.98l-1.07-1.98zm6.34-4.628h5.262v1.67h-3.416v.8h3.326v1.615h-3.326v.927h3.45v1.596h-5.296zm8.998 0h2.417l1.479 3.934 1.489-3.934h2.409v6.608h-1.803v-3.833l-1.48 3.833H90.59l-1.462-3.806v3.806H87.46zm14.881 4.236l-.82-2.104-.82 2.104h1.64zm-1.71-4.28h1.881l2.666 6.652h-1.916l-.333-.854h-2.817l-.33.854h-1.8l2.648-6.651zm7.088.044h1.98l2.576 3.497v-3.497h1.767v6.608h-1.705l-2.853-3.86v3.86h-1.765zm11.244 1.669h-2.193v-1.669h6.242v1.669h-2.195v4.939h-1.854zm6.769-1.669h1.846v5.012h3.111v1.596h-4.957zm7.499 0h5.26v1.67h-3.414v.8h3.326v1.615h-3.326v.927h3.452v1.596h-5.298z"></path><path fill="#331C54" d="M142.353 160.975l.685.686v3.172l-.93.777h-6.02v-4.635h6.265zm1.1 7.823l2.895-2.414v-6.095l-2.625-2.624H130.46v3.31h2.318v9.93h-2.318v3.309h5.628v-5.295h3.43l3.642 5.295h4.181v-3.31h-2.44l-1.449-2.106zm-95.211.097l-2.008 2.01H40.63v-9.93h5.604l2.008 2.01v5.91zm-13.238-11.23v3.31h2.316v9.93h-2.316v3.31h12.602l3.946-3.95v-8.65l-3.946-3.95H35.004zm32.04 11.231l-2.01 2.01h-4.589l-2.008-2.01v-5.912l2.008-2.008h4.59l2.009 2.009v5.911zm-7.972-11.23l-3.945 3.95v8.65l3.945 3.948h7.334l3.948-3.948v-8.652l-3.948-3.948h-7.334zm105.148 5.294v-2.67l-2.624-2.625h-8.652l-2.625 2.624v4.682l2.625 2.624h7.282l.684.686v1.938l-.684.686h-5.91l-.687-.686v-1.3h-3.31v2.672l2.625 2.623h8.652l2.624-2.623v-4.682l-2.624-2.624h-7.28l-.687-.686v-1.938l.686-.686h5.911l.684.686v1.3zm-86.547-5.295l-3.944 3.95v8.651l3.944 3.948h7.334l3.948-3.948v-2.34h-3.31v.97l-2.01 2.009h-4.589l-2.007-2.01v-5.91l2.007-2.01h4.59l2.01 2.01v.97h3.31v-2.341l-3.95-3.949zm30.943 3.31v-3.31h-3.286l-7.636 6.874v-6.874h-5.626v3.31h2.316v9.93H92.13v3.309h5.564v-5.22l2.152-1.937 5.282 7.157h3.488v-3.31h-1.817l-4.481-6.073 4.282-3.856zm3.31 0h2.649v9.93h-2.65v3.309h14.895v-4.963h-3.309v1.654h-5.628v-3.31h5.296v-3.31h-5.296v-3.31h5.628v1.656h3.309v-4.966h-14.894z"></path></g></symbol></defs>
			<use xmlns:xlink="http://www.w3.org/1999/xlink" xlink:href="#icn-aflc-fre"></use>
	</svg>