<svg xmlns:xlink="http://www.w3.org/1999/xlink" xmlns="http://www.w3.org/2000/svg" class="icon club-logo" aria-hidden="true" width="200"  height="200" ><defs><symbol viewBox="0 0 200 200" id="icn-aflc-gws" xmlns="http://www.w3.org/2000/svg"><path d="M98.737 78.681l-1.96 2.718a5.902 5.902 0 01-4.83 2.513h-17.69l9.149-12.78a5.928 5.928 0 014.77-2.424h41.877l24.342-34.012H91.553c-24.25 0-43.906 19.656-43.906 43.902 0 24.25 19.657 43.906 43.906 43.906l31.37-43.832-24.186.01zm-62.893 74.998h5.05v5.103c0 .323-.215.536-.537.536h-7.951c-.322 0-.537-.213-.537-.536v-20.52c0-.324.215-.538.537-.538H40.3c.323 0 .538.214.538.537v3.653h7.628v-5.372a5.891 5.891 0 00-5.909-5.907h-12.57a5.891 5.891 0 00-5.908 5.907V160.5a5.892 5.892 0 005.909 5.91h12.623a5.893 5.893 0 005.91-5.91v-13.59H35.843v6.769zM52.67 166.41h7.788v-35.776H52.67v35.776zm29.309-35.776h-7.842l-11.71 35.775h7.948l2.15-7.092h11.012l2.257 7.092h7.95l-11.765-35.775zm-3.922 9.882l3.224 11.926h-6.446l3.222-11.926zm44.608-9.882h-7.52v20.948l-11.926-20.948h-7.522v35.775h7.522v-20.843l11.926 20.843h7.52v-35.775zm2.729 7.089h9.24v28.686h7.789v-28.686h9.24v-7.089h-26.27v7.089zm52.155 14.45c0-3.275-1.774-4.726-4.834-5.587-7.091-1.986-10.153-2.847-10.691-3.008-.322-.107-.59-.269-.59-.696v-4.622c0-.323.214-.537.538-.537h7.198c.32 0 .536.214.536.537v3.008h7.627v-4.727a5.89 5.89 0 00-5.908-5.907h-11.818a5.89 5.89 0 00-5.907 5.907v8.004c0 3.277 1.823 4.674 4.994 5.587 6.661 1.88 9.508 2.686 10.421 2.956.43.106.698.32.698.697v4.996c0 .323-.213.536-.537.536h-7.52c-.321 0-.537-.213-.537-.536v-3.062h-7.628v4.78a5.893 5.893 0 005.909 5.91h12.14a5.892 5.892 0 005.909-5.91v-8.326z" fill="#FF7900" fill-rule="evenodd"></path></symbol></defs>
			<use xmlns:xlink="http://www.w3.org/1999/xlink" xlink:href="#icn-aflc-gws"></use>
	</svg>