<svg xmlns:xlink="http://www.w3.org/1999/xlink" xmlns="http://www.w3.org/2000/svg" class="icon club-logo" aria-hidden="true" width="200"  height="200" ><defs><symbol fill="none" viewBox="0 0 200 200" id="icn-aflc-adel" xmlns="http://www.w3.org/2000/svg"><path d="M11.748 68.02c.092.211.206.297.34.297.412 0 1-.797 1.67-1.172-.967.307-2.38.01-2.01.874zM14.088 67.001a1.574 1.574 0 00-.33.144c.119-.036.23-.085.33-.144zM186.718 119.721c-.104-2.046.439-4.147-.018-6.055-.322-1.346-1.543-2.414-2.009-3.687-.476-1.3-.23-2.895-.825-4.113-.611-1.248-2.025-2.04-2.727-3.193-.724-1.19-.779-2.806-1.57-3.892-.807-1.107-2.706-1.945-4.147-3.42-1.178-1.209-1.887-3.089-3.19-4.313-1.359-1.276-3.291-1.874-4.488-2.938-2.147-1.908-3.177-3.892-3.417-4.052-.579-.74-1.809-.908-2.392-1.622-.595-.727-.531-1.991-1.129-2.697-.607-.714-1.865-.858-2.475-1.549-.623-.702-.61-1.969-1.236-2.647-.905-.981-2.435-1.343-3.346-2.272-.936-.951-1.273-2.488-2.215-3.386-.966-.92-2.515-1.184-3.484-2.053-.997-.886-1.436-2.395-2.436-3.226-1.153-.96-2.846-1.212-4.009-2.098-1.193-.911-1.883-2.476-3.082-3.31-1.23-.859-2.939-.963-4.172-1.745-1.266-.8-2.094-2.297-3.364-3.024-1.923-1.098-4.251-1.35-6.178-2.28-1.993-.96-3.644-2.616-5.634-3.404-2.055-.813-4.392-.733-6.438-1.377-2.104-.663-3.978-2.064-6.067-2.558a6.9 6.9 0 00-1.571-.157c-.754 0-1.518.071-2.263.071-.43 0-.853-.024-1.264-.098-1.666-.298-3.2-1.393-4.846-1.595a5.336 5.336 0 00-.663-.04c-1.343 0-2.717.423-4.04.423-.128 0-.257-.003-.386-.012-1.687-.117-3.328-1.043-4.987-1.074h-.07c-1.51 0-3 .84-4.482.884h-.123c-1.392 0-2.806-.638-4.177-.638a4.67 4.67 0 00-.295.01c-1.53.11-2.963 1.103-4.456 1.275-.187.021-.374.03-.565.03-1.113 0-2.263-.318-3.361-.318-.236 0-.473.015-.706.052-2.454.383-4.693 1.684-7.024 2.2-2.438.539-5.012.309-7.297.96-2.42.686-4.49 2.241-6.714 3.008-2.405.831-4.993.893-7.143 1.767-1.933.785-3.417 2.365-5.123 3.144-1.944.89-4.107.99-5.726 1.816-2.018 1.03-3.365 2.745-4.825 3.579-3.245 1.859-5.502 2.377-5.524 2.392-.893.626-.399 1.329-1.291 1.954-.34.24-.623.285-.89.285-.165 0-.328-.018-.494-.018-.267 0-.549.046-.89.285-.892.626-.398 1.328-1.29 1.954a.73.73 0 01-.08.052c.03-.009.061-.015.089-.024.129-.028.245-.04.35-.04.662 0 .941.463 1.604.463.104 0 .22-.012.35-.04 1.06-.227.883-1.064 1.947-1.291.129-.028.242-.04.35-.04.662 0 .941.463 1.604.463.104 0 .22-.012.35-.04 1.576-.334 3.03-1.469 4.659-1.724.266-.04.536-.058.81-.058 1.162 0 2.37.304 3.545.304.206 0 .408-.01.61-.03 1.617-.176 3.172-1.17 4.804-1.277.107-.006.214-.009.322-.009 1.472 0 2.978.629 4.447.629h.163c1.87-.062 3.723-.939 5.573-.939h.012c1.89.003 3.742.896 5.583.957l.223.003c1.7 0 3.402-.607 5.037-.607.123 0 .245.003.368.012 1.917.117 3.72 1.11 5.518 1.264.064.006.129.01.196.01.966 0 1.963-.575 2.886-.575.068 0 .135.004.203.01 1.101.11 2.08 1.076 3.107 1.193.089.01.18.015.273.015.935 0 1.899-.497 2.767-.497.085 0 .171.007.254.016 1.129.144 1.715.66 2.709.8-1.059.371-1.482 1.218-2.463 1.641-1.034.448-2.39.144-3.335.629-1.009.518-1.549 1.803-2.45 2.346-.985.592-2.371.47-3.224 1.059-.938.647-1.395 2.098-2.365 2.926-.93.791-2.42.997-3.285 1.822-.954.91-1.233 2.404-1.99 3.186-1.503 1.552-3.26.553-3.23 2.38.006.356.11.488.288.488.497 0 1.574-.996 2.794-1.052h.05c.736 0 1.631.743 2.588.743h.077c.828-.034 1.693-.927 2.644-.964h.049c.825 0 1.718.761 2.607.761h.052c1.672-.055 3.411-.966 5.184-1.006h.129c1.696 0 3.413.773 5.055.773h.042c1.816-.015 3.558-.834 5.12-.834h.095c2.162.046 3.91 1 5.128 1.175.025.003.046.006.07.006.47 0 1.025-.632 1.467-.632.024 0 .046 0 .067.006.51.083.86 1.009 1.328 1.092.031.006.059.006.09.006.466 0 1.024-.586 1.453-.586.028 0 .055 0 .083.006.515.102.662.282 1.12.38-1.945 1.047-3.298 2.908-5.07 4.175-1.807 1.291-4.058 2.003-5.678 3.435-1.684 1.488-2.672 3.647-4.14 5.19-1.584 1.663-3.678 2.764-4.994 4.371-.617.755-.537 2.03-1.095 2.754-.601.779-1.856 1.028-2.386 1.758-.59.813-.436 2.083-.936 2.813-.586.855-1.822 1.174-2.279 1.892-.359.561-.101 1.804-.616 2.699-.418.724-1.608 1.089-2.04 1.865-.451.81-.138 2.018-.519 2.715-.73 1.337-2.972 2.426-1.662 2.53.104.009.202.012.297.012 1.939 0 1.396-1.751 3.672-2.871 1.255-.616 3.061-.543 4.515-1.239 1.42-.681 2.494-2.135 3.803-2.733 1.767-.806 3.62-.675 4.555-1 1.129-.389 2.442-1.647 4.175-2.085.448-.114.926-.145 1.42-.145.6 0 1.224.046 1.834.046.485 0 .963-.027 1.42-.131 1.58-.356 2.95-1.525 4.319-1.804 2.248-.46 3.696-.561 4.226-.626-1.03 1.028-1.171 2.586-1.929 3.752-.803 1.239-2.218 2.116-2.757 3.358-.623 1.433-.286 3.101-.626 4.307a63.105 63.105 0 00-.99 3.944c-.228.003-.47.006-.728.006-2.147 0-3.239-.123-4.294-.239-1.058-.117-2.153-.239-4.303-.239s-3.245.122-4.303.239c-1.056.116-2.147.239-4.295.239-2.147 0-3.239-.123-4.294-.239-1.058-.117-2.15-.239-4.303-.239-1.08 0-1.629.122-2.16.239-.524.116-1.07.239-2.14.239s-1.614-.123-2.141-.239c-.53-.12-1.08-.239-2.16-.239s-1.625.122-2.156.239c-.524.116-1.07.239-2.138.239-1.067 0-1.613-.123-2.137-.239-.531-.12-1.08-.239-2.16-.239s-1.626.122-2.156.239c-.525.116-1.07.239-2.138.239-1.067 0-1.613-.123-2.138-.239-.53-.12-1.076-.239-2.156-.239h-.037-.03-.013c-.043 0-.14.033-.356.098-.45.141-1.294.399-2.377.598-.294.055-.625.058-.975.064-.583.01-1.242.022-1.85.279-.494.209-.901.608-1.33 1.031-.274.267-.553.543-.866.776-.254.19-.546.35-.856.515-.533.289-1.088.589-1.493 1.086-.329.405-.5.93-.681 1.485-.123.377-.252.767-.436 1.135-.153.303-.365.592-.592.898-.346.47-.702.954-.88 1.543-.077.295.012.476.101.65.083.166.163.325.101.586-.06.264-.202.371-.35.482-.153.116-.309.233-.38.527-.067.295.022.473.108.641.083.166.162.319.101.586-.061.264-.203.368-.347.482-.153.116-.31.233-.38.527-.067.295.021.47.107.641.083.166.163.319.102.586-.059.249-.218.368-.375.482-.18.132-.365.27-.358.595v.092l.07-.062c.055-.052.12-.107.187-.171.264-.243.592-.543.859-.697.16-.092.38-.067.614-.039.217.024.441.049.622-.025.181-.074.325-.251.463-.423.144-.181.282-.353.457-.405.187-.055.414.015.635.083.215.067.417.129.595.089.224-.052.408-.221.583-.387.153-.144.3-.279.445-.303.23-.037.408-.102.549-.154.135-.049.239-.086.285-.058.037.024.052.11.052.258-.003.539.034.868.065 1.156.049.445.085.764-.059 1.579-.116.669-.294.988-.466 1.298-.175.316-.356.641-.475 1.322-.12.681-.059 1.049 0 1.405a3.54 3.54 0 010 1.377 3.529 3.529 0 01-.466 1.294c-.175.316-.356.641-.476 1.322s-.058 1.049 0 1.405c.058.347.117.709 0 1.377-.092.534-.436.994-.736 1.402-.298.402-.555.748-.485 1.061.04.175.181.322.427.451 1.496.785 2.263.491 3.233.12.656-.252 1.401-.537 2.54-.537h.033c1.414.006 2.135.132 2.828.255.7.122 1.42.248 2.843.254h.123c1.34 0 2.043-.113 2.724-.227.674-.11 1.374-.224 2.708-.224h.123c1.414.006 2.131.132 2.828.255.699.122 1.42.248 2.84.254h.123c1.34 0 2.042-.113 2.72-.227.675-.11 1.374-.224 2.709-.224h.122c1.414.007 2.132.132 2.825.255.7.123 1.42.249 2.843.255.32 0 .632-.145.933-.283.27-.125.528-.242.788-.263.27-.022.561.058.84.135.317.086.642.178.945.122.32-.055.602-.257.874-.454.227-.162.464-.334.712-.408.252-.073.543-.061.825-.049.338.016.684.031.976-.098.294-.129.515-.395.733-.653.18-.215.368-.439.592-.574.214-.132.45-.184.674-.233.27-.058.55-.119.804-.319l.129.022c.12.015.14.018.153.165.01.095-.092.157-.196.224-.117.074-.248.157-.236.301.012.147.16.205.285.254.117.046.224.089.233.184.01.096-.092.157-.196.224-.117.074-.252.157-.236.301.012.147.16.205.285.254.116.047.224.089.233.185.01.095-.077.242-.153.377-.09.153-.157.273-.117.349.012.022.037.05.095.056 1.546.129 2.273-.025 3.046-.187.675-.142 1.374-.292 2.678-.292 1.42 0 2.144.123 2.843.239.702.117 1.43.24 2.856.24s2.153-.123 2.855-.24c.7-.116 1.42-.239 2.843-.239 1.424 0 2.144.123 2.844.239.702.117 1.43.24 2.855.24 1.427 0 2.153-.123 2.856-.24.7-.116 1.42-.239 2.84-.239s2.144.123 2.844.239c.702.117 1.429.24 2.855.24 1.739 0 2.623-.123 3.478-.24.853-.116 1.733-.239 3.466-.239s2.614.123 3.466.239c.856.117 1.739.24 3.478.24 1.74 0 2.623-.123 3.479-.24.852-.116 1.733-.239 3.466-.239s2.613.123 3.466.239c.855.117 1.739.24 3.478.24s2.622-.123 3.478-.24c.853-.116 1.733-.239 3.466-.239s2.613.123 3.466.239c.856.117 1.739.24 3.478.24 1.512 0 2.282-.123 3.028-.24.742-.116 1.506-.239 3.015-.239 1.509 0 2.273.123 3.015.239.745.117 1.512.24 3.027.24 1.515 0 2.282-.123 3.028-.24.742-.116 1.506-.239 3.012-.239s2.272.123 3.012.239c.742.117 1.512.24 3.027.24 1.515 0 2.282-.123 3.027-.24.743-.116 1.506-.239 3.012-.239 1.193 0 2.092.414 2.887.779.601.279 1.138.525 1.683.525.546 0 1.071-.239 1.681-.92 1.08-1.209.402-1.933-.457-2.853-.567-.607-1.208-1.294-1.518-2.279-.393-1.245-.478-1.917-.558-2.564-.083-.653-.166-1.328-.562-2.58-.395-1.254-.711-1.855-1.021-2.435-.307-.577-.619-1.175-1.015-2.423-.393-1.245-.479-1.917-.558-2.564-.083-.651-.166-1.325-.562-2.58-.395-1.254-.711-1.852-1.018-2.435a18.268 18.268 0 01-.298-.583c1.691.245 2.945.767 4.037.767h.126c.993 1.279 1.273 1.132 1.8 2.662.528 1.534-.282 1.813.246 3.343.527 1.531 1.337 1.252 1.864 2.785.528 1.534-.641 2.135.301 3.454.04.055.074.083.101.083.181 0 .135-1.049.341-1.448.236-.46 1-.07 1.236-.53s-.525-.853-.289-1.313c.237-.46 1-.071 1.237-.531.963-1.874.944-4.049 1.539-5.858.654-1.988 1.933-3.742 2.199-5.644.286-2.052-.49-4.085-.588-6.027l-.016-.009zm-85.401-5.849c0 .711.184 1.616-.046 2.509-.245.954-1.306 1.843-1.484 2.959-.092.583.101 1.209.276 1.835-.49-.04-.911-.086-1.328-.132-1.058-.117-2.153-.239-4.307-.239-2.153 0-3.245.122-4.303.239-.794.089-1.607.178-2.877.218.81-.7.623-1.341 2.264-2.298 1.043-.607 2.671-.549 3.923-1.242 1.171-.647 1.987-2.055 3.153-2.65 1.322-.672 2.935-.488 4.002-.914.043-.015-.128-.868.043-.933h.01c.116 0 .5.675.631.675h.013c.009-.003.018-.012.024-.027h.006zm11.45 7.189c-.095.117-.181.224-.355.224-.175 0-.264-.11-.356-.224-.098-.119-.209-.254-.424-.254-2.153 0-3.245.122-4.303.239-.742.083-1.506.169-2.641.211.687-.254 1.374-.484 1.939-.849 1.316-.853 2.181-2.31 3.343-2.899 1.712-.865 3.282-.65 4.083-1.015-.166.442.15.69.021 1.362-.107.543-1.046 1.003-1.123 1.61-.064.503.506 1.074.651 1.586-.095-.117-.206-.242-.411-.242-.206 0-.325.135-.424.254v-.003zm25.793.224c-1.108 0-1.672-.123-2.218-.239-.549-.12-1.116-.239-2.236-.239-1.119 0-1.684.122-2.233.239-.546.116-1.107.239-2.214.239-1.108 0-1.672-.123-2.218-.239-.549-.12-1.116-.239-2.233-.239-1.116 0-1.684.122-2.233.239-.546.116-1.107.239-2.214.239-1.108 0-1.672-.123-2.218-.239-.549-.12-1.117-.239-2.233-.239a.476.476 0 00-.138.021c.215-.116.466-.233.767-.353 1.162-.463 2.843-.101 4.57-.469 1.316-.279 2.678-1.35 4.343-1.481.086-.007.175-.01.264-.01 1.31 0 2.745.715 4.27.752.11 0 .217.003.325.003 1.88 0 3.659-.399 5.3-.399.368 0 .727.022 1.079.068 2.025.279 3.746 1.251 5.429 1.874-.797.03-1.275.132-1.736.23-.546.116-1.107.239-2.217.239l-.006.003z" fill="#FFD200"></path><path d="M162.791 85.671C102.023 7.847 20.281 64.302 20.281 64.302c27.642-5.88 63.906 1.371 63.906 1.371-16.465 2.156-26.857 13.92-26.857 13.92 21.956-2.746 38.224 2.548 38.224 2.548-19.799 7.843-32.54 31.562-32.54 31.562 17.839-9.607 35.678-9.8 35.678-9.8-8.233 5.291-10 13.916-10 13.916 8.037-5.49 17.054-7.643 17.054-7.643-3.723 4.312-4.508 12.545-4.508 12.545 1.96-4.706 17.642-10.585 17.642-10.585-3.331 2.938-3.723 6.861-3.723 6.861s14.701-5.684 32.147 1.175a109.767 109.767 0 008.086 2.819h-9.251l-.859 4.959-3.291-4.959h-9.239l-.248 1.423c-1.227-.801-2.926-1.423-5.248-1.423H115.169l-1.389.469c-.872.285-1.878.745-2.933 1.472l-.61-1.938h-75.92s-8.515.558-11.143 9.345c0 0 2.49-1.631 3.668-1.631 0 0-1.632 1.539-2.129 2.898 0 0 2.175-1.132 4.2-.853l-2.85 16.438h28.139c1.104.303 2.316.457 3.631.457 3.479 0 6.515-1.126 9.03-3.347a13.665 13.665 0 002.23-2.53l.479 5.417h70.911l.831-4.794 3.368 4.794h32.651l-7.19-22.805c5.19.797 8.334.843 8.334.843l3.134 9.018c14.901-29.013-18.817-50.576-18.817-50.576l-.003.003z" fill="#002B5C"></path><path d="M42.865 57.701s70.997-32.288 116.478 31.246c0 0 27.774 19.615 22.044 37.148 0 0-.693-4.166-2.082-7.813-1.39-3.644-22.219-21.004-43.224-24.648l3.298 10.067.693-6.076s10.416 13.888 35.239 23.608c0 0-1.911 3.472-18.4-2.258-16.493-5.726-22.915-8.158-30.553-6.941 0 0 5.555-4.515 13.886-3.3 0 0-9.72-4.862-28.817 1.736 0 0 5.033-5.38 11.109-6.076 0 0-8.505-2.258-25.17 5.726 0 0 9.374-9.201 18.055-10.416 0 0-19.79-3.472-40.445 4.34 0 0 7.637-14.06 35.411-23.955 0 0-18.575-5.901-42.183-4.861 0 0 15.103-9.027 32.46-7.984 0 0-19.443-12.15-57.805-9.549l.006.006z" fill="#004B8D"></path><path d="M139.047 75.976c-.162.055-5.944 2.43-3.647 7.024 2.012 4.024 9.552 2.981 9.908-2.233" fill="#FFD200"></path><path d="M142.983 78.697l-2.681-3.218-2.187 3.126s-1.095 1.404-.157 2.656c.939 1.251 1.875 2.033 3.908 1.095 2.034-.939 1.12-3.66 1.12-3.66h-.003z" fill="#002B5C"></path><path d="M139.857 76.51c-.116.04-4.22 1.72-2.616 5.042 1.601 3.322 6.564 2.11 7.11-1.6.546-3.712-.816-1.04-.816-1.04s-1.414 4.665-4.242 2.922c-2.512-1.549-.059-4.772 2.012-4.226 2.07.549-1.445-1.095-1.445-1.095l-.003-.003z" fill="#E31937"></path><path d="M125.346 69.906s5.889 2.733 12.155 6.69c-3.217-.491-8.051-1.13-11.532-1.16 0 0 7.06 1.978 8.928 4.93 0 0 .322-2.856 3.236-3.366 2.227 1.43 4.478 3.01 6.509 4.666.12 1.282-.414 2.542-2.432 3.297-5.417 2.034-7.852-3.07-7.852-3.07 1.303 7.45 8.569 5.895 10.861 4.226.99-.72 1.343-1.766 1.426-2.72 1.644 1.515 3.049 3.076 4.036 4.634 0 0 1.12-13.818-25.335-18.124v-.003z" fill="#002B5C"></path><path d="M140.943 78.88s-1.617.65-1.672 1.636c0 0-.849-1.338.577-2.414l1.095.779z" fill="#fff"></path><path d="M97.67 56.784l-.199.077-9.033 3.825c-10.416-2.856-16.305-4.239-37.475-4.423 14.422-4.705 27.687-6.306 44.542-4.616L85.17 56.373l12.5.411z" fill="#002B5C"></path><mask id="aja" style="mask-type:luminance" maskUnits="userSpaceOnUse" x="50" y="50" width="48" height="11"><path d="M97.67 56.784l-.199.077-9.033 3.825c-10.416-2.856-16.305-4.239-37.475-4.423 14.422-4.705 27.687-6.306 44.542-4.616L85.17 56.373l12.5.411z" fill="#fff"></path></mask><g mask="url(#aja)" fill="#004B8D"><path d="M96.195 46.046l-.224-.196-.564.64-.04.044-.08-.056-.018.022-.966-.693.012-.013-.212-.208-.043.043-.15-.107-.172.242 1.338.957-.276.313-1.135 1.288-3.638-2.435.442-.504-.224-.196-.028.03-.04-.036L89 46.518l-.935-.671.57-.592-.214-.206-.598.623-1.013-.724-.018.024-.037-.024-.172.242 2.236 1.605-.555.628-3.092-2.049.212-.242-.224-.196-.064.073-.083-.073-1.758 1.99-.736-.527 1.206-1.267-.215-.206-1.233 1.298-.73-.524.506-.531-.215-.206-.533.562-.715-.513v.007l-.01-.003-.174.239 2.64 1.926-.49.555-2.859-1.88.528-.598L80 45.06l-.12.135-.131-.12-.847.955-.623-.451.154-.184-.227-.19-.166.199-.23-.166-.034.046-.049-.036-.175.239 1.178.85-.77.864-2.159-1.717-.184.233 2.147 1.708-.745.838-2.656-2.114.236-.263-.221-.197-.04.046-.037-.033-1.043 1.174-.622-.45.187-.228-.23-.19-.2.243-.205-.148-.074.099-.086-.065-.178.236 1.15.862-.585.66-1.831-1.436-.184.233 1.816 1.423-.617.694-2.521-1.979-.184.233 2.509 1.967-.562.631-2.708-1.96.45-.521-.223-.193-.12.14-.092-.082-.454.512-.343-.248-.068.092-.073-.052-.175.239.417.303-.426.479-.997-.669-.166.246.963.644-.662.745-1.687-1.129-.166.246 1.653 1.104-.54.607-2.128-1.542-.024.033-.025-.015-.175.24.236.17-2.39 2.482.216.206 2.417-2.512.779.564-2.423 2.518-.63-.454-1.091-.791 1.402-1.577-.221-.196-.065.07-.036-.033-.525.589-.31-.206-.165.249.276.184-.559.629-.763-.556-.025.034-.021-.015-.138.19-.09-.083-2.539 2.647-.779-.564-.019-.015.62-.645-.215-.205-.647.675-.254-.184-.175.239.95.69 1.274.92-.065.074.025.015-.795.893-2.647-2.141-.187.23 2.638 2.132-.975 1.098.22.196 1.988-2.236 1.72 1.245-.812.976.227.19.825-.99.736.533-.328.368.22.196.035-.037.049.046.383-.43.776.565.175-.239-.69-.5 2.374-2.668.81.585-2.448 2.55.215.205 2.478-2.58.779.565-1.945 2.024.215.206 1.972-2.053.598.433-1.39 1.561.222.197.015-.016.022.019.585-.66 1.123.89.184-.234-1.11-.88.564-.632 2.846 2.062.099-.138.134.12.028-.035.046.043.439-.5 1.175.773.162-.248-1.14-.752.6-.683 2.791 2.033.016-.021.046.033.113-.16.169.151.04-.046.07.065.592-.672 1.626 1.08.162-.249-1.591-1.055.64-.727L78.1 58.72l-.114.129.224.196.04-.046.073.064.89-1.009 1.061.76-.353.36.212.208.383-.392.939.671.043-.06.129.091.172-.242-2.295-1.644.51-.58 3.637 2.435-.132.15.224.197.99-1.126.77-.874.077.055.804.577-1.371 1.426.215.206 1.398-1.46.853.61-.883.92.214.206.911-.95.684.49-.438.497.224.196.426-.485 1.123.804.027-.04.08.058.172-.242-.157-.113 2.157-2.647.723.521-1.975 2.423.23.187 1.988-2.438.705.506.013-.015.171-.24-2.56-1.837.603-.684 2.534 1.975.18-.233-2.517-1.963.273-.31-.224-.196-1.092 1.24-.804-.577.27-.283-.215-.205-.3.313-.353-.255-.055.077-.09-.065-.17.243 1.517 1.089-.665.754L87.6 56.14l-.181.233 2.588 1.994-.64.73-2.798-2.175.482-.552-.224-.196-1.282 1.46-.022.025-.076-.059-.967-.693 2.411-2.463.982.706.012-.016h.006l.028-.037.076.056.059-.065 2.352-2.671 1.96 1.282.016-.025v-.018l.18-.215-1.861-1.211.582-.663 2.11 1.442.182-.233-2.095-1.433.653-.739 2.485 1.718.18-.233-2.472-1.709.565-.641L94.37 50.8l.028-.04.015.013.172-.243-1.466-1.049.018-.021-.077-.055 2.227-2.528.884.632-2.332 2.43.215.205 2.362-2.46.853.61-.973 1.013.215.205 1.003-1.043.209.15.015-.024.01.006.17-.242-2.333-1.675.583-.662.027.024zm-17.1 11.563l-.852-.61 2.355-2.445-.214-.205-2.387 2.475-.901-.647 2.389-2.478 1.957 1.401-2.264 2.568-.083-.059zm-4.432-2.77l-2.346 2.47-.81-.58 2.34-2.463.813.577.003-.003zm-7.92.985l-.567-.41 2.31-2.599.81.586-2.457 2.617.214.205 2.488-2.647.782.565-2.423 2.518-1.156-.838v.003zm-2.06-4.349l.616-.693 1.797 1.3.963.697-1.325 1.49-2.846-1.898.595-.669 2.984 2.043.166-.249-2.947-2.021h-.004zm7.468 2.209l-2.843-1.902.524-.592 2.844 1.902-.525.592zm-3.043-1.681l2.844 1.901-.54.608-2.76-1.997.456-.512zm3.767.865l-2.843-1.902.647-.73 2.76 1.997-.564.635zm4.76.45l-2.858-1.88.536-.61 2.804 1.944-.482.547zm.669-.834l-.7-.503 2.32-2.438-.142-.135.813.564-2.291 2.512zm-.945-.678l-.745-.533 2.325-2.448.758.524-2.335 2.457h-.003zm-.99-.708l-.838-.601 2.251-2.473.908.63-2.321 2.444zm-1.792.564l2.859 1.88-.641.727-2.856-1.877-.162.249 2.819 1.855-.666.755-2.767-1.985 1.411-1.6.003-.004zm3.825 1.26l.838.602-2.39 2.478-.712-.512 2.264-2.57v.003zm.304-.208l.509-.58 3.092 2.05-.602.68-3.002-2.153.003.003zm.708-.806l.641-.727 3.092 2.049-.64.726-3.093-2.049zm3.933 1.098l-3.092-2.05.665-.754 3.003 2.153-.573.654-.003-.003zm3.009-3.485l-2.264 2.57-.936-.671 2.356-2.445-.215-.205-2.386 2.475-.902-.647 2.39-2.478 1.957 1.401zm-2.2-1.58l-2.39 2.479-.71-.512 2.263-2.57.837.6v.004zm-10.474 3.957l-1.721-1.245 2.162-2.638.782.568-2.14 2.61.23.187 2.153-2.626.81.586-2.276 2.558zm.199-4.06l-2.162 2.637-.672-.485 2.23-2.588.604.435zM69.44 49.22l-2.135 2.598.23.19 2.14-2.607.795.595-2.254 2.533-1.72-1.245 2.17-2.641.77.58.004-.003zm-3.184 1.886l-.736-.53L67.81 48l.62.463-2.175 2.644zm-2.567 1.488l2.846 1.898-.558.629-2.76-1.997.472-.53zm6.873 1.723l.623.451-2.31 2.598-.733-.53 2.423-2.519h-.003zm14.38-2.659l3.637 2.435-.604.684-3.546-2.542.51-.58.003.003zm.196-.227l.64-.727 5.203 3.54.166-.246-5.172-3.518.666-.754 3.545 2.543-1.41 1.6-3.638-2.435v-.003zm1.776-1.88l2.263-2.57 1.065.76-2.377 2.43.211.208 2.411-2.46 1.104.791-2.41 2.464-2.264-1.623h-.003zm-.292-.267l-3.002-2.153.509-.58 3.091 2.05-.6.68.002.003zM62.68 53.251l-.659.742-2.638-2.092.565-.635.395.286 2.34 1.696-.003.003zm-5.122.705l.727-.815 2.85 2.245.184-.233-2.834-2.236.702-.792 2.638 2.092-1.53 1.72-.599-.432-2.138-1.549zm15.281-.408l.764.543-2.34 2.463-.727-.521 2.303-2.485zm-.279 3.936l2.319-2.439-.209-.2.887.63-2.245 2.549-.752-.537v-.003zm17.925-5.405l-.021.04-.077-.073-.966-.694 2.41-2.463.816.586-.018.022.077.055-1.767 2.009-.457.518h.003zm2.981-3.53l-.604.684-3.546-2.543.51-.58 3.637 2.436.003.003zm-5.401-.899l-.641.727-3.092-2.049.641-.727 3.092 2.05zm-5.711.313l-.641.727-2.856-1.877-.162.248 2.818 1.856-.662.755-2.767-1.985 1.411-1.604 2.859 1.88zm-5.54.528l-.589.66-2.76-1.998.69-.776 2.656 2.114h.003zM64.57 49.978l.623.451-2.31 2.598-.733-.53 2.423-2.519h-.003zm-5.438.61l.598.433-2.374 2.669-.712-.516 2.485-2.588.003.003zm16.081 5.868l.666-.754 3.003 2.153-.574.653-3.092-2.049-.003-.003zm5.012.555l.641-.727 3.76 2.51.166-.246-3.727-2.487.666-.755 3.546 2.543-.88 1-.531.6-3.638-2.434-.003-.004zm9.413 3.601l-.68-.487 2.263-2.57.574.41-2.157 2.647zm-.444-1.27l-.494.559-2.89-2.07.586-.663 2.798 2.175zm-4.933-2.585l-1.745-1.252-.515-.37 2.264-2.571 1.06.76-2.45 2.513.212.208 2.481-2.543 1.104.792-2.41 2.463z"></path><path d="M93.388 55.708l-.183.234 2.57 2.002.182-.235-2.57-2.001zM95.771 55.42l-.229.28.23.188.23-.28-.23-.189zM97.652 55.401l-.006-.006-.218-.19-.104.12-.037.042.172.15.049.047h.003l.049-.059.092-.104zM95.165 55.527l-.047-.03-.171.242 1.313.941.03-.04.003.007.175-.243-1.276-.914-.027.037zM56.643 56.398l.227.19 1.51-1.816-.23-.19-1.507 1.816zM55.422 56.693l.188-.234-3.034-2.45.776-.874-.22-.197-.032.034-.015-.012-1.898 2.134-.623-.447.178-.218-.227-.19-.193.233-.046-.034-.031.043-.022-.015-.174.239.941.684-.613.687.224.196.015-.018.022.018.647-.727.678.491-.234.252.23.19.255-.11.163-.031.055.003.601.306.175-.242-1.706-1.19.875-.984 3.045 2.463z"></path></g><path fill-rule="evenodd" clip-rule="evenodd" d="M76.316 73.43s9.904-4.592 25.437-4.907c15.532-.316 19.949 2.137 19.949 2.137l-7.38 8.521s-13.919-5.328-38.006-5.75z" fill="#002B5C"></path><path d="M112.27 77.942c.764.503 2.543-.843 3.969-3.012 1.427-2.169 1.967-4.337 1.2-4.84-.764-.503-2.543.846-3.969 3.012-1.427 2.168-1.966 4.337-1.2 4.84zM107.651 76.307c.828.546 2.515-.552 3.767-2.454 1.251-1.901 1.595-3.886.767-4.435-.829-.546-2.516.552-3.767 2.454-1.251 1.902-1.595 3.89-.767 4.435zM102.59 75.056c.828.546 2.374-.34 3.454-1.979 1.08-1.638 1.282-3.41.454-3.956-.828-.546-2.374.34-3.454 1.978-1.079 1.638-1.282 3.41-.454 3.957zM98.121 74.36c.672.441 1.917-.261 2.782-1.577.865-1.313 1.022-2.736.35-3.18-.672-.445-1.917.26-2.782 1.573s-1.021 2.736-.35 3.18v.004zM94.336 73.62c.574.378 1.552-.095 2.187-1.06.635-.964.684-2.053.11-2.43-.573-.377-1.551.095-2.186 1.061-.635.963-.684 2.052-.11 2.43zM91.097 72.835c.454.298 1.12.083 1.491-.481.371-.565.307-1.264-.147-1.562-.451-.297-1.12-.082-1.49.482-.372.564-.308 1.264.146 1.561zM88.205 72.706c.362.24.88.095 1.156-.325.276-.417.206-.95-.16-1.19-.361-.24-.88-.095-1.155.325-.277.417-.206.951.159 1.193v-.003zM86.08 72.528c.254.169.585.117.736-.113.153-.23.07-.555-.188-.724-.254-.169-.585-.117-.736.114-.153.233-.07.555.187.723zM84.359 72.74c.22.144.494.12.61-.058.117-.178.034-.439-.187-.583-.22-.144-.494-.12-.61.058-.117.178-.034.439.187.583z" fill="#004B8D"></path><path fill-rule="evenodd" clip-rule="evenodd" d="M113.405 81.046s-23.464 7.42-34.561 20.139c0 0 18.2-6.824 38.429-2.573l-3.868-17.566z" fill="#002B5C"></path><mask id="ajb" style="mask-type:alpha" maskUnits="userSpaceOnUse" x="78" y="81" width="40" height="21"><path d="M113.405 81.046s-23.16 7.128-34.561 20.139c0 0 20.81-7.106 38.558-2.193l-3.997-17.946z" fill="#000"></path></mask><g mask="url(#ajb)" fill="#004B8D"><path d="M99.499 102.4L85.487 89.515l-1.251 6.962-.482-.086 1.408-7.836 14.665 13.486-.332.359h.004zm.806-.491L98.541 84.84l15.413 13.327-.144-1.423-1.343-13.643 9.907 12.815-.387.298-8.87-11.472 1.442 14.594-15.41-13.324 1.638 15.842-.485.049.003.006z"></path><path d="M97.704 103.093l-9.882-8.659-1.065 5.942-.481-.086 1.22-6.791 10.53 9.226-.322.368z"></path><path d="M96.146 103.691l-7.45-6.389-1.175 5.73-.478-.095 1.34-6.546 8.079 6.929-.316.371zM98.109 98.186L87.53 87.71l.344-.346 9.551 9.456-1.665-11.766.484-.068 1.865 13.199z"></path><path d="M96.082 93.683l-7.184-6.374.322-.365 6.208 5.503-.929-7.012.485-.064 1.098 8.312zM102.464 101.09l-1.533-11.735 12.49 9.81-.301.382-11.548-9.07 1.377 10.549-.485.064z"></path><path d="M103.915 100.541l-1.346-8.809 8.281 7.355-.325.365-7.269-6.456 1.141 7.472-.482.073z"></path><path d="M105.121 100.09l-1.181-5.947 4.453 4.64-.352.338-3.298-3.435.856 4.31-.478.094zM111.721 93.594L99.719 84.04l.304-.384 11.171 8.892-.479-12.137.488-.021.518 13.204z"></path><path d="M110.194 89.947l-8.23-6.588.304-.38 7.328 5.864-.746-7.751.485-.046.859 8.901z"></path><path d="M108.712 87.414l-5.281-4.503.316-.371 4.34 3.702c-.144-1.27-.473-4.122-.568-4.733l.482-.076c.126.8.619 5.183.638 5.367l.067.614h.006z"></path><path d="M107.667 85.558l-2.776-3.12.365-.325 1.616 1.82-.383-2.111.478-.086.7 3.822zM115.611 100.195l-1.071-11.699 4.215 6.371-.408.27-3.144-4.751.895 9.766-.487.043z"></path><path d="M116.687 100.158l-.791-7.475 2.043 2.47-.378.312-1.009-1.22.62 5.861-.485.052zM113.029 80.73l-.385.299 9.884 12.751.385-.299-9.884-12.751zM81.258 101.038l-.454-.181 1.5-3.751 3.033 2.485.97-5.592.48.086-1.11 6.413-3.165-2.591-1.254 3.131z"></path><path d="M82.604 100.741l-.478-.099.438-2.131 1.568 1.622-.35.341-.926-.96-.252 1.227zM85.03 98.56l-1.886-1.782.334-.353 1.212 1.144.426-2.724.482.074-.568 3.64z"></path></g><path fill-rule="evenodd" clip-rule="evenodd" d="M123.15 71.302l-8.153 9.48 3.981 17.349 18.582 5.499-3.319-11.566s7.585.567 13.747 3.696l9.953-6.067-7.3.19s-2.466-3.034-3.413-3.414c0 0-12.515 8.438-15.358-6.634 0 0-5.214-3.32-9.763-4.267 0 0 1.233-1.705 7.49-1.328 0 0-4.361-2.466-6.447-2.938z" fill="#002B5C"></path><mask id="ajc" style="mask-type:luminance" maskUnits="userSpaceOnUse" x="114" y="71" width="44" height="33"><path d="M123.15 71.302l-8.153 9.48 3.981 17.349 18.582 5.499-3.319-11.566s7.585.567 13.747 3.696l9.953-6.067-7.3.19s-2.466-3.034-3.413-3.414c0 0-12.515 8.438-15.358-6.634 0 0-5.214-3.32-9.763-4.267 0 0 1.233-1.705 7.49-1.328 0 0-4.361-2.466-6.447-2.938z" fill="#fff"></path></mask><g mask="url(#ajc)" fill="#004B8D"><path d="M131.206 80.206l-1.323 3 .306.135 1.322-3-.305-.135zM132.408 80.668l-1.322 3 .306.135 1.322-3-.306-.135z"></path><path d="M132.241 84.506l-3.61-1.785 1.659-3.343 3.61 1.785-1.659 3.343zm-3.159-1.935l3.009 1.487 1.362-2.739-3.009-1.487-1.359 2.739h-.003z"></path><path d="M132.76 82.971l-.161.296 2.87 1.567.161-.296-2.87-1.567zM133.376 81.989l-.161.296 2.87 1.567.161-.296-2.87-1.567z"></path><path d="M135.296 85.938l-3.337-1.65 1.629-3.279 3.337 1.65-1.629 3.28zm-2.886-1.803l2.736 1.352 1.328-2.677-2.736-1.353-1.328 2.675v.003z"></path><path d="M136.857 82.791l-.309-.125.006-.016.303.141zM128.212 86.244l-1.322 3 .306.135 1.322-3-.306-.135zM129.411 86.703l-1.322 3 .306.135 1.322-3-.306-.135z"></path><path d="M129.244 90.54l-3.61-1.786 1.66-3.343 3.61 1.785-1.66 3.343zm-3.159-1.936l3.009 1.487 1.362-2.739-3.009-1.487-1.362 2.739zM121.236 86.178l-.307-.138 1.331-2.997.307.138-1.331 2.997zM121.107 82.605l-1.334 2.995.306.136 1.333-2.995-.305-.136z"></path><path d="M122.098 86.978l-3.463-1.711 1.659-3.344 3.463 1.712-1.659 3.343zm-3.012-1.865l2.862 1.414 1.361-2.739-2.861-1.414-1.362 2.74zM123.312 84.635l-.158.295 3.612 1.934.158-.294-3.612-1.935z"></path><path d="M122.66 85.596l-.158.295 3.613 1.934.157-.295-3.612-1.934z"></path><path d="M125.923 88.819l-4.104-2.031 1.628-3.279 4.104 2.03-1.628 3.28zm-3.653-2.181l3.502 1.733 1.328-2.678-3.502-1.733-1.328 2.678z"></path><path d="M127.305 81.784l-1.298 3.011.31.134 1.298-3.01-.31-.135zM124.91 84.368l-.306-.132 1.3-3.012.31.132-1.304 3.012z"></path><path d="M127.41 85.843l-4.193-2.073 1.66-3.34 4.19 2.073-1.66 3.34h.003zm-3.742-2.223l3.589 1.775 1.359-2.739-3.589-1.775-1.362 2.739h.003z"></path><path d="M128.52 83.448l-.161.297 3.162 1.711.16-.297-3.161-1.711zM127.893 84.427l-.161.296 3.161 1.712.161-.296-3.161-1.712z"></path><path d="M130.686 87.417l-3.641-1.8 1.629-3.28 3.638 1.801-1.629 3.279h.003zm-3.19-1.954l3.037 1.503 1.328-2.678-3.037-1.502-1.328 2.677zM129.772 89.014l-.162.296 2.87 1.567.162-.296-2.87-1.567zM130.382 88.02l-.161.296 2.869 1.566.162-.296-2.87-1.566z"></path><path d="M132.299 91.972l-3.337-1.65 1.629-3.28 3.337 1.65-1.629 3.28zm-2.886-1.804l2.736 1.353 1.328-2.678-2.736-1.353-1.328 2.678z"></path><path d="M132.831 84.765l-1.344 2.987.305.137 1.344-2.987-.305-.137z"></path><path d="M133.79 89.003l-3.343-1.62 1.656-3.343 3.356 1.604-1.669 3.359zm-2.895-1.776l2.742 1.328 1.368-2.758-2.748-1.316-1.359 2.743-.003.003zM125.194 92.32l-1.322 3 .306.135 1.322-3-.306-.135zM126.393 92.772l-1.327 2.999.308.136 1.327-2.998-.308-.137z"></path><path d="M126.229 96.612l-3.61-1.785 1.66-3.34 3.61 1.785-1.66 3.34zm-3.159-1.935l3.009 1.488 1.362-2.74-3.009-1.487-1.362 2.739zM151.053 87.688l-1.322 3 .306.135 1.322-3-.306-.135zM152.255 88.148l-1.322 3 .306.136 1.322-3-.306-.136z"></path><path d="M152.086 91.984l-3.61-1.785 1.659-3.34 3.611 1.785-1.66 3.34zm-3.159-1.935l3.009 1.487 1.362-2.739-3.009-1.487-1.362 2.739zM128.793 75.25l-1.247 3.053.309.126 1.247-3.052-.309-.127zM130.147 75.82l-1.247 3.052.31.127 1.247-3.053-.31-.126z"></path><path d="M130.195 79.804l-4.048-2.098 1.591-3.386 4.049 2.098-1.592 3.386zm-3.607-2.248l3.451 1.788 1.307-2.779-3.451-1.788-1.307 2.779zM119.372 78.147l-1.369 2.966.303.14 1.369-2.965-.303-.14zM120.485 78.549l-1.37 2.966.304.14 1.369-2.966-.303-.14z"></path><path d="M120.205 82.307l-3.352-1.601 1.699-3.316 3.353 1.601-1.7 3.316zm-2.895-1.755l2.748 1.31 1.393-2.718-2.749-1.312-1.392 2.717v.003zM124.031 76.665l-1.348 2.982.307.14 1.349-2.983-.308-.139zM125.183 77.088l-1.348 2.982.307.139 1.349-2.983-.308-.138z"></path><path d="M124.947 80.877l-3.466-1.68 1.681-3.328 3.466 1.68-1.681 3.328zm-3.012-1.834l2.862 1.39 1.377-2.727-2.862-1.39-1.38 2.727h.003zM113.754 87.67l-.136.305 3.018 1.343.136-.305-3.018-1.344zM113.357 88.766l-.136.305 3.018 1.344.136-.306-3.018-1.343z"></path><path d="M115.92 91.487l-3.37-1.665 1.628-3.28 3.368 1.666-1.629 3.28h.003zM113 89.668l2.767 1.368 1.328-2.677-2.766-1.368L113 89.668zM118.221 92.25l-.307-.137 1.328-2.994.307.135-1.328 2.997zM117.071 91.815l-.307-.135 1.328-2.996.307.135-1.328 2.996z"></path><path d="M119.083 93.051l-3.463-1.711 1.659-3.34 3.463 1.711-1.659 3.34zm-3.012-1.865l2.861 1.414 1.362-2.739-2.861-1.414-1.359 2.74h-.003zM120.287 90.698l-.157.295 3.612 1.934.158-.295-3.613-1.934z"></path><path d="M119.642 91.668l-.158.295 3.612 1.934.158-.294-3.612-1.935z"></path><path d="M122.908 94.892l-4.104-2.03 1.628-3.28 4.107 2.03-1.628 3.28h-.003zm-3.657-2.181l3.503 1.733 1.328-2.678-3.502-1.733-1.329 2.678zM116.843 84.16l-1.568 2.88.293.16 1.569-2.88-.294-.16zM117.758 84.746l-1.568 2.88.293.16 1.569-2.88-.294-.16z"></path><path d="M117.322 88.426l-3.325-1.696 1.617-3.371 3.328 1.696-1.617 3.371h-.003zm-2.88-1.85l2.727 1.393 1.328-2.763-2.727-1.393-1.325 2.763h-.003z"></path><path d="M118.266 86.142l-.138.308 3.092 1.38.138-.308-3.092-1.38zM117.863 87.23l-.137.309 3.092 1.38.137-.308-3.092-1.38z"></path><path d="M120.503 89.993l-3.445-1.702 1.629-3.279 3.444 1.702-1.628 3.28zm-2.997-1.855l2.843 1.404 1.329-2.677-2.844-1.405-1.328 2.678zM123.297 91l-.31-.132 1.304-3.01.307.132-1.301 3.01zM122.887 87.3l-1.298 3.01.31.134 1.298-3.01-.31-.134z"></path><path d="M124.392 91.916l-4.19-2.07 1.66-3.343 4.19 2.07-1.66 3.343zm-3.739-2.223l3.589 1.773 1.362-2.74-3.589-1.772-1.359 2.739h-.003z"></path><path d="M125.493 89.513l-.16.296 3.161 1.711.161-.297-3.162-1.71zM124.874 90.499l-.161.297 3.162 1.71.161-.296-3.162-1.711z"></path><path d="M127.671 93.49l-3.641-1.8 1.629-3.28 3.641 1.801-1.629 3.279zm-3.19-1.95l3.04 1.5 1.328-2.679-3.037-1.502-1.328 2.677-.003.003zM126.754 95.087l-.162.296 2.87 1.567.161-.296-2.869-1.567zM127.365 94.1l-.161.297 2.87 1.566.161-.296-2.87-1.567z"></path><path d="M129.284 98.045l-3.337-1.65 1.629-3.28 3.337 1.65-1.629 3.28zm-2.886-1.8l2.736 1.352 1.328-2.678-2.736-1.352-1.328 2.677z"></path><path d="M129.819 90.84l-1.345 2.99.305.137 1.345-2.99-.305-.138z"></path><path d="M130.769 95.177l-3.304-1.7 1.608-3.38 3.303 1.7-1.607 3.38zm-2.859-1.85l2.706 1.393 1.318-2.773-2.705-1.392-1.319 2.772zM133.828 85.211l-1.344 2.987.305.138 1.344-2.988-.305-.137zM137.15 89.493l-.136.306 2.993 1.33.136-.305-2.993-1.33z"></path><path d="M139.287 93.456l-3.365-1.653 1.607-3.352 3.349 1.64-1.588 3.362-.003.003zm-2.917-1.806l2.76 1.355 1.304-2.754-2.749-1.347-1.315 2.746z"></path><path d="M136.709 90.493l-.136.306 2.993 1.331.136-.305-2.993-1.332zM141.741 87.84l-.136.305 2.994 1.331.135-.305-2.993-1.332z"></path><path d="M143.881 91.8l-3.368-1.653 1.608-3.353 3.349 1.641-1.589 3.362v.003zm-2.92-1.807l2.761 1.356 1.303-2.754-2.748-1.347-1.316 2.745z"></path><path d="M141.307 88.842l-.136.306 2.996 1.332.136-.305-2.996-1.333zM131.37 77.35l-.136.306 2.992 1.332.136-.306-2.992-1.332z"></path><path d="M133.493 81.298l-3.368-1.654 1.607-3.352 3.349 1.641-1.588 3.362v.003zm-2.92-1.807l2.76 1.356 1.304-2.754-2.749-1.347-1.315 2.745z"></path><path d="M130.912 78.338l-.136.305 2.993 1.331.136-.305-2.993-1.331zM119.603 75.372l-.137.305 2.988 1.341.137-.305-2.988-1.341z"></path><path d="M121.76 79.3l-3.358-1.662 1.567-3.297 3.343 1.65-1.552 3.31zm-2.916-1.815l2.757 1.365 1.267-2.702-2.742-1.356-1.279 2.693h-.003z"></path><path d="M119.172 76.353l-.137.305 2.989 1.341.137-.305-2.989-1.341zM117.805 70.485l-.145.301 2.937 1.415.145-.302-2.937-1.414z"></path><path d="M120.101 74.21l-3.316-1.73 1.282-2.902 3.301 1.718-1.267 2.91v.003zm-2.88-1.88l2.718 1.416.996-2.294-2.705-1.408-1.012 2.285h.003z"></path><path d="M117.462 71.336l-.145.302 2.938 1.414.145-.301-2.938-1.415zM154.734 94.397l-.135.306 2.993 1.331.135-.306-2.993-1.33z"></path><path d="M156.865 98.348l-3.365-1.653 1.607-3.352 3.35 1.64-1.589 3.362-.003.003zm-2.92-1.806l2.76 1.355 1.304-2.754-2.748-1.347-1.316 2.746z"></path><path d="M154.285 95.388l-.136.305 2.993 1.332.136-.306-2.993-1.331zM114.98 76.888l-.136.305 2.994 1.332.135-.306-2.993-1.331z"></path><path d="M117.12 80.847l-3.368-1.653 1.607-3.353 3.35 1.641-1.589 3.362v.003zm-2.92-1.807l2.76 1.356 1.304-2.754-2.748-1.347-1.316 2.745z"></path><path d="M114.54 77.885l-.136.305 2.993 1.332.136-.306-2.993-1.331zM124.46 73.02l-3.365-1.654 1.607-3.353 3.349 1.641-1.588 3.362-.003.003zm-2.92-1.81l2.76 1.355 1.304-2.754-2.749-1.347-1.315 2.746z"></path><path d="M121.879 70.057l-.135.306 2.993 1.331.135-.305-2.993-1.332zM143.661 92.58l-.136.305 2.994 1.33.135-.305-2.993-1.33z"></path><path d="M145.798 96.542l-3.365-1.653 1.608-3.353 3.349 1.641-1.589 3.362-.003.003zm-2.917-1.807l2.761 1.356 1.303-2.754-2.748-1.347-1.316 2.745z"></path><path d="M143.221 93.58l-.136.305 2.993 1.331.136-.305-2.993-1.332zM148.185 90.969l-.136.305 2.993 1.331.136-.305-2.993-1.331z"></path><path d="M150.316 94.925l-3.367-1.653 1.607-3.352 3.349 1.64-1.589 3.362v.003zm-2.92-1.81l2.761 1.356 1.303-2.754-2.748-1.347-1.316 2.746z"></path><path d="M147.735 91.961l-.136.306 2.993 1.33.136-.304-2.993-1.332zM112.045 83.062l-.14.304 2.971 1.365.14-.304-2.971-1.365z"></path><path d="M114.233 86.914l-3.346-1.684 1.475-3.169 3.328 1.672-1.46 3.18h.003zm-2.901-1.838l2.745 1.38 1.181-2.57-2.73-1.37-1.193 2.56h-.003zM116.602 81.462l-.14.307 2.981 1.352.139-.307-2.98-1.352z"></path><path d="M118.776 85.368l-3.356-1.672 1.528-3.242 3.337 1.66-1.512 3.254h.003zm-2.911-1.825l2.752 1.371 1.229-2.644-2.739-1.362-1.242 2.635z"></path><path d="M116.187 82.424l-.14.307 2.981 1.352.139-.307-2.98-1.352zM121.269 79.914l-.139.307 2.98 1.352.139-.307-2.98-1.352z"></path><path d="M123.444 83.822l-3.352-1.672 1.527-3.239 3.337 1.66-1.512 3.251zm-2.911-1.825l2.752 1.371 1.227-2.64-2.739-1.363-1.243 2.632h.003z"></path><path d="M120.854 80.882l-.139.307 2.98 1.352.14-.307-2.981-1.352zM150.099 95.705l-.136.306 2.993 1.331.136-.305-2.993-1.332z"></path><path d="M152.236 99.667l-3.364-1.653 1.607-3.352 3.349 1.64-1.589 3.362-.003.003zm-2.92-1.81l2.761 1.356 1.303-2.754-2.748-1.347-1.316 2.746z"></path><path d="M149.655 96.704l-.136.306 2.993 1.331.136-.305-2.993-1.332zM153.186 89.57l-.136.306 2.993 1.332.136-.306-2.993-1.331z"></path><path d="M155.322 93.53l-3.365-1.653 1.608-3.353 3.349 1.641-1.589 3.362-.003.003zm-2.92-1.807l2.761 1.356 1.303-2.754-2.748-1.347-1.316 2.745z"></path><path d="M152.751 90.579l-.135.305 2.993 1.332.135-.306-2.993-1.331zM124.172 73.807l-.136.306 2.993 1.331.136-.306-2.993-1.33z"></path><path d="M126.303 77.761l-3.368-1.653 1.607-3.353 3.35 1.642-1.589 3.361v.003zm-2.92-1.81l2.76 1.356 1.304-2.754-2.748-1.347-1.316 2.745z"></path><path d="M123.722 74.8l-.136.305 2.993 1.332.136-.306-2.993-1.331zM157.674 87.886l-.136.306 2.993 1.331.136-.305-2.993-1.332z"></path><path d="M159.8 91.837l-3.368-1.654 1.608-3.352 3.349 1.641-1.589 3.362v.003zm-2.917-1.807l2.761 1.356 1.303-2.754-2.748-1.347-1.316 2.745z"></path><path d="M157.225 88.879l-.136.305 2.996 1.333.136-.306-2.996-1.332zM146.567 86.342l-.135.306 2.993 1.331.135-.305-2.993-1.332z"></path><path d="M148.697 90.294l-3.368-1.653 1.607-3.353 3.35 1.641-1.589 3.362v.003zm-2.92-1.807l2.76 1.356 1.304-2.754-2.748-1.347-1.316 2.745z"></path><path d="M146.128 87.34l-.136.305 2.993 1.331.136-.305-2.993-1.332zM126.13 78.498l-.148.303 3.457 1.686.148-.303-3.457-1.686z"></path><path d="M128.867 82.78l-3.852-2.028 1.426-3.282 3.831 2.015-1.408 3.294h.003zM125.45 80.6l3.252 1.715 1.144-2.675-3.239-1.702-1.16 2.662h.003z"></path><path d="M125.752 79.48l-.148.303 3.457 1.686.148-.303-3.457-1.686zM130.838 91.27l-1.345 2.99.305.137 1.345-2.99-.305-.138zM135.165 101.498l-.158.295 2.873 1.54.158-.295-2.873-1.54z"></path><path d="M137.704 104.24l-3.334-1.628 1.494-3.043 3.334 1.629-1.494 3.042zm-2.883-1.785l2.73 1.335 1.199-2.442-2.73-1.334-1.199 2.441zM129.107 98.537l-.158.295 2.871 1.539.158-.295-2.871-1.539z"></path><path d="M131.646 101.278l-3.334-1.629 1.494-3.043 3.334 1.629-1.494 3.043zm-2.883-1.782l2.73 1.334 1.199-2.442-2.73-1.334-1.199 2.442z"></path><path d="M130.286 100.432l-1.344 3.038.308.137 1.345-3.038-.309-.137zM129.203 100.041l-1.344 3.038.308.136 1.344-3.037-.308-.137zM133.976 98.516l-1.618 2.999.295.159 1.618-3-.295-.158zM134.949 99.13l-1.618 2.999.294.159 1.618-3-.294-.158z"></path><path d="M134.526 102.955l-3.272-1.601 1.702-3.469 3.273 1.598-1.703 3.469v.003zm-2.822-1.754l2.669 1.303 1.408-2.864-2.669-1.304-1.408 2.865z"></path><path d="M133.171 105.777l-3.335-1.628 1.528-3.11 3.334 1.628-1.527 3.11zm-2.884-1.785l2.73 1.335 1.233-2.509-2.73-1.335-1.233 2.509zM129.552 97.645l-.158.295 2.871 1.538.158-.294-2.871-1.54zM135.713 100.451l-.158.294 2.873 1.54.158-.294-2.873-1.54zM138.464 97.064l-1.566 2.891.297.161 1.566-2.891-.297-.161zM139.438 97.675l-1.566 2.891.297.161 1.566-2.892-.297-.16z"></path><path d="M139.069 101.388l-3.273-1.598 1.65-3.362 3.273 1.598-1.65 3.359v.003zm-2.822-1.751l2.668 1.303 1.353-2.757-2.668-1.304-1.353 2.758zM132.473 91.374l-.133.307 2.991 1.297.133-.307-2.991-1.297zM132.006 92.576l-.133.307 2.992 1.297.133-.307-2.992-1.297z"></path><path d="M134.505 95.382l-3.334-1.628 1.785-3.632 3.334 1.629-1.785 3.635v-.004zm-2.883-1.782l2.732 1.335 1.488-3.03-2.73-1.335-1.487 3.03h-.003zM137.442 83.51l-.07.157.306.136.07-.157-.306-.136z"></path><path d="M138.032 84.218l-1.733-.847.322-.66.304.148-.178.359 1.432.699-.147.3zM135.678 85.384l-.135.31 2.989 1.302.134-.31-2.988-1.302zM136.11 84.223l-.135.31 2.988 1.303.135-.31-2.988-1.303z"></path><path d="M138.069 88.187l-3.334-1.632 1.711-3.484 1.733.846-.147.3-1.432-.699-1.414 2.884 2.73 1.337 1.263-2.574.301.15-1.411 2.872zM136.78 87.58l-1.934 3.64.295.157 1.934-3.64-.295-.157z"></path><path d="M135.813 86.945l-1.933 3.638.295.157 1.933-3.638-.295-.157z"></path><path d="M136.164 92.005l-3.119-1.524.073-.15-.15-.074 1.954-3.981 3.119 1.524-.147.3-2.819-1.376-1.733 3.53 2.669 1.304 1.196-2.436.301.147-1.344 2.736zM140.67 87.122l-1.05 2.373.309.136 1.05-2.372-.309-.137zM137.955 92.791l-1.709 3.187.295.158 1.709-3.187-.295-.158zM136.987 92.171l-1.71 3.187.295.158 1.709-3.187-.294-.158z"></path><path d="M137.56 96.766l-3.273-1.598 1.797-3.662 3.273 1.598-1.797 3.665v-.003zm-2.822-1.752l2.668 1.304 1.503-3.061-2.668-1.304-1.503 3.061zM132.406 94.104l-1.566 2.892.297.16 1.566-2.891-.297-.16zM133.38 94.715l-1.566 2.891.297.16 1.565-2.89-.296-.161z"></path><path d="M133.011 98.428l-3.273-1.598 1.65-3.359 3.273 1.599-1.65 3.358zm-2.822-1.751l2.669 1.303 1.352-2.757-2.668-1.304-1.353 2.758z"></path><path d="M133.939 95.97l-.137.31 2.983 1.317.136-.308-2.982-1.318z"></path><path d="M135.992 99.867l-3.374-1.577 1.7-3.325 3.374 1.577-1.7 3.325zm-2.917-1.736l2.767 1.29 1.393-2.726-2.764-1.294-1.392 2.727-.004.003z"></path><path d="M133.521 97.008l-.137.309 2.982 1.318.137-.308-2.982-1.319zM142.68 91.08l-1.216 3.025.31.125 1.217-3.026-.311-.124z"></path><path d="M142.55 94.96l-3.38-1.587 1.463-3.426 3.38 1.586-1.463 3.426zm-2.947-1.752l2.772 1.3 1.2-2.806-2.773-1.3-1.199 2.806z"></path><path d="M141.64 90.678l-1.216 3.026.311.124 1.216-3.025-.311-.125zM149.19 94.202l-1.216 3.025.31.125 1.216-3.025-.31-.125z"></path><path d="M149.062 98.082l-3.38-1.586 1.463-3.426 3.38 1.586-1.463 3.426zm-2.945-1.752l2.773 1.3 1.199-2.806-2.772-1.3-1.2 2.806z"></path><path d="M148.15 93.804l-1.216 3.025.31.124 1.217-3.025-.311-.124zM118.964 73.46l-1.216 3.026.31.124 1.217-3.025-.311-.124z"></path><path d="M118.837 77.344l-3.38-1.586 1.463-3.426 3.38 1.586-1.463 3.426zm-2.944-1.751l2.773 1.3 1.199-2.806-2.773-1.3-1.199 2.806z"></path><path d="M117.927 73.063l-1.216 3.025.31.125 1.216-3.025-.31-.125zM127.924 70.676l-1.216 3.025.31.125 1.216-3.025-.31-.125z"></path><path d="M127.794 74.559l-3.38-1.586 1.463-3.426 3.38 1.586-1.463 3.426zm-2.945-1.751l2.773 1.3 1.199-2.806-2.773-1.3-1.199 2.806z"></path><path d="M126.886 70.278l-1.217 3.025.311.125 1.216-3.025-.31-.125zM123.257 72.331l-1.217 3.025.311.125 1.216-3.025-.31-.125z"></path><path d="M123.128 76.215l-3.38-1.585 1.463-3.426 3.381 1.585-1.464 3.426zm-2.947-1.751l2.773 1.3 1.199-2.806-2.773-1.3-1.199 2.806z"></path><path d="M122.216 71.934L121 74.959l.311.124 1.216-3.025-.311-.124zM147.422 89.536l-1.216 3.025.31.125 1.217-3.026-.311-.124z"></path><path d="M147.292 93.416l-3.38-1.585 1.463-3.427 3.38 1.586-1.463 3.426zm-2.944-1.751l2.772 1.3 1.2-2.806-2.773-1.3-1.199 2.806z"></path><path d="M146.382 89.138l-1.216 3.025.31.125 1.216-3.025-.31-.125zM158.603 91.117l-1.216 3.025.31.125 1.217-3.025-.311-.125z"></path><path d="M158.472 94.996l-3.38-1.586 1.463-3.426 3.38 1.586-1.463 3.426zm-2.948-1.751l2.773 1.3 1.2-2.806-2.773-1.3-1.2 2.806z"></path><path d="M157.56 90.718l-1.216 3.025.31.125 1.217-3.025-.311-.125zM115.804 80.126l-1.216 3.025.31.125 1.216-3.025-.31-.125z"></path><path d="M115.675 84.006l-3.38-1.586 1.463-3.426 3.38 1.586-1.463 3.426zm-2.944-1.751l2.772 1.3 1.2-2.806-2.773-1.3-1.199 2.806z"></path><path d="M114.764 79.725l-1.216 3.025.31.124 1.216-3.025-.31-.124zM153.859 92.66l-1.217 3.025.311.125 1.216-3.025-.31-.125z"></path><path d="M153.727 96.539l-3.38-1.586 1.463-3.426 3.38 1.586-1.463 3.426zm-2.944-1.752l2.772 1.3 1.2-2.806-2.773-1.3-1.199 2.806z"></path><path d="M152.819 92.258l-1.217 3.026.311.124 1.216-3.025-.31-.125zM122.295 98.46l-1.322 3.001.306.135 1.322-3-.306-.135zM123.496 98.917l-1.322 3 .306.135 1.322-3-.306-.135z"></path><path d="M123.331 102.756l-3.61-1.785 1.659-3.343 3.61 1.785-1.659 3.34v.003zm-3.159-1.938l3.005 1.487 1.362-2.739-3.009-1.487-1.358 2.739zM115.371 98.275l-.306-.138 1.279-2.877.306.135-1.279 2.88zM115.191 94.82l-.647 1.462.305.135.648-1.46-.306-.136z"></path><path d="M116.184 99.192l-.935-.463.15-.3.632.312 1.362-2.739-2.862-1.414-.129.258-.3-.148.202-.41.15.073.074-.15 3.316 1.638-1.66 3.343zM117.389 96.838l-.158.295 3.613 1.934.158-.294-3.613-1.935z"></path><path d="M116.742 97.804l-.158.294 3.613 1.934.158-.294-3.613-1.934z"></path><path d="M120.009 101.032l-4.107-2.03 1.629-3.28 4.107 2.031-1.629 3.279zm-3.656-2.18l3.503 1.732 1.328-2.677-3.503-1.733-1.328 2.677zM114.858 90.888l-1.211 2.222.294.16 1.211-2.222-.294-.16z"></path><path d="M114.424 94.563l-.408-.202.15-.3.104.051 1.362-2.738-2.49-1.23-.089.18-.301-.15.239-.481 2.942 1.454-.077.15.15.073-1.582 3.193z"></path><path d="M115.359 92.276l-.138.309 3.093 1.38.137-.308-3.092-1.38zM114.961 93.365l-.137.309 3.092 1.38.137-.308-3.092-1.38z"></path><path d="M117.604 96.134l-3.447-1.702 1.628-3.28 3.445 1.703-1.629 3.279h.003zm-2.996-1.856l2.843 1.405 1.328-2.678-2.843-1.404-1.328 2.674v.003zM121.389 93.998l-1.298 3.01.31.134 1.298-3.01-.31-.135zM119.99 93.441l-1.298 3.011.31.134 1.298-3.011-.31-.134z"></path><path d="M121.494 98.057l-4.193-2.073 1.659-3.34 4.19 2.073-1.659 3.343.003-.003zm-3.742-2.224l3.588 1.776 1.359-2.739-3.589-1.776-1.361 2.74h.003z"></path><path d="M122.595 95.65l-.161.296 3.162 1.711.16-.296-3.161-1.711zM121.976 96.636l-.161.297 3.162 1.711.16-.296-3.161-1.712z"></path><path d="M124.772 99.63l-3.64-1.8 1.628-3.279 3.641 1.8-1.629 3.28zm-3.189-1.95l3.039 1.503 1.328-2.678-3.036-1.503-1.328 2.678h-.003zM123.849 101.217l-.162.297 2.87 1.566.162-.296-2.87-1.567zM124.475 100.25l-.162.296 2.87 1.567.162-.296-2.87-1.567z"></path><path d="M126.386 104.185l-3.337-1.65 1.628-3.279 3.338 1.651-1.629 3.278zm-2.889-1.8l2.735 1.353 1.329-2.678-2.736-1.353-1.328 2.678z"></path><path d="M126.919 96.98l-1.345 2.988.305.137 1.345-2.987-.305-.137z"></path><path d="M127.867 101.21l-3.349-1.622 1.659-3.344 3.245 1.626-1.555 3.34zm-2.898-1.779l2.739 1.328 1.273-2.736-2.654-1.328-1.358 2.74v-.004zM115.792 99.784l-.301-.15.295-.59-.519-.257.147-.3.822.404-.444.893z"></path><path d="M128.044 97.356l-1.344 2.988.305.137 1.344-2.987-.305-.138z"></path></g><path d="M89.306 55.465l8.745-3.515s24.326.991 48.06 24.124c0 0-11.048-7.422-23.495-7.143l-.972-.325s-5.598-1.991-18.088-1.528c0 0-5.367-3.331-13.324-5.828l12.999-5.272-13.925-.51v-.003z" fill="#002B5C"></path><mask id="ajd" style="mask-type:luminance" maskUnits="userSpaceOnUse" x="89" y="51" width="58" height="26"><path d="M89.306 55.465l8.745-3.515s24.326.991 48.06 24.124c0 0-11.048-7.422-23.495-7.143l-.972-.325s-5.598-1.991-18.088-1.528c0 0-5.367-3.331-13.324-5.828l12.999-5.272-13.925-.51v-.003z" fill="#fff"></path></mask><g mask="url(#ajd)" fill="#004B8D"><path d="M128.683 57.781l-35.888 5.986.07.415 35.887-5.986-.069-.415zM125.902 54.678l-38.264 6.43.07.415 38.263-6.43-.069-.415zM127.22 55.697l-36.397 6.215.07.414 36.397-6.214-.07-.415zM128.006 56.82l-35.741 6.007.07.414 35.74-6.006-.069-.415zM123.231 53.805l-39.329 6.44.068.415 39.329-6.44-.068-.415zM123.497 50.733l-52.19 8.294.066.415 52.19-8.294-.066-.415zM124.594 52.261l-50.441 7.746.063.415 50.442-7.745-.064-.416zM129.229 59.03l-39.658 6.5.068.415 39.658-6.501-.068-.415zM129.984 59.938l-38.609 6.654.072.415 38.608-6.655-.071-.414zM130.53 61.144l-41.551 6.983.07.415 41.551-6.984-.07-.414zM131.608 62.41l-41.63 6.892.07.414 41.629-6.891-.069-.415zM133.819 63.56l-44.276 7.338.069.414 44.275-7.338-.068-.414zM139.559 65.862l-41.16 6.778.069.414 41.16-6.777-.069-.415zM144.782 66.59l-41.16 6.777.069.415 41.16-6.778-.069-.414zM149.572 67.462l-41.16 6.778.068.414 41.16-6.777-.068-.415zM151.895 69.058l-41.16 6.777.068.414 41.16-6.777-.068-.414zM154.359 70.363l-41.16 6.778.069.414 41.16-6.777-.069-.415zM135.198 64.94l-41.16 6.776.068.415 41.16-6.777-.068-.415zM122.454 49.302l-52.759 8.564.068.415 52.759-8.564-.068-.415z"></path></g><path d="M147.09 77.053s5.067 6.662 4.619 11.698l6.242.224s-6.902-9.71-10.861-11.922z" fill="#002B5C"></path><mask id="aje" style="mask-type:luminance" maskUnits="userSpaceOnUse" x="147" y="77" width="11" height="12"><path d="M147.09 77.053s5.067 6.662 4.619 11.698l6.242.224s-6.902-9.71-10.861-11.922z" fill="#fff"></path></mask><g mask="url(#aje)"><path d="M153.344 89.242a.773.773 0 100-1.546.773.773 0 000 1.546z" fill="#002B5C"></path><path d="M153.344 89.37a.882.882 0 01-.62-.248.903.903 0 01.598-1.552c.494-.027.911.38.923.877a.899.899 0 01-.877.924h-.024zm0-1.548h-.016a.643.643 0 00-.454.202.641.641 0 00-.178.463.637.637 0 00.203.454.66.66 0 00.463.178.65.65 0 00-.015-1.297h-.003z" fill="#004B8D"></path><path d="M154.442 88.12a.773.773 0 100-1.547.773.773 0 000 1.546z" fill="#002B5C"></path><path d="M154.439 88.245a.882.882 0 01-.62-.249.904.904 0 01.598-1.552.893.893 0 01.923.878.895.895 0 01-.248.644.894.894 0 01-.629.279h-.024zm.003-1.55h-.016a.645.645 0 00-.454.203.641.641 0 00-.178.464.641.641 0 00.203.454c.126.12.294.18.463.177a.643.643 0 00.454-.202.648.648 0 00-.469-1.095h-.003z" fill="#004B8D"></path><path d="M152.841 87.73a.717.717 0 100-1.435.717.717 0 000 1.434z" fill="#002B5C"></path><path d="M152.841 87.855a.846.846 0 01-.022-1.693h.022a.844.844 0 01.018 1.69h-.021l.003.003zm0-1.435h-.016a.585.585 0 00-.414.184.584.584 0 00-.162.423c.003.16.07.307.184.414.113.108.26.163.423.163a.595.595 0 00.577-.607.594.594 0 00-.592-.577z" fill="#004B8D"></path><path d="M154.077 86.604a.773.773 0 100-1.546.773.773 0 000 1.546z" fill="#002B5C"></path><path d="M154.077 86.733a.884.884 0 01-.62-.249.903.903 0 01.598-1.552.88.88 0 01.644.249.9.9 0 01-.598 1.552h-.024zm0-1.55h-.019a.643.643 0 00-.454.203.641.641 0 00-.178.463.659.659 0 00.203.454.648.648 0 10.448-1.12z" fill="#004B8D"></path><path d="M153.583 85.116a.773.773 0 100-1.545.773.773 0 000 1.545z" fill="#002B5C"></path><path d="M153.583 85.242a.884.884 0 01-.62-.248.9.9 0 01.598-1.552c.243-.01.47.08.645.248a.902.902 0 01-.599 1.552h-.024zm0-1.549h-.019a.64.64 0 00-.453.203.637.637 0 00-.178.463.653.653 0 00.202.454.648.648 0 10.448-1.12z" fill="#004B8D"></path><path d="M152.408 86.303a.773.773 0 100-1.546.773.773 0 000 1.546z" fill="#002B5C"></path><path d="M152.408 86.43a.885.885 0 01-.619-.25.902.902 0 111.521-.675.9.9 0 01-.877.924h-.025zm0-1.55h-.018a.648.648 0 10.015 0h.003z" fill="#004B8D"></path><path d="M151.927 84.794a.774.774 0 10-.001-1.547.774.774 0 00.001 1.547z" fill="#002B5C"></path><path d="M151.927 84.92a.901.901 0 01-.022-1.8.872.872 0 01.644.248.903.903 0 01-.598 1.552h-.024zm0-1.546h-.019a.644.644 0 00-.454.203.654.654 0 00-.178.463.662.662 0 00.666.631.643.643 0 00.454-.202.641.641 0 00.178-.463.637.637 0 00-.203-.454.638.638 0 00-.444-.178z" fill="#004B8D"></path><path d="M152.88 83.558a.773.773 0 100-1.546.773.773 0 000 1.546z" fill="#002B5C"></path><path d="M152.877 83.687a.887.887 0 01-.619-.248.9.9 0 11.644.248h-.025zm.004-1.549h-.019a.648.648 0 10.488 1.095.641.641 0 00.178-.463.642.642 0 00-.203-.454.638.638 0 00-.444-.178z" fill="#004B8D"></path><path d="M151.203 83.359a.567.567 0 100-1.135.567.567 0 000 1.135z" fill="#002B5C"></path><path d="M151.203 83.488a.7.7 0 01-.479-.19.681.681 0 01-.214-.485.692.692 0 011.171-.522c.135.13.212.301.215.485a.684.684 0 01-.19.497.683.683 0 01-.485.215h-.018zm0-1.138h-.013a.443.443 0 10.013 0z" fill="#004B8D"></path><path d="M150.54 82.162a.534.534 0 100-1.067.534.534 0 000 1.067z" fill="#002B5C"></path><path d="M150.54 82.288a.66.66 0 01-.015-1.322h.018a.662.662 0 01.016 1.322h-.019zm0-1.07h-.009a.409.409 0 00.009.819h.009a.409.409 0 00-.009-.82z" fill="#004B8D"></path><path d="M150.059 81.16a.66.66 0 100-1.319.66.66 0 000 1.319z" fill="#002B5C"></path><path d="M150.059 81.288a.788.788 0 11.788-.81.788.788 0 01-.767.807h-.021v.003zm0-1.322h-.016a.537.537 0 00-.356.924.549.549 0 00.384.147.535.535 0 00-.012-1.07z" fill="#004B8D"></path><path d="M149.319 80.061a.546.546 0 100-1.09.546.546 0 000 1.09z" fill="#002B5C"></path><path d="M149.319 80.187a.674.674 0 01-.018-1.346h.018c.362 0 .663.291.672.653a.674.674 0 01-.653.69h-.019v.003zm0-1.092h-.012a.399.399 0 00-.294.132.42.42 0 00.303.712h.013a.42.42 0 00-.01-.84v-.004z" fill="#004B8D"></path><path d="M148.672 79.187a.427.427 0 100-.853.427.427 0 000 .853z" fill="#002B5C"></path><path d="M148.672 79.313a.553.553 0 11.013 0h-.016.003zm0-.853h-.009a.3.3 0 00.006.602h.009a.297.297 0 00.295-.307.302.302 0 00-.301-.294z" fill="#004B8D"></path><path d="M148.175 78.497a.316.316 0 100-.631.316.316 0 000 .631z" fill="#002B5C"></path><path d="M148.175 78.62a.44.44 0 01-.322-.745.434.434 0 01.307-.138c.114-.013.23.04.316.12.086.079.135.19.138.309a.46.46 0 01-.12.316.432.432 0 01-.306.138h-.013zm0-.629h-.006a.177.177 0 00-.132.058.205.205 0 00-.052.135c0 .105.08.181.193.184a.186.186 0 00.184-.193.176.176 0 00-.058-.132.187.187 0 00-.129-.052z" fill="#004B8D"></path><path d="M151.905 82.233a.66.66 0 100-1.32.66.66 0 000 1.32z" fill="#002B5C"></path><path d="M151.905 82.359a.787.787 0 01-.018-1.574h.021a.787.787 0 01.019 1.574h-.022zm0-1.322h-.012a.537.537 0 00-.356.923.536.536 0 10.371-.923h-.003z" fill="#004B8D"></path><path d="M155.794 87.224a.773.773 0 100-1.546.773.773 0 000 1.546z" fill="#002B5C"></path><path d="M155.794 87.35a.901.901 0 11.025 0h-.025zm0-1.547h-.018a.643.643 0 00-.454.203.648.648 0 00.469 1.095h.016a.645.645 0 00.631-.666.641.641 0 00-.202-.454.64.64 0 00-.445-.178h.003z" fill="#004B8D"></path><path d="M154.828 89.628a.773.773 0 100-1.546.773.773 0 000 1.546z" fill="#002B5C"></path><path d="M154.828 89.757a.893.893 0 01-.619-.249.896.896 0 01-.031-1.272.891.891 0 01.629-.28.87.87 0 01.644.249.9.9 0 01-.598 1.552h-.025zm0-1.549h-.018a.65.65 0 00-.43 1.12.648.648 0 10.893-.942.64.64 0 00-.445-.178z" fill="#004B8D"></path><path d="M156.208 88.736a.773.773 0 100-1.546.773.773 0 000 1.546z" fill="#002B5C"></path><path d="M156.208 88.861a.887.887 0 01-.619-.248.9.9 0 01.598-1.552.868.868 0 01.644.248.903.903 0 01-.598 1.552h-.025zm0-1.549h-.018a.648.648 0 10.018 0z" fill="#004B8D"></path><path d="M156.325 90.27a.773.773 0 100-1.547.773.773 0 000 1.546z" fill="#002B5C"></path><path d="M156.325 90.398a.89.89 0 01-.62-.248.902.902 0 01.599-1.552.86.86 0 01.644.248.9.9 0 01-.598 1.552h-.025zm.003-1.549h-.018a.648.648 0 10.018 0z" fill="#004B8D"></path><path d="M157.46 89.257a.527.527 0 100-1.055.527.527 0 000 1.055z" fill="#002B5C"></path><path d="M157.46 89.386a.654.654 0 01-.016-1.307.647.647 0 01.672.638.655.655 0 01-.638.672h-.018v-.003zm0-1.058h-.009a.402.402 0 00.009.807h.009a.404.404 0 00-.009-.807z" fill="#004B8D"></path><path d="M152.114 88.861a.527.527 0 100-1.054.527.527 0 000 1.054z" fill="#002B5C"></path><path d="M152.114 88.99a.656.656 0 11.018 0h-.018zm0-1.058h-.009a.404.404 0 00-.393.414c.006.22.202.393.414.393a.404.404 0 00-.009-.807h-.003z" fill="#004B8D"></path></g><path d="M116.298 107.943s11.143-3.506 22.682-.85l-1.074-2.432-4.637-1.246s-11.085.792-16.968 4.524l-.003.004zM149.703 96.118l9.315-5.367s17.21 12.707 20.848 25.228c0 0-14.247-14.619-30.163-19.86z" fill="#002B5C"></path><mask id="ajf" style="mask-type:luminance" maskUnits="userSpaceOnUse" x="149" y="90" width="31" height="26"><path d="M149.703 96.118l9.315-5.367s17.21 12.707 20.848 25.228c0 0-14.247-14.619-30.163-19.86z" fill="#fff"></path></mask><g mask="url(#ajf)" fill="#004B8D"><path d="M157.454 100.25l-5.69-5.598.267-.273 5.414 5.325 5.438-5.739.279.264-5.708 6.021zM175.603 112.568l-.157-.347 2.245-1-3.484-6.134.331-.187 3.693 6.499-2.628 1.169z"></path><path d="M171.741 103.605l4.809 8.291.332-.193-4.822-8.306.669-.439-.209-.319-4.527 2.966-.31-.748 4.267-2.797-.209-.319-4.205 2.757-.405-.978 3.852-2.525-.208-.319-3.794 2.485-.31-.749 3.487-2.285-.208-.319-3.426 2.245-.405-.975 3.018-1.978-.209-.32-2.96 1.939-.5-1.208 2.439-1.598-.209-.32-2.377 1.559-.386-.936 1.932-1.266-.208-.32-1.874 1.228-.448-1.083 1.346-.88-.208-.32-1.286.844-1.233-2.981-.352.147 5.193 12.542.205-.086.006.009.052-.031.089-.036-.006-.019.65-.426 1.411 2.647.338-.178-1.427-2.681.632-.414 3.313 5.831.331-.187-3.325-5.852.764-.503 4.613 8.161.331-.19-4.622-8.18.589-.387zM162.134 92.804l-5.777 6.358.281.256 5.778-6.358-.282-.256zM160.985 91.829l-5.445 6.174.285.252 5.445-6.174-.285-.252zM159.739 90.767l-5.225 6.395.295.24 5.224-6.394-.294-.24zM158.676 89.75l-5.224 6.394.294.24 5.225-6.394-.295-.24zM157.907 88.715l-5.225 6.394.294.24 5.226-6.393-.295-.24zM162.159 95.159l-.351.145 4.123 9.959.351-.146-4.123-9.958zM161.121 96.255l-.352.146 3.355 8.102.351-.146-3.354-8.102zM160.02 97.306l-.351.145 2.631 6.354.351-.145-2.631-6.354zM159.144 98.167l-.351.145 2.071 5.002.351-.145-2.071-5.002zM158.157 99.233l-.352.145 1.418 3.424.351-.146-1.417-3.423zM151.089 95.074l-.263.275 3.232 3.083.262-.275-3.231-3.083zM179.103 112.004l-2.639 1.235.161.345 2.64-1.235-.162-.345zM179.705 113.252l-2.343 1.064.157.347 2.343-1.065-.157-.346z"></path></g><path d="M131.815 105.786c.248.23.819.016 1.273-.478.454-.494.616-1.08.368-1.31-.249-.23-.819-.015-1.273.479-.454.494-.617 1.079-.368 1.309zM133.931 105.927c.227.209.746.013 1.157-.435.411-.448.561-.982.334-1.19-.227-.209-.745-.012-1.156.435-.411.448-.562.982-.335 1.19zM129.502 105.697c.276.304.828.212 1.233-.205.405-.417.512-1 .236-1.304-.276-.303-.828-.211-1.233.206-.405.417-.512 1-.239 1.303h.003zM136.051 106.05c.187.289.659.283 1.049-.009.389-.291.555-.764.365-1.049-.187-.288-.657-.282-1.049.009-.39.292-.556.764-.365 1.049zM127.505 105.814c.267.227.746.083 1.071-.319.325-.402.371-.914.104-1.141-.267-.227-.745-.083-1.07.319-.326.402-.372.914-.105 1.141zM125.837 105.881c.242.132.573-.009.736-.313.163-.303.098-.656-.144-.788s-.574.009-.736.313c-.163.304-.098.656.144.788zM124.362 105.946c.196.104.45.009.573-.218.12-.224.061-.494-.135-.598-.196-.104-.451-.009-.573.218-.12.224-.062.494.135.598zM123.273 105.952c.138.074.303.034.368-.092.067-.126.009-.285-.126-.359-.138-.073-.304-.034-.368.092-.068.126-.009.285.126.359zM122.408 106.136c.119.064.254.037.306-.058.052-.095 0-.224-.122-.289-.12-.064-.255-.036-.307.059-.052.095 0 .224.12.288h.003zM121.665 106.295c.074.04.157.025.187-.033.031-.059 0-.138-.073-.175-.074-.04-.157-.025-.187.034-.031.058 0 .138.073.178v-.004z" fill="#004B8D"></path><path d="M140.9 101.041s9.107 11.594 29.47 19.6c0 0-8.938-1.442-18.327-5.175-9.389-3.732-15.725-4.864-19.176-4.919 0 0 4.524-1.868 11.312-.227 0 0-2.883-2.66-3.846-2.997l.564-6.279.003-.003z" fill="#002B5C"></path><mask id="ajg" style="mask-type:luminance" maskUnits="userSpaceOnUse" x="132" y="101" width="39" height="20"><path d="M140.9 101.041s9.107 11.594 29.47 19.6c0 0-8.938-1.442-18.327-5.175-9.389-3.732-15.725-4.864-19.176-4.919 0 0 4.524-1.868 11.312-.227 0 0-2.883-2.66-3.846-2.997l.564-6.279.003-.003z" fill="#fff"></path></mask><g mask="url(#ajg)" fill="#004B8D"><path d="M128.784 104.964l.086.286.819-.243.056-.015.036.089.028-.009.448 1.098h-.016l.071.294.061-.015.071.172.276-.114-.62-1.521.399-.12 1.647-.488 1.782 4-.641.19.086.286.04-.013.015.052 1.712-.506.435 1.065-.797.196.07.288.838-.208.469 1.153.028-.012.018.04.344.058-1.108-2.718.804-.236 1.527 3.38-.306.092.086.286.092-.028.03.107 2.549-.748.341.837-1.694.433.074.288 1.736-.442.341.835-.712.181.074.288.751-.19.331.816h.006v.003l.277-.111-1.212-3.036.712-.209 1.417 3.113-.764.227.086.286.172-.053.049.172 1.223-.356.286.712-.227.074.092.282.245-.08.107.264.053-.022.021.056.276-.111-.543-1.346 1.114-.322.914 2.604.279-.098-.908-2.589 1.076-.313 1.123 3.202-.34.098.082.286.059-.019.015.049 1.509-.438.288.711-.282.092.092.282.298-.098.095.233.113-.046.04.102.276-.108-.512-1.34.847-.246.785 2.19.279-.101-.779-2.174.889-.258 1.083 3.018.279-.101-1.076-3 .812-.236 1.249 3.101-.66.202.086.286.175-.056.034.12.656-.19.16.395.107-.042.034.082.276-.11-.193-.479.616-.177.491 1.095.27-.12-.473-1.058.957-.279.829 1.852.269-.119-.809-1.816.782-.227.981 2.438.04-.015.009.028.276-.111-.11-.273 3.343-.828-.07-.288-3.383.84-.359-.892 3.392-.841.288.718.503 1.251-2.024.589.083.285.092-.027.012.046.758-.221.153.34.27-.122-.135-.304.807-.236.353.877.039-.015.01.024.217-.089.031.117 3.558-.886.359.892.009.022-.865.214.071.289.908-.227.116.291.276-.11-.438-1.089-.586-1.457.092-.028-.009-.027 1.147-.335 1.101 3.221.282-.095-1.095-3.209 1.411-.411-.083-.285-2.874.834-.794-1.969 1.205-.392-.092-.283-1.227.399-.34-.843.472-.138-.083-.286-.049.016-.018-.065-.552.16-.359-.89-.276.111.319.791-3.429.997-.375-.926 3.43-.853-.071-.288-3.469.865-.359-.893 2.724-.678-.071-.288-2.763.687-.276-.684 2.006-.583-.083-.285-.022.006-.009-.028-.846.246-.476-1.353-.279.098.472 1.338-.812.236-1.313-3.258-.157.065-.049-.175-.043.012-.018-.061-.638.187-.583-1.279-.27.123.565 1.242-.874.258-1.279-3.209-.025.009-.021-.052-.181.074-.065-.218-.058.019-.028-.092-.859.254-.803-1.779-.27.123.785 1.742-.929.276-1.525-3.383.163-.049-.086-.285-.058.018-.028-.092-1.291.38-.494-1.208.488-.117-.071-.288-.534.129-.435-1.068-.071.028-.058-.147-.276.113 1.067 2.614-.739.217-1.782-3.999.19-.056-.086-.285-1.438.423-1.117.329-.036-.089-.375-.917 1.921-.479-.071-.288-1.96.49-.396-.972 1.236-.31-.07-.288-1.279.32-.319-.78.635-.187-.086-.285-.62.184-.521-1.28-.046.02-.037-.093-.276.114.074.177-3.236 1.092-.338-.825 2.963-1-.095-.282-2.981 1.006-.328-.803-.019.006-.276.11 1.19 2.917-.874.258-1.092-3.021-.279.1 1.086 3.004-.396.116.086.285 1.583-.466.374.914-.38.095.073.289.42-.105.166.402.089-.037.043.105.276-.114-.705-1.73.966-.285 1.138 3.083.279-.102-1.132-3.064.932-.276 1.209 3.331-.702.212.085.285 1.865-.555.031-.009.034.089.447 1.101-3.352.8-.457-1.119-.018.006v-.006l-.046.018-.037-.089-.083.025-3.414 1.006-.975-2.129-.028.012-.006.019-.273.083.932 2.018-.846.251-1.015-2.343-.279.101 1.012 2.328-.945.279-1.187-2.779-.279.102 1.181 2.76-.819.242-.687-1.683-.046.018-.006-.018-.276.113.68 1.669-.027.009.037.089-3.23.954-.411-1.006 3.266-.816-.07-.289-3.307.826-.395-.973 1.362-.34-.071-.289-1.405.35-.098-.236-.027.012v-.009l-.28.113 1.086 2.663-.846.251h-.01zm20.634-.684l.395.973-3.297.816.071.288 3.34-.825.42 1.027-3.343.828-.911-2.229 3.282-.97.04.095.003-.003zm2.279 4.702l3.3-.84.377.923-3.294.841-.38-.924h-.003zm7.226 3.384l.261.647-3.34.969-.375-.926 3.472-.905-.07-.288-3.515.914-.359-.896 3.389-.84.534 1.321.003.004zm-.57 4.781l-.893.261-.828-2.055-.445-1.104 1.914-.555 1.399 3.122-.862.249-1.436-3.319-.27.122 1.421 3.282v-.003zm-5.147-5.846l1.395 3.126-.757.221-1.396-3.126.761-.221h-.003zm1.681 3.043l-1.396-3.126.782-.227 1.273 3.16-.659.19v.003zm-2.73-2.739l1.395 3.125-.938.273-1.273-3.159.816-.236v-.003zm-3.788-2.914l1.42 3.113-.779.23-1.338-3.137.7-.206h-.003zm-1.009.35l.325.797-3.261.831.049.191-.389-.911 3.276-.908zm.438 1.073l.347.85-3.27.834-.362-.846 3.285-.838zm.46 1.129l.39.954-3.224.892-.432-1.015 3.266-.831zm1.816.475l-1.42-3.113.929-.276 1.417 3.11.27-.122-1.398-3.074.963-.285 1.285 3.153-2.049.604.003.003zm-2.564-3.101l-.39-.954 3.344-.828.331.813-3.285.969zm-.368.016l-.742.218-1.525-3.381.871-.257 1.396 3.42zm-1.031.303l-.929.276-1.525-3.38.93-.276 1.524 3.38zm-2.742-3.024l1.525 3.38-.967.285-1.395-3.42.834-.245h.003zm-4.404 1.35l3.285-.97.435 1.068-3.297.816.07.288 3.338-.825.42 1.027-3.343.826-.908-2.23zm1.024 2.506l3.343-.825.332.812-3.285.97-.39-.954v-.003zm10.972 2.229l.794 1.973-3.236 1.082-.362-.895 3.202-1.071-.095-.282-3.22 1.077-.375-.927 3.288-.953.004-.004zm-2.332 3.328l3.236-1.082.31.77-3.266 1.006-.28-.691v-.003zm4.494 1.197l3.19-1.062-.095-.282-3.202 1.065-.356-.927 3.257-.944.795 1.972-3.246 1.079-.343-.901zm3.702.098l.337.84-3.312.96-.276-.721 3.248-1.082.003.003zm2.966.107l-1.399-3.122.807-.233 1.273 3.159-.684.199.003-.003zm-4.904-5.119l-.286-.712 3.341-.969.337.841-3.392.84zm-13.585-5.405l-1.782-3.999.877-.258 1.647 4.04-.739.217h-.003zm-.288.086l-.93.276-2.518-5.766-.27.12 2.503 5.732-.966.286-1.647-4.04 2.049-.604 1.782 3.999-.003-.003zm-2.503.648l-3.285.969-.494-1.212 3.306-.791-.07-.288-3.35.8-.512-1.257 3.353-.801 1.052 2.58zm.104.38l1.396 3.42-.743.218-1.524-3.384.871-.257v.003zm22.378 9.392l.954-.276 1.12 3.174-.813.236-.181-.454-1.08-2.68zm4.712 2.131l-1.049.304-1.215-3.417-.279.098 1.208 3.402-1.015.294-1.119-3.174 2.211-.641.276.684.985 2.45h-.003zm-13.153-7.79l-.358-.865 3.291-.838.337.829-3.273.877.003-.003zm2.332-3.184l-3.261.831.071.282-.418-1.003 3.258-.963.35.856v-.003zm-18.051-4.969l.037-.021.024.104.448 1.098-3.352.8-.381-.929.028-.009-.037-.089 2.564-.758.663-.196h.006zm-4.402 1.402l.875-.258 1.647 4.04-.74.217-1.782-3.999zm4.095 3.634l.93-.276 1.524 3.384-.929.272-1.528-3.38h.003zm5 2.779l.929-.273 1.417 3.11.27-.122-1.399-3.074.964-.285 1.285 3.153-2.049.605-1.417-3.114zm4.969 2.5l.849-.245 1.273 3.159-.997.288-1.122-3.202h-.003zm11.158 5.26l-.288-.711 3.34-.969.338.84-3.393.84h.003zm4.926 2.381l-.276-.684 3.432-.997.329.813-3.482.868h-.003zm-10.487-13.53l-.966.285-1.395-3.42.834-.245 1.524 3.383.003-.003zm-3.947-3.138l-.93.276-1.846-4.125-.27.119 1.831 4.089-.966.285-1.647-4.039 1.276-.377.77-.227 1.782 3.999zm-6.055-8.06l.316.776-3.285.969-.267-.654 3.236-1.091zm-.294 1.312l.714-.211 1.341 3.291-.85.251-1.208-3.33h.003zm2.794 4.816l.813 1.991.239.588-3.285.97-.494-1.212 3.411-.822-.071-.288-3.456.831-.513-1.258 3.353-.8h.003z"></path><path d="M167.778 117.258l-.092-.282-2.242.733.092.285 2.242-.736zM168.968 117.66l-.282.098 1.264 3.69-1.123.328.083.285.043-.015.006.018 2.745-.797.285.714-.263.086.092.282.285-.092.021.052.049-.021.01.025.276-.111-.433-1.076.884-.258-.083-.285-.025.006-.009-.028-.936.273-.309-.776.328-.089-.092-.282-.273-.043-.153-.061-.046-.031-.347-.58-.276.111.81 1.914-1.264.368-1.267-3.705z"></path></g><path d="M130.324 102.624l-10.52-2.773s-9.503 1.359-16.686 6.788c0 0 13.008-5.543 21.099-2.828l6.11-1.187h-.003z" fill="#002B5C"></path><mask id="ajh" style="mask-type:luminance" maskUnits="userSpaceOnUse" x="103" y="99" width="28" height="8"><path d="M130.324 102.624l-10.52-2.773s-9.503 1.359-16.686 6.788c0 0 13.008-5.543 21.099-2.828l6.11-1.187h-.003z" fill="#fff"></path></mask><g mask="url(#ajh)"><path d="M120.101 103.55a1.01 1.01 0 100-2.019 1.01 1.01 0 000 2.019z" fill="#002B5C"></path><path fill-rule="evenodd" clip-rule="evenodd" d="M120.101 101.696a.845.845 0 100 1.69.845.845 0 000-1.69zm-1.173.845a1.173 1.173 0 112.346 0 1.173 1.173 0 01-2.346 0z" fill="#004B8D"></path><path d="M119.07 101.787a1.01 1.01 0 100-2.02 1.01 1.01 0 000 2.02z" fill="#002B5C"></path><path fill-rule="evenodd" clip-rule="evenodd" d="M119.07 99.933a.846.846 0 10.001 1.69.846.846 0 00-.001-1.69zm-1.173.845a1.173 1.173 0 112.347 0 1.173 1.173 0 01-2.347 0z" fill="#004B8D"></path><path d="M118.095 103.605a.935.935 0 10.002-1.87.935.935 0 00-.002 1.87z" fill="#002B5C"></path><path fill-rule="evenodd" clip-rule="evenodd" d="M118.095 101.899a.77.77 0 100 1.542.77.77 0 000-1.542zm-1.099.771a1.1 1.1 0 112.2 0 1.1 1.1 0 01-2.2 0z" fill="#004B8D"></path><path d="M117.043 101.713a1.01 1.01 0 100-2.019 1.01 1.01 0 000 2.019z" fill="#002B5C"></path><path fill-rule="evenodd" clip-rule="evenodd" d="M117.043 99.859a.845.845 0 100 1.69.845.845 0 000-1.69zm-1.173.845a1.173 1.173 0 112.346 0 1.173 1.173 0 01-2.346 0z" fill="#004B8D"></path><path d="M115.003 101.817a1.008 1.008 0 10.002-2.016 1.008 1.008 0 00-.002 2.016z" fill="#002B5C"></path><path fill-rule="evenodd" clip-rule="evenodd" d="M115.003 99.963a.845.845 0 100 1.69.845.845 0 000-1.69zm-1.173.845a1.173 1.173 0 112.346 0 1.173 1.173 0 01-2.346 0z" fill="#004B8D"></path><path d="M116.083 103.701a1.01 1.01 0 10-.001-2.02 1.01 1.01 0 00.001 2.02z" fill="#002B5C"></path><path fill-rule="evenodd" clip-rule="evenodd" d="M116.083 101.847a.845.845 0 100 1.69.845.845 0 000-1.69zm-1.173.845a1.174 1.174 0 112.347 0 1.174 1.174 0 01-2.347 0z" fill="#004B8D"></path><path d="M114.025 103.783a1.009 1.009 0 100-2.017 1.009 1.009 0 000 2.017z" fill="#002B5C"></path><path fill-rule="evenodd" clip-rule="evenodd" d="M114.025 101.929a.845.845 0 100 1.69.845.845 0 000-1.69zm-1.173.845a1.173 1.173 0 112.346 0 1.173 1.173 0 01-2.346 0z" fill="#004B8D"></path><path d="M112.807 102.158a1.01 1.01 0 100-2.019 1.01 1.01 0 000 2.019z" fill="#002B5C"></path><path fill-rule="evenodd" clip-rule="evenodd" d="M112.807 100.304a.845.845 0 100 1.69.845.845 0 000-1.69zm-1.173.845a1.173 1.173 0 112.347 0 1.173 1.173 0 01-2.347 0z" fill="#004B8D"></path><path d="M112.231 103.995a.74.74 0 100-1.478.74.74 0 000 1.478z" fill="#002B5C"></path><path fill-rule="evenodd" clip-rule="evenodd" d="M112.231 102.681a.575.575 0 10-.001 1.15.575.575 0 00.001-1.15zm-.904.575a.904.904 0 111.809 0 .904.904 0 01-1.809 0z" fill="#004B8D"></path><path d="M110.537 104.375a.696.696 0 10.002-1.392.696.696 0 00-.002 1.392z" fill="#002B5C"></path><path fill-rule="evenodd" clip-rule="evenodd" d="M110.537 103.147a.532.532 0 100 1.065.532.532 0 000-1.065zm-.86.532a.86.86 0 111.72 0 .86.86 0 01-1.72 0z" fill="#004B8D"></path><path d="M128.232 102.937a.697.697 0 100-1.393.697.697 0 000 1.393z" fill="#002B5C"></path><path fill-rule="evenodd" clip-rule="evenodd" d="M128.232 101.708a.533.533 0 10.001 1.065.533.533 0 00-.001-1.065zm-.86.533a.86.86 0 111.72-.002.86.86 0 01-1.72.002z" fill="#004B8D"></path><path d="M108.955 104.753a.862.862 0 100-1.724.862.862 0 000 1.724z" fill="#002B5C"></path><path fill-rule="evenodd" clip-rule="evenodd" d="M108.955 103.193a.697.697 0 10-.001 1.395.697.697 0 00.001-1.395zm-1.026.698a1.026 1.026 0 112.051 0 1.026 1.026 0 01-2.051 0z" fill="#004B8D"></path><path d="M107.464 105.188a.711.711 0 10.001-1.423.711.711 0 00-.001 1.423z" fill="#002B5C"></path><path fill-rule="evenodd" clip-rule="evenodd" d="M107.464 103.929a.547.547 0 100 1.095.547.547 0 000-1.095zm-.876.548a.876.876 0 111.753 0 .876.876 0 01-1.753 0z" fill="#004B8D"></path><path d="M106.289 105.581a.556.556 0 100-1.112.556.556 0 000 1.112z" fill="#002B5C"></path><path fill-rule="evenodd" clip-rule="evenodd" d="M106.289 104.635a.39.39 0 100 .782.39.39 0 000-.782zm-.719.391a.72.72 0 111.439-.001.72.72 0 01-1.439.001z" fill="#004B8D"></path><path d="M105.388 105.857a.411.411 0 100-.822.411.411 0 000 .822z" fill="#002B5C"></path><path fill-rule="evenodd" clip-rule="evenodd" d="M105.388 105.199a.247.247 0 100 .494.247.247 0 000-.494zm-.576.247a.575.575 0 111.15 0 .575.575 0 01-1.15 0z" fill="#004B8D"></path><path d="M110.945 102.808a.862.862 0 100-1.724.862.862 0 000 1.724z" fill="#002B5C"></path><path fill-rule="evenodd" clip-rule="evenodd" d="M110.945 101.248a.698.698 0 10.002 1.396.698.698 0 00-.002-1.396zm-1.026.698a1.027 1.027 0 112.054.002 1.027 1.027 0 01-2.054-.002z" fill="#004B8D"></path><path d="M123.178 102.109a1.01 1.01 0 100-2.019 1.01 1.01 0 000 2.019z" fill="#002B5C"></path><path fill-rule="evenodd" clip-rule="evenodd" d="M123.177 100.255a.845.845 0 100 1.69.845.845 0 000-1.69zm-1.173.845a1.174 1.174 0 112.348 0 1.174 1.174 0 01-2.348 0z" fill="#004B8D"></path><path d="M123.423 104.124a1.01 1.01 0 100-2.019 1.01 1.01 0 000 2.019z" fill="#002B5C"></path><path fill-rule="evenodd" clip-rule="evenodd" d="M123.423 102.27a.845.845 0 100 1.69.845.845 0 000-1.69zm-1.173.845a1.173 1.173 0 112.346 0 1.173 1.173 0 01-2.346 0z" fill="#004B8D"></path><path d="M121.101 101.823a1.009 1.009 0 100-2.017 1.009 1.009 0 000 2.017z" fill="#002B5C"></path><path fill-rule="evenodd" clip-rule="evenodd" d="M121.101 99.97a.845.845 0 100 1.69.845.845 0 000-1.69zm-1.173.844a1.173 1.173 0 112.346 0 1.173 1.173 0 01-2.346 0z" fill="#004B8D"></path><path d="M126.404 102.643a1.009 1.009 0 100-2.018 1.009 1.009 0 000 2.018z" fill="#002B5C"></path><path fill-rule="evenodd" clip-rule="evenodd" d="M126.404 100.788a.846.846 0 10.002 1.692.846.846 0 00-.002-1.692zm-1.173.845a1.173 1.173 0 112.346 0 1.173 1.173 0 01-2.346 0z" fill="#004B8D"></path><path d="M125.441 104.483a1.01 1.01 0 100-2.019 1.01 1.01 0 000 2.019z" fill="#002B5C"></path><path fill-rule="evenodd" clip-rule="evenodd" d="M125.441 102.629a.845.845 0 100 1.69.845.845 0 000-1.69zm-1.173.845a1.173 1.173 0 112.346 0 1.173 1.173 0 01-2.346 0z" fill="#004B8D"></path><path d="M124.723 102.606a.687.687 0 100-1.374.687.687 0 000 1.374z" fill="#002B5C"></path><path fill-rule="evenodd" clip-rule="evenodd" d="M124.723 101.395a.524.524 0 000 1.046.523.523 0 100-1.046zm-.851.523a.851.851 0 111.702 0 .851.851 0 01-1.702 0z" fill="#004B8D"></path><path d="M121.776 103.096a.687.687 0 100-1.374.687.687 0 000 1.374z" fill="#002B5C"></path><path fill-rule="evenodd" clip-rule="evenodd" d="M121.776 101.886a.523.523 0 100 1.046.523.523 0 000-1.046zm-.851.523a.851.851 0 111.702 0 .851.851 0 01-1.702 0z" fill="#004B8D"></path><path d="M127.128 103.83a.687.687 0 100-1.374.687.687 0 000 1.374z" fill="#002B5C"></path><path fill-rule="evenodd" clip-rule="evenodd" d="M127.128 102.619a.523.523 0 100 1.046.523.523 0 000-1.046zm-.851.523a.851.851 0 111.702 0 .851.851 0 01-1.702 0z" fill="#004B8D"></path></g><path d="M92.999 125.846l-4.567 10.456-.414-10.456h-6.095l-4.04 10.456-.94-10.456H64.163l-1.935 11.159c-.212 1.223-.62 2.159-1.221 2.812-.601.654-1.313.979-2.132.979-.917 0-1.586-.325-2-.979-.414-.653-.515-1.589-.303-2.812l1.935-11.159H45.113l-6.284 7.337h-.617l1.273-7.337H33.16s-3.25-.193-6.447 3.635c0 0 3.537-1.914 5.018-.841 0 0-1.825.611-3.469 2.73 0 0 1.601-1.055 3.932-.837l-2.739 15.796h6.475l1.166-6.727h.88l3.405 6.727h8.235l-5.736-10.18 7.954-9.355-1.77 10.211c-.525 3.018-.077 5.401 1.337 7.155 1.414 1.752 3.558 2.629 6.432 2.629 2.874 0 5.153-.877 7.138-2.629 1.984-1.751 3.239-4.137 3.76-7.155l1.742-10.046 1.712 19.37h6.975l4.048-10.334.464 10.334h6.975l8.916-20.486h-6.564v.003zM166.977 125.846h-7.444l-7.582 17.692 3.067-17.692h-6.475l-1.674 9.662-6.414-9.662h-5.303l-3.5 20.179-4.039-6.358a8.275 8.275 0 003.64-2.567c.967-1.184 1.589-2.568 1.865-4.159.368-2.12.016-3.831-1.058-5.138-1.073-1.304-2.675-1.957-4.803-1.957h-10.714s-.061-.003-.172 0h-.104v.006c-.847.049-3.527.463-6.171 3.632 0 0 3.536-1.914 5.018-.841 0 0-1.825.611-3.469 2.73 0 0 1.546-1.021 3.812-.846l-2.07 11.943-5.242-16.624h-7.444l-8.779 20.486h6.917l.96-2.475h7.239l.65 2.475h11.505l1.049-6.055h.089l3.785 6.055h13.965l1.601-9.232 6.487 9.232h11.509l.96-2.475h7.238l.651 2.475h6.916l-6.459-20.486h-.007zm-65.052 12.505l2.131-5.564 1.503 5.564h-3.634zm24.823-5.196a2.268 2.268 0 01-.884 1.466c-.484.368-1.085.549-1.809.549h-2.93l.678-3.913h2.93c.723 0 1.263.175 1.625.518.359.347.491.807.393 1.377l-.003.003zm34.012 5.196l2.132-5.564 1.503 5.564h-3.635z" fill="#E31936"></path><path d="M50.144 126.978l-7.81 9.162 5.568 9.704h.877l-5.5-9.76 8.31-9.772h-6.282l-.57.666h5.407zM57.051 126.978l-1.877 10.487c-.212 1.223-.03 2.141.383 2.794.414.653.862.997 1.749 1.236.555.15 1.41.202 1.944-.258a3.354 3.354 0 01-.404.028c-1.09 0-1.896-.405-2.402-1.199-.479-.752-.604-1.813-.371-3.15l1.837-10.604h-5.54l-.116.666H57.051zM64.535 126.312l-.116.666h4.794l-1.936 11.158c-.31 1.786-.883 3.344-1.702 4.687 1.353-1.558 2.251-3.536 2.662-5.91l1.838-10.604h-5.54v.003zM86.788 126.978l.414 11.499.709-1.62-.378-10.545h-5.312l-.258.666h4.825zM93.284 126.312l-.291.666h4.674l-8.21 18.866h.852l8.502-19.532h-5.527zM75.807 126.978l.942 11.367.592-1.537-.862-10.496h-5.61l.058.666h4.88zM166.002 126.978l5.948 18.866h.812l-6.159-19.532h-6.778l-.289.666h6.466z" fill="#FFD200"></path><path d="M162.355 130.763l-3.34 8.72h5.659l-.178-.666h-4.454l2.617-6.827-.304-1.227zM107.157 126.978l5.687 18.124.31-1.632-5.386-17.158h-6.782l-.285.666h6.456z" fill="#FFD200"></path><path d="M103.52 130.763l-3.34 8.72h5.659l-.181-.666h-4.451l2.616-6.827-.303-1.227zM126.453 140.081l3.675 5.766h.828l-3.846-6.036c-.215.098-.43.19-.657.27zM120.662 131.269l-.895 5.033h3.598c.723 0 1.325-.184 1.809-.549.175-.132.319-.288.445-.454-.463.224-.994.338-1.586.338h-3.496l.782-4.368h-.657zM139.765 126.978l6.414 9.661.184-1.006-6.187-9.321h-4.647l-.116.666h4.352zM138.713 135.851l-1.718 9.993h.657l1.595-9.204-.534-.789zM148.921 126.312l-.117.666h4.859l-3.273 18.866.938-1.653 3.101-17.879h-5.508zM38.893 126.312h-5.502s-1.792-.046-2.601.696c0 0 1.41-.058 2.478-.03h4.763l-1.273 7.337h1.282l.57-.666h-.99l1.273-7.337zM131.665 128.094c-.988-1.199-2.439-1.782-4.436-1.782h-10.493s-1.791-.046-2.601.696c0 0 1.335-.055 2.39-.03h10.039c2.128 0 3.729.653 4.803 1.957.945 1.147 1.328 2.61 1.159 4.389.037-.157.071-.316.099-.479.346-1.993.033-3.548-.957-4.754l-.003.003z" fill="#FFD200"></path><path d="M60.189 155.331a1.217 1.217 0 100-2.435 1.217 1.217 0 000 2.435zM57.06 155.982a1.218 1.218 0 100-2.437 1.218 1.218 0 000 2.437zM63.14 154.497a1.218 1.218 0 100-2.435 1.218 1.218 0 000 2.435zM66.74 154.497a1.218 1.218 0 100-2.435 1.218 1.218 0 000 2.435zM69.998 155.227a1.218 1.218 0 100-2.435 1.218 1.218 0 000 2.435zM73.301 154.761a1.218 1.218 0 100-2.435 1.218 1.218 0 000 2.435zM76.749 154.902a1.218 1.218 0 100-2.435 1.218 1.218 0 000 2.435zM80.243 155.414a1.218 1.218 0 100-2.435 1.218 1.218 0 000 2.435zM83.454 154.948a1.218 1.218 0 100-2.435 1.218 1.218 0 000 2.435zM86.852 154.62a1.218 1.218 0 100-2.435 1.218 1.218 0 000 2.435zM90.159 154.948a1.218 1.218 0 100-2.435 1.218 1.218 0 000 2.435zM93.652 154.669a1.218 1.218 0 100-2.435 1.218 1.218 0 000 2.435zM96.913 154.574a1.218 1.218 0 100-2.435 1.218 1.218 0 000 2.435zM100.124 155.181a1.218 1.218 0 100-2.435 1.218 1.218 0 000 2.435zM103.477 155.086a1.217 1.217 0 100-2.435 1.217 1.217 0 000 2.435zM106.875 154.761a1.218 1.218 0 100-2.435 1.218 1.218 0 000 2.435zM110.277 155.086a1.217 1.217 0 100-2.435 1.217 1.217 0 000 2.435zM113.626 155.319a1.218 1.218 0 100-2.435 1.218 1.218 0 000 2.435zM117.114 155.11a1.217 1.217 0 100-2.434 1.217 1.217 0 000 2.434zM120.555 155.003a1.218 1.218 0 100-2.435 1.218 1.218 0 000 2.435zM123.84 154.841a1.218 1.218 0 100-2.436 1.218 1.218 0 000 2.436zM127.26 155.052a1.218 1.218 0 100-2.436 1.218 1.218 0 000 2.436zM130.662 154.724a1.217 1.217 0 100-2.435 1.217 1.217 0 000 2.435zM133.965 155.052a1.217 1.217 0 10.001-2.435 1.217 1.217 0 00-.001 2.435zM137.459 154.773a1.217 1.217 0 100-2.435 1.217 1.217 0 000 2.435zM140.719 154.678a1.218 1.218 0 100-2.435 1.218 1.218 0 000 2.435zM143.93 155.285a1.217 1.217 0 10.001-2.435 1.217 1.217 0 00-.001 2.435zM147.283 155.19a1.218 1.218 0 100-2.436 1.218 1.218 0 000 2.436zM150.684 154.865a1.218 1.218 0 100-2.435 1.218 1.218 0 000 2.435zM154.083 155.19a1.218 1.218 0 100-2.436 1.218 1.218 0 000 2.436zM157.435 155.423a1.217 1.217 0 10.001-2.435 1.217 1.217 0 00-.001 2.435zM160.92 155.215a1.217 1.217 0 100-2.435 1.217 1.217 0 000 2.435zM164.042 154.745a1.217 1.217 0 10.001-2.435 1.217 1.217 0 00-.001 2.435zM167.217 155.371a1.217 1.217 0 100-2.435 1.217 1.217 0 000 2.435zM170.388 154.902a1.218 1.218 0 100-2.435 1.218 1.218 0 000 2.435zM173.459 154.381a1.218 1.218 0 10-.002-2.436 1.218 1.218 0 00.002 2.436zM176.737 155.423a1.217 1.217 0 10.001-2.435 1.217 1.217 0 00-.001 2.435zM180.065 156.098a1.217 1.217 0 10.001-2.435 1.217 1.217 0 00-.001 2.435zM182.771 154.381a1.218 1.218 0 10-.002-2.436 1.218 1.218 0 00.002 2.436zM183.915 151.362a1.217 1.217 0 100-2.434 1.217 1.217 0 000 2.434zM182.148 148.347a1.217 1.217 0 10.001-2.435 1.217 1.217 0 00-.001 2.435zM180.222 145.433a1.217 1.217 0 100-2.434 1.217 1.217 0 000 2.434zM183.501 144.394a1.218 1.218 0 10-.002-2.436 1.218 1.218 0 00.002 2.436zM185.166 141.427a1.217 1.217 0 10.001-2.435 1.217 1.217 0 00-.001 2.435zM186.829 138.253a1.217 1.217 0 100-2.435 1.217 1.217 0 000 2.435zM187.715 135.026a1.217 1.217 0 10.001-2.435 1.217 1.217 0 00-.001 2.435zM188.546 131.959a1.218 1.218 0 100-2.435 1.218 1.218 0 000 2.435zM189.795 128.941a1.217 1.217 0 100-2.435 1.217 1.217 0 000 2.435zM190.782 125.818a1.217 1.217 0 10.001-2.435 1.217 1.217 0 00-.001 2.435zM189.899 122.8a1.218 1.218 0 100-2.436 1.218 1.218 0 000 2.436zM189.586 119.42a1.218 1.218 0 100-2.435 1.218 1.218 0 000 2.435zM189.69 116.35a1.218 1.218 0 100-2.435 1.218 1.218 0 000 2.435zM189.899 113.227a1.218 1.218 0 100-2.436 1.218 1.218 0 000 2.436zM188.025 110.574a1.218 1.218 0 100-2.436 1.218 1.218 0 000 2.436zM186.829 107.608a1.217 1.217 0 100-2.434 1.217 1.217 0 000 2.434zM186.31 104.437a1.218 1.218 0 100-2.435 1.218 1.218 0 000 2.435zM183.814 102.615a1.217 1.217 0 100-2.435 1.217 1.217 0 000 2.435zM182.719 99.597a1.217 1.217 0 100-2.435 1.217 1.217 0 000 2.435zM181.056 96.891a1.218 1.218 0 100-2.435 1.218 1.218 0 000 2.435zM178.09 95.434a1.218 1.218 0 100-2.435 1.218 1.218 0 000 2.436zM176.216 92.886a1.218 1.218 0 100-2.436 1.218 1.218 0 000 2.436zM174.863 89.92a1.218 1.218 0 100-2.436 1.218 1.218 0 000 2.436zM172.002 88.359a1.217 1.217 0 100-2.435 1.217 1.217 0 000 2.434zM169.036 86.589a1.217 1.217 0 100-2.435 1.217 1.217 0 000 2.435zM167.024 84.153a1.217 1.217 0 100-2.435 1.217 1.217 0 000 2.435zM164.481 81.74a1.217 1.217 0 100-2.435 1.217 1.217 0 000 2.434zM163.828 78.61a1.217 1.217 0 100-2.434 1.217 1.217 0 000 2.435zM160.766 76.982a1.218 1.218 0 100-2.435 1.218 1.218 0 000 2.435zM159.202 73.918a1.218 1.218 0 100-2.436 1.218 1.218 0 000 2.436zM156.138 72.418a1.218 1.218 0 100-2.436 1.218 1.218 0 000 2.436zM154.442 69.486a1.217 1.217 0 100-2.435 1.217 1.217 0 000 2.435zM151.117 67.725a1.218 1.218 0 100-2.436 1.218 1.218 0 000 2.436zM149.163 64.922a1.218 1.218 0 100-2.436 1.218 1.218 0 000 2.436zM146.62 62.575a1.218 1.218 0 100-2.435 1.218 1.218 0 000 2.435zM143.556 61.01a1.218 1.218 0 100-2.434 1.218 1.218 0 000 2.435zM140.756 58.404a1.217 1.217 0 100-2.435 1.217 1.217 0 000 2.435zM137.299 57.1a1.218 1.218 0 100-2.435 1.218 1.218 0 000 2.435zM134.367 54.625a1.217 1.217 0 100-2.435 1.217 1.217 0 000 2.435zM131.563 52.668a1.218 1.218 0 100-2.435 1.218 1.218 0 000 2.435zM128.37 51.757a1.218 1.218 0 100-2.435 1.218 1.218 0 000 2.435zM125.177 50.257a1.218 1.218 0 100-2.435 1.218 1.218 0 000 2.435zM122.699 48.107a1.218 1.218 0 100-2.435 1.218 1.218 0 000 2.435zM119.767 46.607a1.217 1.217 0 100-2.435 1.217 1.217 0 000 2.435zM116.442 46.15a1.218 1.218 0 100-2.436 1.218 1.218 0 000 2.436zM113.053 45.5a1.217 1.217 0 100-2.435 1.217 1.217 0 000 2.435zM110.053 43.543a1.218 1.218 0 100-2.436 1.218 1.218 0 000 2.436zM106.795 42.893a1.218 1.218 0 100-2.435 1.218 1.218 0 000 2.435zM103.471 42.893a1.217 1.217 0 100-2.435 1.217 1.217 0 000 2.435zM100.017 42.304a1.218 1.218 0 100-2.437 1.218 1.218 0 000 2.437zM96.82 41.329a1.218 1.218 0 100-2.436 1.218 1.218 0 000 2.436zM93.303 41.59a1.218 1.218 0 100-2.436 1.218 1.218 0 000 2.435zM89.846 41.522a1.218 1.218 0 100-2.436 1.218 1.218 0 000 2.436zM86.263 40.871a1.218 1.218 0 100-2.435 1.218 1.218 0 000 2.435zM83.003 41.261a1.218 1.218 0 100-2.435 1.218 1.218 0 000 2.435zM79.485 41.261a1.218 1.218 0 100-2.435 1.218 1.218 0 000 2.435zM76.16 40.871a1.218 1.218 0 100-2.435 1.218 1.218 0 000 2.435zM72.964 42.043a1.218 1.218 0 100-2.435 1.218 1.218 0 000 2.435zM69.707 41.85a1.218 1.218 0 100-2.435 1.218 1.218 0 000 2.435zM66.382 42.5a1.218 1.218 0 100-2.435 1.218 1.218 0 000 2.435zM62.992 43.74a1.218 1.218 0 100-2.436 1.218 1.218 0 000 2.435zM59.732 44.522a1.218 1.218 0 100-2.436 1.218 1.218 0 000 2.436zM56.214 44.911a1.218 1.218 0 100-2.435 1.218 1.218 0 000 2.435zM52.76 44.979a1.218 1.218 0 100-2.436 1.218 1.218 0 000 2.436zM49.564 46.672a1.218 1.218 0 100-2.436 1.218 1.218 0 000 2.436zM46.435 48.172a1.218 1.218 0 100-2.436 1.218 1.218 0 000 2.436zM43.11 49.343a1.218 1.218 0 100-2.435 1.218 1.218 0 000 2.435zM39.657 50.128a1.218 1.218 0 100-2.435 1.218 1.218 0 000 2.435zM36.203 51.432a1.218 1.218 0 100-2.435 1.218 1.218 0 000 2.435zM33.4 53.386a1.218 1.218 0 100-2.436 1.218 1.218 0 000 2.436zM30.14 54.625a1.218 1.218 0 100-2.435 1.218 1.218 0 000 2.435zM27.01 55.471a1.218 1.218 0 100-2.435 1.218 1.218 0 000 2.435zM24.535 57.95a1.218 1.218 0 100-2.436 1.218 1.218 0 000 2.436zM21.796 59.84a1.218 1.218 0 100-2.436 1.218 1.218 0 000 2.435zM18.407 61.143a1.218 1.218 0 100-2.435 1.218 1.218 0 000 2.435zM15.54 62.707a1.218 1.218 0 100-2.435 1.218 1.218 0 000 2.435zM12.803 65.25a1.218 1.218 0 100-2.436 1.218 1.218 0 000 2.436zM10 67.464a1.218 1.218 0 100-2.435 1.218 1.218 0 000 2.435zM9.218 70.986a1.218 1.218 0 100-2.436 1.218 1.218 0 000 2.436zM12.085 72.418a1.218 1.218 0 100-2.435 1.218 1.218 0 000 2.435zM15.15 71.31a1.218 1.218 0 100-2.435 1.218 1.218 0 000 2.436zM18.407 70.66a1.218 1.218 0 100-2.435 1.218 1.218 0 000 2.436zM21.603 70.072a1.218 1.218 0 100-2.436 1.218 1.218 0 000 2.436zM24.664 68.964a1.218 1.218 0 100-2.435 1.218 1.218 0 000 2.435zM27.728 68.443a1.218 1.218 0 100-2.436 1.218 1.218 0 000 2.436zM31.182 68.964a1.218 1.218 0 100-2.435 1.218 1.218 0 000 2.435zM34.443 67.857a1.218 1.218 0 100-2.435 1.218 1.218 0 000 2.435zM37.703 67.596a1.218 1.218 0 100-2.435 1.218 1.218 0 000 2.435zM41.157 68.247a1.218 1.218 0 100-2.436 1.218 1.218 0 000 2.436zM44.546 67.204a1.218 1.218 0 100-2.436 1.218 1.218 0 000 2.436zM47.803 67.336a1.218 1.218 0 100-2.436 1.218 1.218 0 000 2.436zM50.935 68.182a1.218 1.218 0 100-2.435 1.218 1.218 0 000 2.435zM54.518 67.725a1.218 1.218 0 100-2.435 1.218 1.218 0 000 2.435zM57.907 67.725a1.218 1.218 0 100-2.435 1.218 1.218 0 000 2.435zM61.167 68.575a1.218 1.218 0 100-2.436 1.218 1.218 0 000 2.436zM64.428 68.575a1.218 1.218 0 100-2.436 1.218 1.218 0 000 2.436zM60.842 71.703a1.218 1.218 0 100-2.435 1.218 1.218 0 000 2.435zM58.3 74.05a1.218 1.218 0 100-2.436 1.218 1.218 0 000 2.436zM55.235 75.875a1.218 1.218 0 100-2.436 1.218 1.218 0 000 2.436zM53.282 78.743a1.218 1.218 0 100-2.436 1.218 1.218 0 000 2.436zM50.607 80.764a1.218 1.218 0 100-2.436 1.218 1.218 0 000 2.436zM49.564 83.825a1.218 1.218 0 100-2.435 1.218 1.218 0 000 2.435zM51.325 86.89a1.218 1.218 0 100-2.436 1.218 1.218 0 000 2.435zM54.714 86.043a1.218 1.218 0 100-2.436 1.218 1.218 0 000 2.436zM57.907 85.846a1.218 1.218 0 100-2.435 1.218 1.218 0 000 2.435zM61.364 85.782a1.218 1.218 0 100-2.435 1.218 1.218 0 000 2.435zM64.621 85.718a1.218 1.218 0 100-2.436 1.218 1.218 0 000 2.436zM67.817 84.935a1.218 1.218 0 100-2.435 1.218 1.218 0 000 2.435zM71.139 85.325a1.218 1.218 0 100-2.435 1.218 1.218 0 000 2.435zM74.4 85.586a1.218 1.218 0 100-2.436 1.218 1.218 0 000 2.436zM77.657 84.868a1.218 1.218 0 100-2.436 1.218 1.218 0 000 2.436zM81.05 85a1.218 1.218 0 100-2.436 1.218 1.218 0 000 2.436zM83.85 85.39a1.218 1.218 0 100-2.436 1.218 1.218 0 000 2.435zM78.7 87.996a1.218 1.218 0 100-2.435 1.218 1.218 0 000 2.435zM75.9 89.953a1.218 1.218 0 100-2.435 1.218 1.218 0 000 2.435zM73.617 92.886a1.218 1.218 0 100-2.436 1.218 1.218 0 000 2.436zM71.467 95.689a1.218 1.218 0 100-2.435 1.218 1.218 0 000 2.435zM68.532 97.84a1.218 1.218 0 100-2.436 1.218 1.218 0 000 2.435zM66.903 100.707a1.218 1.218 0 100-2.435 1.218 1.218 0 000 2.435zM64.36 103.054a1.218 1.218 0 100-2.437 1.218 1.218 0 000 2.437zM63.514 106.182a1.218 1.218 0 100-2.435 1.218 1.218 0 000 2.435zM60.775 108.464a1.218 1.218 0 100-2.435 1.218 1.218 0 000 2.435zM59.667 111.725a1.218 1.218 0 100-2.436 1.218 1.218 0 000 2.436zM57.385 114.592a1.217 1.217 0 100-2.435 1.217 1.217 0 000 2.435zM56.603 117.721a1.218 1.218 0 100-2.435 1.218 1.218 0 000 2.435zM63.649 119.718a1.218 1.218 0 100-2.435 1.218 1.218 0 000 2.435zM66.734 119.043a1.218 1.218 0 100-2.435 1.218 1.218 0 000 2.435zM70.207 116.92a1.217 1.217 0 100-2.435 1.217 1.217 0 000 2.435zM73.292 115.089a1.218 1.218 0 100-2.435 1.218 1.218 0 000 2.435zM76.666 114.316a1.217 1.217 0 100-2.435 1.217 1.217 0 000 2.435zM79.561 112.58a1.217 1.217 0 10.001-2.435 1.217 1.217 0 000 2.435zM82.742 112.39a1.217 1.217 0 100-2.435 1.217 1.217 0 000 2.435zM85.828 111.712a1.217 1.217 0 100-2.435 1.217 1.217 0 000 2.435zM85.248 114.991a1.218 1.218 0 100-2.435 1.218 1.218 0 000 2.435zM84.865 118.077a1.218 1.218 0 100-2.435 1.218 1.218 0 000 2.435zM82.837 120.488a1.218 1.218 0 100-2.437 1.218 1.218 0 000 2.437zM79.561 119.718a1.218 1.218 0 100-2.435 1.218 1.218 0 000 2.435zM75.991 119.524a1.217 1.217 0 100-2.435 1.217 1.217 0 000 2.435zM72.81 120.104a1.217 1.217 0 10.001-2.435 1.217 1.217 0 000 2.435zM69.627 120.006a1.218 1.218 0 100-2.435 1.218 1.218 0 000 2.435zM54.193 120.328a1.218 1.218 0 100-2.435 1.218 1.218 0 000 2.435zM51 119.35a1.218 1.218 0 100-2.435 1.218 1.218 0 000 2.435zM47.153 120.003a1.218 1.218 0 100-2.435 1.218 1.218 0 000 2.435zM43.828 119.285a1.217 1.217 0 100-2.435 1.217 1.217 0 000 2.435zM40.31 119.742a1.217 1.217 0 100-2.435 1.217 1.217 0 000 2.435zM37.114 119.221a1.218 1.218 0 100-2.435 1.218 1.218 0 000 2.435zM33.986 118.96a1.218 1.218 0 100-2.435 1.218 1.218 0 000 2.435zM30.793 120.132a1.218 1.218 0 100-2.435 1.218 1.218 0 000 2.435zM27.532 120.653a1.218 1.218 0 100-2.435 1.218 1.218 0 000 2.435zM24.796 122.803a1.217 1.217 0 100-2.435 1.217 1.217 0 000 2.435zM21.993 125.346a1.218 1.218 0 100-2.435 1.218 1.218 0 000 2.435zM20.232 128.671a1.218 1.218 0 100-2.435 1.218 1.218 0 000 2.435zM18.996 132.125a1.218 1.218 0 10-.001-2.437 1.218 1.218 0 00.001 2.437zM18.343 135.581a1.217 1.217 0 100-2.435 1.217 1.217 0 000 2.435zM17.757 138.971a1.218 1.218 0 10-.001-2.437 1.218 1.218 0 000 2.437zM20.364 140.989a1.218 1.218 0 100-2.435 1.218 1.218 0 000 2.435zM23.493 139.556a1.217 1.217 0 100-2.435 1.217 1.217 0 000 2.435zM22.971 142.881a1.217 1.217 0 100-2.435 1.217 1.217 0 000 2.435zM21.864 145.946a1.218 1.218 0 10-.001-2.437 1.218 1.218 0 000 2.437zM21.732 149.528a1.218 1.218 0 100-2.435 1.218 1.218 0 000 2.435zM19.971 152.724a1.217 1.217 0 100-2.435 1.217 1.217 0 000 2.435zM21.864 155.331a1.217 1.217 0 100-2.435 1.217 1.217 0 000 2.435zM24.992 156.374a1.217 1.217 0 100-2.435 1.217 1.217 0 000 2.435zM28.121 155.46a1.218 1.218 0 100-2.435 1.218 1.218 0 000 2.435zM31.314 154.874a1.217 1.217 0 100-2.435 1.217 1.217 0 000 2.435zM34.639 155.46a1.218 1.218 0 100-2.435 1.218 1.218 0 000 2.435zM37.964 155.003a1.218 1.218 0 100-2.435 1.218 1.218 0 000 2.435zM41.025 154.613a1.217 1.217 0 100-2.435 1.217 1.217 0 000 2.435zM44.35 155.2a1.218 1.218 0 10-.001-2.436 1.218 1.218 0 000 2.436zM47.61 155.331a1.217 1.217 0 100-2.435 1.217 1.217 0 000 2.435zM50.868 154.678a1.218 1.218 0 100-2.435 1.218 1.218 0 000 2.435zM54.128 154.874a1.217 1.217 0 100-2.435 1.217 1.217 0 000 2.435zM17.235 142.164a1.218 1.218 0 100-2.435 1.218 1.218 0 000 2.435zM47.61 86.89a1.218 1.218 0 100-2.436 1.218 1.218 0 000 2.435z" fill="#fff"></path></symbol></defs>
			<use xmlns:xlink="http://www.w3.org/1999/xlink" xlink:href="#icn-aflc-adel"></use>
	</svg>