<svg xmlns:xlink="http://www.w3.org/1999/xlink" xmlns="http://www.w3.org/2000/svg" class="icon club-logo" aria-hidden="true" width="200"  height="200" ><defs><symbol viewBox="0 0 200 200" id="icn-aflc-wce" xmlns="http://www.w3.org/2000/svg"><g fill="none" fill-rule="evenodd"><path fill="#003087" d="M135.74 62.718s3.21-.069 4.135.295c0 0 .834-.999 2.63-1.887 0 0-3.427-.581-6.764 1.592"></path><path fill="#003087" d="M146.968 87.413c2.858-8.103-7.635-8.896-7.635-8.896-5.352-6.832-40.667-4.318-40.667-4.318 12.755-6.727 36.191-14.351 36.191-14.351-1.608-1.764-5.836-3.725-5.836-3.725 1.213-.425 2.346-.807 3.377-1.141 0 0-5.901-3.702-15.262-6.284 0 0 2.518 1.301 7.703 5.688 0 0-11.136-5.174-32.103-4.135 0 0 4.692 1.795 12.405 6.36 0 0 1.185-1.088 3.388-1.614-.2 2.791 3.514 5.334 8.298 5.679 1.825.132 3.542-.076 4.979-.537 0 0-2.383 2.726-7.86 2.685-6.612-.022-8.543-3.527-8.543-3.527s-9.214 2.792-14.881 5.835c0 0 5.94-.462 13.117-.126 0 0-20.662 7.756-50.181 35.441 0 0-4.681-14.543 4.918-25.739 0 0 3.324-2.64 17.21-7.301 0 0-20.236 4.174-32.168 8.156 0 0 2.902-11.585 17.633-18.584 0 0 4.625-1.392 17.726-2.876 0 0-13.069-.94-29.645.509 0 0 8.658-10.311 22.259-13.082 0 0 1.495-.204 10.022-.157 0 0-7.778-2.605-19.201-5.165 0 0 46.822-3.776 76.158 16.978 0 0-1.46.49-3.129 1.103 0 0 13.41 4.83 18.666 11.893 7.305 9.445-6.939 21.231-6.939 21.231m-32.927-4.988c4.387-2.446 8.967-5.154 8.967-5.154 9.398-.346 13.261 1.73 13.261 1.73-11.682.607-22.228 3.424-22.228 3.424m-19.364 25.23c-7.304-3.695-9.067-8.9-9.067-8.9 9.906-14.272 24.934-15.196 24.934-15.196-11.334 10.747-15.867 24.095-15.867 24.095m-22.332 4.03s-7.304-6.968-8.816-15.405c0 0 14.609-18.303 39.291-16.33 0 0-18.89 9.236-30.475 31.735m70.24-58.594s1.613-.547 2.996-.922c0 0-33.322-27.811-99.502-19.677 0 0 8.442 3.493 15.754 7.387 0 0-11.57 3.399-23.336 19.284 0 0 1.585-.06 10.607-.32 0 0-9.517 6.852-12.949 23.914 0 0 5.352-1.916 13.61-3.964 0 0-6.342 11.099 2.01 31.13 0 0 3.522-4.282 8.294-8.663 0 0 2.956 10.93 14.122 18.485 0 0 4.115-9.594 8.626-15.87 0 0 3.678 6.628 14.512 9.931 10.373-31.577 37.657-30.256 37.657-30.256 13.81-.335 5.278 10.84 5.278 10.84s17.139-4.979 20.245-20.846c0 0 2.536-11.166-17.924-20.453M63.05 157.37l-1.109-4.738-.522-2.943-1.27 2.943-2.386 4.737h5.288zm31.028-18.947c4.231 0 7.393 1.104 9.454 2.528-.767 2.623-2.82 5.565-5.436 6.9-1.382-1.013-3.199-1.52-5.222-1.52-4.46 0-7.432 2.944-8.096 7.865-.65 4.828 1.607 7.863 5.838 7.863.965 0 1.8-.045 2.548-.137l.742-4.547H89.27c-.02-2.009.307-4.228 1.36-6.05h12.23l-2.169 16.16c-2.454 1.15-5.559 2.347-11.123 2.347-10.07 0-15.075-6.209-13.822-15.498 1.246-9.243 8.445-15.911 18.332-15.911zm-30.963.735c1.425 0 2.661.046 4.01.276l6.916 29.202c-1.837.321-3.753.552-5.5.552-1.012 0-1.966-.093-2.82-.23l-1.11-4.738H54.264l-2.386 4.737c-1.26.138-2.555.184-3.796.184-1.61 0-3.109-.137-4.255-.505l15.02-29.202c1.41-.23 2.888-.276 4.268-.276zm50.395-.092c1.38 0 2.74.138 4.09.368l-2.976 22.073h11.543c.101 1.29.027 2.53-.147 3.817-.16 1.196-.42 2.438-.858 3.634h-19.82l3.98-29.524c1.41-.23 2.809-.368 4.188-.368zm39.39.368c.116 1.196.04 2.438-.12 3.633a18.243 18.243 0 01-.707 3.216l-.157.463h-11.819l-.49 3.633h10.485c.115 1.195.046 2.392-.122 3.633a17.42 17.42 0 01-.696 3.139l-.155.448h-10.485l-.545 4.046h12.233c.114 1.197.038 2.439-.123 3.634a18.27 18.27 0 01-.706 3.215l-.157.464h-20.51l3.486-25.868-3.164-3.656h23.753zm-132.577 0h23.752c.116 1.196.04 2.438-.12 3.633a18.202 18.202 0 01-.708 3.215l-.158.464H31.272l-.49 3.633h10.485c.114 1.195.045 2.392-.122 3.633a17.48 17.48 0 01-.696 3.138l-.156.449H29.808l-.546 4.046h12.233c.115 1.196.04 2.439-.121 3.634a18.234 18.234 0 01-.707 3.215l-.157.464H20l3.487-25.868-3.164-3.656h23.752zm38-15.518c-.277 0-.517.017-.718.037l-.132.01-.026.13c-.62 2.987-1.623 6.12-2.778 8.695-.365-2.204-.647-4.924-.86-8.29l-.008-.137-.133-.027a6.845 6.845 0 00-1.377-.13c-.516 0-.985.042-1.436.13l-.122.022-.02.123c-.388 2.32-1.406 5.392-2.747 8.318a56.698 56.698 0 01-.595-8.665l.002-.155-.154-.023a5.784 5.784 0 00-.86-.057c-.685 0-1.517.084-2.173.22l-.148.031.006.151c.163 4.445.714 8.207 1.686 11.5l.033.111.113.016c.508.07.976.128 1.564.128.44 0 .981-.047 1.485-.129l.078-.012.043-.068c.709-1.1 1.962-3.266 2.676-5.81.127 1.743.331 3.643.862 5.757l.028.113.114.02c.508.09.956.129 1.497.129a7.85 7.85 0 001.49-.13l.076-.014.042-.064c2.254-3.487 3.596-7.59 4.71-11.504l.045-.156-.15-.06c-.307-.12-1.368-.21-2.113-.21zm12.245.107h-7.653l-1.611 11.94h7.802l.05-.097c.364-.73.466-1.454.352-2.5l-.018-.158h-4.755l.27-2.026h4.086l.05-.1c.31-.638.416-1.413.32-2.37l-.015-.16h-4.09l.227-1.772h4.609l.049-.1c.397-.822.496-1.524.35-2.505l-.023-.152zm6.996-.306c-1.582 0-2.926.491-3.783 1.386-.696.724-1.04 1.67-.997 2.733.099 2.401 1.99 3.04 3.37 3.508 1 .338 1.615.573 1.637 1.11.01.274-.051.478-.191.623-.224.233-.66.346-1.333.346-1.128 0-2.301-.393-2.992-1.002l-.096-.083-.11.062c-.778.438-1.387 1.305-1.587 2.267l-.02.097.073.069c.567.53 1.904 1.42 4.49 1.42 1.62 0 2.93-.474 3.79-1.37.715-.744 1.068-1.746 1.02-2.894-.103-2.51-2.068-3.164-3.503-3.642-.84-.279-1.502-.5-1.52-.959a.57.57 0 01.159-.44c.229-.24.69-.366 1.335-.366 1.343 0 2.253.557 2.581.796l.09.065.1-.052c.75-.4 1.36-1.293 1.554-2.27l.02-.097-.073-.069c-.313-.29-1.526-1.238-4.014-1.238zm15.48.306h-9.149l-.044.114c-.273.686-.387 1.495-.347 2.472l.007.171h3.07l-1.242 9.147.164.033c.425.088.87.13 1.358.13.491 0 .948-.042 1.4-.13l.127-.024 1.242-9.156h3.052l.044-.113c.28-.724.387-1.534.328-2.476l-.01-.168zm12.642-.413c-1.835 0-3.505.687-4.704 1.936-1.33 1.386-2.012 3.377-1.92 5.61.129 3.145 2.197 5.097 5.396 5.097 1.566 0 2.863-.402 3.854-1.194l.072-.057-.005-.093c-.063-1.03-.51-1.796-1.332-2.273l-.104-.06-.095.073c-.545.422-1.01.72-2.042.72-1.464 0-2.377-.975-2.444-2.607-.058-1.407.317-2.606 1.056-3.376a2.727 2.727 0 012.012-.858c.788 0 1.306.176 1.844.626l.09.076.105-.054c.808-.412 1.557-1.325 1.825-2.22l.032-.107-.083-.076c-.584-.53-1.674-1.163-3.557-1.163zm10.97.035c-1.78 0-3.322.625-4.457 1.808-1.296 1.35-1.957 3.362-1.863 5.666.13 3.188 2.179 5.17 5.345 5.17 1.795 0 3.344-.627 4.482-1.812 1.291-1.346 1.951-3.358 1.856-5.663-.13-3.188-2.186-5.17-5.364-5.17zm1.073 9.002c-.471.49-1.086.74-1.828.74-1.381 0-2.212-.943-2.28-2.589-.063-1.535.288-2.782.988-3.511.472-.492 1.087-.741 1.827-.741 1.796 0 2.231 1.407 2.28 2.589.063 1.536-.287 2.784-.987 3.512zm13.211-8.62c-.466-.093-.88-.111-1.356-.111-.401 0-.928.013-1.436.111l-.087.016-5.79 11.714.184.07c.371.138.862.209 1.46.209.468 0 .893-.025 1.265-.074l.096-.012 1.09-2.277h3.71l.45 2.268.12.02c.351.062.684.093.991.093.536 0 1.112-.07 1.816-.22l.175-.038-2.574-11.747-.114-.022zm-3.373 7.141l1.193-2.51.226-.51.084.473.505 2.547h-2.008zm13.754-7.45c-1.582 0-2.926.49-3.783 1.385-.696.724-1.04 1.67-.998 2.733.1 2.401 1.99 3.04 3.37 3.508 1 .338 1.616.573 1.638 1.11.01.274-.052.478-.191.623-.224.233-.66.346-1.334.346-1.127 0-2.301-.393-2.992-1.002l-.095-.083-.11.062c-.777.437-1.386 1.305-1.587 2.266l-.022.098.074.069c.567.53 1.906 1.42 4.49 1.42 1.62 0 2.931-.474 3.791-1.37.715-.744 1.067-1.746 1.02-2.894-.103-2.51-2.07-3.164-3.505-3.642-.838-.279-1.5-.5-1.519-.959a.572.572 0 01.16-.44c.229-.24.69-.366 1.334-.366 1.344 0 2.253.557 2.582.796l.09.065.1-.052c.75-.4 1.36-1.293 1.554-2.27l.02-.097-.073-.069c-.313-.29-1.526-1.238-4.014-1.238zm28.402 14.935c5.335 0 8.778 1.747 10.255 3.081-.531 2.575-2.1 5.333-4.631 6.714-1.454-1.15-4.025-2.208-7.29-2.208-2.3 0-3.523.552-3.647 1.472-.143 1.057.181 1.38 5.567 2.713 5.16 1.287 8.563 3.678 8.007 8.829-.735 6.807-5.822 10.44-13.226 10.44-6.301 0-10.002-1.886-11.801-3.542.567-2.85 2.301-5.472 4.484-6.669 1.787 1.427 4.983 2.623 8.523 2.623 2.713 0 3.702-.507 3.832-1.472.155-1.15-.335-1.61-5.175-2.896-4.976-1.289-9.085-3.22-8.312-9.29.778-6.116 6.148-9.795 13.414-9.795zm-12.923-14.63l.011.168c.06.942-.048 1.752-.328 2.476l-.045.113h-3.051l-1.243 9.156-.126.024a7.25 7.25 0 01-1.4.13c-.49 0-.934-.042-1.359-.13l-.163-.033 1.243-9.147h-3.072l-.006-.17c-.04-.978.073-1.786.347-2.473l.045-.114h9.147z"></path><path fill="#FFF" d="M113.683 56.408c-1.685-.502-1.852-1.905-1.852-1.905s2.371-.197 5.771.353c0 0-2.443.671-3.919 1.552"></path><path fill="#F2A900" d="M153.908 66.182c7.304 9.445-6.94 21.231-6.94 21.231 2.857-8.103-7.635-8.895-7.635-8.895-5.352-6.832-40.667-4.319-40.667-4.319 12.755-6.727 36.19-14.351 36.19-14.351-1.607-1.764-5.836-3.725-5.836-3.725a157.04 157.04 0 013.378-1.141s-5.902-3.702-15.262-6.284c0 0 2.518 1.301 7.703 5.688 0 0-11.135-5.174-32.103-4.135 0 0 4.691 1.795 12.404 6.36 0 0 1.186-1.088 3.39-1.614-.202 2.791 3.513 5.334 8.297 5.679 1.825.132 3.542-.076 4.979-.537 0 0-2.383 2.726-7.861 2.685-6.61-.022-8.542-3.527-8.542-3.527s-9.214 2.792-14.881 5.835c0 0 5.94-.462 13.118-.126 0 0-20.664 7.756-50.182 35.441 0 0-4.682-14.543 4.918-25.739 0 0 3.324-2.64 17.209-7.301 0 0-20.235 4.174-32.167 8.156 0 0 2.902-11.585 17.633-18.584 0 0 4.626-1.392 17.726-2.876 0 0-13.069-.94-29.645.509 0 0 8.658-10.311 22.259-13.082 0 0 1.495-.204 10.021-.157 0 0-7.778-2.605-19.2-5.165 0 0 46.822-3.776 76.158 16.978 0 0-1.46.49-3.129 1.103 0 0 13.41 4.83 18.667 11.893m-14.034-3.17s.835-.998 2.632-1.886c0 0-3.427-.581-6.765 1.592 0 0 3.208-.069 4.133.295m-25.832 19.412s10.544-2.817 22.227-3.425c0 0-3.863-2.075-13.26-1.728 0 0-4.581 2.707-8.967 5.153m-19.366 25.23s4.534-13.35 15.868-24.096c0 0-15.028.924-24.935 15.196 0 0 1.764 5.205 9.067 8.9M63.53 96.278s14.607-18.303 39.29-16.33c0 0-18.89 9.236-30.475 31.735 0 0-7.304-6.969-8.815-15.405"></path></g></symbol></defs>
			<use xmlns:xlink="http://www.w3.org/1999/xlink" xlink:href="#icn-aflc-wce"></use>
	</svg>