<svg xmlns:xlink="http://www.w3.org/1999/xlink" xmlns="http://www.w3.org/2000/svg" class="icon club-logo" aria-hidden="true" width="200"  height="200" ><defs><symbol viewBox="0 0 200 200" id="icn-aflc-adel" xmlns="http://www.w3.org/2000/svg"><g fill="none" fill-rule="evenodd"><path fill="#002B5C" d="M99.625 149.444c-1.242-.123-3.136.065-3.136.065 1.64-1.084 2.093-1.195 2.19-1.203-3.044.044-4.717.672-4.717.672a19.438 19.438 0 012.85-2.1l-20.319.003.526-1.178s-1.832 1.151-3.57 1.151l-36.65.007 10.18-14.59-3.755.76 3.53-3.855-5.974 1.467s6.929-8.297 15.239-8.207c1.845.02 15.655 0 21.126 0 7.136 0 7.48 1.622 7.494 1.848-.019-1.705-1.88-1.86-1.88-1.86h29.937l2.001.012h35.905l24.657 2.848-6.565 21.584-9.466.002-1.893 2.562s.219.543-.324 3.367-3.903 5.7-8.248 5.689c-6.72-.016-34.433 0-43.981 0-8.244 0-6.032-6.917-5.157-9.044"></path><path fill="#FFD200" d="M111.632 145.729l-1.424 4.14c-.442-.594-1.082-1.102-2.017-1.104-1.234-.003-2.593.932-3.034 2.115-.448 1.196.278 2.12 1.512 2.123.95.003 1.848-.385 2.743-1.002l-1.638 4.064c-.776.301-2.36.427-3.1.426-3.24-.008-4.871-2.42-3.715-5.52.362-.965.942-1.872 1.67-2.666a59.07 59.07 0 00-2.748.188c2.066-1.228 3.228-1.414 3.673-1.434-3.027-.07-4.642.424-4.642.424 4.088-1.974 7.662-2.78 11.165-2.137.554.074 1.08.203 1.555.383m-8.078 1.33l.21.005s-.068-.01-.21-.005"></path><path fill="#002B5C" d="M9.21 62.104s85.082-58.763 148.334 22.24c0 0 35.095 22.444 19.588 52.642l-3.264-9.386s-14.283-.204-32.443-7.346c-18.158-7.14-33.461-1.224-33.461-1.224s.408-4.08 3.877-7.14c0 0-16.324 6.12-18.363 11.017 0 0 .814-8.57 4.692-13.057 0 0-9.386 2.242-17.752 7.956 0 0 1.837-8.977 10.407-14.486 0 0-18.567.203-37.134 10.201 0 0 13.26-24.687 33.869-32.85 0 0-16.934-5.508-39.787-2.652 0 0 10.815-12.242 27.954-14.487 0 0-37.747-7.55-66.517-1.428"></path><path fill="#E31937" d="M55.678 125.015h.655l1.286.007 6.532.005.797 11.932 3.193-10.38c.06-.336.079-.701-.046-.973-.26-.575-.88-.609-.88-.609l3.373.033 5.296.003c5.955.001 9.964 2.254 9.117 7.761l1.9-6.167c.066-.343.09-.73-.037-1.01-.26-.578-.882-.61-.882-.61l3.376.03 11.237.004-1.574 5.116-6.017-.004-.55 1.788 5.494.003-1.494 4.868-5.496-.004-.566 1.837 6.227.004-1.575 5.114-13.412-.006 2.269-7.377c-2.164 4.564-6.864 7.375-12.004 7.373l-6.497-.001h-2.543l-5.01-.004.066-2.334-5.391-.002-1.29 2.33h-7.556l8.565-12.738.03-.065c.31-.632.479-1.153.534-1.582-1.902-.116-4.617.882-4.617.882a19.553 19.553 0 014.11-2.299c-1.535-1.098-5.902.507-5.902.507 2.888-2.09 6.096-3.432 9.282-3.432zm21.755 9.627c.81-2.632-.434-3.75-3.04-3.751h-.442l-2.23 7.249.442.001c2.374.002 4.517-1.042 5.27-3.499zm-22.269 2.324l2.865.002.183-3.302c.034-.795.158-1.615.273-2.41l-3.32 5.71zm58.81-5.723l.147-.304c.308-.632.476-1.153.53-1.582-1.9-.116-4.614.882-4.614.882a19.52 19.52 0 014.11-2.299c-1.536-1.098-5.903.507-5.903.507 3.346-2.463 6.61-3.432 11.144-3.432 3.187 0 1.67.007 1.67.007h4.988l1.05 16.025 4.917-15.993 7.026.003h3.204l5.258.005c5.556 0 9.421 1.965 9.222 6.708l1.32-4.294.22-.675c.09-.379.14-.833-.006-1.156-.262-.575-.882-.608-.882-.608l3.372.03 11.252.004-1.572 5.115-6.016-.002-.551 1.786 5.495.004-1.494 4.868h-5.497l-.565 1.833 6.224.004-1.571 5.114-13.416-.005 1.959-6.395c-2.34 3.984-6.722 6.395-11.484 6.39l-9.038-.006 5.356-17.414c.027-.261.014-.52-.08-.725a1.005 1.005 0 00-.61-.548l-5.747 18.691-6.114-.004-1.022-.001-6.531-.003.066-2.332-5.392-.004-1.292 2.333h-7.551l-10.123-.007 5.76-18.722 7.137.002-3.91 12.713 5.174.003 4.38-6.516zm35.076 3.43c.81-2.632-.437-3.753-3.04-3.75l-.403-.008-2.27 7.255.442.002c2.372.001 4.515-1.041 5.271-3.5zm-32.006 2.321h2.863l.18-3.303c.038-.792.16-1.613.272-2.408l-3.315 5.711z"></path><path fill="#004B8D" d="M32.72 55.23s73.897-33.606 121.236 32.524c0 0 28.908 20.417 22.946 38.665 0 0-.722-4.335-2.167-8.131-1.446-3.794-23.127-21.861-44.99-25.656l3.433 10.478.723-6.323s10.84 14.456 36.678 24.575c0 0-1.988 3.61-19.151-2.351-17.166-5.962-23.85-8.492-31.8-7.227 0 0 5.78-4.698 14.453-3.434 0 0-10.117-5.058-29.993 1.808 0 0 5.24-5.603 11.564-6.325 0 0-8.853-2.348-26.199 5.962 0 0 9.758-9.576 18.79-10.84 0 0-20.597-3.613-42.097 4.518 0 0 7.95-14.636 36.858-24.934 0 0-19.332-6.144-43.905-5.06 0 0 15.718-9.395 33.787-8.31 0 0-20.236-12.647-60.167-9.938"></path><path fill="#004B8D" d="M116.413 58.83c.555.196-12.655-8.562-30.149-9.864-17.492-1.302-37.592 2.048-37.592 2.048s34.987-3.722 67.74 7.816"></path><path fill="#33619E" d="M175.405 113.728s-7.071-12.097-15.072-18.61l-8.004-6.512.93 4.651s13.4 10.05 22.146 20.47M116.413 58.83c.555.196-12.655-8.562-30.149-9.864-17.492-1.302-37.592 2.048-37.592 2.048s34.987-3.722 67.74 7.816M77.627 69.146c1.256-.472 14.356-6.262 29.572.983 0 0-13.368-2.784-29.572-.983"></path><path fill="#FFD200" d="M132.827 74.252c-.168.057-6.186 2.528-3.794 7.311 2.094 4.188 9.941 3.102 10.312-2.323"></path><path fill="#002B5C" d="M134.782 75.48s-9.653-1.736-15.564-1.79c0 0 7.347 2.06 9.294 5.128 0 0 .522-4.694 6.27-3.339m5.695 4.061s1.164 3.534-1.22 5.27c-2.387 1.736-9.951 3.353-11.307-4.4 0 0 2.533 5.31 8.173 3.196 5.64-2.114.162-8.003.162-8.003l4.192 3.938z"></path><path fill="#002B5C" d="M136.924 77.086l-2.79-3.348-2.279 3.254s-1.139 1.463-.164 2.766c.978 1.302 1.951 2.115 4.07 1.139 2.113-.978 1.163-3.81 1.163-3.81"></path><path fill="#E31937" d="M133.671 74.809c-.123.04-4.393 1.79-2.724 5.246 1.666 3.458 6.833 2.199 7.401-1.666.568-3.864-.849-1.082-.849-1.082s-1.473 4.855-4.417 3.04c-2.615-1.613-.061-4.969 2.094-4.4 2.156.572-1.505-1.138-1.505-1.138"></path><path fill="#002B5C" d="M144.94 86.802s1.165-14.382-26.372-18.867c0 0 20.422 9.479 26.372 18.867"></path><path fill="#FFD200" d="M116.497 149.375c-.302.807-1.017.908-1.694.906h-.287l.689-1.846.316.001c.707.001 1.289.103.976.94m4.085-.12c1.023-2.739-.759-3.783-3.32-3.788l-4.22-.01-1.368-.015s.24-.007.335.238c.062.163.01.42-.043.605l-3.747 10.039 4.037.01 1.302-3.488h.076l.506 3.491 4.759.012-1.151-3.536c-.109-.32-.3-.492-.45-.652l.03-.086c1.72-.486 2.642-1.178 3.254-2.82"></path><path fill="#FFD200" d="M126.637 148.894c1.31.004 1.765.97 1.334 2.125-.463 1.24-1.654 2.088-2.904 2.086-1.25-.003-1.807-.857-1.345-2.096.432-1.153 1.606-2.118 2.915-2.115m1.336-3.573c-3.45-.008-7.112 2.204-8.386 5.62-1.303 3.49.734 5.585 4.199 5.594 3.465.007 7.062-2.077 8.364-5.565 1.276-3.418-.73-5.642-4.177-5.65"></path><path fill="#FFD200" d="M132.144 145.501l-.081 10.88 3.51.006 2.68-4.272c.337-.533.627-1.07.881-1.634h.136l-.91 5.914 3.6.007 8.092-10.891-4.29-.022-2.882 4.611c-.381.619-.705 1.282-1.001 1.917h-.092l.88-6.514-3.15-.007-2.902 4.503c-.422.65-.77 1.34-1.094 2.003l-.09-.001.99-6.505-4.277.005z"></path><path fill="#FFD200" d="M144.542 155.586c1.05.624 2.566 1.002 3.998 1.004 2.455.007 5.405-1.27 6.374-3.866.688-1.845-.245-2.74-1.851-3.12l-.86-.204c-.289-.073-.779-.133-.629-.535.168-.447.743-.577 1.105-.575.887.002 1.552.365 2.088.826l2.154-2.779c-.873-.651-1.95-.954-3.246-.958-2.47-.007-5.464 1.429-6.428 4.009-.635 1.7.383 2.613 1.893 2.89l.773.147c.351.071.877.118.694.607-.183.49-.89.649-1.297.647-.95-.002-1.67-.451-2.204-1.001l-.152-.158-2.412 3.066zm-25.058-25.457s-3.489 6.046-3.827 6.606c-.24.402-.543 1.63 1.032 1.63h4.007l-.803-1.085h-3.454l3.702-6.281-.657-.87zm25.043-.011l.745.66-2.336 7.642s.96.298 4.012-.512c0 0-5.96 3.096-4.942-.14.974-3.085 1.178-3.746 2.52-7.65m18.805-1.328s-.874 2.903-.992 3.311c-.08.28-.346 1.076.862 1.076h4.484l-.742 2.573.703.848 1.304-4.314h-5.51l.736-2.416-.845-1.078zm-2.1 6.771s-.837 2.84-.955 3.246c-.082.281-.346 1.076.862 1.076h5.198l-.742 2.575.652.846 1.303-4.312h-6.174l.702-2.353-.846-1.078zm-41.715-10.165l6.076-.003s1.098 16.439 1.11 16.546c.032.339.32.651.681.687 0 0-1.787.508-1.932-1.447-.145-1.957-.87-14.771-.87-14.771l-5.701.006.636-1.018zm-18.12.001l.492 1.01h4.363s-3.447 10.846-3.608 11.334c-.165.488.234 1.521 1.265 1.521h5.866l-.67-1.049h-5.268l3.95-12.816h-6.39z"></path><path fill="#FFE694" d="M112.241 145.584l.331.482s3.81.008 5.473.007c1.439 0 2.888 1.478 2.03 3.625 0 0 .991-1.453.48-2.66-.483-1.141-1.567-1.37-2.474-1.408-1.08-.045-5.84-.046-5.84-.046m-2.095 3.812l-.446-.835.857-2.382s-1.485-.422-4.038-.21c-2.933.24-5.934 1.018-5.934 1.018s5.457-2.778 10.77-1.125l-1.209 3.534zm-5.136.132s-1.187 1.675-.744 2.943c.447 1.266 2.472 1.583 3.9.92l-1.105 2.622.604-.149 1.34-3.414s-1.174.877-2.51.74c-1.337-.138-2.272-1.23-1.348-2.772l-.136-.89z"></path><path fill="#FFE694" d="M102.748 147.504c-.217 0-1.48.578-1.48.578s1.72-.265 2.66-.265"></path><path fill="#FFD200" d="M114.982 128.091c-.37 0-2.287 1.05-2.287 1.05s2.658-.618 4.265-.618"></path><path fill="#FFE694" d="M113.434 152.595l-.275-.751-1.384 3.747.376.526zm3.178-.643l1.333 3.776.75.475s-1.092-3.3-1.186-3.517c-.177-.408-.897-.734-.897-.734m-1.889-4.26s-.88 2.234-.88 2.608c0 .375.031.603.925.6a1.73 1.73 0 001.207-.514s-1.232.15-1.657 0l.74-2.173-.335-.52zm9.485 1.234s-1.81 1.34-1.52 3.332c.289 1.992 2.39 1.629 4.273.904 0 0-1.522.109-2.03.073-.505-.036-1.964-.248-1.483-2.173.109-.434.67-1.085.67-1.085l.09-1.05zm-1.287-1.861s1.485-1.23 3.403-1.483c1.92-.255 4.816-.292 6.01 2.135l-.651.146s-1.195-1.92-4.382-1.92c-3.186 0-4.38 1.122-4.38 1.122m9.326-1.473l.196.474 3.192.007s-.906 5.977-.914 6.314c-.024.855.863-.259.863-.259s-.398.313-.275-.367c.048-.266.956-6.177.956-6.177l-4.018.008zm7.332 0l.17.474 2.13.007s-.79 5.977-.8 6.314c-.022.855.864-.259.864-.259s-.398.313-.276-.367c.048-.266.843-6.177.843-6.177l-2.931.008zm-4.061 10.632l-.303-.564 3.596-5.799.272.489zm6.371-.037l-.236-.37 5.657-7.632-.068.839zm3.941-10.595l4.042-.005s-1.43 1.662-1.13 1.694c.303.035.694-.151.694-.151s-1.47.869-1.203.096c.269-.77.727-1.172.727-1.172l-2.838.007-.292-.47zm3.999 1.221s.75-.816 2.667-1.187c1.685-.327 3.551.257 4.142.779l-1.833 2.399-.191-.643 1.143-1.518s-2.237-1.34-5.928.17m1.284 1.784s-.758.716.054 1.075c.772.34 1.42.505 2.261.735 1.322.364 1.466 2.23-.646 4.478 0 0 1.523-.63 2.063-2.58.44-1.585-.732-2.253-1.765-2.498-.698-.165-1.913-.367-1.698-.842l-.269-.368z"></path><path fill="#FFD200" d="M132.209 125.396h6.514l-5.58 17.894-.935-.804 4.919-16.082-4.544-.008z"></path><path fill="#FFF" d="M134.802 77.276s-1.682.677-1.74 1.7c0 0-.883-1.391.6-2.512l1.14.812z"></path><path fill="#FFD200" d="M110.942 127.27s2.955-1.874 8.573-1.874l.763 1.024s-6.24-.127-9.336.85m-53.477 2.859s-3.49 6.046-3.828 6.606c-.24.402-.542 1.63 1.033 1.63h4.006l-.802-1.085h-3.455l3.702-6.281-.656-.87zm.031-4.733l6.076-.003s1.099 16.439 1.108 16.546c.035.339.32.651.682.687 0 0-1.785.508-1.93-1.447-.145-1.957-.87-14.771-.87-14.771l-5.702.006.636-1.018zm-4.533 2.695c-.371 0-2.288 1.05-2.288 1.05s2.659-.618 4.266-.618"></path><path fill="#FFD200" d="M48.923 127.27s2.954-1.874 8.573-1.874l.763 1.024s-6.241-.127-9.336.85m109.643-1.88c.16.17.31.477.232 1.007h11.441l-.802 2.502.77 1.044 1.402-4.554h-13.043zm-66.746 3.4s-.874 2.903-.992 3.311c-.08.28-.346 1.076.862 1.076h4.484l-.742 2.573.703.848 1.304-4.314h-5.51l.736-2.416-.845-1.078zm-2.1 6.771s-.838 2.84-.955 3.246c-.082.281-.346 1.076.862 1.076h5.198l-.742 2.575.652.846 1.303-4.312h-6.173l.7-2.353-.845-1.078zm-2.665-10.171c.16.17.309.477.233 1.007h11.44l-.802 2.502.769 1.044 1.402-4.554H87.055zm68.753 3.527c-1.408-2.835-4.777-3.521-7.718-3.521h-8.17c.162.164.325.47.252 1.008h8.578c3.801 0 7.718 2.354 6.946 8.42 0 0 1.216-3.685.112-5.907m-82.88 1.144l.746.66-2.336 7.644s.96.296 4.012-.513c0 0-5.96 3.095-4.942-.14.973-3.086 1.177-3.747 2.52-7.65m11.282-1.202c-1.407-2.835-4.777-3.52-7.718-3.52H68.32c.164.165.327.47.254 1.008h8.576c3.803 0 7.72 2.353 6.947 8.42 0 0 1.216-3.686.113-5.908"></path></g></symbol></defs>
			<use xmlns:xlink="http://www.w3.org/1999/xlink" xlink:href="#icn-aflc-adel"></use>
	</svg>