<svg xmlns:xlink="http://www.w3.org/1999/xlink" xmlns="http://www.w3.org/2000/svg" class="icon club-logo" aria-hidden="true" width="200"  height="200" ><defs><symbol viewBox="0 0 200 200" id="icn-aflc-coll" xmlns="http://www.w3.org/2000/svg"><g fill="none" fill-rule="evenodd"><path fill="#FFF" d="M157.714 96.678a3.4 3.4 0 00-2.093-1.097c.7-1.386 1.265-3.06 1.595-5.09a3.402 3.402 0 00-1.376-3.312 3.408 3.408 0 00-.554-.315c.245-.978.406-2.02.473-3.132a3.405 3.405 0 00-1.706-3.159c-.035-.02-.072-.033-.107-.051a14.38 14.38 0 00.286-2.985 3.403 3.403 0 00-2.78-3.326 14.105 14.105 0 00-.18-1.627 3.401 3.401 0 00-2.37-2.693 3.42 3.42 0 00-.546-.113 12.195 12.195 0 00-.62-3.108 3.397 3.397 0 00-2.567-2.258v-1.706c-1.958-1.757-19.15-16.495-45.083-16.495-26.118 0-42.997 14.589-45.088 16.492v1.674a3.401 3.401 0 00-2.734 2.293 12.207 12.207 0 00-.62 3.108 3.413 3.413 0 00-.546.113 3.4 3.4 0 00-2.37 2.693 14.103 14.103 0 00-.18 1.627 3.403 3.403 0 00-2.78 3.325 14.38 14.38 0 00.286 2.986c-.035.018-.073.031-.107.051a3.405 3.405 0 00-1.706 3.159 17.02 17.02 0 00.473 3.132 3.361 3.361 0 00-.554.315 3.402 3.402 0 00-1.376 3.313c.33 2.029.895 3.703 1.595 5.09a3.399 3.399 0 00-2.724 4.629 19.678 19.678 0 001.818 3.536 3.398 3.398 0 00-1.341 4.504c.846 1.653 1.773 3.01 2.739 4.134a3.38 3.38 0 00-.74.796 3.403 3.403 0 00-.096 3.587c1.089 1.864 2.26 3.346 3.46 4.53-.249.256-.463.55-.624.881a3.404 3.404 0 00.378 3.57c1.79 2.302 3.635 3.941 5.44 5.102a3.393 3.393 0 00-1.144 1.814 3.403 3.403 0 001.12 3.41c1.97 1.651 3.872 2.808 5.678 3.602a3.398 3.398 0 00.425 5.62c2.982 1.702 5.703 2.598 8.147 2.976a3.4 3.4 0 00-.73 2.547 3.403 3.403 0 002.25 2.795c3.01 1.056 5.67 1.475 8.005 1.475 1.883 0 3.548-.278 5.02-.708.273.376.572.668.903.85l.01.005c5.27 2.714 10.895 3.978 17.717 3.98 6.807-.002 12.432-1.266 17.712-3.985.32-.175.61-.453.874-.809a17.79 17.79 0 004.884.667c2.334 0 4.995-.419 8.005-1.475a3.403 3.403 0 002.25-2.795 3.4 3.4 0 00-.73-2.547c2.444-.379 5.166-1.274 8.147-2.977a3.402 3.402 0 00.425-5.62c1.806-.794 3.71-1.95 5.678-3.602a3.403 3.403 0 001.12-3.409 3.394 3.394 0 00-1.144-1.814c1.805-1.16 3.65-2.8 5.44-5.102a3.404 3.404 0 00.378-3.57 3.388 3.388 0 00-.624-.881c1.2-1.184 2.371-2.666 3.46-4.53a3.403 3.403 0 00-.096-3.587 3.383 3.383 0 00-.74-.796c.967-1.124 1.893-2.482 2.739-4.134a3.402 3.402 0 00-1.341-4.504 19.678 19.678 0 001.818-3.536 3.402 3.402 0 00-.63-3.533"></path><path fill="#FFF" d="M119.127 153.682l.004-.009-.004.009m.773-12.126c-.02-.09-.042-.173-.063-.26.022.086.043.17.064.26m-39.571-.267c-.022.088-.044.173-.065.265.021-.09.043-.177.065-.265m-.137.6"></path><path fill="#000" d="M79.71 146.468c0-.08.02-1.839.337-3.79.136-.842.31-1.572.513-2.214-12.21-8.628-25.562-21.835-25.562-38.352V65.194a2.599 2.599 0 00-1.974 1.728c-.424 1.278-.616 2.495-.588 3.65a2.607 2.607 0 00-1.106.085 2.602 2.602 0 00-1.812 2.06c-.131.78-.19 1.528-.18 2.246a2.595 2.595 0 00-1.31.254 2.603 2.603 0 00-1.46 2.324c-.006 1.324.152 2.47.418 3.468a2.602 2.602 0 00-1.946 2.674c.086 1.408.322 2.628.654 3.703a2.592 2.592 0 00-2.12 2.977c.434 2.662 1.29 4.68 2.325 6.217a3.34 3.34 0 00-.383-.134 2.605 2.605 0 00-3.117 3.469c.678 1.704 1.476 3.09 2.336 4.225a2.597 2.597 0 00-1.665 1.011 2.603 2.603 0 00-.226 2.736c1.007 1.966 2.132 3.501 3.3 4.702a2.595 2.595 0 00-1.417 3.776c1.254 2.147 2.622 3.765 4.014 4.989a2.6 2.6 0 00-1.149 1.173 2.603 2.603 0 00.29 2.73c1.967 2.53 4.153 4.41 6.521 5.651-.041.008-.082.012-.124.021a2.6 2.6 0 00-1.1 4.532c2.397 2.01 4.861 3.41 7.367 4.192-.383.06-.743.138-1.108.293a2.603 2.603 0 00-.273 4.655c3.867 2.208 7.278 3.016 10.187 3.078-.438.146-.836.298-1.222.552a2.602 2.602 0 00.57 4.63c2.902 1.017 5.464 1.42 7.712 1.42 1.72 0 3.254-.24 4.617-.618-.42-.848-.75-1.982-.982-3.412a27.998 27.998 0 01-.338-3.783m77.41-49.254a2.603 2.603 0 00-2.635-.768 3.455 3.455 0 00-.383.134c1.034-1.538 1.891-3.555 2.325-6.217a2.593 2.593 0 00-2.12-2.977c.332-1.075.569-2.295.654-3.703a2.603 2.603 0 00-1.946-2.674c.266-.999.425-2.144.417-3.468a2.603 2.603 0 00-1.459-2.324 2.598 2.598 0 00-1.31-.254c.01-.718-.049-1.466-.18-2.246a2.602 2.602 0 00-2.918-2.147c.028-1.154-.165-2.37-.588-3.648a2.6 2.6 0 00-1.807-1.693v36.884c0 16.534-13.35 29.74-25.559 38.363.201.64.373 1.366.51 2.202.316 1.951.337 3.71.338 3.783-.001.081-.022 1.84-.338 3.79-.237 1.455-.575 2.602-1.005 3.454a17.21 17.21 0 004.473.576c2.248 0 4.811-.404 7.712-1.421a2.603 2.603 0 00.57-4.629c-.386-.254-.784-.406-1.222-.552 2.909-.062 6.321-.87 10.188-3.078a2.602 2.602 0 00-.275-4.655 4.616 4.616 0 00-1.13-.297c2.287-.706 4.778-1.997 7.39-4.188a2.602 2.602 0 00-1.1-4.532c-.041-.01-.08-.013-.121-.02 2.135-1.115 4.366-2.883 6.52-5.652.606-.78.718-1.838.288-2.73a2.598 2.598 0 00-1.148-1.173c1.39-1.224 2.759-2.842 4.013-4.99a2.602 2.602 0 00-.073-2.743 2.59 2.59 0 00-1.345-1.032c1.168-1.2 2.294-2.736 3.3-4.702.45-.881.364-1.94-.225-2.735a2.597 2.597 0 00-1.665-1.012c.86-1.135 1.658-2.521 2.336-4.225a2.602 2.602 0 00-.482-2.701"></path><path fill="#AB9767" d="M71.73 136.232a7.22 7.22 0 012.536-.588 82.818 82.818 0 01-4.083-3.637c-2.925-.672-5.806.42-8.51.967-4.359.883-6.135.339-6.82.494 8.208 6.887 14.635 3.71 16.877 2.764m-6.602-6.608c1.121-.213 2.026-.14 2.658-.012a61.95 61.95 0 01-3.933-4.519c-2.415-.862-5.05-.497-7.456-.526-4.242-.05-5.791-.914-6.461-.907 6.277 8.072 12.91 6.397 15.192 5.964m-4.966-7.258a6.596 6.596 0 011.783.137 45.542 45.542 0 01-2.832-4.648c-2.006-.878-4.28-.886-6.331-1.184-3.88-.564-5.193-1.544-5.808-1.62 4.766 8.16 11.046 7.434 13.188 7.315m-2.985-8.099c.097 0 .18.01.272.014a34.625 34.625 0 01-1.485-4.52c-1.73-.739-3.673-.88-5.427-1.235-3.619-.733-4.802-1.723-5.376-1.826 4.054 7.92 9.996 7.567 12.016 7.567m-2.247-7.525c.155.015.295.04.436.064a30.814 30.814 0 01-.346-3.694c-1.636-1.213-3.722-1.517-5.547-2.07-3.176-.962-4.15-1.948-4.656-2.09 2.957 7.432 8.305 7.619 10.113 7.79m-1.138-7.665c.494.159.886.36 1.206.562v-3.342c-1.226-1.79-3.307-2.544-5.032-3.512-2.701-1.516-3.391-2.61-3.823-2.84 1.2 7.367 6.036 8.612 7.65 9.132m-.172-6.732a4.494 4.494 0 011.377.919v-3.179c-.913-1.773-2.738-2.647-4.214-3.685-2.267-1.593-2.783-2.63-3.146-2.874.403 6.666 4.594 8.211 5.983 8.82m-.056-7.3c1.086.563 1.426 1.322 1.433 1.337v-2.548c-.498-1.858-2.143-2.745-3.422-3.776-1.759-1.416-2.123-2.287-2.405-2.504-.029 5.441 3.297 6.922 4.394 7.49m1.288-4.749c.053.04.097.08.145.12v-3.504c-.387-.43-.804-.831-1.173-1.242-1.332-1.483-1.526-2.293-1.741-2.523-.795 4.738 1.894 6.499 2.769 7.15m83.475 52.677c-2.633-.533-5.432-1.58-8.276-1.015a82.677 82.677 0 01-4.143 3.694c.637.043 1.439.19 2.362.579 2.24.946 8.668 4.123 16.876-2.764-.685-.155-2.461.389-6.82-.494m-1.938-7.961a61.692 61.692 0 01-3.959 4.564 6.904 6.904 0 012.442.047c2.281.433 8.915 2.108 15.192-5.964-.67-.007-2.218.857-6.461.907-2.327.028-4.866-.31-7.214.446m4.721-7.251a45.444 45.444 0 01-2.848 4.7 6.67 6.67 0 011.576-.096c2.142.12 8.422.845 13.189-7.314-.615.075-1.928 1.055-5.809 1.619-1.975.287-4.158.306-6.108 1.091m3.113-8.076a34.617 34.617 0 01-1.497 4.586c.034 0 .063-.005.097-.005 2.02 0 7.962.354 12.016-7.567-.574.103-1.757 1.094-5.376 1.826-1.692.343-3.558.488-5.24 1.16m10.96-10.733c-.505.14-1.48 1.127-4.656 2.09-1.762.533-3.769.834-5.378 1.945a30.898 30.898 0 01-.344 3.793c.09-.012.17-.03.265-.039 1.808-.171 7.156-.358 10.113-7.79m-1.326-9.007c-.431.23-1.122 1.324-3.823 2.84-1.649.925-3.623 1.655-4.865 3.281v3.467a5.394 5.394 0 011.039-.456c1.613-.52 6.449-1.765 7.65-9.132m-1.496-6.419c-.364.244-.879 1.28-3.146 2.874-1.39.977-3.09 1.807-4.047 3.38v3.325a4.656 4.656 0 011.21-.76c1.389-.608 5.58-2.154 5.983-8.819m-5.927 1.52c1.097-.569 4.423-2.05 4.394-7.491-.282.217-.646 1.088-2.404 2.504-1.161.936-2.622 1.753-3.256 3.284v2.765c.196-.276.584-.708 1.266-1.062m1.481-11.899c-.215.23-.41 1.04-1.74 2.523-.317.352-.67.697-1.007 1.06v3.55c.894-.661 3.536-2.43 2.747-7.133m-24.084 74.205c-1.14-.716-2.262-1.574-3.443-2.34.062.836.068 1.408.069 1.45-.001.08-.022 1.838-.338 3.789-.056.344-.118.67-.185.981 2.68.684 6.127.708 10.503-.828-.624-.411-2.597-.537-6.606-3.052m8.664-6.822c-2.943-1.172-5.98-3.043-9.488-2.555-1.136.874-2.271 1.7-3.4 2.497.078.246.15.506.218.78.469.182.978.427 1.52.781 2.167 1.416 8.295 5.963 18.199.308-.688-.292-2.652-.06-7.049-1.81m-52.449 9.719a28.001 28.001 0 01-.338-3.782c0-.047.008-.67.077-1.569-1.245.795-2.422 1.702-3.618 2.453-4.008 2.515-5.982 2.641-6.606 3.052 4.464 1.566 7.958 1.508 10.66.784a19.506 19.506 0 01-.175-.937m.513-9.791a103.613 103.613 0 01-3.34-2.452c-3.604-.605-6.71 1.325-9.716 2.522-4.397 1.751-6.36 1.52-7.049 1.811 9.904 5.655 16.032 1.109 18.2-.308a8.034 8.034 0 011.701-.849c.064-.254.132-.494.205-.723"></path><path fill="#000" d="M94.603 134.029V57.664a54.975 54.975 0 00-10.916 2.244v70.954a90.82 90.82 0 006.067 4.055 37.621 37.621 0 014.849-.888m32.837-13.089c5.386-6.3 8.112-12.82 8.112-19.478v-31.17c-.844-.742-3.668-3.1-8.112-5.601v56.249zM64.615 70.288v31.174c0 6.65 2.725 13.166 8.111 19.465V64.65c-4.46 2.514-7.275 4.892-8.111 5.638m45.807 64.632a90.722 90.722 0 006.058-4.046v-70.94a54.85 54.85 0 00-10.916-2.265v76.36c1.684.198 3.298.496 4.858.89"></path><path fill="#000" d="M100.086 47.246c-25.606 0-42.153 14.302-44.203 16.168v38.636c0 16.16 13.04 29.093 24.992 37.554.402-.938.898-1.583 1.488-1.907a34.42 34.42 0 016.325-2.505 87.307 87.307 0 01-7.815-5.467c-11.316-8.926-17.053-18.435-17.053-28.263V69.935l.13-.118c1.487-1.353 15.134-13.223 36.135-13.223 20.804 0 34.622 11.87 36.13 13.224l.131.119v31.525c0 9.836-5.732 19.345-17.037 28.263a87.797 87.797 0 01-7.808 5.473 34.378 34.378 0 016.292 2.495c.598.328 1.097.978 1.502 1.922 11.95-8.455 24.988-21.386 24.988-37.565V63.418c-1.918-1.723-18.774-16.172-44.197-16.172"></path><path fill="#FFF" d="M149.772 142.656c-.274-1.877-1.066-3.773-1.809-5.383l-.083-.15-.653-.994c-.85-1.336-1.829-2.81-3.377-3.554l-1.278-2.418a.711.711 0 00-.08-.12c-1.663-2.082-3.582-3.988-5.438-5.832 0 0-.53-.529-.742-.738-.209-1.185-.913-2.048-1.563-2.803-.425-.492-.825-.955-1.087-1.49a.753.753 0 00-.315-.329c-1.238-.685-2.642-2.665-3.387-4.266-.015-.03-.667-1.136-1.224-2.083.382.165.768.35 1.135.53l.813.392c3.285 1.352 6.087 2.839 9.33 4.56l.98.517.912.577c.546.374 1.063.726 1.881.931.648.188 1.848-.012 2.267-1.067l.045-.171c.202-1.422-.8-2.901-1.606-4.088l-.248-.368-.957-1.374c-1.918-2.766-3.901-5.625-6.63-7.931a485.111 485.111 0 00-1.567-1.589.815.815 0 00-.098-.083c-4.32-3.113-7.388-7-10.632-11.115-2.745-3.479-5.583-7.077-9.235-10.132l-.058-.044c-4.474-3.063-8.424-7.258-12.243-11.313l-4.64-4.825c-2.083-1.792-3.95-3.338-6.042-4.507l-1.524-1.45c-2.576-2.401-5.033-4.69-5.033-7.731 0-.605.098-1.24.31-1.912 0 .005.083-.254.083-.254.93-2.876 1.892-5.85 4.524-7.691a.779.779 0 00.16-.15l2.692-3.364c3.288-2.43 7.709-5.367 12.841-6.653a.09.09 0 00.046-.027l.59-.655c.125-.437-.095-.785-.202-.951l-.039-.063a1.054 1.054 0 00-.228-.263c-1.756-1.277-3.876-1.612-5.726-1.826a45.582 45.582 0 00-11.11-.015c-2.548-.765-10.623-2.767-16.81.4-2.197 1.168-2.97 3.26-3.593 4.94-.325.88-.633 1.712-1.07 2.198-4.96 4.67-7.024 10.04-9.211 15.725l-.979 2.517-.401.883c-1.235 2.734-2.884 6.455-4.78 8.824-.041.05-.2.336-.225.397-.293.685-1.04 2.732-1.14 3.632-.22 1.984.155 3.937.766 5.24.7 1.495 1.941 2.752 2.61 3.725 1.832 2.867 3.384 4.816 5.058 7.745 3.246 5.68 6.453 11.45 10.888 16.774l.053.059c3.98 3.94 8.757 6.545 14.19 7.777 2.199 2.316 3.715 5.897 5.412 8.512 0 0 1.816 3.109 1.893 3.224.207.36.172.714.172 1.099 0 .495.14 1.042-.044 1.723-.188.693-.383 1.41-.383 2.184v.043c.016.276.025.545.025.811 0 1.676.632 3.205-.094 5.105a40.606 40.606 0 01-1.2 2.754 38.577 38.577 0 014.468-.723l1.272-2.463c.591-1.183 1.453-2.148 2.213-3 .935-1.047 1.742-1.951 1.858-3.023.076-1.73.254-3.895.892-5.878.293-.193.614-.417.946-.858.244-.325.324-.68.324-1.031 0-.38-.094-.757-.177-1.093-.094-.376-.133-.588-.133-.713s.045-.16.108-.192c1.046-.337 2.282-.198 3.126.34.495.53.81 1.161 1.135 1.834.295.615.621 1.243 1.085 1.838.222.86.29 1.796.356 2.79.12 1.853.276 3.758 1.486 5.312.116.347.171.704.171 1.064 0 1.183-.53 2.398-.977 3.423l-.255.596c0 .002 0 0 0 0-.184.446-.42.945-.68 1.466 1.288.229 2.543.508 3.76.863.79-1.388 1.558-2.814 2.239-4.32.375-.97.478-1.974.552-2.964.234.386.466.772.701 1.176.815 1.395 1.668 2.834 2.82 4.145 1.04 1.783 2.37 4.413 3.004 6.466a.713.713 0 00.166.29c1.099 1.146 2.818 1.686 4.834 1.518 3.155-.46 3.81.116 4.243.496.227.199.509.446.948.516l7.225.099c2.173-.117 4.42-.236 6.71.01l3.753.854a.773.773 0 00.935-.864"></path><path fill="#000" d="M134.004 125.16c-1.356-.305-2.238-1.74-3.365-2.602-.596-.69-1.055-1.434-1.61-2.142-.313-.152-.525.008-.535.383-.574 1.964 3.213 5.492 4.592 8.34.268.748.768 1.59.462 2.375-.748.44-3.024-.087-3.608-.3-1.33-.797-2.097-4.141-3.82-6.284-.344-.17-.324-.687-.763-.61-.556.498.055 1.071.073 1.608.482 1.203 1.55 2.256 1.456 3.597l-.688-.078c-1.458-1.99-2.719-4.132-4.371-5.97-.69.518 0 1.226 0 1.838.596 1.53 1.707 2.831 1.918 4.515 0 .536-.71.267-.996.23-2.76-2.564-3.6-6.2-5.895-9.109-.346-.019-.462.307-.614.537.459 2.583 2.24 4.63 1.99 7.5-.135.076-.19.306-.383.23-1.721-2.507-4.421-5.3-2.681-8.572.882-2.795-1.412-5.416-.074-8.114.861-.9 2.123-.766 3.29-.612.594-.805.29-2.03 1.456-2.526.995-.672 2.547-.384 3.524.153 3.772 4.67 6.892 9.605 10.567 14.313.019.441.63.977.075 1.3m-20.827-26.253c-.785-.65-1.49-1.512-2.45-1.76-.409.047-.355.354-.355.526.476.688 2.286.955 1.734 1.77-1.244.765-2.334-.651-3.444-1.15-3.427-2.64-6.716-5.74-9.95-8.648-.835-.798-1.472-1.862-1.226-2.067.185-.256 1.456.525 1.88.738.426.212.417-.279.417-.279-2.873-3.14-8.344-5.34-8.038-10.257.077-.403.4-.785.765-.996 1.116-.854 10.26 1.962 14.086 4.21 4.132 2.22 7.807 5.914 10.485 9.874.04.192.096.384.078.613-.25.397-.834.024-1.378-.383-.668-.459-1.264-1.072-1.99-1.377l-.229.229c1.55 2.029 4.855 3.31 4.837 6.18l-.479.053c-1.369-.905-2.694-2.137-4.13-2.635-.364.172 0 .46.152.613 1.425 1.012 2.915 2.022 4.289 3.214.307.422.38 1.014.228 1.532h-.458c-1.147-.823-2.101-1.554-3.598-2.143-.304.611.38.909 1.072 1.377 1.062.595 3.454 1.286 2.447 2.526-1.874 1.473-3.456-.763-4.745-1.76M92.265 66.205l-.232-.841c2.258 1.206 4.412 2.857 6.28 4.821 2.011 1.81 4.298 4.788 4.287 5.13-.36.296-1.895-1.397-3.141-1.378-.783.185.229 1.302-.383 1.53-.825.303-4.803-1.55-6.275-3.598.21-.094.665-.086.611-.382.2-.335-1.54-.926-1.3-1.531 0 0 .398.338.689.23.727-.689-1.315-1.425-.154-1.99.06-.689-.723-1.198-.99-1.676.17-.103.435-.143.608-.315M81.949 32.617c-.627.067-1.936-.937-2.452.154-.23.632.23 1.76-.69 1.913-.535.057-1.274.023-1.299-.536-.135-.745-.168-1.59.307-2.22.474-1.014 1.8-1.708 3.257-1.455.628.127 1.261.568 1.565 1.379.132.478-.238.643-.688.765m-12.631 9.569c.745 1.11-2.584 1.664-.305 2.143.426 1.726-2.662 2.2-3.83 3.444.04.21-.052.567.385.46 1.07-.096 2.649-1.913 2.908-.995.228 1.244-1.206 1.377-1.915 1.837-.881.42-1.933.918-2.371 1.913-.172.488.593.326.842.23.917-.268 2.176-1.814 2.525-1.302.152.479-.21.938-.537 1.302-1.262.956-3.309.765-3.904 2.526-.055.444.747.689 1.226.46.803-.364 1.854-2.036 2.295-1.379.192.574-.268 1.148-.764 1.455-2.182 1.952-4.48 3.616-7.118 4.439-.328-.46-.06-1.071.074-1.53 1.933-5.76 4.48-11.272 7.808-16.458.71-.822 2.24-1.397 2.987-.383-.04 1.11-1.608.842-1.763 1.838.443.344.98 0 1.457 0M85.161 39.2c1.66-3.608 1.975-3.04 4.44-2.755 1.075-.159 1.703-.843 2.296-1.607l-.152-.23c-1.396.324-2.774 1.396-4.284.764-.596-.44-.73-1.167-.537-1.837 1.3-1.569 4.269-.194 5.837-1.42.508-.63-.787-.875-1.092-1.105-.286-.153-.84.038-.84-.459.572-.44 1.451-.216 2.124-.268 1.097-.012 2.589-.569 2.62.344 0 1.627-2.75 2.184-2.45 3.29.4.747 1.156.41 1.76.155 1.49-.652 2.716-1.953 4.287-2.45.324-.077.518.096.537.384v.228c-4.227 2.201-8.134 5.245-12.094 8.114-.73.427-1.436.861-2.298.612-.63-.382-.093-1.167-.154-1.76m.307-7.96c.496-.517 1.283-.593 1.915-.536v.382c-.312.398-.996.938-1.685.612-.116-.134-.304-.248-.23-.458m61.782 106.327c-1.054-1.491-2.07-3.697-3.983-4.444l-1.377-2.605c-1.897-2.372-4.094-4.478-6.276-6.658-.155-1.836-1.86-2.751-2.641-4.34-1.437-.797-2.925-2.924-3.712-4.615-.613-1.092-1.5-2.56-2.14-3.624 1.224 0 2.714.902 3.882 1.435 3.618 1.488 6.647 3.137 10.352 5.097 1.08.592 1.55 1.173 2.62 1.441.37.107 1.118 0 1.36-.598.18-1.262-.99-2.803-1.733-3.92-2.277-3.234-4.36-6.538-7.443-9.143l-1.617-1.634c-8.209-5.915-12.157-14.794-19.91-21.281-6.314-4.324-11.406-10.659-16.992-16.228-1.915-1.646-3.848-3.27-5.971-4.44-3.367-3.348-8.19-6.64-6.508-11.94.964-2.975 1.97-6.296 4.9-8.345l2.756-3.444c4.056-3.004 8.286-5.588 13.092-6.813.36-.172.112-.4 0-.611-1.55-1.13-3.414-1.46-5.36-1.684a44.74 44.74 0 00-11.099 0c-4.996-1.532-11.598-2.143-16.38.305-3.061 1.627-2.996 5.357-4.442 6.967-5.606 5.283-7.465 11.507-10.047 18.012-1.237 2.71-3.15 7.193-5.338 9.927-.901 2.14-2.068 4.687-.129 8.763.58 1.22 1.33 1.932 1.94 2.82 6.652 9.196 9.498 16.912 16.18 24.93 4.034 3.999 8.8 6.506 14.081 7.654 4.287 3.455 4.808 8.018 7.697 12.018 1.051 1.817-.325 3.578-.307 5.436.135 2.332.644 4.198-.12 6.198a37.225 37.225 0 01-.985 2.299 38.513 38.513 0 012.609-.421 306.893 306.893 0 001.505-2.93c1.331-2.664 3.823-4.18 3.993-5.76.094-2.182.324-4.324.994-6.276.344-.231.661-.4.996-.842.665-.89-.956-2.661.458-3.292 1.264-.42 2.832-.268 3.906.459 1.165 1.187 1.396 2.754 2.447 3.981.727 2.659-.037 5.932 1.84 8.113.706 2.047-.49 4.25-1.072 5.665-.17.41-.377.857-.606 1.324.745.149 1.478.32 2.199.511.819-1.43 1.608-2.887 2.308-4.438.577-1.494.459-3.273.69-4.9 1.705 2.279 2.754 4.947 4.744 7.167 1.116 1.914 2.444 4.57 3.084 6.644 1.132 1.168 2.824 1.383 4.2 1.268 4.685-.684 4.538.887 5.374 1.019 4.533.665 9.038-.426 13.929.106l3.81.867c-.262-1.797-1.051-3.667-1.758-5.2"></path><path fill="#FFF" d="M120.12 142.678c-.44-2.702-1.22-4.378-2.327-4.985-5.27-2.714-10.895-3.979-17.718-3.981-6.808.002-12.433 1.267-17.712 3.985-1.098.603-1.878 2.279-2.316 4.981a27.979 27.979 0 00-.338 3.79c0 .074.021 1.832.338 3.783.438 2.702 1.218 4.378 2.316 4.981l.01.005c5.27 2.714 10.895 3.978 17.717 3.98 6.807-.002 12.432-1.266 17.712-3.985 1.099-.603 1.878-2.279 2.318-4.981.316-1.95.337-3.709.338-3.79-.001-.074-.022-1.832-.338-3.783"></path><path fill="#000" d="M97.305 146.95h-.263c-.32 0-.666.235-.666.887v1.372c0 .651.347.886.666.886h.263c.319 0 .665-.235.665-.886v-1.372c0-.652-.346-.887-.665-.887m0-4.116h-.263c-.32 0-.666.236-.666.887v1.04c0 .65.347.886.666.886h.263c.319 0 .665-.235.665-.887v-1.04c0-.65-.346-.886-.665-.886m5.654 0c-.471 0-.749.166-.749.832v1.857c0 .665.278.83.749.83.415 0 .748-.193.748-.83v-1.857c0-.666-.277-.832-.748-.832"></path><path fill="#000" d="M115.772 152.95l-.06.044c-4.658 2.389-9.611 3.492-15.623 3.493-6.032-.001-10.99-1.107-15.618-3.48l-.063-.04c-.912-.744-1.424-4.246-1.452-6.497.027-2.237.541-5.73 1.437-6.492l.067-.046c4.65-2.384 9.602-3.488 15.617-3.49 6.027.002 10.99 1.108 15.618 3.48l.063.04c.919.748 1.429 4.25 1.452 6.496-.027 2.237-.542 5.732-1.438 6.493m1.664-14.587c-5.15-2.65-10.664-3.89-17.346-3.891-6.697.002-12.212 1.24-17.37 3.896-1.789.982-2.231 6.18-2.25 8.1.019 1.91.46 7.101 2.255 8.094 5.157 2.655 10.67 3.892 17.35 3.894 6.696-.002 12.21-1.24 17.37-3.896 1.79-.983 2.233-6.18 2.252-8.1-.019-1.912-.462-7.11-2.261-8.097"></path><path fill="#000" d="M111.024 144.635c0 1.22-.804 1.746-1.718 2.633-.804.777-1.33 1.303-1.33 1.83v.887h3.048v1.33h-4.6v-2.245c0-1.233 1.01-2.023 1.98-2.952.735-.706 1.068-.998 1.068-1.51v-.942c0-.666-.319-.832-.762-.832-.444 0-.735.166-.735.832v1.413h-1.524v-1.58c0-1.44.804-1.996 2.273-1.996h.027c1.47 0 2.273.555 2.273 1.996v1.136zm-5.765 4.796c0 1.44-.776 1.995-2.245 1.995h-.027c-1.47 0-2.246-.554-2.246-1.995v-.915h1.552v.748c0 .665.236.831.707.831.472 0 .707-.166.707-.83v-1.997c-.221.236-.485.43-1.136.43-1.109 0-1.913-.554-1.913-1.995v-2.204c0-1.44.818-1.996 2.287-1.996h.028c1.469 0 2.286.555 2.286 1.996v5.932zm-5.737-4.685c0 .61-.138 1.4-.942 1.525.845.166.942 1.15.942 1.677v1.427c0 1.358-.72 2.05-2.134 2.05h-.43c-1.413 0-2.134-.692-2.134-2.05v-1.427c0-.527.097-1.51.943-1.677-.804-.125-.943-.915-.943-1.525v-1.192c0-1.358.72-2.05 2.134-2.05h.43c1.413 0 2.134.692 2.134 2.05v1.192zm-5.806 6.57h-4.573v-1.359h1.58v-6.693l-1.58.484v-1.44l1.995-.694h1.137v8.343h1.44v1.358zm21.341-10.68c-4.43-2.269-9.191-3.326-14.98-3.328-5.774.002-10.526 1.056-14.95 3.319-.503.466-1.128 3.148-1.16 5.84.031 2.637.65 5.387 1.142 5.827 4.43 2.268 9.187 3.326 14.967 3.327h.013c5.773-.001 10.524-1.056 14.95-3.318.503-.467 1.13-3.149 1.161-5.842-.028-2.634-.648-5.384-1.143-5.825z"></path><path fill="#AB9767" d="M51.823 152.215l-4.44-3.731a.284.284 0 01-.034-.4l.053-.064a.284.284 0 01.4-.034l4.44 3.73c.12.102.136.281.034.4l-.053.064a.284.284 0 01-.4.035"></path><path fill="#000" d="M58.012 159.721c-.821 1.289-1.96 1.233-3.225.427l-.024-.015c-1.264-.806-1.803-1.804-.974-3.104l3.195-5.01c.79-1.24 1.96-1.233 3.225-.427l.024.015c1.265.806 1.765 1.863.974 3.104l-.974 1.527-1.384-.882.837-1.312c.373-.585.2-.946-.241-1.228-.442-.281-.842-.285-1.215.3l-2.92 4.58c-.373.585-.2.947.24 1.228.442.281.843.285 1.215-.3l.967-1.515 1.383.883-1.103 1.73zm5.945 3.868c.485.232.902.212 1.207-.426l2.345-4.9c.306-.64.06-.976-.426-1.209-.484-.232-.902-.212-1.207.426l-2.345 4.901c-.305.638-.059.976.426 1.208m3.698-7.86l.103.048c1.352.647 1.99 1.611 1.342 2.964l-2.565 5.36c-.647 1.353-1.797 1.461-3.15.814l-.102-.049c-1.353-.647-1.99-1.61-1.343-2.963l2.565-5.36c.653-1.366 1.798-1.462 3.15-.814m6.422 13.318l-3.944-1.37 3.252-9.357 1.55.539-2.768 7.967 2.393.83zm8.177 2.126l-4.062-.96 2.275-9.637 1.597.377-1.937 8.206 2.465.582zm4.186.725l1.42-9.801 1.625.235-1.42 9.802zm6.427.784l.488-9.892 1.64.08 1.775 6.222.301-6.119 1.499.074-.488 9.892-1.555-.076-1.845-6.537-.317 6.43zm14.963-2.048c.09 1.526-.865 2.15-2.362 2.238l-.114.006c-1.496.089-2.517-.404-2.608-1.944l-.35-5.933c-.087-1.468.865-2.148 2.362-2.236l.113-.007c1.498-.088 2.524.475 2.61 1.944l.083 1.412-1.639.097-.067-1.158c-.042-.707-.421-.883-.958-.85-.536.03-.893.25-.85.956l.32 5.424c.041.707.42.883.956.851.537-.031.893-.25.851-.957l-.087-1.47-.96.058-.082-1.385 2.6-.153.182 3.107zm11.511.231l-1.515.286-2.512-6.437.01 6.91-1.572.297-3.368-9.443 1.585-.3 2.12 6.8-.063-7.188 1.446-.273 2.565 6.714-.507-7.103 1.502-.284zm7.622-3.532c.51-.169.798-.472.576-1.144l-1.705-5.158c-.223-.672-.634-.745-1.145-.576-.51.168-.798.472-.575 1.144l1.705 5.159c.222.671.633.744 1.144.575m-2.78-8.23l.107-.036c1.424-.471 2.55-.218 3.021 1.206l1.866 5.643c.47 1.424-.284 2.299-1.708 2.77l-.107.036c-1.424.47-2.551.217-3.022-1.207l-1.866-5.643c-.474-1.437.284-2.299 1.708-2.77m11.793 4.643c.487-.229.736-.564.436-1.205l-2.307-4.92c-.301-.64-.718-.663-1.205-.435-.486.228-.736.564-.435 1.205l2.307 4.92c.3.64.718.663 1.204.435m-3.74-7.842l.103-.049c1.357-.636 2.506-.52 3.143.839l2.524 5.381c.637 1.358-.008 2.316-1.366 2.953l-.103.048c-1.358.637-2.507.52-3.144-.838l-2.523-5.381c-.643-1.37.008-2.317 1.366-2.953m8.472-2.839l-.707.442 3.723 5.948.708-.443c.455-.285.662-.648.286-1.248l-2.762-4.412c-.375-.6-.792-.572-1.248-.287m2.504-.8l3.032 4.844c.796 1.272.272 2.3-.999 3.096l-2.146 1.344-5.255-8.394 2.147-1.343c1.271-.796 2.425-.818 3.22.453"></path><path fill="#AB9767" d="M152.78 148.708l-4.466 3.693a.286.286 0 01-.403-.038l-.05-.06a.287.287 0 01.038-.403l4.466-3.694a.286.286 0 01.403.038l.05.06a.287.287 0 01-.038.404"></path></g></symbol></defs>
			<use xmlns:xlink="http://www.w3.org/1999/xlink" xlink:href="#icn-aflc-coll"></use>
	</svg>