<svg xmlns:xlink="http://www.w3.org/1999/xlink" xmlns="http://www.w3.org/2000/svg" class="icon club-logo" aria-hidden="true" width="200"  height="200" ><defs><symbol viewBox="0 0 200 200" id="icn-aflc-ess" xmlns="http://www.w3.org/2000/svg"><g fill="none" fill-rule="evenodd"><path fill="#000" d="M148.173 64.683s1.693-4.68 1.693-9.74c0-5.061-1.8-9.273-1.8-9.273h-2.833s-1.798 3.915-1.798 8.978c0 5.061 1.692 9.608 1.692 9.608l3.046.427zm-23.3-19.016v18.055h1.825s2.314-6.714 2.975-11.34c.662-4.626.5-6.715.5-6.715h-5.3z"></path><path fill="#000" d="M158.797 71.503V40.444h4.46l5.953 18.33v-18.18h4.299V73.77l-5.29-.815-5.126-19.976v19.115l-4.296-.591zM138.468 54.62c0-7.909 2.812-14.027 2.812-14.027h10.74s2.81 7.007 2.81 14.916c0 7.909-3.299 15.027-3.299 15.027l-10.321-1.637s-2.742-6.37-2.742-14.279zm-18.384 14.176V40.593h15.374s.168 6.118-1.32 13.73c-1.663 8.503-4.627 14.473-4.627 14.473h-9.427zm-19.961-6.637V40.444h4.134l6.413 15.666V40.593h4.298v28.352h-5.62L104.09 52.98v11.835l-3.968-2.655zm-5.466-10.374v5.073h-7.76v7.023l8.72-.01-6.711 5.013h-6.799v-28.29h13.046v4.924h-8.256v6.267h7.76zM72.34 65.078v-5.235l-8.432-7.311V40.593h12.73v11.192l-4.298-3.581v-2.537h-4.298v4.179l8.432 7.31v11.802H63.91V58.5l3.968 3.581v2.954l4.464.043zm-18.187-.371v-4.119l-9.425-8.206V40.593h13.724v11.939l-4.299-3.582v-3.283h-5.126v4.327l9.59 7.909v10.834l-14.054 2.238V58.65l4.464 3.73v3.522l5.126-1.194zm4.27 9.038h31.203l.008-.006-.002-.005 9.946-7.283 10.278 7.294h31.058l33.144 5.09-74.384 79.76-73.915-79.472 32.666-5.378zM38.53 51.935v5.074h-7.432V68.29l8.259-1.044v4.627l-13.063 2.238V40.593h13.228v5.074h-8.424v6.267h7.432zM21.19 35.334v45.815l78.53 84.407 3.435-3.788 75-81.235.367-.399v-44.8H21.19z"></path><path fill="#C90527" d="M99.578 149.53s-5.318-8.42-9.085-15.511a629.95 629.95 0 01-6.426-12.41l-5.096-1.994-5.319 1.552-3.102-2.883.887-3.767-3.547.666L38.293 83.45l13.073-2.418 31.15 15.316 2.659-1.995 5.096 2.216 2.216-4.21-27.034-11.744h29.029l5.096-4.21h.045l5.096 4.21h29.03l-27.036 11.743 2.217 4.21 5.096-2.215 2.66 1.995 30.016-15.356 13.974 2.309-29.365 31.882-3.545-.666.884 3.767-3.101 2.883-5.318-1.552-5.097 1.994s-2.659 5.318-6.426 12.41c-3.768 7.091-9.085 15.51-9.085 15.51h-.045zm67.432-68.504l-26.318-3.949v.003l-.059-.011h-33.47l-7.585-5.318-7.584 5.318H58.751l-.327.058v.012l-25.72 4.54 66.874 71.934.065.07 67.367-72.657z"></path><path fill="#9C9E9F" d="M58.751 77.069h33.244l7.584-5.318-7.519 5.14-2.424-3.152-.009.007H58.425v3.381z"></path><path fill="#9C9E9F" d="M107.163 77.069l-.14-.385 2.457-3.074.05.136h.327l-10.28-7.294v5.299z"></path><path fill="#9C9E9F" d="M167.01 81.026l-67.368 72.656-.063-.07v4.88L25.76 79.124l73.915 79.473 74.385-79.762-33.146-5.09h-.22v3.334z"></path><path fill="#000" d="M103.978 139.333a6.922 6.922 0 00-4.4-1.547 8.342 8.342 0 00-4.471 1.318c-1.259-2.484-2.545-5.277-3.506-7.966-3.324-9.307-3.767-15.511-3.767-15.511l-2.216 2.88-6.87-1.772-3.544.886-1.774-1.552s1.552-5.318 4.876-9.97c3.324-4.655 7.09-8.644 7.09-8.644l6.427 3.325s1.33-2.881 2.659-5.318c1.33-2.438 2.437-4.655 2.437-4.655l-20.608-7.871h17.507l1.33 2.11 4.43-4.247h.045l4.43 4.24-.002.004.004.002 1.33-2.109h17.505l-20.608 7.871s1.108 2.217 2.437 4.655c1.33 2.437 2.66 5.318 2.66 5.318l6.425-3.325s3.767 3.989 7.092 8.643c3.237 4.532 4.792 9.692 4.87 9.957l.005.014-1.774 1.552-3.545-.886-6.87 1.772-2.215-2.88s-.442 6.204-3.767 15.511c-.99 2.771-2.326 5.655-3.622 8.195zm-4.4 7.76s-1.675-2.667-3.622-6.348c.59-.435 1.694-.951 3.622-.951 1.751 0 2.95.456 3.7.89a108.834 108.834 0 01-3.655 6.41h-.045zm-21.936-44.412l-.153.2.153-.2zm-7.979 8.956L43.072 84.603l3.63-.615-.012-.008 4.803-.803L81.4 98.104l-.509.589-.336.393-.212.25c-.137.162-.278.33-.419.5l-.162.193a179.8 179.8 0 00-.471.572l-.134.166-.51.63-.116.149-.104.132-28.299-15.406-.046-.024 26.587 17.724c-.192.264-.386.527-.579.797-1.516 2.122-2.659 4.378-3.458 6.21l-2.968.658zm77.685-28.414l8.784 1.38-26.592 27.034-2.967-.659a36.463 36.463 0 00-2.587-4.908 31.656 31.656 0 00-.872-1.301c-.192-.27-.386-.533-.58-.798l26.586-17.723-28.341 15.428a102.63 102.63 0 00-2.975-3.572l29.544-14.88zm-32.214 38.386l5.096-1.995 5.319 1.553 3.103-2.882-.886-3.767 3.545.664L160.677 83.3l-13.974-2.309-30.018 15.357-2.659-1.994-5.096 2.215-2.217-4.21 27.035-11.745h-29.029l-5.096-4.209h-.045l-5.096 4.21h-29.03l27.036 11.744-2.217 4.21-5.096-2.215-2.66 1.994-31.147-15.316-13.076 2.419 29.598 31.731 3.547-.664-.886 3.767 3.101 2.882 5.318-1.553 5.097 1.995s2.659 5.317 6.426 12.409c3.767 7.091 9.085 15.512 9.085 15.512h.045s5.317-8.42 9.085-15.512c3.767-7.092 6.426-12.409 6.426-12.409z"></path><path fill="#D1D1D1" d="M98.93 125.992c-3.363-.488-5.146-4.65-5.49-5.536l.53-2.272c.806 1.21 2.442 3.076 4.96 3.358v4.45zm1.33-4.453c2.242-.255 4.049-1.708 5.166-2.875l.624 2.678c-.98 1.538-3.064 4.241-5.79 4.643v-4.446zm4.416 4.06c1.772-1.995 3.101-4.654 3.101-4.654l-1.33-5.983 2.881 1.108.444-5.54 3.767 4.874 6.204-1.55 3.325 1.108 1.734-1.59c.61 1.51.926 2.558.964 2.684-.078-.265-1.634-5.427-4.87-9.959-3.325-4.654-7.09-8.641-7.09-8.641s.66.703 1.67 1.853l-8.726 4.584-2.518-3.78-4.654 6.477V80.8l-4.431 4.246-1.33-2.11H76.312l20.608 7.872s-1.11 2.216-2.437 4.653c-1.331 2.437-2.66 5.32-2.66 5.32l-6.427-3.325s-3.767 3.987-7.09 8.641c-3.325 4.653-4.875 9.973-4.875 9.973l1.772 1.55 3.545-.886 6.87 1.773 2.216-2.88s.443 6.205 3.768 15.51c.96 2.689 2.246 5.482 3.504 7.967a8.342 8.342 0 014.472-1.319v-9.411c1.433-.465 3.885-1.414 5.098-2.775zm-5.098 19.941l-.055-4.928s.02-.003.055-.005v-.813c-1.928 0-3.031.516-3.623.95a108.035 108.035 0 003.623 6.348v-1.551z"></path><path fill="#D1D1D1" d="M122.89 82.936h-17.505l-1.33 2.11-.004-.003-1.769 5.765z"></path><path fill="#000" d="M93.97 118.184l-.53 2.273c.344.886 2.127 5.047 5.49 5.536v-4.452c-2.518-.28-4.155-2.149-4.96-3.357m12.08 3.158l-.623-2.678c-1.118 1.167-2.926 2.62-5.166 2.875v4.446c2.724-.402 4.809-3.105 5.788-4.643"></path><path fill="#9C9E9F" d="M104.232 100.114l2.52 3.78 8.723-4.585a80.042 80.042 0 00-1.67-1.853l-6.427 3.325s-1.33-2.882-2.658-5.32c-1.33-2.437-2.439-4.653-2.439-4.653l1.77-5.766v-.004L99.623 80.8h-.043v25.79l4.653-6.476zm-4.654 39.68v.813c.133-.007.528-.005 1.276.17.954.225 1.273.498 1.273.498s-.277.554-.665 1.276c-.387.717-1.88 2.982-1.884 2.99v1.55h.045s1.695-2.695 3.655-6.407c-.749-.434-1.949-.89-3.7-.89m14.005-21.287l6.87-1.773 3.545.886 1.771-1.55-.002-.014a32.716 32.716 0 00-.964-2.685l-1.736 1.591-3.323-1.11-6.206 1.552-3.767-4.874-.442 5.54-2.88-1.108 1.329 5.982s-1.33 2.66-3.103 4.655c-1.211 1.363-3.664 2.31-5.097 2.774v9.412a6.92 6.92 0 014.4 1.549c1.295-2.542 2.632-5.425 3.621-8.195 3.325-9.307 3.768-15.512 3.768-15.512l2.216 2.88z"></path><path fill="#000" d="M99.578 145.54c.005-.006 1.497-2.272 1.884-2.99.388-.72.665-1.276.665-1.276s-.32-.272-1.273-.496c-.748-.176-1.143-.178-1.276-.17-.034 0-.055.004-.055.004l.055 4.929z"></path><path fill="#D1D1D1" d="M79.923 99.836l-.162.194.162-.194m.631-.749c-.071.085-.14.163-.212.25.072-.087.14-.167.212-.25m-1.907 2.31l-.117.148.117-.148m2.753-3.293c-.163.186-.333.381-.51.589.177-.206.349-.403.51-.589m-4.731 5.868L50.082 86.247l.046.025-3.425-2.284-3.63.616 26.59 27.033 2.967-.66c.8-1.83 1.943-4.086 3.46-6.21.192-.267.385-.532.579-.795m72.451-17.724l-25.128 19.832c-.002-.003-.005-.006-.006-.01a36.463 36.463 0 012.587 4.908l2.967.66 26.592-27.035-8.784-1.38-29.544 14.882c.826.946 1.871 2.18 2.975 3.57l28.34-15.427zm-25.54 19.197"></path><path fill="#9C9E9F" d="M77.489 102.881l.153-.2-.153.2m.937-1.203c.035-.043.07-.088.103-.132.04-.05.08-.098.118-.148.172-.214.34-.424.508-.63l.136-.166c.159-.195.316-.387.471-.573l.16-.192c.143-.17.282-.338.42-.501l.211-.249.338-.395.508-.588-29.907-14.927-4.803.802.012.009 3.426 2.285 28.299 15.405zm70.694-15.43l-26.586 17.724c.194.263.388.528.58.796.16.225.315.45.466.677.138.21.275.417.406.625.001.004.004.007.006.01l25.128-19.832z"></path><path fill="#D1D1D1" d="M99.578 71.75v-5.298l-9.946 7.281.005.006 2.423 3.151zm9.902 1.861l-2.458 3.074.141.385h33.47l.06.01v-3.335h-31.164zm-9.902 84.882v-4.88L32.704 81.678l25.72-4.54v-3.393L25.76 79.124z"></path><path fill="#C90527" d="M39.521 45.667v-5.074H26.294v33.518l13.061-2.237v-4.627l-8.26 1.044V57.008h7.434v-5.074h-7.433v-6.267zm5.042 12.983v12.324l14.055-2.238V57.903l-9.59-7.91v-4.325h5.126v3.282l4.3 3.582V40.593H44.728v11.79l9.425 8.206v4.118l-5.126 1.194V62.38zm19.346-.15v10.458h12.566V57.157l-8.432-7.312v-4.177h4.298v2.536l4.299 3.581V40.593H63.909v11.939l8.432 7.31v5.236l-4.464-.043V62.08zm31.244-12.982v-4.925H82.107v28.291h6.799l6.712-5.013-8.721.01v-7.023h7.76v-5.073h-7.76v-6.267zm14.194 23.427h5.622V40.593h-4.3V56.11l-6.413-15.666h-4.134v21.715l3.968 2.655V52.98zm58.872 4.01l5.29.813V40.593h-4.3v18.182l-5.951-18.331h-4.46v31.059l4.295.591V52.98zm-38.546-20.573c-.661 4.626-2.976 11.34-2.976 11.34h-1.824V45.667h5.3s.162 2.089-.5 6.715m5.785-11.789h-15.374v28.203h9.427s2.964-5.97 4.627-14.473c1.488-7.61 1.32-13.73 1.32-13.73m9.775 5.077h2.834s1.8 4.211 1.8 9.273c0 5.061-1.694 9.74-1.694 9.74l-3.046-.428s-1.694-4.546-1.694-9.608c0-5.061 1.8-8.978 1.8-8.978zm6.298 24.866s3.3-7.119 3.3-15.028c0-7.908-2.81-14.914-2.81-14.914h-10.742s-2.81 6.118-2.81 14.027c0 7.907 2.74 14.277 2.74 14.277l10.322 1.638z"></path></g></symbol></defs>
			<use xmlns:xlink="http://www.w3.org/1999/xlink" xlink:href="#icn-aflc-ess"></use>
	</svg>