<svg xmlns:xlink="http://www.w3.org/1999/xlink" xmlns="http://www.w3.org/2000/svg" class="icon club-logo" aria-hidden="true" width="200"  height="200" ><defs><symbol viewBox="0 0 200 200" id="icn-aflc-geel" xmlns="http://www.w3.org/2000/svg"><g fill="none" fill-rule="evenodd"><path fill="#024" d="M81.929 151.394h-8.64v-5.256c0-1.528-.094-2.483-.28-2.86-.183-.38-.589-.572-1.218-.572-.711 0-1.163.233-1.354.694-.19.461-.287 1.456-.287 2.987v14.052c0 1.469.097 2.429.287 2.877.191.45.623.674 1.293.674.643 0 1.062-.225 1.261-.677.197-.449.298-1.505.298-3.166v-3.806h8.64v1.18c0 3.128-.244 5.347-.729 6.657-.486 1.308-1.56 2.454-3.223 3.44-1.66.984-3.712 1.474-6.143 1.474-2.532 0-4.618-.415-6.261-1.25-1.64-.832-2.728-1.987-3.264-3.459-.534-1.477-.8-3.694-.8-6.658v-8.83c0-2.177.082-3.809.248-4.899.161-1.09.653-2.136 1.466-3.145.813-1.01 1.943-1.8 3.387-2.38 1.442-.578 3.1-.87 4.977-.87 2.542 0 4.643.45 6.298 1.345 1.654.893 2.745 2.008 3.262 3.343.522 1.337.782 3.413.782 6.232v2.873zm13.051 6.274c-.43-3.42-.866-7.649-1.311-12.688-.87 5.786-1.422 10.014-1.647 12.688h2.958zm4.57-19.423l4.957 30.207h-8.833l-.465-5.435h-3.095l-.496 5.435h-8.956l4.393-30.207H99.55zm21.167 0v6.649h-5.148v23.558h-8.643v-23.558h-5.104v-6.65z"></path><path fill="#024" d="M138.54 147.392h-8.02v-2.25c0-1.047-.105-1.716-.309-2.003-.204-.287-.547-.432-1.028-.432-.521 0-.913.194-1.181.58-.266.387-.4.976-.4 1.762 0 1.013.148 1.773.448 2.287.28.512 1.094 1.126 2.434 1.847 3.85 2.069 6.269 3.77 7.268 5.102.998 1.332 1.496 3.48 1.496 6.442 0 2.154-.278 3.743-.83 4.763-.555 1.024-1.627 1.878-3.212 2.568-1.584.69-3.434 1.037-5.54 1.037-2.31 0-4.284-.397-5.917-1.197-1.634-.796-2.705-1.812-3.21-3.043-.508-1.234-.76-2.982-.76-5.251v-1.979h8.022v3.687c0 1.138.114 1.864.34 2.191.224.327.625.486 1.201.486.578 0 1.004-.205 1.286-.617.279-.412.422-1.022.422-1.833 0-1.783-.267-2.95-.799-3.498-.543-.55-1.893-1.462-4.042-2.74-2.151-1.293-3.577-2.23-4.273-2.815-.698-.585-1.277-1.396-1.735-2.428-.459-1.032-.688-2.353-.688-3.959 0-2.316.325-4.006.976-5.078.65-1.071 1.7-1.909 3.15-2.513 1.45-.603 3.203-.907 5.256-.907 2.243 0 4.155.33 5.736.992 1.58.659 2.627 1.49 3.14 2.493.513 1.004.769 2.707.769 5.114v1.192z"></path><path fill="#FFF" d="M39.533 68.881c7.32 32.879 30.256 59.87 60.627 72.786 30.37-12.915 53.304-39.907 60.626-72.786-5.542-3.144-9.283-9.092-9.283-15.919a18.22 18.22 0 014.491-12.002c-17.433-6.297-36.237-9.734-55.841-9.734S61.75 34.66 44.319 40.954a18.213 18.213 0 014.496 12.008c0 6.827-3.74 12.775-9.282 15.92"></path><path fill="#024" d="M153.68 52.962a16.06 16.06 0 014.523-11.19c-.734-.276-1.47-.546-2.208-.813a18.212 18.212 0 00-4.493 12.003c0 6.827 3.742 12.776 9.284 15.92-7.322 32.877-30.257 59.87-60.627 72.785-30.37-12.915-53.305-39.908-60.626-72.786 5.541-3.143 9.283-9.092 9.283-15.919a18.22 18.22 0 00-4.497-12.008 138.4 138.4 0 00-2.208.813 16.058 16.058 0 014.528 11.195c0 6.635-4.01 12.331-9.737 14.803 7.227 35.363 31.19 64.633 63.257 79.17 32.065-14.537 56.032-43.807 63.258-79.17-5.728-2.472-9.737-8.168-9.737-14.803"></path><path fill="#024" d="M57.232 61.874c-.646-.446-1.775-1.004-1.666-1.365.253-.843 6.29-.866 7.408 3.52.92 3.607 1.877 8.189 3.948 8.935 2.182.784 3.484 0 4.427-.655 0 0 3.36-2.822 6.217-2.878 2.515-.048 4.306.726 6.483 1.888 0 0 4.196 2.611 7.147 2.515 2.951-.097 4.644-1.79 6.048-2.71 1.403-.92 5.232-3.261 7.693-2.08 1.21.58.24 2.371-.244 3.241-.326.59-1.608 3.272.583 4.21 2.979 1.277 11.173-7.064 17.947-7.064 2.858 0 6.217 2.878 6.217 2.878.943.655 2.25 1.452 4.425.655 2.065-.758 3.171-5.467 3.922-8.818 1.016-4.528 6.992-4.427 7.057-3.627.035.389-.863.866-1.531 1.266-.714.426-.755.612.644 1.054 3.133.995 6.181 2.113 9.038 3.256a21.222 21.222 0 01-4.539-13.133 21.24 21.24 0 014.491-13.073c-16.57-5.617-34.327-8.663-52.794-8.663-18.465 0-36.218 3.044-52.786 8.657a21.23 21.23 0 014.494 13.08 21.22 21.22 0 01-4.515 13.104c2.894-1.167 5.968-2.293 9.046-3.228 1.463-.442 1.312-.642.84-.965m57.05 50.51c-1.013 1.167-4.8 6.982-6.474 8.97-1.702 2.018-4.399 3.97-7.661 3.97-3.264 0-5.962-1.952-7.664-3.97-1.674-1.988-5.46-7.803-6.474-8.97-2.026-2.337-5.107-2.253-10.466-.943-3.175.778-6.222 1.812-8.983 2.902 9.357 10.18 20.775 18.436 33.604 24.085 12.825-5.646 24.24-13.898 33.595-24.075-2.767-1.093-5.825-2.132-9.012-2.912-5.358-1.31-8.438-1.394-10.465.943"></path><path fill="#024" d="M103.092 96.623c-.947.75-2.055 1.689-2.998 1.689-.94 0-2.047-.94-2.994-1.69-.349-.288-.284-.687.579-.819.585-.09 1.353-.15 2.415-.15 1.065 0 1.832.059 2.419.149.86.133.926.532.579.82zm.03 18.43l1.003 1.015s.763-1.223.799-3.219c0 0 .849 1.78.629 3.326-.036.256-.12.882-.75 1.081-.628.196-2.152.754-4.62.754-2.467 0-3.992-.558-4.621-.754-.63-.199-.713-.825-.748-1.08-.222-1.546.629-3.327.629-3.327.036 1.996.797 3.219.797 3.219l1.004-1.016.882 1.282 1.162-1.112.895 1.253.894-1.253 1.162 1.112.883-1.282zm30.594-37.318c-2.657-.744-4.298-1.222-6.293-1.55-1.636-.268-2.974.724-3.327 2.203-.514 2.154-1.996 5.306-5.927 5.962-5.6.933-6.954-3.697-8.351-3.252 0 0 2-1.854 5.119-3.678a4.361 4.361 0 00-.325 1.59c0 2.057 1.727 3.724 1.727 3.724s1.726-1.667 1.726-3.724c0-1.096-.488-2.078-.947-2.76 3.392-1.856 6.757-2.248 6.757-2.248s-3.697-2.063-10.108 1.361c-1.74.93-3.826 2.101-6.601 4.534-.658.58-2.963 2.34-2.619 4.858.2 1.46 1.926 2.475 1.053 3.555-.761.945-2.19-.54-5.454-.54-3.263 0-4.693 1.485-5.456.54-.871-1.08.855-2.095 1.055-3.555.344-2.518-1.96-4.278-2.619-4.858-2.776-2.433-4.862-3.604-6.601-4.534-6.412-3.424-10.109-1.361-10.109-1.361s3.365.392 6.758 2.247c-.458.683-.947 1.665-.947 2.76 0 2.058 1.726 3.725 1.726 3.725s1.727-1.667 1.727-3.724c0-.57-.135-1.106-.326-1.59 3.12 1.824 5.12 3.678 5.12 3.678-1.397-.445-2.752 4.185-8.35 3.252-3.933-.656-5.414-3.808-5.929-5.962-.352-1.479-1.69-2.471-3.326-2.202-1.994.327-3.635.805-6.292 1.55-7.464 2.092-13.98 4.671-18.96 6.912a100.333 100.333 0 008.775 16.63c1.39-.648 2.697-1.217 3.77-1.611 3.146-1.158 6.768-2.792 12.686-.056 6.273 2.9 11.295 8.536 11.295 8.536.354-.222.247-1.025-.096-1.686-.607-1.168-1.971-2.514-2.72-3.266-3.84-3.838-.323-4.25 1.067-4.238 2.434.02 4.948.907 4.948.907-3.752-3.758-14.695-3.92-14.695-3.92 7.775-2.126 17.328 2.451 17.328 2.451-7.706-6.85-24.545-5.208-24.545-5.208 12.556-3.462 23.943 2.34 23.943 2.34-5.872-5.215-15.905-5.568-15.905-5.568 10.783-1.202 18.395 4.124 20.772 7.203 1.878 2.436 2.356 3.257 2.52 3.57.183.344.966 1.79.096 2.805-.87 1.016-2.807.822-2.807.822s-.58 2.371-.434 3.29c0 0-1.114-.725-1.307-3.29 0 0-1.547-.24-2.804-1.014-1.259-.774-3.243-2.032-4.21-1.113-.968.918.145 2.37.63 3.096.483.725 6.674 11.406 7.666 12.846 1.173 1.705 3.192 3.575 6.556 3.575 3.363 0 5.382-1.87 6.556-3.575.992-1.44 7.183-12.12 7.667-12.846.484-.726 1.597-2.178.63-3.096-.968-.919-2.952.34-4.21 1.113-1.257.773-2.806 1.014-2.806 1.014-.193 2.565-1.306 3.29-1.306 3.29.145-.919-.434-3.29-.434-3.29s-1.937.194-2.807-.822c-.871-1.015-.089-2.461.097-2.805.164-.313.64-1.134 2.518-3.57 2.377-3.08 9.99-8.405 20.773-7.203 0 0-10.034.353-15.904 5.567 0 0 11.386-5.801 23.943-2.339 0 0-16.841-1.642-24.546 5.208 0 0 9.554-4.577 17.328-2.45 0 0-10.943.161-14.695 3.919 0 0 2.514-.886 4.948-.907 1.39-.012 4.908.4 1.068 4.238-.75.752-2.114 2.098-2.72 3.266-.345.661-.452 1.464-.097 1.686 0 0 5.022-5.635 11.295-8.536 5.918-2.736 9.54-1.102 12.686.056 1.081.397 2.398.97 3.798 1.622a100.22 100.22 0 008.777-16.626c-4.984-2.245-11.511-4.83-18.99-6.928z"></path><path fill="#FFF" d="M67.264 52.647c-.814.208-2.157 1.368-4.565 1.986-4.11 1.051-6.878-.488-7.8-4.09-.908-3.546.924-6.562 5.45-7.721 1.593-.408 2.83-.407 3.535-.587.217-.055.57-.185 1.04-.385l-.033 3.032c-1.419-.414-2.817-.453-4.122-.12-2.625.673-3.733 2.529-3.058 5.16.62 2.426 2.159 3.386 4.476 2.791 2.011-.514 2.893-1.516 2.558-2.822l-.258-1.008-2.462.63c-.526.135-.9.33-1.28.806l.012-1.535c.017-.84.183-1.022 1.087-1.253l5.033-1.29c-.225.397-.15.695-.04 1.124l1.336 5.208c-.441.015-.746.032-.909.074m2.916-2.09l-1.203-7.437c-.167-1.028-.542-1.59-1.237-1.79l11.512-1.866c-.1.194-.13.354-.11.486.038.23.459.96 1.08 2.343-1.362-.578-2.685-.56-4.179-.318l-4.372.708.428 2.643 4.834-.782A3.713 3.713 0 0078.36 44l-.664 1.747c-.173.458-.542.752-1.04.833l-4.243.686.462 2.853 4.613-.747c1.827-.296 3.207-1.007 4.061-2.044-.347 1.715-.626 2.678-.58 2.964.025.153.123.292.283.461l-11.679 1.892c.6-.39.775-1.063.608-2.089m13.176-2.012l-.556-7.512c-.079-1.039-.403-1.632-1.077-1.892l11.63-.86c-.118.182-.163.34-.152.474.017.231.373.997.873 2.427-1.308-.694-2.625-.79-4.137-.678l-4.417.326.199 2.672 4.883-.362a3.71 3.71 0 001.468-.417l-.812 1.683c-.21.441-.604.701-1.107.74l-4.288.316.213 2.882 4.66-.344c1.845-.137 3.283-.726 4.224-1.685-.494 1.68-.856 2.614-.835 2.902.011.154.097.302.241.485l-11.798.873c.632-.337.865-.991.788-2.03M95.7 38.148l4.653.076c-.658.28-1.006.947-1.02 1.948l-.124 7.534 3.159.051c1.775.028 3.163-.315 4.376-1.298-.644 1.628-1.107 2.528-1.111 2.816-.003.154.088.309.216.505l-10.334-.168c.658-.298.95-.929.965-1.95l.124-7.534c.015-1.04-.255-1.66-.904-1.98"></path><path fill="#FFF" d="M115.568 44.509c.178-2.383-1.009-3.824-3.207-3.987-2.424-.18-3.895 1.197-4.09 3.81-.174 2.345 1.013 3.786 3.211 3.949 2.404.179 3.893-1.197 4.086-3.772m-4.094 5.898c-4.156-.31-6.335-2.771-6.068-6.346.27-3.632 2.916-5.946 6.961-5.645 4.156.309 6.358 2.714 6.077 6.48-.257 3.46-2.926 5.811-6.97 5.51m10.537-1.193c-.152 1.05-.046 1.672.617 2.131l-4.333-.708c.712-.196 1.074-.782 1.245-1.827l1.202-7.36c.173-1.045.016-1.715-.598-2.129l5.368.879c-.095.12-.148.21-.158.267-.012.076.019.237.08.442l2.883 9.239 1.15-7.272c.172-1.045-.036-1.743-.635-2.133l4.224.69c-.939.296-1.063.939-1.202 1.794l-.016.097-1.36 8.309c-.064.4-.077.71.101 1.012l-4.409-.721c.118-.136.172-.245.186-.32.012-.077-.024-.2-.086-.404l-3.208-9.566-1.05 7.58zm20.649 5.911c-.814-.207-2.549.167-4.958-.446-4.112-1.047-5.803-3.723-4.885-7.327.903-3.549 3.956-5.316 8.485-4.165 1.593.406 2.677 1 3.383 1.18.217.055.589.11 1.096.16L144.3 47.17c-1.046-1.042-2.256-1.747-3.56-2.078-2.627-.669-4.486.428-5.156 3.061-.619 2.428.272 4.007 2.59 4.598 2.01.51 3.265.054 3.598-1.253l.257-1.008-2.464-.628c-.526-.133-.947-.142-1.51.094l.747-1.342c.417-.728.65-.808 1.555-.577l5.037 1.28c-.39.24-.466.538-.575.969l-1.326 5.209c-.393-.2-.668-.329-.831-.37"></path></g></symbol></defs>
			<use xmlns:xlink="http://www.w3.org/1999/xlink" xlink:href="#icn-aflc-geel"></use>
	</svg>