<svg xmlns:xlink="http://www.w3.org/1999/xlink" xmlns="http://www.w3.org/2000/svg" class="icon club-logo" aria-hidden="true" width="200"  height="200" ><defs><symbol viewBox="0 0 200 200" id="icn-aflc-melb" xmlns="http://www.w3.org/2000/svg"><g fill="none" fill-rule="evenodd"><path d="M162.742 36.266v5.535c1.91.606 3.8 1.235 5.629 1.873l1.673.584v41.868l-8.947 10.184c-1.947 12.546-5.647 24.114-11 34.39-4.55 8.733-10.3 16.564-17.092 23.274-12.15 12.007-24.449 17.274-29.254 18.381-.644.148-1.462.297-1.469.298l-.44.078-.443-.078a37.866 37.866 0 01-1.464-.297c-4.821-1.11-17.155-6.393-29.332-18.455-6.808-6.742-12.567-14.612-17.115-23.388-5.35-10.322-9.036-21.943-10.957-34.547l-8.894-9.819V44.258l1.673-.584a207.51 207.51 0 015.628-1.873v-5.535l1.445-.67c.213-.1 5.36-2.464 15.315-4.83 9.086-2.16 24.118-4.736 44.143-4.736 11.052 0 31.044 1.022 44.142 4.736 11.652 3.047 16.759 5.5 16.759 5.5" fill="#DE0316"></path><path d="M167.652 45.926a204.135 204.135 0 00-7.3-2.394v-5.777s-20.11-9.334-58.407-9.334-58.408 9.334-58.408 9.334v5.776a202.45 202.45 0 00-7.302 2.395V85.08l8.756 9.666c8.005 54.687 46.712 73.028 55.606 75.074.582.135 1.348.272 1.348.272s.765-.137 1.35-.273c8.883-2.048 47.428-20.314 55.549-74.713l8.808-10.026V45.926z" fill="#061A33"></path><path d="M153.47 81.885l-.082-.023c-2.188 60.041-41.722 79.45-50.251 81.469-.517.122-1.192.246-1.192.246s-.675-.124-1.189-.245c-8.523-2.013-48.082-21.425-50.257-81.5-.027.006-.054.014-.083.022.762 62.768 41.657 82.877 50.34 84.927.514.122 1.189.247 1.189.247s.675-.125 1.192-.248c8.69-2.056 49.56-22.162 50.333-84.895" fill="#DE0316"></path><path fill="#DE0316" d="M89.691 103.698l9.008 25.635.005-12.857-5.528-16.253-.003.001-2.73-8.033-.752-2.213h-6.539l2.038 2.882v47.682l-1.913 2.849h8.308l-1.893-2.852z"></path><path d="M81.797 125.853c-1.12-1.157-2.1-2.456-2.857-3.879-.783-1.47-1.33-3.078-1.546-4.732a13.543 13.543 0 01.645-6.221 15.514 15.514 0 012.226-4.131 19.6 19.6 0 013.935-3.914v-6.068c-.06.033-.122.064-.183.097v-.001c-.523.312-1.062.6-1.585.91-.476.284-.925.6-1.363.936a25.58 25.58 0 00-2.335 2.013 23.98 23.98 0 00-3.62 4.514 26.038 26.038 0 00-2.41 5.007c-.316.888-.614 1.782-.921 2.674-.26.75-.522 1.5-.795 2.244-.019.046-.064.121-.064.172 0 .06.055.147.074.201l.293.801c.086.23.164.464.245.697l1.072 3.111a26.779 26.779 0 001.813 4.097 24.22 24.22 0 003.32 4.676c.672.739 1.39 1.434 2.147 2.084.811.698 1.659 1.366 2.58 1.913.512.303 1.039.584 1.549.89v-.003l.183.1v-6.067a21.256 21.256 0 01-2.403-2.121M109.32 132.815c-2.23.49-4.507.746-6.787.78a34.501 34.501 0 01-6.375-.487 31.618 31.618 0 01-5.473-1.45v5.144a39.976 39.976 0 006.636 1.307c2.582.288 5.192.334 7.782.143a40.34 40.34 0 007.412-1.231c.24-.064.477-.13.716-.2v-5.136a31.115 31.115 0 01-3.912 1.13M98.704 97.503v-4.797l-.502.043c-2.08.187-4.146.53-6.171 1.034l1.566 4.606a33.14 33.14 0 015.107-.886" fill="#DE0316"></path><path fill="#DE0316" d="M118.725 92.86l2.039-2.883h-6.54l-.753 2.214h.001l-2.728 8.033-.004-.001-5.527 16.254.004 12.857 9.008-25.636v36.842l-1.894 2.85h8.308l-1.91-2.848z"></path><path d="M123.365 105.962c.71.829 1.356 1.719 1.886 2.677l1.705-1.57 2.319-2.132c.226-.21.454-.419.68-.627-1.174-.977-2.32-1.99-3.488-2.979-.669-.568-1.326-1.147-2.024-1.683a29.188 29.188 0 00-2.15-1.505c-.429-.273-.866-.535-1.304-.793a12.393 12.393 0 00-1.117-.603v.001l-.153-.079v5.97a20.771 20.771 0 013.646 3.323M125.882 122.89l-.632-.58c-1.141 2.068-2.798 3.85-4.635 5.318-.293.235-.592.461-.896.68v5.968c.05-.026.104-.05.154-.078v.001c.739-.338 1.438-.783 2.126-1.21a30.194 30.194 0 002.168-1.479c.706-.53 1.368-1.108 2.044-1.678.651-.55 1.299-1.104 1.945-1.66.598-.513 1.194-1.03 1.799-1.534-.502-.464-1.005-.925-1.507-1.387l-2.566-2.362M101.943 143.39l3.785-4.033h-7.57zM104.21 132.593L104.21 97.5s2.946.124 6.097.934l1.585-4.667a40.258 40.258 0 00-5.897-1c-.597-.056-1.196-.1-1.796-.132l.012-5.773s3.604.025 4.974.176c1.368.151 3.628.91 3.628.91l.107-5.506H97.768l1.722 2.861.205 1.693v45.577c1.605.113 2.612.097 4.515.019M41.675 50.234c2.021-.66 4.059-1.286 6.102-1.873.462 4.247.926 8.494 1.387 12.74.094 1.292.14 1.937.232 3.229l.27-3.369c.489-4.513.977-9.025 1.469-13.539 2.057-.557 4.13-1.08 6.205-1.564v29.054c-1.852.435-2.776.664-4.618 1.145v-17.92l-.272 4.58c-.503 4.605-1.007 9.209-1.509 13.814-1.313.355-1.97.54-3.279.918l-1.5-12.929-.27-4.467V77.97c-1.69.508-2.533.77-4.217 1.318V50.234zM59.262 45.416a193.47 193.47 0 019.704-1.918v4.745c-1.949.333-2.92.512-4.861.896v7.255c1.894-.375 2.842-.55 4.743-.879v4.667c-1.9.328-2.85.503-4.743.878v7.88c1.94-.383 2.912-.562 4.86-.897v4.51c-3.25.552-6.484 1.202-9.703 1.919V45.416zM70.905 43.175c1.95-.314 2.927-.458 4.883-.723v24.546c1.751-.237 2.627-.345 4.382-.542v4.509c-3.098.368-6.182.789-9.265 1.266V43.175zM87.884 65.863c1.348-.097 1.427-1 1.427-4.097 0-3.098-.079-3.882-1.427-3.784-.474.034-.712.051-1.188.088v7.881c.476-.036.714-.054 1.188-.088zm-.08-12.582c1.268-.091 1.349-.68 1.349-3.817 0-3.138-.04-3.805-1.348-3.71-.444.032-.665.048-1.109.083v7.529c.444-.035.665-.052 1.109-.085zm-5.937-11.554c2.146-.226 4.3-.412 6.453-.559 4.757-.51 5.471 3.202 5.512 7.026.022 1.996.3 5.314-1.864 6.478 2.666.858 2.062 5.314 2.063 7.355.004 4.017-.936 8-5.671 8.193-2.165.147-4.333.335-6.493.562V41.727zM110.145 61.69V40.867c1.968.083 2.952.138 4.917.27v20.94c0 3.096.079 3.803 1.465 3.907 1.387.104 1.467-.59 1.467-3.688V41.36c1.916.16 2.874.25 4.788.456v20.821c.098 4.758-1.022 8.225-6.374 7.889-5.27-.333-6.295-4.176-6.263-8.836M130.396 57.452c1.38.204 1.358-1.14 1.418-4.882.022-1.402.484-4.69-1.418-5.195-.457-.068-.684-.1-1.141-.166v10.077c.457.065.684.098 1.141.166zM124.52 42.01c2.174.249 4.346.54 6.508.871 5.18.84 5.629 5.786 5.62 10.147-.007 2.65.268 6.666-2.317 8.378.72 3.812 1.441 7.622 2.159 11.434-1.898-.343-2.85-.502-4.754-.796-.629-3.39-1.258-6.777-1.89-10.164l-.59-.085v9.881c-1.892-.268-2.839-.39-4.736-.612V42.011zM138.144 44.092c2.069.391 3.1.602 5.16 1.05.677 3.26 1.353 6.521 2.028 9.783l.817 4.345V45.78c1.822.425 2.729.65 4.543 1.117v29.055a163.74 163.74 0 00-4.581-1.126c-.87-3.935-1.74-7.868-2.612-11.804l-.818-4.018V74.06c-1.811-.387-2.72-.57-4.537-.914V44.092zM152.602 47.402c3.202.868 6.384 1.802 9.537 2.832v4.744a162.93 162.93 0 00-4.755-1.478v7.255c1.862.552 2.79.84 4.64 1.44v4.666c-1.85-.6-2.778-.888-4.64-1.44v7.88c1.908.566 2.86.863 4.755 1.479v4.508a193.92 193.92 0 00-9.537-2.83V47.402zM103.611 55.32c0-9.49 0-10.038-1.57-10.038-1.528 0-1.528.549-1.528 10.037 0 9.569 0 10.077 1.529 10.077 1.57 0 1.57-.508 1.57-10.077m-6.315 13.175c-1.646-1.96-1.724-5.686-1.724-13.292 0-7.293.078-11.018 1.608-13.057.94-1.177 2.508-1.686 4.86-1.686 2.354 0 3.962.51 4.825 1.607 1.608 2 1.646 5.725 1.646 13.136 0 8.117-.038 11.646-1.686 13.449-.864.981-2.43 1.333-4.784 1.333-2.314 0-3.881-.43-4.745-1.49" fill="#DE0316"></path></g></symbol></defs>
			<use xmlns:xlink="http://www.w3.org/1999/xlink" xlink:href="#icn-aflc-melb"></use>
	</svg>