<svg xmlns:xlink="http://www.w3.org/1999/xlink" xmlns="http://www.w3.org/2000/svg" class="icon club-logo" aria-hidden="true" width="200"  height="200" ><defs><symbol viewBox="0 0 200 200" id="icn-aflc-stk" xmlns="http://www.w3.org/2000/svg"><defs><path id="cqa" d="M22.022 45.085a111.506 111.506 0 006.525 18.014h90.324a111.78 111.78 0 006.536-18.014H22.022z"></path></defs><g fill="none" fill-rule="evenodd" transform="translate(26 30)"><path fill="#000" d="M133.758 81.622l-1.192-18.293s-8.186 28.474-30.07 49.975c-.026-.007 7.992 13.023 8.014 13.003 1.066-1.021 22.918-17.302 36.261-55.59.062-.176-13.013 10.905-13.013 10.905"></path><path fill="#000" d="M132.442 64.346c.118 1.794 1.151 17.66 1.151 17.66l.285-.242c3.06-2.592 10.462-8.85 12.47-10.484-11.245 31.814-28.535 48.693-35.488 54.481l-.308.264c-.629-.982-7.34-11.873-7.824-12.694 19.43-19.149 28.11-43.985 29.714-48.985m-30.078 48.823c-.14.262 7.925 13.204 8.03 13.287l.12.093.588-.498c7.024-5.849 24.579-22.942 35.846-55.274l.048-.132-.12-.085c-.036-.025-.09-.027-.281.096l-.002.002c-.623.402-2.95 2.341-12.672 10.58l-1.17-17.92-.366-.04c-.082.284-8.423 28.674-30.02 49.891"></path><path fill="#FFF" d="M116.829 113.4l5.943 10.955-12.195 1.367-7.704-12.228z"></path><path fill="#000" d="M116.742 113.547l5.798 10.685c-.417.049-11.976 1.342-11.976 1.342h-.002c0-.142-6.692-10.773-7.424-11.935.504-.003 13.435-.092 13.604-.092zm.085-.295l-14.22.098 7.845 12.449c.14.067 12.337-1.297 12.337-1.297l.217-.025-6.089-11.225h-.09z"></path><path fill="#E00034" d="M13.621 81.622l1.194-18.293s8.544 28.506 30.428 50.008c-.06-.01-9.03 10.772-9.03 12.25 0 1.477-22.263-16.582-35.605-54.87-.06-.176 13.013 10.905 13.013 10.905"></path><path fill="#000" d="M13.809 81.634l1.13-17.316c1.637 4.926 10.592 29.839 30.051 49.027-.714.824-8.967 10.711-8.967 12.242-1.614-.054-22.408-18.635-35.009-54.32 1.963 1.596 9.412 7.894 12.486 10.498l.284.24.025-.371zm.818-18.317s-1.121 17.207-1.17 17.92C3.733 72.995 1.41 71.06.788 70.658l-.002-.002c-.192-.122-.245-.12-.282-.094l-.12.08.047.137c12.952 37.167 34.265 55.326 35.747 55.076l.156-.028.067-.239c0-1.283 8.435-11.6 8.964-12.107l.14-.134-.13-.143C23.776 91.983 15.08 63.56 14.996 63.276l-.369.041z"></path><path fill="#000" d="M30.616 113.56h14.55v-.374h-14.55z"></path><path fill="#FFF" d="M31.096 113.505l-6.608 10.85 11.094.426 9.223-11.235z"></path><path fill="#FFF" d="M73.705 127.863c0-.148-20.784 1.83-42.997-14.35l-8.236 11.49s17.426 18 51.233 18c33.808 0 51.234-18 51.234-18l-8.234-11.49c-22.213 16.18-43 14.202-43 14.35"></path><path fill="#000" stroke="#000" stroke-width=".3" d="M30.756 113.77c18.3 13.263 35.808 14.408 42.5 14.276l.49-.002.41.002c6.69.132 24.2-1.013 42.5-14.276.203.282 7.856 10.959 8.036 11.213-1.164 1.15-18.637 17.832-50.987 17.832-32.348 0-49.82-16.681-50.986-17.832.18-.254 7.835-10.931 8.037-11.213zm85.838-.408c-18.267 13.306-35.759 14.44-42.432 14.31 0 0-.299.029-.457.042-.157-.013-.458-.042-.458-.042-6.671.13-24.161-1.004-42.429-14.31l-.152-.112-8.437 11.771.108.113c.175.181 17.87 18.056 51.368 18.056 33.501 0 51.195-17.875 51.369-18.056l.11-.113-8.436-11.77-.154.11z"></path><path fill="#000" d="M94.949 136.148c1.936-.594 1.72-2.53 1.245-4.296-.484-1.782-1.343-3.502-3.578-2.82l-1.965.603 2.19 7.155 2.108-.642zm-18.019-1.292c.09 2.074.42 4.07 2.606 3.996 2.183-.077 2.383-2.093 2.32-4.167-.048-1.717-.389-3.722-2.574-3.645-2.223.077-2.413 2.1-2.352 3.816m-7.567 2.911c.532-.64.665-2.462.686-2.982.058-1.717-.14-3.738-2.364-3.818-2.187-.074-2.515 1.93-2.576 3.645-.05 2.076.139 4.088 2.321 4.166.549.018 1.186-.179 1.516-.486l.814.726.435-.504-.832-.747z"></path><path fill="#FFF" d="M20.437.997S2.895 62.644 73.705 117.216C144.517 62.644 126.977.997 126.977.997H20.437z"></path><path fill="#FFF" d="M126.83 1.185c.197.746 1.785 7.12 1.785 17.245 0 22.201-7.72 62.118-54.91 98.542-47.186-36.423-54.908-76.337-54.908-98.54 0-10.127 1.588-16.5 1.785-17.247H126.83zm.146-.375H20.294l-.039.135C20.08 1.564 3.491 63.34 73.59 117.364l.116.088.113-.088C143.92 63.34 127.333 1.564 127.156.945l-.037-.135h-.143z"></path><path fill="#000" stroke="#000" stroke-width=".3" d="M73.705 116.974c-42.99-33.185-53.57-68.875-54.866-92.982l-.375.02c1.302 24.21 11.923 60.056 55.126 93.352l.115.088.114-.088c43.16-33.262 53.824-69.124 55.17-93.35l-.375-.022c-1.34 24.127-11.963 59.833-54.909 92.982"></path><path fill="#000" d="M64.413 24.002h18.632v85.56l-9.34 7.653-9.292-7.633z"></path><path fill="#000" d="M83.045 24.026l-.025 85.537c-.003-.007-9.33 7.633-9.33 7.633 0-.024-9.262-7.632-9.262-7.632l.01-85.538h18.607zm-18.657-.048v85.604c.01.019 9.302 7.652 9.302 7.652.03 0 9.371-7.653 9.371-7.653l.01-85.579-18.658-.024h-.025z"></path><path fill="#E00034" d="M128.761 24.002C129.516 9.93 126.976.997 126.976.997H20.436s-2.541 8.932-1.785 23.005h110.11z"></path><path fill="#000" d="M126.83 1.185c.192.71 1.882 7.3 1.882 17.667 0 1.569-.044 3.232-.135 4.962H18.834a97.62 97.62 0 01-.135-4.97c0-10.361 1.693-16.95 1.882-17.66h106.25zM20.437.81h-.143l-.039.135c-.025.09-2.54 9.123-1.79 23.066l.009.18H128.94l.008-.18c.748-13.943-1.766-22.976-1.792-23.066l-.037-.135H20.436zM34.95 124.63c-.925 1.86-1.606 3.764.344 4.756 1.945.992 3.096-.672 4.046-2.517.79-1.526 1.467-3.443-.482-4.437-1.983-1.01-3.129.67-3.909 2.198"></path><path fill="#FFF" d="M45.314 8.19h2.057V5.296h-7.329V8.19h1.97v6.083h3.302V8.19zm31.038 7.843c-1.254 0-2.275 1-2.275 2.25 0 1.255 1.02 2.303 2.275 2.303 1.252 0 2.276-1.048 2.276-2.302 0-1.252-1.024-2.25-2.276-2.25zM38.421 6.097c-1.107-1.042-3.35-1.714-4.966-1.714-3.062 0-5.306 2.061-5.306 4.612 0 2.388 1.714 3.387 4.052 4.203 1.424.471 3.156.92 3.156 2.51 0 1.184-.888 2.225-2.337 2.225-1.518 0-2.798-1.061-3.279-2.245l-2.288 1.898c1.251 1.776 3.084 3 5.59 3 3.714 0 5.982-2.184 5.982-5.267 0-5.161-7.21-4.08-7.21-6.671 0-.999 1.085-1.734 2.217-1.734 1.184 0 2.051.49 2.725 1.266l1.664-2.083zm24.162 5.728l-.048-6.39h-3.421v15.15h3.42v-6.811l5.655 6.812h4.399l-7.027-8.158 6.655-6.993h-4.214l-5.42 6.39zm-18.898 4.208c-1.253 0-2.277 1-2.277 2.25 0 1.255 1.024 2.303 2.277 2.303 1.252 0 2.275-1.048 2.275-2.302 0-1.252-1.023-2.25-2.275-2.25zm51.976 0c-1.255 0-2.276 1-2.276 2.25 0 1.255 1.021 2.303 2.276 2.303 1.251 0 2.274-1.048 2.274-2.302 0-1.252-1.023-2.25-2.274-2.25zm26.147 0c-1.25 0-2.277 1-2.277 2.25 0 1.255 1.026 2.303 2.277 2.303 1.253 0 2.277-1.048 2.277-2.302 0-1.252-1.024-2.25-2.277-2.25zm-4.716-10.2a8.307 8.307 0 00-3.666-.868c-4.822 0-8.115 3.719-8.115 7.928 0 4.093 3.425 7.693 8.05 7.693 1.333 0 2.531-.372 3.731-.884v-3.446c-.892.927-2.267 1.576-3.643 1.576-2.99 0-4.821-2.5-4.821-4.999 0-2.556 1.766-5.114 4.843-5.114 1.374 0 2.729.591 3.621 1.574v-3.46zM93.945 7.92V5.33H85.11v15.255h3.473v-6.717h5.034v-2.59h-5.034V7.92h5.362z"></path><path fill="#000" d="M30.334 126.197l1.925-2.961 2.092 1.356.408-.628-2.093-1.358 1.337-2.06 2.253 1.464.407-.629-2.946-1.912-4.077 6.278z"></path><path fill="#FFF" d="M38.568 126.497c-.99 1.926-1.71 2.85-2.936 2.224-1.227-.626-.902-1.75.074-3.682.746-1.49 1.638-2.538 2.777-1.958 1.173.6.85 1.936.085 3.416"></path><path fill="#000" d="M40.743 128.383l1.341.54c.905.369.946 1.072.665 1.766-.188.464-.46 1.354-.474 1.865l.898.363.065-.158c-.188-.075-.12-.402-.095-.543.136-.548.295-1.075.478-1.605.26-.97.155-1.347-.708-1.792l.008-.02c.848.216 1.583-.167 1.942-.97.691-1.58-.08-2.335-1.532-2.923l-1.786-.721-2.805 6.94.768.311 1.235-3.053z"></path><path fill="#FFF" d="M42.032 125.19l1.082.437c.518.21 1.441.614.978 1.817-.47 1.22-1.492.87-1.857.734l-1.212-.489 1.01-2.5z"></path><path fill="#000" d="M46.054 126.814l1.794.725-2.523 6.247.766.309 2.527-6.245 1.793.723.28-.691-4.357-1.76zm3.685 8.509l2.313-7.12-.79-.254-2.312 7.117zm2.035-1.173c-.279 1.308.456 2.127 1.783 2.409 1.329.282 2.33-.169 2.608-1.474l1.182-5.554-.811-.175-1.12 5.264c-.112.576-.406 1.484-1.704 1.209-1.298-.277-1.197-1.225-1.067-1.799l1.12-5.262-.812-.172-1.179 5.555zm10.615-1.536c.37-1.362-.304-2.228-1.64-2.511-1.192-.256-2.208.357-2.466 1.565-.154.725-.104 1.347.516 1.847.347.286.947.629 1.313.87.683.441 1.13.546.895 1.66-.184.856-.849 1.156-1.67.982-1.22-.26-1.28-.988-1.01-2.062l-.81-.17c-.073.389-.207.974-.127 1.367.216 1.048 1.03 1.435 1.754 1.588 1.404.3 2.445-.327 2.743-1.712.204-.967.053-1.51-1.223-2.322l-1.069-.686c-.432-.277-.588-.635-.482-1.142.122-.567.405-1.283 1.588-1.032.81.174 1.097.836.878 1.586l.81.172z"></path><path fill="#FFF" d="M68.345 137.781c-.307.208-.579.25-.909.248-1.276-.004-1.55-1.392-1.48-3.057.086-2.164.345-3.303 1.723-3.255 1.375.046 1.555 1.202 1.5 3.368-.02.797-.235 1.847-.415 2.132l-.68-.583-.458.534.719.613z"></path><path fill="#000" d="M71.302 136.973c-.047 1.336.817 2.015 2.173 2.064 1.358.047 2.27-.57 2.317-1.91l.196-5.673-.828-.027-.187 5.374c-.01.59-.144 1.532-1.47 1.486-1.328-.045-1.395-.997-1.364-1.584l.19-5.378-.828-.026-.2 5.674z"></path><path fill="#FFF" d="M80.999 134.734c.067 2.166-.114 3.32-1.49 3.367-1.376.049-1.635-1.09-1.72-3.256-.07-1.663.202-3.012 1.48-3.055 1.317-.048 1.684 1.276 1.73 2.944"></path><path fill="#000" d="M86.526 137.885l-.43-3.506 2.475-.305-.09-.743-2.478.305-.297-2.436 2.664-.327-.093-.743-3.486.43.912 7.427zm4.552-.868l-1.558-7.323-.808.173 1.556 7.322z"></path><path fill="#FFF" d="M91.662 130.106l1.268-.387c1.28-.39 1.84.627 2.398 2.24.73 2.117.518 3.131-.646 3.486l-1.269.39-1.75-5.729z"></path><path fill="#000" d="M102.16 133.984l-.22-.717-2.805.857-.81-2.642 2.616-.799-.22-.718-2.613.8-.724-2.365 2.786-.853-.218-.715-3.579 1.094 2.188 7.159zm4.769-1.991l-.28-.694-2.833 1.146-2.523-6.248-.768.309 2.804 6.942zm1.871-.829l-3.397-6.67-.739.377 3.397 6.67zm.752-2.388c.608 1.191 1.693 1.366 2.903.75 1.21-.616 1.706-1.599 1.098-2.79l-2.577-5.059-.738.376 2.441 4.792c.277.52.62 1.41-.561 2.014-1.186.602-1.705-.196-1.963-.725l-2.444-4.793-.736.374 2.577 5.061zm6.625-8.056c-.678-1.236-1.764-1.393-2.924-.67-1.03.646-1.34 1.794-.685 2.843.392.625.862 1.038 1.652.967.451-.033 1.119-.204 1.55-.286.8-.155 1.194-.392 1.797.573.465.745.192 1.421-.518 1.865-1.059.662-1.606.18-2.16-.78l-.703.437c.222.335.53.848.86 1.077.884.603 1.74.314 2.367-.078 1.219-.76 1.532-1.935.78-3.137-.522-.837-1.007-1.124-2.49-.82-.418.085-.826.163-1.245.248-.5.104-.866-.049-1.14-.487-.308-.492-.6-1.204.426-1.844.7-.438 1.37-.16 1.731.53l.702-.439zm-84.359-2.234l.106.317 2.272-.757-.106-.318zm81.334-.44l2.273.757.104-.317-2.273-.758zM22.028 45.108a111.505 111.505 0 006.508 17.968h90.346c2.89-6.26 5-12.291 6.519-17.968H22.028z"></path><use fill="#000" xlink:href="#cqa"></use></g></symbol></defs>
			<use xmlns:xlink="http://www.w3.org/1999/xlink" xlink:href="#icn-aflc-stk"></use>
	</svg>