<svg xmlns:xlink="http://www.w3.org/1999/xlink" xmlns="http://www.w3.org/2000/svg" class="icon club-logo" aria-hidden="true" width="200"  height="200" ><defs><symbol viewBox="0 0 200 200" id="icn-aflc-syd" xmlns="http://www.w3.org/2000/svg"><g fill="#E1251B" fill-rule="evenodd"><path d="M106.24 130.066h.024c-.023.299-.035.667-.035.989v2.38h-1.31c.114-.173.195-.357.31-.644l.701-1.76c.15-.367.242-.643.31-.965zm-8.889 3.725v.748c0 .575-.23.862-.69.862-.471 0-.724-.287-.724-.874v-.781c0-.495.138-.771.517-.966l.139.057c.563.219.758.414.758.954zm-1.368-3.047v-.632c0-.563.218-.817.644-.817.425 0 .644.265.644.828v.668c0 .436-.127.7-.437.884l-.127-.045c-.483-.184-.724-.414-.724-.886zm12.557 3.898h-.816v1.748h-1.506v-1.748h-2.507v-1.15l2.185-5.094h1.828v5.037h.816v1.207zm-6.382 1.748h-1.598v-.425c.012-2.38.667-4.496 1.748-6.267h-2.656v-1.3h4.162v1.058c-1.138 1.68-1.644 3.772-1.656 5.968v.966zm-3.243-1.943c0 1.299-.874 2.116-2.265 2.116-1.438 0-2.277-.77-2.277-2.104v-.564c0-.713.38-1.253 1.081-1.53-.644-.344-.978-.862-.978-1.736v-.448c0-1.196.851-1.955 2.15-1.955 1.323 0 2.14.713 2.14 1.92v.495c0 .678-.277 1.127-.909 1.46.725.356 1.058.874 1.058 1.817v.529zm-5.842 1.943h-1.54v-5.726c-.242.218-.667.31-1.081.31h-.172v-1.483h.125c.679 0 1.22-.38 1.426-1.093h1.242v7.992zM78.605 84.06a1.231 1.231 0 01-1.22-1.079c-.006-.052-.015-.102-.015-.155v-.004a1.235 1.235 0 111.235 1.238zM63.082 94.744c-.226.718-.682 1.256-1.171 1.474-.246.11-.5.145-.74.07-.715-.227-1.02-1.283-.68-2.36.034-.109.077-.21.12-.31.394-.895 1.147-1.437 1.791-1.234.716.226 1.02 1.283.68 2.36zm53.654 42.228c8.569-17.089 8.521-28.392 6.35-35.068-2.14-7.807-6.591-10.483-9.776-11.24a8.011 8.011 0 00-1.22-.164c-.707-.042-1.613-.007-2.454.293-.372.132-.73.317-1.055.569-.733.567-1.309 1.284-1.698 1.854a14.06 14.06 0 01-.513.642c-2.795 3.296-7.023 5.407-7.023 5.407-3.84 2.088-7.876 1.865-10.453 1.368-.873-.209-3.007-.858-5.16-2.567a10.368 10.368 0 01-.775-.71 9.843 9.843 0 01-.425-.467c-.07-.08-.14-.159-.207-.24-2.245-2.765-2.605-6.261-2.367-9.162v-.01c.008-.08.067-.57.388-.96.053-.059.113-.119.181-.178l.035-.03.032-.025c.558-.405.83-.314 1.533-.652l.01-.005c.842-.376 1.58-1.068 2.042-1.995.05-.102.1-.204.144-.31a4.48 4.48 0 00.331-1.705v-.036c-.018-1.348-.67-2.58-1.787-3.2.937-1.65 2.231-3.518 3.896-5.024.128-.116.258-.23.39-.343l.049-.038a.895.895 0 00.02-.015l.072-.063c1.82-1.577 3.962-2.734 4.916-3.226.146-.084.292-.168.444-.25h-.006c-.142.017-.334.026-.476.043-2.02.272-10.76 1.849-15.045 9.133l-.125.224-.007.009c-.007.01-.013.016-.021.03-.11.178-.262.446-.434.758-.198.36-.425.785-.66 1.234a171.385 171.385 0 00-1.164 2.25c-.325.635-1.22 2.072-1.22 2.072h.001c-1.396 1.928-3.202 3.73-5.28 4.216-.36.084-.728.133-1.104.132-.809-.002-1.456-.124-1.976-.329a3.763 3.763 0 01-.174-.09c-2.667-1.5-1.41-5.253-.834-6.627l.01-.022.01-.026c3.963-8.61 13.597-17.864 24.128-23.13 4.453-2.227 9.064-3.745 13.474-4.192 1.365-.138 2.826-.302 4.406-.306h.016c.423-.001.853.004 1.289.015a44.4 44.4 0 01.882.03c.152.005.306.008.457.015-4.223-1.08-12.113-1.636-21.387 2.707l-.013.005-.076-.153-2.167-4.376-2.294-4.598L38 48.427l22.067 44.148c-1.885 3.62-1.912 6.932-.917 8.953l.145.286c.36.639 1.442 2.14 3.47 1.696a3.662 3.662 0 00.776-.267 2.703 2.703 0 001.247-1.223c.27-.53.337-1.044.352-1.302.475 1.3.845 2.75 1.108 4.222.37 2.078.524 4.195.412 5.992 0 0 2.01-3.351 2.472-7.258l.005-.039c.458-3.378.108-6.568 0-7.875a6.308 6.308 0 01-.018-.676v-.097l-.001-.001-.001-.027a4.28 4.28 0 01.09-.959h-.001s.035-.255.152-.574c.133-.364.371-.812.787-1.07l.021-.013.002-.001s1.21-.648 1.808-.245l.014.01c.12.073.25.175.382.315.016.016.032.034.047.052l.018.02a2.359 2.359 0 01.208.27l.005.009c.213.278.444.64.697 1.112 1.212 2.263 3.517 4.19 3.836 4.45a30.155 30.155 0 006.95 3.954c-2.12 4.396-6.665 9.514-11.517 14.288-.125.12-.249.24-.37.361l-.066.065a.98.98 0 00-.018.017c-4.463 4.355-9.116 8.415-12.498 11.035a16.384 16.384 0 00-2.085 1.908 4.319 4.319 0 01-.344-.886c-.277-.943-.252-1.908-.022-2.925.079-.38.158-.612.158-.612 1.346-4.579 6.23-10.286 6.035-19.662-1.179 9.045-9.22 17.967-10.004 22.795-.267 1.643-.202 2.995.142 4.116.004.016.01.03.014.044.099.314.22.608.361.886l.034.065.037.067c.268.482.59.876.928 1.197a5.42 5.42 0 001.245.882l.018.01a5.037 5.037 0 001.024.401l.022.006.023.006a.89.89 0 00.035.008l.05.012c.004-.079.265-1.901 1.887-3.972a12.24 12.24 0 012.158-2.13c.734-.569 3.524-2.756 7.043-5.842a154.192 154.192 0 005.182-4.75l.17.32 25.736 51.487 17.225-34.514zm11.657-53.002c6.709 7.39 4.102 16.425 4.102 16.425l-.006.024c.09-10.282-5.599-15.181-7.769-17.58 3.98-1.108 6.727-.162 7.214-.037l.053.014c-1.7-4.994-6.489-8.73-10.726-10.993 1.947-1.163 4.882-1.249 4.882-1.249s-2.18-2.23-6.727-3.782a26.077 26.077 0 00-3.332-.892c-2.322-.462-5.058-.698-8.224-.498-1.61.102-3.335.321-5.167.673v-.006s2.208-.91 5.546-1.427c5.683-.881 14.594-.713 21.568 7.102-.814.046-2.989-.115-4.777.428 3.724 2.004 8.772 8.358 9.209 12.887-3.443-1.523-5.846-1.09-5.846-1.09zm18.993-8.411l-2.577 5.366-.32.666c-1.598-4.684-3.797-8.54-6.296-11.719-9.525-12.116-23.42-14.341-25.167-14.577l-.187-.024 1.014-2.116 2.262-4.726 44.907.004-13.636 27.126zM149.33 43.454v-5.088l-7.464-9.84h4.836l4.31 6.055c.337.442.442.631.505.841h.042c.063-.21.147-.4.483-.841l4.458-6.056h4.583l-7.505 9.84v5.089h-4.248zm-83.117 0v-5.088l-7.465-9.84h4.836l4.31 6.055c.337.442.442.631.505.841h.042c.063-.21.148-.4.484-.841l4.457-6.056h4.584l-7.506 9.84v5.089h-4.247zM53.56 39.228c0-.925-.63-1.304-2.397-1.493l-4.583-.504c-3.638-.4-5.425-1.746-5.425-4.5 0-2.965 2.901-4.731 8.011-4.731 3.764 0 6.707.988 8.579 3.09l-2.692 2.25c-1.093-1.492-3.238-2.375-6.097-2.375-2.313 0-3.554.546-3.554 1.576 0 .905.61 1.262 2.523 1.452l4.1.42c4.122.42 5.825 1.64 5.825 4.395 0 3.322-3.07 5.171-8.474 5.171-4.415 0-7.863-1.471-9.398-3.826l3.028-2.124c1.24 1.745 3.532 2.944 6.58 2.944 2.713 0 3.974-.568 3.974-1.745zm52.73 4.226h-3.848V28.525h4.541L114.742 37c.483.589.904 1.093 1.177 1.682h.084V28.525h3.848v14.929h-4.227l-8.052-8.557c-.4-.463-.967-1.22-1.199-1.704h-.084v10.261zm33.502 0h-15.223V28.525h15.076v2.986H127.67v.057c.326.156.835.538 1.146.807v2.122h10.471v2.775h-11.616v.057c.325.155.834.536 1.145.805v2.334h10.976v2.986zm-55.083-2.88v-8.306c-.312-.269-.82-.65-1.145-.805v-.057h5.728c3.049 0 5.151 1.493 5.151 4.416 0 2.985-1.934 4.752-5.13 4.752H84.71zm14.234-4.836c0-4.668-3.511-7.213-8.999-7.213h-9.482v14.929h9.398c5.362 0 9.083-3.07 9.083-7.716z"></path></g></symbol></defs>
			<use xmlns:xlink="http://www.w3.org/1999/xlink" xlink:href="#icn-aflc-syd"></use>
	</svg>