<svg xmlns:xlink="http://www.w3.org/1999/xlink" xmlns="http://www.w3.org/2000/svg" class="icon club-logo" aria-hidden="true" width="200"  height="200" ><defs><symbol viewBox="0 0 200 200" id="icn-aflc-bl" xmlns="http://www.w3.org/2000/svg"><g fill="none" fill-rule="evenodd"><path fill="#8B0042" d="M37.896 67.898V46.55c0-2.385 0-4.085-1.897-5.786h13.032c-1.85 1.7-1.896 3.401-1.896 5.786v21.59c1.8.584 3.5.875 5.3.875 2.43 0 4.474-.73 6.662-2.235l-1.75 6.952H36c1.85-1.75 1.897-3.502 1.897-5.834m34.273 5.834H59.138c1.847-1.75 1.896-3.502 1.896-5.835V46.552c0-2.384 0-4.086-1.896-5.787h13.03c-1.846 1.7-1.894 3.403-1.894 5.787v21.345c0 2.333.048 4.085 1.894 5.835m19.252-4.035c5.106 0 8.557-3.892 8.557-10.942 0-8.364-3.79-13.518-9.14-13.518-5.009 0-8.512 3.892-8.512 10.892 0 8.412 3.794 13.568 9.096 13.568m-18.917-12.5c0-4.52 2.09-9.139 5.885-12.543 3.404-3.014 7.877-4.67 12.737-4.67 11.042 0 18.673 7.15 18.673 17.265 0 4.52-2.09 9.237-5.882 12.592-3.405 3.064-7.878 4.67-12.79 4.67-10.94 0-18.623-7.246-18.623-17.314"></path><path fill="#8B0042" d="M111.968 65.465v-17.7c0-2.331-.049-4.23-2.626-7h10.161l14.977 20.178v-13.03c0-2.237-.192-4.378-2.333-7.148h9.433c-1.797 2.965-1.945 5.152-1.945 7.294v26.5c-7.149-.827-9.529-4.231-12.546-8.17l-9.967-12.982v14.004c0 2.527.195 4.376 2.188 6.32h-9.63c2.288-2.48 2.288-4.813 2.288-8.266m39.872 3.696c3.111 0 5.007-1.604 5.008-3.647 0-3.112-3.403-3.986-8.024-6.369-4.57-2.335-6.952-5.69-6.952-9.58 0-5.592 4.523-9.58 12.107-9.58 2.82 0 5.448.537 8.268 1.556v5.544c-2.773-1.41-5.01-2.236-6.859-2.236-2.626 0-4.325 1.458-4.325 3.209 0 2.723 3.5 3.695 9.19 6.81 3.794 2.088 5.542 4.957 5.542 8.944 0 6.177-5.106 10.454-12.981 10.454-3.26 0-6.419-.632-9.777-1.75l-1.7-7.002c3.84 2.335 7.098 3.647 10.503 3.647"></path><path fill="#0055A3" d="M63.726 35.196c.977 0 1.645-.765 1.645-1.808 0-1.172-.668-1.904-1.661-1.904-.147 0-.36.033-.635.065v3.582c.309.048.52.065.65.065m-.21-5.226c.7 0 1.139-.488 1.139-1.318 0-.7-.44-1.238-1.107-1.238-.082 0-.244.015-.472.049v2.475c.195.032.342.032.44.032m-3.567 4.867V27.69c0-.798-.016-1.368-.633-1.937h4.102c2.767 0 4.167.976 4.167 2.605 0 .961-.57 1.726-1.66 2.197 1.481.44 2.262 1.417 2.262 2.882 0 .863-.31 1.661-.878 2.278-.847.897-1.823 1.076-3.24 1.076h-4.753c.617-.585.633-1.17.633-1.954m16.058-5.779c0-1.009-.587-1.645-1.563-1.645-.081 0-.162 0-.244.017v3.76c1.188-.31 1.807-1.058 1.807-2.132zm-5.535 7.733c.618-.586.635-1.171.635-1.954V27.69c0-.797 0-1.367-.635-1.938h4.298c2.849 0 4.282.962 4.282 2.947 0 1.19-.652 2.036-2.02 2.686l2.003 3.42c.31.52.781 1.14 1.466 1.84l-1.841.179c-.146.016-.293.016-.439.016-1.22 0-1.873-.603-2.59-1.987l-1.43-2.799v2.783c0 .783.015 1.368.634 1.954H70.47zm15.629 0h-4.363c.618-.585.634-1.17.634-1.955V27.69c0-.798 0-1.368-.634-1.937H86.1c-.619.57-.635 1.139-.635 1.937v7.146c0 .784.016 1.37.635 1.955m5.73-1.53c1.043 0 1.677-.538 1.677-1.221 0-1.041-1.139-1.335-2.686-2.133-1.53-.781-2.328-1.904-2.328-3.208 0-1.871 1.515-3.206 4.054-3.206.943 0 1.823.179 2.767.52v1.856c-.927-.472-1.677-.748-2.295-.748-.879 0-1.448.487-1.448 1.074 0 .912 1.172 1.237 3.075 2.28 1.27.7 1.857 1.66 1.857 2.994 0 2.068-1.71 3.5-4.345 3.5-1.093 0-2.15-.211-3.273-.585l-.571-2.344c1.286.781 2.377 1.221 3.516 1.221m11.06-.065c.977 0 1.645-.765 1.645-1.808 0-1.172-.668-1.904-1.661-1.904-.147 0-.358.033-.635.065v3.582c.31.048.52.065.65.065m-.211-5.226c.7 0 1.14-.488 1.14-1.318 0-.7-.44-1.238-1.106-1.238a3.78 3.78 0 00-.473.049v2.475c.195.032.342.032.439.032m-3.566 4.867V27.69c0-.798-.016-1.368-.634-1.937h4.103c2.767 0 4.168.976 4.168 2.605 0 .961-.57 1.726-1.66 2.197 1.481.44 2.261 1.417 2.261 2.882 0 .863-.308 1.661-.878 2.278-.847.897-1.822 1.076-3.24 1.076h-4.754c.618-.585.634-1.172.634-1.954m15.39-2.865l-1.123-3.402-1.139 3.402h2.262zm-5.193 3.174l2.59-7.407c.096-.292.243-.57.243-.927 0-.375-.195-.667-.538-1.06h3.908l3.127 9.054c.276.781.699 1.48 1.22 1.985h-4.786c.374-.424.586-.7.586-1.14 0-.227-.032-.423-.081-.553l-.555-1.58h-3.32l-.521 1.515c-.082.26-.147.472-.147.667 0 .39.179.75.522 1.091h-3.24c.44-.52.78-1.041.992-1.645zm12.211-1.123v-5.926c0-.78-.016-1.416-.88-2.344h3.403l5.015 6.756v-4.363c0-.748-.065-1.465-.782-2.393h3.158c-.601.993-.65 1.727-.65 2.442v8.873c-2.394-.277-3.192-1.417-4.2-2.735l-3.34-4.347v4.689c0 .846.067 1.465.734 2.116h-3.222c.764-.83.764-1.612.764-2.768m12.878.814V27.69c0-.798 0-1.367-.635-1.937h6.462v2.296c-.552-.52-.96-.635-1.578-.635h-1.124v2.751h2.117v2.117c-.26-.36-.668-.554-1.188-.554h-.929v3.32a6.2 6.2 0 001.222.148c1.107 0 1.953-.195 2.768-.815l-.586 2.41h-7.164c.619-.586.635-1.171.635-1.954"></path><path fill="#EDC157" d="M97.993 63.748s-8.64-1.108-17.543 2.465c0 0 1.184 1.315 1.035 2.192 0 0-12.338 2.718-16.82 10.403 0 0 1.773.146 2.217 1.315 0 0-9.46 6.136-9.755 12.419 0 0 3.547 1.022 1.625 2.63-1.922 1.608-8.13 4.237-8.424 7.891 0 0 3.824-.227 2.808 3.36-.35 1.236-1.104 4.354-1.104 8.615 0 35.63 48.981 60.421 48.981 60.421s49.035-24.792 49.035-60.42c-.011-.859-.236-8.458-2.612-12.562 0 0 .792-.538 1.626-.439 0 0-.348-3.74-4.548-8.367-1.881-2.071-2.456-5.691.112-5.95 0 0-.291-2.235-5.27-3.047-1.204-.196-1.35-.147-2.06-1.317-.648-1.068-1.11-3.532-.29-5.092 0 0-1.93-.79-3.362.022 0 0-4.093-8.977-9.118-10.291 0 0-.074.852-.85 1.343 0 0-6.357-7.24-12.552-7.468 0 0 .056 1.138-.52 1.946 0 0-6.841-2.073-12.754-1.854 0 0 .54 1.046.143 1.785"></path><path fill="#8B0042" d="M66.154 95.724s-2.015 1.006-5.155 1.222c0 0 1.99 1.56 5.563 1.51 0 0-.313-1.39-.408-2.732"></path><path fill="#8B0042" d="M148.403 117.27c-1.714-15.576-9.25-21.959-9.25-21.959 3.316-.258 5.91 2.432 5.91 2.432-5.339-10.367-10.85-12.614-13.215-13.095 3.388 2.106 5.743 7.48 2.686 17.214-3.151-5.435-6.296-6.887-6.296-6.887 1.702-.964 4.371.518 4.371.518-2.074-5.037-7.187-4.889-7.187-4.889 2.149-1.926 5.705-.593 5.705-.593-4.19-4.082-10.813-2.365-10.813-2.365s3.359-4.313 8.234-4.047a6.89 6.89 0 012.208.494c.801-2.836 3.63-3.674 3.63-3.674-4.744-1.407-10.332 2.222-10.332 2.222 2.256-5.187 1.665-10.222 1.665-10.222-3.702 9.878-8.657 14.218-8.657 14.218 4.523-8.871-.775-20.236-.775-20.236 1.823 11.868-4.051 18.222-4.051 18.222 1.03-14.29-5.203-18.725-5.203-18.725 4.698 7.241.79 17.647.79 17.647-2.78-14.459-14.745-17.312-14.745-17.312 11.75 7.168 9.999 21.508 9.999 21.508-2.206-11.701-11.485-16.448-11.485-16.448 5.61 5.322 6.45 14.336 6.45 14.336-8.559-17.286-23.76-12.947-23.76-12.947 14.457 1.32 17.813 13.068 17.813 13.068-8.895-11.676-21.074-8.105-21.074-8.105 9.23.576 12.779 7.53 12.779 7.53-11.82-9.064-22.273 2.542-22.273 2.542 3.344-1.11 4.627.743 4.627.743C62.534 90.138 61 92.943 61 92.943c3.356-1.008 5.082-.336 5.082-.336.025-.888.575-7.192 5.754-8.704 5.714-1.666 9.83 3.765 9.83 3.765-7.433-1.582-10.74 2.35-10.74 2.35 3.98-1.319 5.633.623 5.633.623-5.682.216-7.162 4.852-7.162 4.852 3.045-1.511 4.382-.489 4.382-.489-7.877 7.913-17.28 5.192-17.28 5.192 7.198 4.698 16.065 2.168 16.065 2.168-7.5 5.528-17.138 3.794-17.138 3.794 9.648 5.522 15.092 3.24 15.092 3.24-3.884 5.58-15.729 5.243-15.729 5.243 7.337 4.747 15.729 2.109 15.729 2.109-2.219 3.37-6.906 3.837-6.906 3.837 4.82 2.193 8.057 1.15 8.057 1.15-3.788 3.728-12.17 2.127-12.17 2.127 6.486 5.282 15.047 3.34 15.047 3.34-8.692 6.078-17.936.583-17.936.583 6.571 7.017 18.518 6.372 18.518 6.372-4.574 3.163-10.185 1.925-10.185 1.925 4.652 3.863 8.323 3.683 8.323 3.683-5.179 2.238-11.544-.46-11.544-.46 5.428 6.67 15.443 6.332 15.443 6.332-3.243 2.16-9.11 1-9.11 1 8.373 5.631 15.665 4.333 15.665 4.333-6.597 2.618-11.666 1-11.666 1 8.473 4.542 13.594 4.112 13.594 4.112-2.963 2.217-5.745 1.435-5.745 1.435s5.911 4.76 9.995 7.792c7.112 4.857 11.118 6.935 11.118 6.935 22.376-12.66 20.777-19.5 20.777-19.5 1.664 1.471 2.12 3.559 2.12 3.559 7.79-6.468 8.654-15.34 8.654-15.34 1.87 3.527-.158 8.758-.158 8.758 9.004-9.835 5.83-19.586 5.83-19.586 2.685.958 3.07 7.272 3.07 7.272 9.255-15.992.585-28.486.585-28.486 3.116.97 6.509 8.347 6.509 8.347"></path><path fill="#69003D" d="M148.403 117.27c-1.714-15.576-9.25-21.959-9.25-21.959 3.316-.258 5.91 2.432 5.91 2.432-5.339-10.367-10.85-12.614-13.215-13.095 3.388 2.106 5.743 7.48 2.686 17.214-3.151-5.435-6.296-6.887-6.296-6.887 1.702-.964 4.371.518 4.371.518-2.074-5.037-7.187-4.889-7.187-4.889 2.149-1.926 5.705-.593 5.705-.593-4.19-4.082-10.813-2.365-10.813-2.365-1.056.195-1.408.285-1.408.285s-5.323-.743-10.693 1.08c-6.339 2.15-6.814 9.135-7.207 9.135-.39 0-.887-6.984-7.226-9.135-5.37-1.823-10.693-1.08-10.693-1.08s3.27.727 3.21 1.835c-.038.699-1.17.899-2.395 1.163-.616.132-3.093.743-4.333 2.03 0 0 2.819-.442 3.187.351.453.967-2.808 2.661-6.677 4.068 0 0 1.731-.102 2.16.863.562 1.27-.803 2.918-1.35 3.693-5.86 8.295-3.685 15.138-.933 19.935 1.865 3.249 7.562 12.348 7.562 12.348s-1.096 2.175-.852 5.135c.32 3.9.32 5.722 2.093 7.8.626.733 2.159 2.78 1.967 4.795-.252 2.641.575 5.227 3.404 7.192 0 0 .382-.957 1.103-1.15 0 0 .776 1.28 3.693 2.83 3.665 1.947 5.794 3.926 6.029 11.396l.06.031c22.377-12.66 20.778-19.5 20.778-19.5 1.664 1.471 2.12 3.559 2.12 3.559 7.79-6.468 8.654-15.34 8.654-15.34 1.87 3.527-.158 8.758-.158 8.758 9.004-9.835 5.83-19.586 5.83-19.586 2.685.958 3.07 7.272 3.07 7.272 9.255-15.992.585-28.486.585-28.486 3.116.97 6.509 8.347 6.509 8.347"></path><path fill="#EDC157" d="M128.534 115.289c.677-3.653.149-8.85-3.394-13.355a396.577 396.577 0 00-4.207-5.094c-.875-1.044-2.282-2.371-2.013-3.157.452-1.308 3.503-.724 3.503-.724-1.1-1.262-3.348-1.742-4.332-2.03-1.061-.312-2.358-.464-2.395-1.163-.06-1.108 3.21-1.835 3.21-1.835s-5.323-.743-10.693 1.08c-6.34 2.15-6.815 9.135-7.206 9.135-.39 0-.888-6.984-7.228-9.135-5.37-1.823-10.692-1.08-10.692-1.08s3.269.727 3.209 1.835c-.036.699-1.17.899-2.395 1.162-.616.133-3.092.744-4.33 2.03 0 0 2.816-.441 3.186.352.452.967-2.81 2.662-6.677 4.069 0 0 1.73-.104 2.158.862.564 1.27-.803 2.918-1.35 3.693-5.86 8.295-3.685 15.138-.931 19.935 1.865 3.249 7.56 12.348 7.56 12.348 1.224-2.518 3.43-3.01 3.43-3.01-1.472.894-2.259 2.321-2.67 3.75a25.462 25.462 0 019.618.843c.224.064.575.36.43.828-.144.473-.622.478-.821.413a25.048 25.048 0 00-7.824-1.245 25.02 25.02 0 00-10.356 2.228l.08.23a24.26 24.26 0 018.589-1.973 12.647 12.647 0 00-.134 1.581 22.676 22.676 0 019.026.604c.228.064.573.351.453.8-.121.464-.615.523-.802.464a22.194 22.194 0 00-6.856-1.081c-3.365 0-6.556.751-9.418 2.093l.076.222a21.443 21.443 0 017.547-1.824c.023.328.125 1.155.19 1.557l-.01.002a19.693 19.693 0 017.8.432c.238.062.594.329.476.779-.136.52-.625.531-.821.47a19.432 19.432 0 00-14.317 1.09l.077.219a18.583 18.583 0 017.016-1.706c.113.612.217 1.161.269 1.47.483 2.852 3.368 3.803 5.355 2.86.143-.068 7.204-3.436 7.434-3.54a6.34 6.34 0 003.66-4.97 6.343 6.343 0 003.66 4.97c.231.104 7.292 3.472 7.435 3.54 1.987.943 4.872-.008 5.355-2.86.064-.383.162-.9.262-1.47 2.499.11 4.87.708 7.022 1.706l.077-.219a19.338 19.338 0 00-8.472-1.972c-2.04-.005-4.01.307-5.86.887-.192.06-.645.032-.798-.429-.145-.437.213-.759.44-.818a19.646 19.646 0 017.806-.443c.015-.095.155-.95.207-1.553 2.671.148 5.214.785 7.541 1.822l.077-.222a22.133 22.133 0 00-9.418-2.093c-2.39 0-4.693.379-6.853 1.08-.188.06-.664.014-.798-.439a.656.656 0 01.436-.821 22.614 22.614 0 019.06-.603 11.177 11.177 0 00-.133-1.585 24.28 24.28 0 018.565 1.973l.079-.23a25.037 25.037 0 00-10.356-2.228c-2.74 0-5.375.438-7.843 1.25-.192.064-.692.015-.814-.447a.657.657 0 01.42-.792 25.394 25.394 0 019.662-.847l-.008-.001a10.308 10.308 0 00-.257-.762c-1.179-3.076-4.174-3.76-4.174-3.76s1.528-1.81.334-4.724l-1.593-3.777s2.686 2.136 6.46 2.21c6.495.13 9.352-5.353 10-8.857"></path><path fill="#EDC157" d="M98.898 155.019s-1.115.58-1.637 1.941c0 0-1.441-.95-1.592-2.588 0 0-1.503.575-2.092 1.992 0 0-1.572-.629-1.564-2.466 0 0-1.043.615-1.576 1.873 0 .001-1.805-2.217-1.607-4.423.265-2.913 2.566-3.862 2.901-4.027a715.29 715.29 0 015.92-2.822c.977-.41 2.104-.704 3.332-.704 1.226 0 2.355.294 3.332.704.265.112 5.583 2.653 5.918 2.822.337.165 2.65 1.114 2.902 4.027.186 2.157-1.462 4.244-1.607 4.423 0 0-.418-1.12-1.576-1.873 0 0-.19 1.715-1.564 2.466 0 0-.457-1.292-2.091-1.992 0 0-.028 1.44-1.592 2.588 0 0-.384-1.231-1.909-1.941 0 0-.118 1.82-2.117 2.994 0 0-.495-2.42-1.781-2.994"></path><path fill="#F8E3A2" d="M123.075 107.564a.332.332 0 00-.278-.224l-.115-.306h-.004c.08-.058.244-.217.207-.545-.048-.432-.382-.592-.664-.648-1.846-.367-2.826-1.087-3.432-1.518-.605-.43-1.032-.64-1.783-.64-2.316 0-6.68 3.398-8 3.398a.864.864 0 01-.725-.41c-.003-.01-.008-.017-.012-.027-1.567 2.196-.639 4.335 0 5.894l2.802 6.847.006.018s.629-.385.663-1.246c.04-1.015 1.07-3.32 3.637-3.317 2.769.005 5.033-1.086 5.852-4.171.125-.466.505-1.894 1.666-2.627.147-.091.264-.263.18-.478m-46.788 2.737c.674-3.208 2.813-2.944 2.944-2.96l.116-.307h.002c-.08-.059-.243-.218-.206-.545.047-.432.381-.592.663-.648 1.847-.368 2.828-1.087 3.432-1.519.605-.429 1.032-.638 1.783-.638 2.318 0 6.68 3.396 8 3.396a.864.864 0 00.726-.41c.004-.009.008-.017.01-.027 1.568 2.196.64 4.336.002 5.894-.146.36-2.692 6.576-2.803 6.848l-.005.018-2.595 6.31c-1.183 2.738.335 4.723.335 4.723-2.77.004-5.877-2.573-10.138-9.534-2.555-4.172-2.728-8.404-2.266-10.6"></path><path fill="#69003D" d="M108.27 106.643c.472 1.325 1.673 1.342 2.407 1.125.661-.195 3.417-1.085 4.866-1.657 1.447-.574 1.827-.31 2.572.022 2.193.975 4.566.9 4.566.9l.115.307c-1.825.764-2.37 1.555-3.286 3.042-.873 1.42-2.606 2.563-4.678 2.563-1.605 0-2.148-.67-2.942-.399-.442.151-.899.536-1.055 1.453-.366 2.136 1.209 4.526.242 5.4 0 0-2.66-6.494-2.808-6.862-.638-1.559-1.567-3.698 0-5.894m-.519 25.152a1.87 1.87 0 00-3.123 1.97l-3.614 2.279-3.618-2.283a1.87 1.87 0 00-3.125-1.97l-1.628-1.027s-2.147-1.403-2.247-2.72c-.038-.522.317-.963.942-.09.262.365.562.823 1.399.823.576 0 1.523-.887 3.4-.887 2.775 0 3.026 1.254 4.873 1.254 1.846 0 2.098-1.254 4.873-1.254 1.876 0 2.823.887 3.4.887.837 0 1.137-.458 1.398-.822.625-.874.98-.433.942.09-.098 1.316-2.246 2.72-2.246 2.72l-1.627 1.03zm-13.992-25.152c-.473 1.325-1.674 1.342-2.408 1.125-.66-.195-3.416-1.085-4.865-1.659-1.448-.572-1.827-.308-2.572.024-2.194.975-4.567.9-4.567.9l-.115.307c1.826.764 2.37 1.555 3.286 3.042.871 1.42 2.608 2.563 4.68 2.563 1.604 0 2.148-.67 2.94-.399.442.151.9.536 1.057 1.453.364 2.136-2.292 6.522-1.153 7.619l3.718-9.08c.637-1.56 1.567-3.699-.001-5.895"></path><path fill="#FFF" d="M115.042 108.026a.469.469 0 11-.938 0 .469.469 0 01.938 0"></path><path fill="#FFF" d="M114.844 111.432a4.032 4.032 0 004.018-3.713 8.684 8.684 0 01-.888-.336 3.6 3.6 0 00-1.835-.261 1.7 1.7 0 11-3.12 1.024c-.78.304-1.267.468-1.955.645a4.025 4.025 0 003.78 2.64m-27.858-3.405a.469.469 0 10.938 0 .469.469 0 00-.938 0"></path><path fill="#FFF" d="M87.184 111.432a4.031 4.031 0 01-4.019-3.713c.296-.094.594-.205.888-.336a3.604 3.604 0 011.835-.261 1.7 1.7 0 103.12 1.024c.782.304 1.267.468 1.956.645a4.025 4.025 0 01-3.78 2.64"></path></g></symbol></defs>
			<use xmlns:xlink="http://www.w3.org/1999/xlink" xlink:href="#icn-aflc-bl"></use>
	</svg>