<svg xmlns:xlink="http://www.w3.org/1999/xlink" xmlns="http://www.w3.org/2000/svg" class="icon club-logo" aria-hidden="true" width="200"  height="200" ><defs><symbol viewBox="0 0 200 200" id="icn-aflc-gcfc" xmlns="http://www.w3.org/2000/svg"><g fill-rule="nonzero" fill="none"><path d="M75.236 90.61a46.252 46.252 0 01-5.12-2.672A36.596 36.596 0 0164.77 84a26.747 26.747 0 01-4.31-4.854 19.616 19.616 0 01-2.897-6.35 16.846 16.846 0 01-.32-6.49 18.43 18.43 0 012.263-6.45c.014-.024.024-.048.036-.07l.052-.08a25.01 25.01 0 014.084-5.212 33.99 33.99 0 015.314-4.256 44.01 44.01 0 015.14-2.892 52.381 52.381 0 015.32-2.176c1.535-.534 3.099-1.011 4.68-1.43a62.677 62.677 0 014.706-1.023 65.72 65.72 0 014.172-.618 74.99 74.99 0 014.325-.374 72.522 72.522 0 013.99-.112h.02a73.625 73.625 0 018.38.49h.06c.62.075 1.237.16 1.85.251a67.17 67.17 0 00-4.414-.675 70.088 70.088 0 00-4.138-.36 73.792 73.792 0 00-4.266-.13h-.021a72.404 72.404 0 00-12.424 1.086c-1.6.291-3.163.63-4.687 1.026-1.602.407-3.159.88-4.653 1.394a53.557 53.557 0 00-5.284 2.177 44.204 44.204 0 00-5.128 2.861 33.8 33.8 0 00-5.283 4.215 24.675 24.675 0 00-4.053 5.157c-.026.048-.064.098-.093.15a18.336 18.336 0 00-2.253 6.394 16.812 16.812 0 00.317 6.437 19.426 19.426 0 002.885 6.287 26.635 26.635 0 004.291 4.811 36.541 36.541 0 005.32 3.9 46.49 46.49 0 005.094 2.65 53.458 53.458 0 004.725 1.838 40.48 40.48 0 01-2.334-.961z" fill="#0079C1"></path><path d="M140.687 68.589c0 12.159-17.611 22-39.338 22-21.726 0-39.337-9.848-39.337-22s17.611-22 39.337-22c21.727 0 39.338 9.85 39.338 22z" fill="#E02112"></path><path d="M99.428 63.792v.053a12.044 12.044 0 00-.954-.31 21.564 21.564 0 00-1.511-.334 22.494 22.494 0 00-1.98-.239 40.072 40.072 0 00-3.525-.145h-6.914c-.146 0-.286 0-.42.014-.133.015-.286 0-.434 0-3.376 0-4.875 1.002-5.53 3.69-.139.607-.238 1.22-.299 1.839l-.281 2.58a14.116 14.116 0 00-.045 2.305c0 .103 0 .198.011.29.117 3.25 2.659 3.25 5.346 3.25h7.214a9.865 9.865 0 001.547-.104c2.122-.344 3.55-.747 4.027-3.176.017-.072.03-.144.038-.217l.217-2.124H82.954l.195-2.346h15.897l-.476 5.18a10.068 10.068 0 01-.44 2.098c-.373 1.102-.85 1.862-1.39 2.199-.524.31-1.1.523-1.699.631-.79.158-1.593.254-2.398.286-.716.039-1.56.062-2.744.067h-8.872c-2.493-.026-4.143-.355-5.188-1.046-.782-.52-1.304-1.581-1.463-2.99a10.33 10.33 0 01.016-2.2l.673-6.166.014-.079v-.03c.162-1.45.51-2.585 1.06-3.484a5.157 5.157 0 013.02-2.327c1.146-.343 2.622-.512 4.486-.512h9.56c.496 0 .98.019 1.567.057.592.04 1.182.12 1.764.238.437.085.864.216 1.273.391.375.151.713.382.99.677.367.387.576 1.095.629 1.984zm43.076 12.18a22.325 22.325 0 01-3.815 5.367 31.74 31.74 0 01-5.369 4.482 41.755 41.755 0 01-5.41 3.052 51.337 51.337 0 01-5.652 2.286 57.986 57.986 0 01-5.007 1.43c-1.692.406-3.38.747-5.023 1.007a61.818 61.818 0 01-4.451.546 64.278 64.278 0 01-4.58.264 62.437 62.437 0 01-4.177-.01 69.571 69.571 0 01-8.728-.836 56.82 56.82 0 01-4.713-.942 60.53 60.53 0 01-4.609-1.292c-.765-.25-1.516-.53-2.158-.77a48.25 48.25 0 01-3.01-1.218 46.392 46.392 0 01-4.972-2.563 35.168 35.168 0 01-5.142-3.79 25.51 25.51 0 01-4.086-4.605 18.3 18.3 0 01-2.702-5.91 15.776 15.776 0 01-.457-3.738 15.46 15.46 0 01.164-2.222c.325-2.1 1.035-4.12 2.096-5.96l.019-.034a23.62 23.62 0 013.924-5.03 32.986 32.986 0 015.1-4.094 43.443 43.443 0 014.987-2.799 51.16 51.16 0 015.179-2.11 61.67 61.67 0 014.575-1.385 63.976 63.976 0 018.69-1.607 70.353 70.353 0 014.243-.362 68.744 68.744 0 013.913-.112h.019c1.361 0 2.775.043 4.21.131 1.307.076 2.658.19 4.032.35h.04c1.536.182 3.08.42 4.592.716 1.554.298 3.1.648 4.575 1.046a57.955 57.955 0 015.245 1.67c1.78.669 3.52 1.44 5.212 2.307a39.934 39.934 0 015.626 3.51 29.308 29.308 0 014.768 4.467 22.284 22.284 0 012.313 3.276c.49.86.91 1.756 1.259 2.682a15.809 15.809 0 011.032 5.558c0 .126 0 .271-.014.433 0 .082 0 .165-.012.239a16.415 16.415 0 01-1.726 6.57zm-.439-7.374a14.524 14.524 0 00-1.256-5.82 19.512 19.512 0 00-4.182-5.921 29.546 29.546 0 00-5.135-4.034 41.114 41.114 0 00-5.624-2.933 51.387 51.387 0 00-4.907-1.81 58.423 58.423 0 00-4.768-1.268 63.117 63.117 0 00-7.977-1.266 63.47 63.47 0 00-3.457-.238 70.613 70.613 0 00-3.431-.088h-.143a71.44 71.44 0 00-3.288.086 71.087 71.087 0 00-7.08.696 64.954 64.954 0 00-3.999.737c-1.392.3-2.758.646-4.053 1.025a49.94 49.94 0 00-4.768 1.65 43.763 43.763 0 00-4.818 2.252 33.892 33.892 0 00-5.29 3.546 23.31 23.31 0 00-4.34 4.646 15.883 15.883 0 00-2.691 6.325 13.222 13.222 0 00-.191 1.8c-.027.28-.038.563-.033.844h9.16l-.187 2.341h-8.711c.089.457.209.964.36 1.522l.09.283a17.452 17.452 0 003.076 5.536 25.055 25.055 0 004.465 4.256A35.535 35.535 0 0074.075 86a44.547 44.547 0 004.714 2.096c1.49.57 3.073 1.087 4.708 1.54 1.366.379 2.737.715 4.07.984a69.182 69.182 0 007.705 1.104 67.16 67.16 0 003.791.217c.806.026 1.562.038 2.298.038h1.238a69.902 69.902 0 007.698-.543 59.687 59.687 0 004.394-.715c1.53-.303 3.037-.66 4.482-1.057a53.998 53.998 0 005.262-1.752 44.435 44.435 0 005.3-2.477 32.95 32.95 0 005.657-3.917l.067-.06 2.176-2.145h-26.983a22.172 22.172 0 01-2.384-.117 8.344 8.344 0 01-2.594-.642c-1.495-.693-2.174-2.329-2.022-4.858l.012-.148c0-.167.017-.327.031-.477l.675-6.199v-.016c0-.034 0-.067.02-.108v-.03a10.936 10.936 0 01.369-1.855c.462-1.531 1.235-2.554 2.422-3.21a8.208 8.208 0 012.954-1.018c.931-.114 1.87-.168 2.808-.16h9.587c2.21 0 3.781.253 4.797.773.913.463 1.351 1.269 1.416 2.637a11.281 11.281 0 00-.885-.298c-1.74-.5-4.129-.753-7.1-.753h-7.867c-1.652 0-3.357.14-4.487 1.838a6.285 6.285 0 00-.877 2.286 15.63 15.63 0 00-.21 1.43l-.284 2.585c0 .114-.021.238-.03.334v.133c-.036.471-.043.944-.022 1.416.012.21.016.396.012.563-.024 1.054.238 1.876.81 2.45.849.874 2.146.993 3.312.99.293 0 .572 0 .848-.016.277-.017.477-.015.694-.015h26.876l.406-.686a14.965 14.965 0 002.086-6.676v-.105c.023-.257.04-.498.04-.763z" fill="#FD0"></path><path d="M100.803 63.713c-.069-1.232-.393-2.183-.953-2.825a4.277 4.277 0 00-1.471-1.023 7.674 7.674 0 00-1.552-.476 14.858 14.858 0 00-1.95-.253c-.618-.04-1.13-.062-1.657-.062h-9.575c-2.007 0-3.605.188-4.885.572a6.583 6.583 0 00-3.795 2.928c-.66 1.075-1.076 2.412-1.262 4.074l-.682 6.254a11.92 11.92 0 00-.016 2.503c.21 1.852.93 3.228 2.074 3.986 1.278.844 3.176 1.254 5.96 1.278h8.857a47.28 47.28 0 002.813-.071c.877-.036 1.75-.14 2.611-.313a6.52 6.52 0 002.146-.813c.82-.515 1.475-1.5 1.957-2.923.256-.78.426-1.586.505-2.403l.627-6.682H81.874l-.422 5.106h12.964l-.064.596v.029l-.012.055c-.29 1.514-.841 1.762-2.897 2.09a8.228 8.228 0 01-1.325.089H82.88c-3.312 0-3.91-.289-3.965-1.926 0-.093 0-.194-.017-.296-.044-.699-.03-1.4.038-2.096l.284-2.58c.051-.561.141-1.119.27-1.668.443-1.826 1.153-2.637 4.188-2.637.18 0 .346 0 .492-.017.145-.016.238 0 .362 0h6.914c1.22 0 2.334.046 3.41.14.714.063 1.339.137 1.866.227.453.077.89.174 1.37.303.363.107.628.189.83.267.233.09.46.196.677.317l1.14.634.062-1.299c.02-.361.02-.723.002-1.085zm-1.378.13a12.044 12.044 0 00-.953-.31 21.564 21.564 0 00-1.512-.335 22.494 22.494 0 00-1.979-.238 40.072 40.072 0 00-3.526-.145h-6.914c-.145 0-.286 0-.42.014-.133.014-.285 0-.433 0-3.376 0-4.876 1.001-5.531 3.69-.138.606-.238 1.22-.298 1.839l-.282 2.58a14.116 14.116 0 00-.045 2.305c0 .102 0 .198.012.29.117 3.25 2.658 3.25 5.345 3.25H90.106a9.865 9.865 0 001.547-.105c2.122-.343 3.55-.746 4.027-3.175.017-.072.03-.144.038-.217l.217-2.125H82.954l.195-2.346h15.897l-.476 5.181a10.068 10.068 0 01-.44 2.098c-.373 1.101-.85 1.862-1.39 2.198-.524.31-1.1.524-1.699.632-.79.158-1.593.254-2.398.286-.716.038-1.56.062-2.744.067h-8.872c-2.493-.026-4.143-.355-5.188-1.047-.782-.52-1.304-1.58-1.463-2.99a10.33 10.33 0 01.016-2.2l.673-6.165.014-.079v-.031c.162-1.45.51-2.584 1.06-3.483a5.157 5.157 0 013.02-2.327c1.146-.343 2.622-.513 4.486-.513h9.56c.496 0 .98.02 1.567.058.592.04 1.182.12 1.764.238.437.085.864.216 1.273.391.375.15.713.382.99.677.347.389.567 1.097.62 1.986v.053l.006-.003zm37.192-6.986a29.546 29.546 0 00-5.135-4.034 41.114 41.114 0 00-5.614-2.933 51.387 51.387 0 00-4.907-1.81 58.423 58.423 0 00-4.768-1.268 63.117 63.117 0 00-7.977-1.266 63.47 63.47 0 00-3.457-.238 70.463 70.463 0 00-3.431-.088h-.143a71.44 71.44 0 00-3.288.086 71.087 71.087 0 00-7.08.696 64.954 64.954 0 00-3.999.737c-1.392.3-2.758.646-4.053 1.025a49.287 49.287 0 00-4.768 1.65 43.763 43.763 0 00-4.818 2.252 33.892 33.892 0 00-5.29 3.546 23.31 23.31 0 00-4.34 4.646 15.883 15.883 0 00-2.691 6.325 13.222 13.222 0 00-.191 1.8c-.027.28-.038.563-.033.844h9.16l-.187 2.341h-8.711c.089.457.209.964.36 1.522l.09.283a17.452 17.452 0 003.076 5.536 25.055 25.055 0 004.465 4.256A35.535 35.535 0 0074.075 86a44.547 44.547 0 004.714 2.096 53.147 53.147 0 004.708 1.54c1.366.379 2.737.715 4.07.984a69.182 69.182 0 007.705 1.104 67.16 67.16 0 003.791.217c.81.026 1.562.038 2.298.038h1.238a69.902 69.902 0 007.698-.543 59.687 59.687 0 004.394-.715c1.53-.303 3.037-.66 4.482-1.057a53.998 53.998 0 005.262-1.752 44.821 44.821 0 005.3-2.477 32.95 32.95 0 005.657-3.917l.067-.06 2.176-2.145h-26.983a22.172 22.172 0 01-2.384-.117 8.344 8.344 0 01-2.594-.642c-1.495-.693-2.174-2.329-2.022-4.858l.012-.148c0-.167.017-.327.031-.477l.675-6.199v-.016c0-.034 0-.067.02-.108v-.03a10.936 10.936 0 01.369-1.855c.476-1.531 1.235-2.554 2.422-3.21a8.208 8.208 0 012.954-1.018c.931-.114 1.87-.168 2.808-.16h9.587c2.21 0 3.781.253 4.797.773.913.463 1.351 1.269 1.416 2.637-.274-.11-.572-.205-.885-.298-1.74-.5-4.129-.753-7.1-.753h-7.867c-1.652 0-3.357.14-4.487 1.838a6.285 6.285 0 00-.877 2.286 15.63 15.63 0 00-.21 1.43l-.284 2.585c0 .114-.021.238-.03.334v.133c-.036.471-.043.944-.022 1.416.012.21.016.396.012.563-.024 1.054.238 1.876.81 2.45.849.874 2.146.99 3.312.99.293 0 .572 0 .848-.016.277-.017.477-.015.694-.015h26.876l.406-.686a14.965 14.965 0 002.086-6.676v-.105c.016-.238.033-.476.033-.741a14.524 14.524 0 00-1.256-5.82 19.512 19.512 0 00-4.175-5.943h-.01zm4.03 12.397v.112a13.67 13.67 0 01-1.908 6.058h-26.11c-.239 0-.477 0-.737.017-.26.016-.537.012-.806.012-.825 0-1.829-.065-2.324-.57-.296-.305-.434-.78-.418-1.457v-.641c-.02-.416-.015-.834.015-1.25v-.138c0-.097.016-.193.028-.295l.286-2.592c.05-.477.115-.906.191-1.304a4.935 4.935 0 01.68-1.793c.681-1.032 1.668-1.223 3.337-1.223h7.885c2.841 0 5.104.239 6.72.701.497.136.977.326 1.43.568l1.133.622.065-1.292v-.239c.043-1.456-.136-3.516-2.172-4.551-1.216-.62-2.99-.923-5.424-.923h-9.563c-1-.009-2 .048-2.992.17a9.625 9.625 0 00-3.438 1.192c-1.523.841-2.5 2.117-3.075 4.022-.133.453-.24.914-.322 1.38-.024.174-.067.432-.098.694v.074a.691.691 0 00-.014.097l-.67 6.2c-.024.19-.033.366-.043.555v.143c-.238 3.924 1.4 5.533 2.816 6.198.96.415 1.98.672 3.023.76.84.088 1.686.13 2.532.127h23.538a31.947 31.947 0 01-5.18 3.545 42.835 42.835 0 01-5.138 2.401 54.257 54.257 0 01-5.126 1.707 61.504 61.504 0 01-4.378 1.028 60.79 60.79 0 01-4.29.691 70.573 70.573 0 01-3.732.372c-1.25.093-2.54.143-3.815.167h-.288a62.277 62.277 0 01-3.173-.026 67.243 67.243 0 01-11.263-1.295 67.096 67.096 0 01-3.972-.953 53.759 53.759 0 01-4.594-1.5 43.26 43.26 0 01-4.568-2.031 34.298 34.298 0 01-4.99-3.1 24.02 24.02 0 01-4.213-4.024 15.952 15.952 0 01-2.834-5.093h8.218l.41-5.1h-9.212c.033-.354.074-.695.136-1.027a14.605 14.605 0 012.465-5.779 22.172 22.172 0 014.081-4.37 33.006 33.006 0 015.078-3.395 41.586 41.586 0 014.68-2.19 51.646 51.646 0 014.652-1.603 54.699 54.699 0 013.965-1.004 57.334 57.334 0 013.914-.715 68.029 68.029 0 013.421-.427c1.18-.116 2.354-.245 3.508-.288 1.153-.043 2.221-.086 3.24-.086h.126c1.056 0 2.146.029 3.369.09 1.113.05 2.253.132 3.385.24 1.307.128 2.623.292 3.877.495a60.15 60.15 0 013.936.746c1.578.348 3.14.76 4.642 1.233a50.622 50.622 0 014.768 1.766 40.32 40.32 0 015.43 2.83 28.521 28.521 0 014.893 3.841 18.231 18.231 0 013.888 5.5 13.053 13.053 0 011.145 5.27c.014.211 0 .421-.024.643l-.002.007zm3.869-6.559a20.346 20.346 0 00-1.345-2.884 23.727 23.727 0 00-2.46-3.486 30.538 30.538 0 00-4.992-4.678 40.69 40.69 0 00-5.827-3.63 49.28 49.28 0 00-5.352-2.385 57.99 57.99 0 00-5.381-1.723 66.375 66.375 0 00-4.676-1.07 62.325 62.325 0 00-4.691-.716h-.06a73.625 73.625 0 00-8.38-.491h-.02c-1.287 0-2.622.038-3.99.112-1.369.074-2.861.202-4.325.374s-2.847.37-4.172.618a62.677 62.677 0 00-4.706 1.022 55.971 55.971 0 00-4.68 1.43 52.381 52.381 0 00-5.327 2.158 44.01 44.01 0 00-5.147 2.892 33.99 33.99 0 00-5.307 4.256 25.01 25.01 0 00-4.089 5.212c0 .019-.028.047-.052.08-.024.034-.022.046-.036.07a18.43 18.43 0 00-2.262 6.451 16.781 16.781 0 00-.177 2.423c0 1.37.168 2.736.496 4.067a19.616 19.616 0 002.902 6.349A26.747 26.747 0 0064.77 84a36.596 36.596 0 005.345 3.938c1.65.998 3.36 1.89 5.121 2.673.913.41 1.922.82 3.088 1.254.653.238 1.43.527 2.21.787 1.514.493 3.1.939 4.718 1.32a63.09 63.09 0 004.818.966c1.416.238 2.88.415 4.34.558 1.527.15 3.06.238 4.558.296.8.026 1.602.038 2.384.038.543 0 1.125 0 1.876-.029a71.836 71.836 0 004.668-.27 67.937 67.937 0 004.53-.557 67.189 67.189 0 005.133-1.03 60.686 60.686 0 005.128-1.471 53.826 53.826 0 005.805-2.341 43.376 43.376 0 005.589-3.16 33.273 33.273 0 005.614-4.684 23.479 23.479 0 004.053-5.705 17.769 17.769 0 001.867-7.112c0-.076 0-.155.012-.238 0-.163.017-.334.017-.501a17.194 17.194 0 00-1.128-6.037zm-.274 6.473c0 .081 0 .165-.012.239a16.415 16.415 0 01-1.726 6.56 22.325 22.325 0 01-3.815 5.367 31.74 31.74 0 01-5.369 4.487 41.755 41.755 0 01-5.41 3.052 51.337 51.337 0 01-5.652 2.286 57.986 57.986 0 01-5.007 1.43c-1.692.406-3.38.747-5.023 1.007a61.818 61.818 0 01-4.451.546 64.278 64.278 0 01-4.58.264c-.741.022-1.306.031-1.84.031-.768 0-1.552-.014-2.337-.043a67.878 67.878 0 01-8.728-.834 56.82 56.82 0 01-4.713-.942 60.53 60.53 0 01-4.609-1.292c-.765-.25-1.516-.53-2.158-.77a46.873 46.873 0 01-3.006-1.218 46.013 46.013 0 01-4.976-2.563 35.168 35.168 0 01-5.142-3.79 25.51 25.51 0 01-4.086-4.605 18.3 18.3 0 01-2.702-5.91 15.342 15.342 0 01-.293-5.96c.325-2.1 1.035-4.12 2.096-5.96l.019-.034a23.62 23.62 0 013.924-5.03 32.986 32.986 0 015.1-4.094 43.443 43.443 0 014.987-2.799 51.16 51.16 0 015.179-2.11 60.553 60.553 0 014.575-1.385 63.976 63.976 0 018.69-1.607 70.353 70.353 0 014.243-.362 68.744 68.744 0 013.913-.112h.019c1.361 0 2.775.043 4.21.131 1.307.072 2.658.19 4.032.35h.043a60.59 60.59 0 014.589.716c1.554.298 3.1.646 4.575 1.044a58.727 58.727 0 015.245 1.683c1.78.668 3.52 1.438 5.212 2.308a39.934 39.934 0 015.626 3.51 29.308 29.308 0 014.768 4.467 22.284 22.284 0 012.313 3.276c.489.856.91 1.749 1.259 2.67a15.809 15.809 0 011.032 5.558c0 .126-.005.271-.014.433v.005z" fill="#FFF"></path><path d="M36.824 101.392c-.518-6.394-3.918-8.244-6.805-8.244-4.12 0-6.39 2.677-6.39 7.314 0 12.676 25.971 18.756 25.971 38.954 0 12.264-8.244 19.073-20.198 19.073-11.852 0-18.653-9.482-19.166-20.61l12.161-1.753c.513 7.52 3.505 11.234 7.63 11.234 4.432 0 7.419-2.37 7.419-6.8 0-14.74-25.97-18.655-25.97-39.986 0-11.851 7.214-18.55 19.788-18.55 4.942 0 8.86 1.754 11.849 4.639 3.297 3.194 5.245 7.832 5.872 13.396l-12.161 1.333zM93.763 132.44l-.1 6.254c0 12.776-7.42 19.788-19.58 19.788-12.162 0-19.581-7.01-19.581-19.788l.27-47.468 12.556 5.164-.05 42.818c0 5.46 2.167 8.142 6.804 8.142 4.637 0 6.802-2.682 6.802-8.142l.112-39.242 12.874 2.227c.103.202 9.582.994 9.582.994v2.334c-6.804.308-9.803-.16-9.803 8.91l.114 18.009zM144.573 139.208l-.11 8.66c0 6.801 4.12 7.004 11.337 7.312v2.58s-10.924 0-11.336-.31h-11.127l-16.276-43.413-.208 1.018v42.394H105.31v-54.403l18.759-3.397 8.651 25.956h.21V96.614l11.535-4.215.11 46.81z" fill="#E02112"></path><path d="M177.221 101.392c-.515-6.394-3.915-8.244-6.8-8.244-4.121 0-6.386 2.677-6.386 7.314 0 12.676 25.965 18.756 25.965 38.954 0 12.264-8.244 19.073-20.198 19.073-11.85 0-18.651-9.482-19.166-20.61l12.159-1.753c.517 7.52 3.505 11.234 7.63 11.234 4.431 0 7.414-2.37 7.414-6.8 0-14.74-25.966-18.655-25.966-39.986 0-11.851 7.215-18.55 19.788-18.55 4.945 0 8.862 1.754 11.852 4.639 3.297 3.194 5.257 7.832 5.872 13.396l-12.164 1.333z" fill="#E02112"></path></g></symbol></defs>
			<use xmlns:xlink="http://www.w3.org/1999/xlink" xlink:href="#icn-aflc-gcfc"></use>
	</svg>