<svg xmlns:xlink="http://www.w3.org/1999/xlink" xmlns="http://www.w3.org/2000/svg" class="icon club-logo" aria-hidden="true" width="200"  height="200" ><defs><symbol viewBox="0 0 200 200" id="icn-aflc-haw" xmlns="http://www.w3.org/2000/svg"><g fill="none" fill-rule="evenodd"><path fill="#562500" d="M68.5 58.415l2.245-8.924c.537-2.082.683-4.031.683-4.031h.098s.148 1.998.589 4.08l1.975 8.875H68.5zm9.586-22.804H65.608L58.07 60.887V35.611H46.39v12.702h-4.514V35.61H30.193v32.853h11.682v-12.94h4.514v12.94h19.665l1.007-4.04h8.39l.538 2.498a164.22 164.22 0 0111.017-1.395l-8.92-29.916zm89.188 12.272c-2.757-1.337-3.66-2.149-3.66-3.534 0-1.241.953-1.815 2.656-1.815 1.906 0 3.662.67 4.865 1.338l2.356-6.734c-1.855-1.05-4.812-2.005-9.074-2.005-7.471 0-12.184 4.967-12.184 11.03 0 3.2 1.404 6.925 6.417 9.36 2.708 1.29 3.56 2.15 3.56 3.39 0 1.05-.952 1.767-2.707 1.767-2.006 0-4.163-.907-5.063-1.575l-1.22 3.709-5.8-12.257 7.72-14.947h-11.782l-6.218 14.42h-.1V35.61h-21.323l-2.893 15.074c-.35 1.866-.447 3.664-.447 3.664h-.098s-.054-1.798-.405-3.664l-3.033-15.074h-9.37l-3.177 15.074a32.35 32.35 0 00-.46 3.664h-.102s-.092-1.798-.437-3.664L92.543 35.61H80.681l8.416 29.739c4.2-.335 8.43-.511 12.682-.526l1.804-7.218c.39-1.58.487-3.174.487-3.174h.1s.148 1.642.539 3.174l1.912 7.271c4.175.105 8.329.366 12.453.78l6.285-22.32V66.41c3.902.545 7.779 1.23 11.618 2.054h.063V52.897h.1l5.818 15.567h12.935l-.03-.065c1.675.356 3.679.542 6.046.542 7.57 0 12.736-4.775 12.736-10.887 0-3.82-.902-7.068-7.37-10.171"></path><path fill="#FFC400" d="M48.72 76.451c.901 40.853 20.458 66.056 53.656 92.588 33.198-26.532 52.755-51.735 53.657-92.585v-.001c-17.137-6.052-35.19-9.12-53.66-9.12-18.465 0-36.517 3.068-53.652 9.118"></path><path fill="#562500" d="M160.878 92.418c1.019-5.947.975-9.502.975-9.502-64.204-25.01-80.03 3.59-80.03 3.59-14.377 3.08-25.828 11.965-21.477 25.86 1.312 4.193 4.336 8.082 8.381 11.058-.967-1.645-1.294-3.445-.837-5.408 1.1-4.738 7.46-7.902 17.008-7.485 14.866.652 19.253 3.334 19.253 3.334s-24.865-5.498-31.725.193a22.02 22.02 0 015.265-.638c14.9 0 26.98 10.043 26.98 33.532 0 8.537-1.598 15.289-4.343 20.437-30.825-25.02-49.382-49.17-51.447-86.763a154.852 154.852 0 00-5.664 2.16c.968 52.36 59.143 90.78 59.143 90.78s4.639-3.05 7.498-5.154c5.043-15.368 3.641-32.474-4.377-46.976 9.564 12.912 12.273 29.212 8.312 44.026a151.046 151.046 0 0010.349-8.773c.723-13.811-3.412-27.653-11.9-38.855 9.735 9.606 14.967 22.624 15.021 35.863a134.427 134.427 0 008.13-8.773c-2.26-12.367-8.361-23.871-17.544-32.69 10.11 7.281 17.1 17.935 19.965 29.743a123.813 123.813 0 006.697-9.238c-5-10.873-12.81-20.166-22.79-27.023 10.542 5.293 19.096 13.622 24.684 24.04a116.753 116.753 0 004.98-8.959c-7.33-9.87-16.847-17.594-27.776-22.669 11.392 3.626 21.464 10.418 29.179 19.757a109.751 109.751 0 003.931-9.653c-9.728-8.832-21.306-15.086-33.9-18.301 12.884 1.637 24.907 6.89 34.941 15.188 1.11-3.5 1.92-6.7 2.509-9.514-11.9-7.674-25.485-12.214-39.729-13.218 14.288-.498 28.163 2.989 40.338 10.031"></path><path fill="#FFC400" d="M144.538 131.82l-.002.002zM70.981 96.955c-.295 2.13.105 5.562 5.363 8.663 4.164 2.456 10.67 2.847 15.003 3.437 5.3.7 11.013 2.077 12.804 4.81-1.791-4.823-11.56-5.31-17.795-7.194-6.83-2.062-6.528-8.731-5.395-12.27.639-1.986 1.881-4.225.714-5.49-.953-1.033-2.838-.363-2.838-.363-3.488 1.008-6.596 2.36-9.208 3.985 1.315.65 1.618 2.498 1.352 4.422"></path><path fill="#562500" d="M78.94 96.233c-.107-.676-.844-1.135-1.636-.994-2.067.37-3.646 1.978-3.646 1.978-.26.241-.349.576-.196.8.163.238.544.262.88.069l.002.004s.546-.318 1.134-.474c.763-.203 1.573.049 1.573.049l.001-.004c.202.046.419.06.642.025.796-.127 1.353-.778 1.246-1.453"></path><path fill="#212121" d="M101.418 89.772c-1.297.513-3.092.97-4.932 1.221.479 4.685 4.434 8.34 9.244 8.34a9.29 9.29 0 009.29-9.29 9.25 9.25 0 00-1.851-5.568c-3.767.817-7.52 3.171-7.52 3.171a25.574 25.574 0 01-4.231 2.126"></path><path fill="#FFC400" d="M110.994 85.1c-1.903.666-3.596 1.546-4.544 2.078a3.747 3.747 0 11-4.469 3.676c0-.509.102-.994.286-1.436-.28.122-.561.24-.849.354-.806.319-1.805.615-2.886.855a7.223 7.223 0 0014.421-.585 7.2 7.2 0 00-1.959-4.942"></path><path fill="#FFF" d="M106.228 87.519a1.62 1.62 0 003.24 0 1.62 1.62 0 00-.874-1.437 31.259 31.259 0 00-2.346 1.21 1.68 1.68 0 00-.02.227"></path><path fill="#212121" d="M101.418 89.772a25.574 25.574 0 004.23-2.126s4.147-2.603 8.098-3.283c3.325-.574 4.476-1.432 4.864-1.888-10.297.603-20.19 3.245-29.208 7.735 2.348 1.794 8.755.85 12.016-.438"></path><path fill="#000" d="M91.347 109.055c5.3.7 11.013 2.076 12.804 4.81 0 0-4.387-2.693-19.253-3.334-9.549-.41-15.909 2.747-17.008 7.485-.457 1.963-.13 3.763.837 5.408-4.045-2.976-7.069-6.865-8.382-11.059-2.47-7.89.154-14.164 5.517-18.679 0 0 2.1-1.8 3.577-1.241 1.477.561 1.82 2.497 1.542 4.51-.295 2.13.105 5.561 5.363 8.662 4.164 2.457 10.67 2.848 15.003 3.438"></path><path fill="#FFF" d="M74.28 91.262c-5.098 2.2-9.41 6.951-9.124 7.294.211.254 2.363-2.917 9.769-5.804.418-.162.6-.656.423-1.067a.815.815 0 00-1.068-.423"></path></g></symbol></defs>
			<use xmlns:xlink="http://www.w3.org/1999/xlink" xlink:href="#icn-aflc-haw"></use>
	</svg>