<svg xmlns:xlink="http://www.w3.org/1999/xlink" xmlns="http://www.w3.org/2000/svg" class="icon club-logo" aria-hidden="true" width="200"  height="200" ><defs><symbol viewBox="0 0 200 200" id="icn-aflc-nmfc" xmlns="http://www.w3.org/2000/svg"><defs><path id="cfa" d="M.015.229h128.764v159.756H.015z"></path></defs><g fill="none" fill-rule="evenodd"><g transform="translate(36 19)"><mask id="cfb" fill="#fff"><use xlink:href="#cfa"></use></mask><path d="M120.793 81.354c2.939-6.439 4.387-19.337 4.387-19.337l-3.74-6.945s-14.014-4.688-27.776-7.378c0 0-4.39-5.486-6.337-8.02l2.37-4.282s-4.092-4.086-5.251-5.03c.309-.393.623-.812.946-1.262 4.157-5.788 5.577-13.028 3.998-20.384l-.047-.194-.016-.056C88.435 5.36 86.814-.944 82.265.42c-2.046.613-3.892 2.953-5.35 4.44a84.066 84.066 0 00-4.833 5.41c-1.61 1.953-3.008 4.083-4.613 6.03-2.012 2.44-3.684 4.97-4.98 7.532l-2.642-.588a43.294 43.294 0 00-5.191-4.123c-3.244-2.19-6.878-4.763-10.71-5.743-2.869-.734-5.998-.874-8.943-1.087-3.727-.27-7.564-.457-11.29-.04a11.89 11.89 0 01-.093.012l-.848.073c-1.765.194-4.317.686-6.445 1.932l-.181.107-.164.132c-.89.717-1.415 1.548-1.545 2.434-.486 2.312.929 3.532 3.033 5.346 1.02.879 2.573 2.129 4.257 3.163l.523.42c.58.47 1.16.939 1.742 1.405.425.593.632.966.675 1.059 1.837 4.049 5.68 9.927 17.821 15.663l-.292 1.641-2.092.417c-11.347 2.261-23.043 5.24-32.089 8.172l-1.027.333-3.726 6.874S4.29 70.49 6.942 78.87l.785 2.484H0v61.117l4.053-1.965c2.83-1.372 5.767-2.66 8.728-3.83l1.782-.703v-.011l2.497-.886c2.76-.979 5.62-1.882 8.497-2.69l-.006 12.155 18.393-.004 16.892 15.456 6.01.007 17.462-15.441 18.781.012s.004-12.22.01-12.219c3.184.889 6.36 1.904 9.44 3.017l1.372.496 1.521.592a127.086 127.086 0 019.294 4.05l4.053 1.963V81.354h-7.986" fill="#FFFFFE" mask="url(#cfb)"></path></g><path d="M71.184 89.27c-1.66.976-6.43 3.73-9.472 5.46a3295.85 3295.85 0 0017.126-4.981c.163-1.478.403-3.167.687-4.948a1968.483 1968.483 0 01-7.661 4.7c.057-1.773-.684-.23-.68-.23M116.406 43.043c3.123-4.542 4.143-9.402 3.031-14.444l-.008-.038c-.12-.433-.218-.605-.267-.67-.156.093-.363.278-.587.506.06.171.19.523.195.562l.014.074c1.093 5.092-.477 9.874-3.661 14.315-1.867 2.607-3.884 4.56-4.749 5.234.156.07.316.142.483.22.544-.39 3.257-2.425 5.55-5.759M114.33 59.65c3.505 4.606 7.531 8.963 11.286 13.672 1.18 1.392 2.15 2.783 3.343 4.186l.23-.07.145-.432c-4.776-6.302-8.92-11.899-12.666-17.112l-.672-.937 1.074-3.382c-5.444-4.91-10.039-5.935-10.085-5.946a12.971 12.971 0 00-2.942-.315h-.04c-.577.001-1.061.036-1.367.064-.311.028-.493.054-.51.058l-.081.015-.183.034c-1.698.394-3.86.79-5.567 1.18 1.178.76 1.625.872 2.808 1.628l-.008.02.048.028c.282.121.509.251.658.39.355.217.443.26.749.482l.385.04c-.769-1.132-2.701-3.119 2.318-3.852.014 0-.014 0 0 0 1.538-.352 10.324 3.297 11.694 6.73l-.617 3.519M62.538 38.405c3.841.363 15.303 1.012 23.645 6.878.708.43 5.117 3.296 7.876 6.054l.107.006C90.62 46.936 81.613 38.19 66.035 38.19c-1.373 0-2.787.07-4.2.207l.703.008M86.19 76.493c.112.228.275.516.397.729l.121-.055c.039.06.04.063.095.141.054.08.12.175.193.274.232.334.395.52.417.544l.017.017a1.2 1.2 0 00.022.027c1.168 1.424 3.64 3.819 7.222 4.072a8.07 8.07 0 001.062.073 6.39 6.39 0 002.317-.451c-2.763-.211-3.867-6.276-4.201-8.746l-.167-.045c-.633 6.71-7.391 4.905-5.75-11.567-1.945 3.258-2.927 6.423-2.914 9.418v.016l-.366 1.66-.04.188-.174-.002c.085.996.283 1.896.577 2.708 0 0 .826 2.169 1.571 2.855-.176-.279-.252-.45-.252-.449l-.2-1.364.053-.043M114.592 33.536a8.203 8.203 0 01-.48.49c-.73.599-1.47 1.257-2.203 1.964-2.513 2.417-5.934 6.307-8.063 11.18h.173c.155 0 .316.002.481.008l.079.003.293-.5c1.41-2.397 4.642-7.713 6.72-9.166.002.02-4.86 7.37-5.075 9.846l.014.002c.321.051.614.107.893.172 0 0 .306.066.854.239-.22-2.325 5.558-12.902 6.208-14.092.052-.066.085-.113.106-.146M124.795 89.775c-.585.338-1.144.633-1.676.887 3.496 1.604 7.034 3.212 10.58 4.804l1.282.577.185.082a1275.35 1275.35 0 01-10.37-6.35M81.578 82.177l.08-.056-.08.055M115.933 71.117l-.01.006c-.721-1.007-1.41-1.965-2.116-2.956 1.535 3.412 5.164 9.56 6.803 12.689l2.176.577-2.719-4.566c-1.042-1.51-3.163-4.324-4.134-5.75" fill="#C0CBD9"></path><path d="M132.304 87.394l-.063.703-.656.253c-.83.322-1.657.644-2.483.967-.53-.429-1.06-.858-1.59-1.29.142-.1.26-.185.343-.247 1.004-.4 2.009-.799 3.017-1.196l.084-.033.007-.09c.224-2.887.47-5.951.751-9.367l.042-.577-.053-.062c-5.442-6.513-10.005-12.08-14.162-17.33.72-1.281 1.44-2.566 2.16-3.854l.054-.1-.616-.58c-2.785-2.627-4.06-3.33-5.804-4.255.92-.786 3.591-3.348 5.294-6.565 2.774-5.247 3.131-9.886 1.933-15.42-.435-1.867-.864-2.98-1.136-2.948 0 0-.06-.016-.148.065-.881 1.113-1.765 2.223-2.655 3.339a974.359 974.359 0 01-2.614 3.788c-.744.557-2.837 2.134-5.295 4.83l.184-1.156-2.606 4.057c-1.524 2.003-2.973 4.327-4.037 6.908l-.739.138-.056.011-1.097.254.633.54-2.753-.055-.34.898c-.965-.048-2.754-.503-2.754-.503l-.229.663c-1.444-1.662-3.916-4.38-7.366-6.687a33.507 33.507 0 00-2.055-1.258l-5.857-3.427.086.841c-4.421-1.516-9.19-2.193-14.237-2.193-2.209 0-4.223.023-6.54.337-.446.06-1.042.136-1.159.578-.115.436.051.9.413 1.154 1.713 1.204 3.428 2.404 5.144 3.6.385.493 1.292 1.707 1.754 2.702 1.784 3.903 5.642 10.28 20.851 16.105-1.063 2.57-1.485 4.48-1.753 6.633-.383-.634-.783-1.292-1.021-1.709.036-.028-1.439 6.601-2.723 13.563L58.044 95.992l19.16-15.867c-.519.407-.446.335 1.288-1.066l2.863-16.05.117-.483 1.212 1.26.317-1.883c-13.944-5.812-17.957-11.76-19.764-15.742-.201-.439-.645-1.134-1.19-1.864-.676-.54-1.35-1.084-2.024-1.63l-.673-.54c-1.579-.952-3.067-2.149-4.04-2.987-2.092-1.804-2.266-2.034-2.08-2.74-.02-.252.522-.69.522-.69 1.755-1.027 3.998-1.416 5.327-1.561l.83-.072a52.17 52.17 0 016.87-.387c4.238.055 8.274.685 12.083 1.875l-.068-.64s3.723 1.51 7.236 3.693a39.724 39.724 0 013.053 1.853 40.068 40.068 0 016.65 5.637l.84 1.075.788-1.704 2.733.608.493-1.113c1.446-3.087 3.325-5.782 5.14-7.97l2.742-4.028-.039 1.048a40.031 40.031 0 013.321-3.022c.655-.84 1.309-1.684 1.962-2.529 1.548-1.945 3.132-3.95 4.712-5.965.444-.473.882-.433.882-.433.807 0 1.75.748 3.307 6.174l.015.063c1.323 6.161.329 12.764-3.529 18.134-.933 1.301-1.835 2.392-2.8 3.317 0 0 3.27 2.246 5.924 5.065l-.429.772-1.831 3.321c3.707 4.917 8.133 10.288 12.97 16.391l.406.507-1.036 11.575" fill="#C0CBD9"></path><path d="M88.495 95.74c1.144-1.99 6.463-10.639 14.452-10.801 2.894 1.107 3.893 4.93 4.147 6.184l.16.006c.559-2.535.785-4.228.877-5.227l-.164-.073c-1.405-.788-2.824-1.172-3.828-1.358a13.075 13.075 0 00-.29-.05 9.506 9.506 0 00-1.104-.123l.035-.08.45-1.019-2.978.69-3.76.871.227-.934c-3.637-.607-3.852-.706-6.22-1.795l-.016-.007-.165-.087-.018-.008c-.112-.058-.219-.12-.327-.18-.53 4.57-1.082 9.218-1.66 13.999l.182-.007" fill="#C0CBD9"></path><path d="M110.972 85.177l.003.129s.005-.048-.003-.13" fill="#FDFCFB"></path><path d="M99.801 52.73c-.15-.138-.376-.268-.658-.39.222.128.443.258.658.39" fill="#F8F7F6"></path><path d="M69.448 150.186c-.25 1.923-.504 3.816-.76 5.676-.292-1.802-.583-3.57-.87-5.305-1.15.274-2.295.567-3.437.882l-.004 9.268h2.533l-.028-5.199c.286 1.697.575 3.43.867 5.198h1.945c.26-1.849.52-3.728.776-5.638.022 1.88.042 3.758.062 5.637h2.534c-.05-3.738-.099-7.48-.147-11.222-1.16.216-2.318.45-3.47.703M78.14 158.744c-.017-1.147-.032-2.294-.05-3.443l1.534-.094-.029-1.996c-.511.04-1.023.083-1.534.128-.013-.901-.025-1.803-.04-2.704.565-.067 1.13-.13 1.695-.192l-.03-2c-1.457.187-2.91.398-4.359.636l.166 11.626 4.371.001c-.01-.666-.02-1.333-.028-1.999-.565.011-1.13.024-1.695.037M86.603 158.593c-.572.008-1.144.015-1.715.024l-.136-10.751c-.891.082-1.782.172-2.67.272l.173 12.568 4.372.002-.024-2.115M92.195 158.537c-.184 0-.368.002-.553.004l-.03-3.806.557-.013.252.3.024 3.303-.25.212zm-.623-8.98l.558-.023.255.315.017 2.482-.25.218-.556.015-.024-3.007zm3.508-1.25c-.362-.344-.725-.685-1.089-1.024-1.715.06-3.428.147-5.14.26l.132 13.166 5.085.003c.355-.35.71-.705 1.065-1.058-.008-1.833-.016-3.668-.026-5.5l-.594-.625c.196-.21.392-.416.59-.626l-.023-4.596zM101.047 158.298l-.25.213h-.287l-.268-.214.002-8.704.27-.213h.29c.083.072.168.143.252.214l-.01 8.704zm-2.448-11.117l-1.064 1.075.027 11.396c.353.353.704.707 1.056 1.062l4.032.003c.358-.354.716-.708 1.075-1.06.013-3.796.028-7.591.04-11.386l-1.08-1.08a190.61 190.61 0 00-4.086-.01zM106.227 147.276l-.074 12.388c.35.351.7.704 1.047 1.056l4.033.003c.36-.346.72-.689 1.081-1.031l.135-12.091c-.9-.064-1.801-.12-2.702-.17l-.1 10.919-.251.206-.286-.004-.266-.21.09-10.953c-.9-.045-1.804-.083-2.707-.113M118.32 153.032l-.253.181-.554-.035.043-3.06.555.049.247.221-.037 2.644zm-3.426-5.238l-.164 12.931 2.676.002.078-5.486.554.027.247.21-.076 5.25h2.677l.086-5.692c-.23-.213-.458-.428-.687-.642.235-.179.47-.357.706-.532.021-1.478.044-2.956.067-4.436-.352-.364-.704-.73-1.057-1.1a147.65 147.65 0 00-5.107-.532zM127.065 154.081a580.27 580.27 0 01-1.12-4.887c-.815-.138-1.632-.27-2.45-.393-.06 3.98-.122 7.956-.183 11.93.833 0 1.665 0 2.498.002l.071-4.76c.38 1.615.76 3.202 1.143 4.76l2.444.002.135-10.858c-.822-.168-1.646-.326-2.471-.475l-.067 4.68M131.895 160.737c1.456 0 2.914 0 4.37.002l.001-1.51c-.562-.026-1.125-.05-1.688-.073.004-.923.01-1.848.013-2.773.506.057 1.013.117 1.518.18l.002-1.518c-.504-.083-1.008-.164-1.513-.243.004-.726.008-1.45.01-2.177.555.119 1.109.242 1.662.37v-1.51a96.331 96.331 0 00-4.277-1.076l-.098 10.328M108.737 66.271c-4.168 2.534-7.554 1.58-8.338 1.3l-.041.063c1.808 1.86 2.333 4.427 2.468 5.366l.123.014c.288-.735 1.314-1.992 2.433-3.23l-1.622-.007 3.6-2.082a94.107 94.107 0 011.403-1.398l-.026-.026M133.928 71.837c7.933 2.426 12.276 4.26 18.66 6.91-.222 2.53-.72 8.655-3.138 15.304a135.76 135.76 0 005.052 4.257c3.415-10.105 3.445-16.56 3.499-17.304a104.328 104.328 0 00-2.462-4.573c-7.736-2.5-13.409-4.127-23.08-6.232l1.469 1.638" fill="#003CA0"></path><path d="M118.432 89.584c-3.418 0-6.65-1.008-6.996-1.244-.122-.38-.095-1.275-.111-2.02.017.005.035.008.052.012l.005.001c.52.114 1.018.233 1.49.355 3.614.936 5.634 2.07 6.705 2.713l.14.085c-.46.137-1.285.098-1.285.098zm9.796-3.99l.682-1.392.077-.157.61-1.242.81-1.713-.427 4.237-1.98.731.228-.465zm-17.854-37.012a20.627 20.627 0 00-2.096-.808 10.508 10.508 0 00-.854-.239 12.576 12.576 0 00-.907-.174c.214-2.475 5.077-9.826 5.076-9.846-2.08 1.453-5.312 6.77-6.721 9.165l-.293.501c-.027 0-.053-.003-.079-.003a14.481 14.481 0 00-.481-.008h-.173c2.129-4.873 5.55-8.763 8.063-11.18a37.09 37.09 0 012.203-1.964c.204-.195.359-.353.48-.49.036-.04.07-.08.1-.117a761.438 761.438 0 002.57-3.477l.289-.368c.307-.39.686-.833 1.024-1.177.224-.228.43-.413.587-.506.05.065.146.237.267.67l.008.038c1.112 5.042.092 9.902-3.03 14.444-2.293 3.334-5.006 5.369-5.55 5.76-.167-.08-.327-.152-.483-.221zM78.899 91.669c.339-.99.995-3.219 1.567-5.324.357-1.298.734-2.718 1.112-4.168v-.001c.964-3.7 1.937-7.602 2.61-10.226.04.282.087.56.143.834l.11.002.174.002.04-.188.366-1.66v-.016c-.013-2.995.97-6.16 2.914-9.418.17-.284.344-.57.529-.855l.028-.044-.189-1.69-.084-.032c-17.256-6.382-20.194-12.863-21.16-14.994-.63-1.36-1.873-2.953-2.124-3.269a1.02 1.02 0 00-.217-.203c-.71-.496-1.419-.994-2.128-1.492l-.756-.53a43.895 43.895 0 014.2-.207c15.58 0 24.585 8.746 28.132 13.153l.11.006.065.005.032.002c1.25.095 3.475.445 4.72.964l.002-.007.008-.02c-1.183-.756-1.63-.868-2.808-1.628 1.706-.39 3.869-.786 5.567-1.18l.183-.034.08-.015c.018-.004.2-.03.51-.058.307-.028.79-.063 1.367-.064h.041c1.056 0 2.045.106 2.942.315.046.01 4.641 1.036 10.085 5.946a3058.28 3058.28 0 01-1.074 3.382l.672.937c3.746 5.213 7.89 10.81 12.666 17.112l-.145.431-.23.071c-1.042.322-2.706.794-3.692.865l-.049.001c-.548 0-.568-.091-1.513-.622a35.45 35.45 0 00-.986-.539l-.784-.44-8.452-9.53.037.52.287.404c.705.99 1.395 1.95 2.117 2.956l.01-.006c.97 1.426 3.09 4.24 4.133 5.75l2.72 4.566 4.454 1.712c-.4 1.198-.596 1.982-.994 3.188l-2.661 1.691a9.708 9.708 0 01-.997.58c-1.728.74-1.797.681-1.797.681-.272.071-.429.091-.709.137l-.105-.08-5.529-4.103-2.452-1.877a25.663 25.663 0 01-1.004 1 9.609 9.609 0 00-.022.796l-.002-.002c0 .007.002.014.003.02l.003.13c-2.866-1.875-8.412-4.485-8.412-4.485-.25-1 .225-1.976.42-2.319-.038-.048-.078-.097-.113-.143l-.145-.301c-.176.257-1.981 2.764-4.672 3.806a6.39 6.39 0 01-2.317.451c-.345 0-.7-.025-1.062-.073-3.582-.253-6.054-2.648-7.222-4.072l-.022-.027-.017-.017a5.97 5.97 0 01-.417-.544 7.374 7.374 0 01-.288-.415l-.121.055a14.058 14.058 0 01-.396-.733l-.058.043c.067.457.137.91.204 1.368 0 0 .076.17.252.449.132.208.318.476.577.787.792 1.004 1.61 1.939 2.807 2.613.108.06.215.122.327.18l.018.008.165.087.017.007c2.367 1.09 2.582 1.188 6.22 1.795l-.228.934 3.76-.87 2.978-.69-.45 1.018-.035.08s.427.014 1.104.123l.29.05c1.004.186 2.423.57 3.828 1.358l.164.073c.453.203.845.42 1.17.653.302.93.629 1.996.643 2.052l.27 1.23.452.221c.05.025 4.964 1.728 8.411 1.728.215 0 .421-.01.616-.029a6.99 6.99 0 001.083-.203c.704-.185 1.488-.484 2.343-.892.532-.254 1.091-.549 1.676-.887a1275.35 1275.35 0 0010.37 6.35c1.643.994 3.249 1.96 4.823 2.902l.062.037.79-.315-.195-.157a1258.258 1258.258 0 01-5.242-4.202 1390.575 1390.575 0 01-7.891-6.362c.143-.102.26-.186.343-.248 1.004-.4 2.009-.799 3.017-1.196l.084-.033.007-.09c.224-2.887.47-5.951.751-9.367l.042-.577-.053-.062c-5.442-6.513-10.005-12.08-14.162-17.33.72-1.281 1.44-2.566 2.16-3.854l.054-.1-.616-.58c-2.785-2.627-4.06-3.33-5.803-4.255.92-.786 3.59-3.348 5.293-6.565 2.774-5.247 3.131-9.886 1.933-15.42-.435-1.867-.864-2.98-1.136-2.948 0 0-.06-.016-.148.065-.881 1.113-1.765 2.223-2.655 3.339a974.359 974.359 0 01-2.614 3.788c-.744.557-2.837 2.134-5.295 4.83l.184-1.156-2.606 4.057c-1.524 2.003-2.973 4.327-4.037 6.908l-.739.138-.056.011-1.097.254.633.54-2.753-.055-.34.898c-.965-.048-2.754-.503-2.754-.503l-.229.663c-1.444-1.662-3.916-4.38-7.366-6.687-.506-.336-1.02-.65-1.54-.955l.006.003-.52-.306-5.858-3.427.086.841c-4.421-1.516-9.19-2.193-14.237-2.193-2.209 0-4.223.023-6.54.337-.446.06-1.042.136-1.159.578-.115.436.051.9.413 1.154 1.713 1.204 3.428 2.404 5.144 3.6.385.493 1.292 1.707 1.754 2.702 1.784 3.903 5.642 10.28 20.851 16.105-1.063 2.57-1.485 4.48-1.753 6.633-.383-.634-.783-1.292-1.021-1.709.036-.028-1.439 6.601-2.723 13.563L58.044 95.992l1.44-.01c.46-.252 1.257-.7 2.228-1.252a1074.34 1074.34 0 009.472-5.46c-.004.002.737-1.542.68.231 2.583-1.576 5.137-3.144 7.66-4.7-.283 1.781-.523 3.47-.686 4.948-.06.545-.18 1.5-.219 1.982l.28-.062z" fill="#003CA0"></path><path d="M104.669 62.766c-.171.28-.368.582-.92.537.32-.202.274-.67.372-1.031.506.234.548.494.548.494zm-1.718-5.024l.637 1.826-1.116-.969c-1.631-1.32-3.547-2.394-5.702-3.183a23.01 23.01 0 00-1.598.176c1.076.496 2.07 1.112 2.929 1.892.624.568 1.977 1.954 1.114 2.721-.351.18-.585.084-.808-.03l-.104.105c.1.102.381.268.493.348.612.448 1.285 1.09 1.819 1.657-.078-.76.41-1.116 1.009-1.397-.25-.508-.64-.828-1.007-1.183.651.236 1.419.875 2.02 1.39-.361.211-.622.257-.818.5-1.61 1.99 2.895 3.925 3.541 1.38.349.097.705.188 1.081.251-.097.155-.604.29-.794.208.185 1.902-2 2.77-3.95 2.636l.043.102c1.698.732 4.725-.654 5.938-1.869.195-.195.376-.584.618-.69.15-.065.578.142.874.246.697-.369 2.951-1.563 4.437-2.4l-.652.027c-1.993.518-4.33.724-5.788.317-1.625-.559-3.845-3.576-4.19-4.055l-.026-.006zM52.073 123.115a1836.527 1836.527 0 01-4.26-19.931h-8.99v53.774a128.974 128.974 0 018.924-3.915l.08-20.59a1603.688 1603.688 0 004.29 18.955 134.92 134.92 0 018.868-2.801l.315-45.423h-9.121l-.106 19.931M77.436 137.588l-.922.78c-.35.049-.7.096-1.048.146-.325-.175-.652-.349-.98-.524l.184-27.243c.327-.231.654-.463.982-.693l1.044-.029c.302.214.605.424.909.636l-.169 26.927zm-8.645-34.404c-1.29 1.14-2.58 2.3-3.869 3.49l-.268 37.476c1.273.87 2.549 1.732 3.825 2.59 4.923-1.083 9.87-1.9 14.827-2.468a232.647 232.647 0 013.965-3.597l.14-34.296a574.286 574.286 0 01-3.897-3.195H68.791zM102.874 119.401c-.675-.004-1.353-.006-2.03-.006v-9.682c.675 0 1.35 0 2.023.002l.916.634.008 8.427c-.305.208-.61.417-.917.625zm10.76 5.56c-.854-.697-1.71-1.387-2.562-2.072.849-.605 1.698-1.213 2.547-1.82l-.058-14.693a711.005 711.005 0 00-3.923-3.192H91.071l-.122 40.406c3.296-.208 6.597-.31 9.897-.307l-.001-17.357c.679 0 1.355.003 2.034.008.307.213.612.427.92.64.006 5.58.01 11.16.017 16.742 3.3.066 6.599.24 9.893.521l-.075-18.876zM115.23 103.184l.03 6.65c2.067.033 4.132.076 6.198.124.07 11.61.138 23.223.207 34.838 3.286.47 6.566 1.05 9.835 1.746l-.259-36.3c2.065.07 4.128.15 6.192.238l-.053-7.296h-22.15M152.248 103.184l.079 19.28c-.991-.15-1.986-.293-2.981-.432l-.095-18.848h-9.708l.314 45.442c3.228.901 6.443 1.925 9.64 3.081l-.11-21.773c.993.198 1.983.403 2.974.612l.092 22.272a129.272 129.272 0 019.502 4.14v-53.774h-9.707M50.63 92.74c-2.052-6.109-2.48-11.026-2.73-13.753l-1.55-.132c.491-.195 1.492-.615 1.491-.627 7.993-3.162 17.919-6.449 27.842-9.1.32-.445.643-.879.972-1.298-11.19 2.23-22.728 5.157-31.77 8.089a97.139 97.139 0 00-2.48 4.576s.01 6.349 3.228 16.519a149.223 149.223 0 004.997-4.273M69.383 45.075C80.243 56.16 86.262 56.908 88.927 56.43c-.674-.451-2.28-1.154-2.954-1.606l2.03.003-1.005-1.127 2.664.712c-1.514-1.771-3.583-3.254-5.822-4.481l-6.692-2.384.785-.228c-4.066-1.46-7.43-2.152-8.28-2.312l-.27.068M101.89 172.471l-1.241.871-9.71-8.967-6.126-.003c7.13 7.039 12.624 11.518 12.981 11.792l3.986.004 13.348-11.803h-2.24l-10.999 8.106" fill="#003CA0"></path></g></symbol></defs>
			<use xmlns:xlink="http://www.w3.org/1999/xlink" xlink:href="#icn-aflc-nmfc"></use>
	</svg>