<svg xmlns:xlink="http://www.w3.org/1999/xlink" xmlns="http://www.w3.org/2000/svg" class="icon club-logo" aria-hidden="true" width="200"  height="200" ><defs><symbol viewBox="0 0 200 200" id="icn-aflc-rich" xmlns="http://www.w3.org/2000/svg"><g fill="none" fill-rule="evenodd"><path fill="#000" d="M152.323 45.108s-6.307-3.154-22.416-5.193c1.638-1.832 3.265-4.75 3.952-9.952.304-2.275-1.086-3.178-3.545-3.18-6.016-.007-9.633-.325-14.416-1.016-8.01-4.91-15.9-1.995-15.9-1.995-9.66-2.584-18.304 1.846-18.304 1.846-4.509.038-9.63-.216-13.102-.725-1.584-.251-2.572-.482-3.9-.29-2.225.323-2.386 7.373.312 11.53.582.992 1.874 2.557 3.228 3.931-15.244 2.044-21.244 5.044-21.244 5.044-9.276 38.972 5.678 72.55 32.425 91.588 7.597 5.694 14.048 9.826 20.241 13.511 6.196-3.685 12.645-7.817 20.245-13.511 26.742-19.039 41.697-52.616 32.424-91.589M120.96 84.425c.002-.001.008-.001 0 0"></path><path fill="#FFD300" d="M91.656 90.14c1.193-1.446 2.49-2.689 4.001-3.753a9.68 9.68 0 01-1.743-1.75c-1.45.681-2.79 1.194-4.338 2.417 1.151-1.669 1.998-2.198 3.754-3.367-.045-.075-.16-.23-.221-.33-2.414.866-4.38 1.918-5.697 3.078l-.05-.051a4.15 4.15 0 00-.03.026c-.705-.701-1.548-1.822-2.301-2.975a28.445 28.445 0 00-1.302 3.394c-.27 1.001-.479 1.842-.543 2.222a.404.404 0 01-.019.057c-.03.165-.058.331-.085.497-.397-.058-.964-.201-1.573-.393.086 2.09.548 4.235 1.27 6.576-.078-1.321-.17-2.07-.01-3.065.481 2.203.772 3.016 2.185 5.041 4.665-4.335 9.48-6.804 15.126-8.234l.002.001a18.303 18.303 0 01-.55-.855c-1.258-.568-2.315-1.138-3.097-1.73-1.436.759-2.966 1.773-4.78 3.193"></path><path fill="#FFF" d="M88.661 143.272c-3.328-9.753-1.935-15.727 3.616-29.067-4.094 4.066-7.269 5.78-9.208 12.333.102-1.612.4-3.126.732-3.913-2.247-2.664-3.793-5.854-4.604-10.453-.505.83-.974 1.711-1.377 2.882.059-1.92.351-2.847 1.116-4.617-.024-.184-.048-.363-.07-.554-.484.8-.941 1.563-1.117 2.222-1.905-5.559-2.782-14.283-.96-20.69.471 9.514 3.227 15.373 7.88 20.317a9.424 9.424 0 011.418-1.717 13.238 13.238 0 00-1.008 2.013c-.371.792-.57 1.45-.969 2.847.897-1.455 1.375-2.24 1.918-3.029 4.598-6.37 11.109-8.47 15.465-12.799 0 0-2.485.973-4.532 2.516 3.11-2.956 6.506-3.863 9.291-8.035.237-.356.527-.778.83-1.265a1.542 1.542 0 01-.533.025c-.556.871-1.656 2.263-2.71 3.094.893-1.237 1.352-2.286 1.624-3.119-1.213-.206-3.615-.47-4.458-1.497-.908.438-2.151.912-3.35 1.547-2.252 1.188-3.813 2.234-6.122 3.921 1.906-.851 2.931-1.213 4.65-1.687-4.206 2-9.115 5.962-11.548 9.568-1.638-1.71-2.5-3.746-3.264-7.025-.125 1.161-.11 1.981.065 3.505-1.606-4.334-2.055-8.663-1.651-12.017-1.076-.486-2.036-1.184-2.749-1.769-2.796 5.419-5.61 14.396-5.487 20.412.475-1.892 1.11-3.277 1.11-3.277-.788 8.627.58 19.557 6.13 28.546 2.537 4.106 5.716 7.327 9.872 10.782"></path><path fill="#FFF" d="M109.244 124.074c10.52-11.016 12.841-20.374 8.802-30.949.091 8.639-18.98 21.419-21.917 26.152 1.017-.76 4.493-2.91 5.217-3.391-2.64 2.103-4.075 3.445-5.906 6.14 1.799-1.769 3.463-2.672 4.89-3.641-7.254 6.304-9.287 16.782-6.955 27.968a251.488 251.488 0 006.233 3.826c-1.29-10.797 3.758-19.952 9.636-26.105M66.516 72.037c.363 2.39 1.053 4.633 2.091 6.533.828-1.763 2.314-3.149 3.395-3.88.053.185.089.307.146.488-.949.961-1.718 2.081-2.424 3.347.922-1.086 1.815-1.772 2.734-2.476 1.401 3.577 3.979 5.848 6.797 7.383.666-3.408 1.876-6.356 3.366-7.8.071.118.161.292.231.4-1.082 1.71-1.406 2.602-1.85 4.365.906-1.529 1.619-2.492 2.473-3.426.79 1.099 1.556 1.86 2.26 2.56 2.536-2.517 7.854-2.626 10.74-2.906-3.372-2.684-15.913-.322-20.96-7.471.302-.579.699-1.101 1.315-1.755-1.269.758-3.461 2.709-4.79 4.285.299-.826.622-1.485.987-2.055-2.069-3.936-1.733-8.936-1.314-12.679a11.8 11.8 0 011.898-1.15c-1.853.43-3.22 1.067-4.953 2.272-.65-4.909 1.414-10.243 3.095-13.884-.767.14-1.327.408-2.007.84.852-4.057 2.36-7.5 5.326-10.73-3.624 3.13-6.381 7.17-7.865 12.211.819-.404 1.157-.533 1.79-.705-.061.11-.17.274-.23.382-1.18.642-1.883 1.157-2.942 2.336 1.051-.673 1.66-.992 2.35-1.265-2.643 4.697-5.044 9.69-3.897 17.022.719-.888 1.853-1.755 2.437-2.03-.024.135-.047.273-.068.41-1.244 1.157-2.108 2.536-2.671 3.8.716-.943 1.457-1.709 2.457-2.326-.32 2.645-.305 5.356.083 7.904"></path><path fill="#FFD300" d="M120.33 65.686a10.11 10.11 0 00-.125 2.195c1.483.39 3.206-1.878 3.955-5.264a18.09 18.09 0 012.017 1.985c-.547-1.342-1.016-2.063-1.839-2.983.027-.162.12-.388.14-.554 0 0 .625.438 1.086 1.09.362-1.043.643-3.397.82-6.64-.565 1.088-1.558 1.912-2.556 2.402-.843 4.436-2.336 6.978-3.498 7.769m6.316-19.826c0-1.015-.068-1.756-.325-2.627.243.072.606.246.798.342-.164-2.116-.005-3.225-.845-5.146-.029 1.095-.071 2.507-.761 3.117-.566.504-1.15.895-1.74 1.16 1.011.693 2.149 1.785 2.873 3.153M75.524 64.28c.643-.556 1.311-.887 2.069-1.135.038.077.08.15.12.227-1.256.826-2.022 1.52-3.08 2.927 1.353-.988 2.467-1.56 3.607-2.072 2.334 3.343 7.342 6.01 12.912 6.716-.755-1.577-3.616-3.558-4.643-5.12-1.946-2.957-.801-6.449.88-8.557-4.037 1.778-5.096 3.02-5.619 5.754-4.865-4.731-5.465-16.642-4.613-23.22-2.702 4.88-4.865 8.402-4.865 15.285.784-.336 1.648-.662 2.59-.784-.51 2.611-.386 6.811.642 9.98"></path><path fill="#FFF" d="M89.163 36.458c1.599 1.33 2.375 2.301 5.645 2.979.56.117 1.333.116 1.966.066-1.3.952-3.08 1.342-4.93 1.56-2.416.29-6.17-1.564-8.89-2.09-1.015-1.055-1.201-2.142-.726-2.856.196-.297.461-1.001 1.114-1.588a3.49 3.49 0 01.405.01c.865.075 1.732.18 2.58.375.982.23 2.07.925 2.836 1.544m2.603 10.224c2.536.148 4.702.8 6.584 1.255.294.07.584.15.882.229 3.344.926 6.505 1.943 9.277 2.97 1.024.676-3.908-.564-9.252-2.01.103.47.351.92.807 1.319.496.438.853.852 1.115 1.246a38.873 38.873 0 00-4.399-.98c-1.842-.289-3.65-.395-5.292-.212 2.102.14 4.737.47 7.46 1.15.055.012.11.022.167.035.06.01.12.024.182.036 3.425.69 6.687 1.49 9.568 2.33.958.526-2.554.005-7.012-.826.356 1.392.162 2.435 2.627 3.188 3.033.925 7.77.434 9.657-.382 1.257-.542 2.57-1.7 2.802-2.21.086-.184.158-.345.22-.499-1.714-.55-1.123-2.57-3.066-3.767-1.395-.86-1.405-1.687-2.135-3.063-.27-.507-.67-1.088-1.207-1.774-2.013-2.367-2.838-2.717-4.8-2.528-1.307.125-3.38.594-4.959 2.565a45.64 45.64 0 00-1.46-.562c-2.57-.937-5.198-1.612-7.784-1.66 2.681.361 4.481.917 7.802 2.094 3.463 1.148 6.694 2.371 9.496 3.583.922.694-3.701-.652-8.864-2.333-.363.566-.701 1.22-.868 1.885a32.837 32.837 0 00-2.196-.568c-1.812-.402-3.61-.618-5.352-.511m10.232-10.932a4.935 4.935 0 01-.44-.261c-.018.134-.055.28-.117.446-1.52.102-3.533-2.02-4.48-2.874-1.42-1.282-2.924-1.605-5.025-1.805-.981.07-1.146-.26.054-.566 1.398-.199 2.591-.128 3.648.136-.738-.63-1.523-1.194-2.478-1.528-.722-.254-1.517-.56-2.282-.603-.47-.022-1.068.116-1.58.275a15.11 15.11 0 00-2.633 1.138c.023.966-.336 1.93-.203 2.906.069.513-.045.84.395 1.12.26.168.524.442.778.58.268.146.87.059 1.313.035 1.074-.188 1.928-.562 2.833-.62 2.408-.157 4.726.183 6.285 1.303 1.532 1.175 3.43 2.34 3.904 2.592.173.092.408.3.687.282.177-.105.352-.207.525-.307a2.15 2.15 0 00.015-.263c0-.468-.253-1.501-1.199-1.987m21.199-1.914c-.103-.53-.302-1.402-.514-1.746-.446-.716-.828-1.23-1.302-1.711-.866-.553-1.972-.945-3.5-1.368-.713-.194-2.166-.335-2.433-.28-.445.086-.656.384-.805.68-.226.446.723 1.543 1.407 2.586.548-.748 1.271-1.093 2.632-1.209.985.032.994.328.251.45-.445.065-1.22.563-1.76 1.862-.36.869-.366 2.226-1.77 2.604a1.889 1.889 0 01-.287-.429c-.185.303-.532.874-.252 1.44l.35.3c.129.067.26.136.395.214-.11-1.043 1.335-1.933 1.903-2.483 1.23-1.195 2.94-.772 3.727-.493.574.205 1.036.722 1.553.958.474.102.486-.444.558-.66.076-.229-.107-.485-.153-.715m-21.019 46.621c-.042.708.268 1.533.727 2.323.457.779 1.116 1.435 1.86 1.681.15.577.2 1.104.15 1.708 1.034.246 1.773 0 2.684-.452.227.452.278 1.055.2 1.86.864-.075 1.419-.227 2.088-.712.04.386.013.965-.114 1.441.432-.629.634-1.081.738-1.647.084-.034.173-.07.26-.11.092.676.116 1.254-.06 2.36.658-1.182.884-1.86 1.012-2.966.08-.055.107-.03.185-.088.164.587.3 1.14.271 1.984 1.798-.35 2.705-1.268 3.362-2.763.284.275.67.74.913 1.193 1.519-.718 2.112-2.514 2.378-3.693.145-.638.284-1.792.145-2.234.153.061.302.138.448.215.606-1.255.292-3.013 1.052-4.073.604-.848.148-1.69-.128-2.666-.256 5.15-2.195 2.897-2.67 2.651-1.715-.89-7.776-.817-10.22-.164-1.013.273-1.772.425-2.338.972-1.752 1.678-2.339 1.015-2.654-.49a10.092 10.092 0 00-.245-1.635c-.015-.099-.023-.201-.036-.302.01.067.007.127.007.189.026 1.322-1.435 1.353-1.52 2.578a2.21 2.21 0 00.052.585c.138.515 1.513 1.504 1.453 2.255"></path><path fill="#FFF" d="M96.288 36.553c-.473-.082-.824-.351-.782-.596.044-.25.465-.382.938-.301.474.082.822.348.781.596-.043.246-.464.382-.937.3m23.909-1.069c.062.215-.224.492-.642.613-.416.123-.805.045-.872-.173-.062-.217.222-.494.636-.615.423-.122.812-.043.878.175m3.874 4.73c.163-.55.575-1.16.625-1.679.048-.526-.186-1.416-.433-2.321a.039.039 0 01-.012-.003c-1.229-.28-1.53.069-1.994.636-.888 1.088-1.048 1.363-2.057 1.87-.729.365-1.407.351-2.086.209.858.713 1.902 1.204 2.914 1.304 1.071.109 2.148.481 3.043-.016"></path><path fill="#FFD300" d="M124.746 34.691c.004.607.58 1.279.36 1.565-.195.07-.525.031-.843-.043.246.906.48 1.795.433 2.321-.05.519-.462 1.128-.625 1.68.013-.008.029-.015.042-.022.134-.079.261-.179.376-.3 1.106-1.184 1.567-1.793 1.43-3.11-.1-.351.829.083 1.468 1.201a30.36 30.36 0 00-1.772-3.26l-.55-.842c-.218-.206-.321.356-.319.81"></path><path fill="#D52B1E" d="M106.246 74.315c-1.09.64-.793-.283-1.049-.914-.436-1.086-1.297-2.044-1.472-4.46-.133-1.042-.193-2.773.89-3.1 1.684-.504 4.187 1.133 5.615 1.133 1.43 0 2.833-1.466 4.238-1.206.96.176 1.337 1.383 1.643 2.546.338 1.275.214 2.206.347 3.064.085.58.15.744.338 1.01-.015.02-.357.459-.37.478-.017-.018-.034-.033 0 .004a.735.735 0 00-.51-.204.796.796 0 00-.544.221 1.48 1.48 0 00-.296.392.653.653 0 00-.302-.07.725.725 0 00-.48.192c-.003 0-.003 0-.003.002a.655.655 0 00-.399-.13.713.713 0 00-.445.16.653.653 0 00-.434-.16.697.697 0 00-.407.131c-.004-.002-.01-.003-.012-.009a.656.656 0 00-.463-.185c-.117 0-.23.03-.338.087a2.555 2.555 0 00-.348-.427.72.72 0 00-.508-.204.806.806 0 00-.544.221 1.083 1.083 0 00-.16.183c-.371-1.152-.575-1.998-.774-2.82-.07-.285-.138-.564-.212-.853-.172-.685-.416-1.318-1.02-1.318-.71 0-.973.857-1.13 1.354-.393 1.316-.757 3.536-.851 4.882"></path><path fill="#FFF" d="M115.752 73.242c.098-.092.204-.1.278-.026.398.39.516.793.522 1.076-.006.151-.388.28-.633.28-.244 0-.61-.14-.604-.264-.004-.244.184-.834.437-1.066m-4.178 1.05c-.005.151-.39.28-.634.28-.245 0-.61-.14-.607-.264 0-.244.186-.834.44-1.066.097-.092.205-.1.278-.026.4.39.517.793.523 1.076m.95.113c-.001.096-.24.175-.392.175-.151 0-.376-.087-.374-.164-.002-.149.116-.515.272-.66.06-.056.124-.061.173-.015.248.24.32.492.32.664m.56-.6c.249.242.322.491.324.667-.002.094-.24.171-.393.171-.152 0-.378-.085-.375-.163 0-.15.114-.516.272-.66.06-.056.127-.06.172-.015m1.206.667c-.004.094-.24.171-.393.171-.154 0-.376-.085-.375-.163-.001-.15.114-.516.272-.66.06-.056.126-.06.17-.015.25.242.322.491.326.667m.884-.067c-.005.096-.245.175-.398.175-.15 0-.376-.087-.373-.164-.003-.149.115-.515.27-.66.062-.056.129-.061.174-.015.247.24.322.492.327.664m1.253-16.813c-.003-.09.26-.193.438-.193s.456.093.459.205c-.003.201-.09.493-.377.779-.054.051-.13.046-.202-.02-.183-.167-.32-.595-.318-.77m1.775-.181c.284-.001.735.15.74.325-.008.329-.143.802-.613 1.26-.086.085-.21.073-.327-.033-.294-.27-.512-.96-.51-1.246-.004-.146.422-.306.71-.306m-1.47 16.59c1.21-2.063 1.602-3.28 2.083-4.476.35-.896.7-1.137.801.327.082 1.134.123 2.414-.318 4.156-.141.41-.96.649-1.42.649-.46 0-1.32-.292-1.145-.657M109.974 74c.106.453-.773.69-1.204.69-.429 0-1.414-.173-1.466-.568-.045-2.25.23-3.506.458-4.593.26-1.229.636-1.293.96-.018.337 1.32.553 2.455 1.252 4.489M122.7 58.433c-.513 2.076-1.184 3.599-1.993 4.949-1.047 1.743-1.34 1.454-1.245.39.127-1.427.373-2.879.087-5.333 0-.434.966-.852 1.579-.852.612 0 1.642.36 1.572.846m-7.306-.917c-.001-.091.261-.19.438-.191.178 0 .456.093.459.204-.003.201-.088.496-.375.778-.057.052-.133.048-.203-.019-.184-.167-.319-.593-.319-.772m-1.032 0c-.002-.091.261-.19.439-.191.177 0 .455.093.462.204-.007.201-.09.496-.379.778-.057.052-.131.048-.204-.019-.181-.167-.318-.593-.318-.772m-1.03.076c-.002-.09.262-.193.437-.193.179 0 .46.093.463.205-.006.201-.092.493-.38.779-.054.051-.13.046-.202-.02-.183-.167-.318-.595-.318-.77m-1.665.125c-.005-.146.422-.306.708-.306.29-.001.737.15.742.325-.006.329-.143.802-.61 1.26-.085.085-.207.073-.325-.033-.297-.27-.516-.96-.515-1.246m-4.448.608c0-.48 1.272-.779 1.844-.779.573 0 1.736.38 1.677.927-.557 2.465-.641 3.842-.845 5.443-.199 1.546-.74 1.466-1.308-.022-.504-1.316-1.017-2.84-1.368-5.569"></path><path fill="#FFD300" d="M134.917 93.254c1.628 1.468 4.916 4.308 5.96 6.122.22.383.123.208.125.213.385-1.598.612-3.509.917-5.123-1.97-2.102-4.104-4.827-5.075-6.521-1.862-3.245-2.695-5.934-5.39-8.616-.478-.474-1.252-1.179-2.009-2.084-.528.777-1.051 1.406-1.84 2.233.03.342.118 1.42.145 2.026.204 5.174 3.387 8.338 7.167 11.75m7.759-3.161c.163-1.083.355-2.217.48-3.303-2.252-1.143-5.25-3.583-7.63-5.693 1.205 2.312 4.607 6.616 7.15 8.996"></path><path fill="#FFF" d="M130.615 75.144c2.24-3.363 2.037-9.427 1.393-14.11.47.25.929.574 1.421 1.014-.484-.944-.891-1.444-1.589-2.086-.026-.152-.05-.39-.085-.552.42.293.731.535 1.019.847.34-4.075.214-7.275-1.086-10.922 0 0 .417-.066.798.086a65.015 65.015 0 00-.392-1.106c-.585.316-1.198.587-1.883.843.135.691.25 1.404.338 2.116-1.16.003-2.427.295-3.728.736.004-.048.012-.096.014-.146.024-.61.016-1.132-.014-1.602-2.482.773-4.671 1.324-4.112.816a36.723 36.723 0 013.248-1.368c.076-.028.152-.06.23-.086.179-.064.363-.124.54-.185 1.946-.666 3.998-1.195 5.982-1.477a5.168 5.168 0 00-.776-.09c-.274-.747-.608-1.633-.954-2.522-.432.258-.938.532-1.498.821.17.568.336 1.198.491 1.87-1.058.217-2.17.61-3.298 1.1a6.204 6.204 0 00-.502-1.506c-1.838.711-3.172 1.125-2.756.686 2.823-1.642 5.167-2.86 8.543-3.735.08-.02.154-.037.219-.055-.425-.045-1.104.002-1.492.068-.114-.288-.229-.576-.34-.851-.042-.103-.283-.699-.329-.802l.329.043c-1.493-4.107-3.756-8.283-6.914-11.465 1.089 1.49 1.421 2.036 2.184 3.2 1.533 2.396 3.349 6.421 4.284 10.057-1.385.393-2.712 1.165-4.151 2.07a16.27 16.27 0 00-.329-.53c-.252-.398-1.154-1.177-1.858-1.553.24.514.338 1.259.078 2.118-.466 1.54-1.2 2.405-2.07 3.455-.745.899-1.645 2.958-3.313 3.11a6.331 6.331 0 00-.016.42c0 1.004 1.14 2.357 1.76 2.653 1.205.57 1.423.61 2.847.292 1.426-.322 2.216-1.263 2.693-1.858.384-.47.719-1.02.953-1.604-2.54.646-4.85 1.094-4.257.6a33.04 33.04 0 013.582-1.28c2.049-.606 4.22-1.042 6.294-1.195-.447.264-.94.473-1.468.66.133 1.404.14 2.752-.038 3.852.49.437.897.98 1.344 1.775a15.903 15.903 0 00-1.03-.787c-1.2-.87-2.057-1.292-3.403-1.522.758.354 1.421.813 2.027 1.31-.081 3.577-.569 8.685-1.738 11.25a5.642 5.642 0 00-1.436-1.424c-.01.05-.105.22-.118.27.889 1.04 1.355 1.782 1.885 3.23-.838-.965-1.527-1.689-2.176-2.283-1.252 3.536-2.909 4.27-4.307 4.373 0 0 1.335 2.74.132 5.394-.094.212-.143.493-.17.801.353.716.255 1.146.521 2.003 2.221-.923 4.827-3.602 6.347-5.74.669.61 1.314 1.263 2.179 2.225-.509-1.304-.954-2.029-1.71-2.916.083-.126.143-.165.224-.294.598.435.952.759 1.437 1.488"></path><path fill="#FFD300" d="M108.079 33.082c-1.523-1.579-3.43-2.626-7.14-3.238 2.018-.354 4.82.097 6.162.916 1.441-1.128 2.937-1.404 4.686-1.157-1.694.499-4.054 1.87-3.708 3.48m-13.816-6.905c3.253-.629 7.686-.17 9.3 1.06 1.265-.889 3.48-1.462 7.239-.843-3.123.214-3.987.396-4.709.946.924-.206 1.925-.26 3.679.152-2.063.145-4.635.729-4.628 1.888-1.382-1-4.346-1.857-7.023-1.857 1.354-.401 2.368-.384 3.174-.183-1.668-.775-3.118-1.094-7.032-1.163m24.905 19.908c.83.045 2.083.013 2.826-.355.038.542-1.97 1.44-2.403 1.468-.475.028-.997-.336-1.446-.448a29.967 29.967 0 00-1.576-.34c-.298-.046-.707-.185-.75-.601 1.125.058 2.221.217 3.349.276m-26.855-1.098c-1.287.938-3.258 1.714-5.163 1.357-.247.786-.141 2.169.452 3.771-3.213-1.427-5.154-3.828-5.362-5.634 2.067-.983 6.437.466 10.073.505m39.268-14.828c-2.153.255-4.527.022-6.427-1.006 1.606.049 2.787-.235 5.705-1.11-.893.073-9.729.331-14.886-.982-2.257-1-9.572-3.896-13.975-1.496-7.208-2.349-16.298.086-18.951 2.084-4.833 0-9.934-.346-12.815-1.279 2.346 1.636 4.2 1.908 5.607 2.212-3.542.142-6.083-.373-9.891-1.201 1.266 1.231 2.182 1.74 4.071 2.303a13.115 13.115 0 01-3.495-.178c1.455 1.192 5.143 3.171 8.278 1.795.909-.398 3.793-1.93 6.238-2.202-1.35.72-3.5 2.654-4.72 4.044-.041.07-.082.14-.126.21 1.126-.793 2.433-1.42 3.74-1.66-1.957 1.446-2.811 2.943-2.89 4.53.685-.729 1.21-1.48 1.99-1.721.183-.057.335.14.489.476.278.398.483 1.327.863 2.18.412.857.986 1.611 1.893 1.71.214.022.442.062.674.105-1.013-1.055-1.2-2.142-.726-2.855.198-.299.465-1.003 1.115-1.588-.409.004-.792.013-1.051-.344-.212-.29-.343-.668-.447-1.013-.1-.343-.447-.967-.353-1.29.845.007 1.663.252 2.498.015 1.285-.366.95-1.666 2.494-2.743.124.318.172.636.181.954.67-.377 1.74-.864 2.633-1.139.513-.16 1.112-.298 1.58-.275.766.042 1.56.35 2.283.603.955.333 1.74.899 2.482 1.528 2.209.55 3.82 1.94 5.42 3.479.366.38.568.69.496 1.184.147.093.293.183.44.26.944.487 1.199 1.52 1.199 1.987 0 .075-.003.166-.015.265 2.421-1.367 4.444-2.186 6.909-1.092-2.296-.174-4.54 1.002-6.403 2.586-1.246 1.058-3.822 3.389-5.763 3.482-.192-.838.115-1.27.735-1.854a54.92 54.92 0 012.448-1.81c-.45-.095-.938-.087-1.472-.036-.694.947-1.719 1.484-2.373 1.795-2.268 1.026-3.424 1.494-7.718 1.167-2.73-.208-4.732.218-6.173.218-1.447 0-2.169-.325-2.994-1.038-.826-.716-1.199-1.77-1.612-2.995-.086 3.66.933 12.736 4.694 14.806.598-.421 1.745-.732 2.751-.719-1.475.704-3.051 2.11-3.926 3.832 3.411-2.953 5.995-3.696 10.245-3.71-1.761 3.007-2.148 5.59-2.078 8.145.044 1.598.259 2.824.6 3.823.67 2.122 1.804 4.284 3.21 5.879a26.83 26.83 0 01-.888-2.319c1.008 1.062 2.203 2.174 3.466 3.894 1.611 2.193 2.693 2.517 3.832 5.563.088-1.227 1.547-1.255 1.52-2.58-.218-.848-.578-1.687-1.187-2.895-1.153-2.29-5.12-10.207-5.284-15.046-.058-1.675 1.032-2.63 1.403-3.365.249-.492.254-.956.16-1.429-2.036-.487-4.343-1.179-5.797-1.805 1.646-.183 3.45-.075 5.294.213-.206-.654-.342-1.373-.153-2.23.008-.036.019-.071.028-.107-1.775-.543-3.341-1.072-4.89-1.693 1.74-.107 3.54.11 5.355.513.333-.634.794-1.266 1.342-1.887-3.057-1.054-5.326-2.062-6.714-2.773 2.585.047 5.212.72 7.784 1.659.578-.554 1.27-1.14 1.997-1.694.665-.52 1.387-1.248 2.067-1.727 2.084-1.432 4.91-3.262 7.35-1.728-.403.021-.827.05-1.259.11-1.438.15-.585 2.241 1.041 3.906.88.903 1.735 2.188 2.752 3.638.676.955.742 1.251 1.487 1.476 1.266.383 2.635.998 2.34 1.769-.215.56-1.138.323-.948 1.004.4 1.452 1.453 1.735 2.339 1.567.145-.042.291-.082.426-.12.14-.05.27-.113.387-.18.424-.278.608-.72 1.066-1.437.183-.445-.138-.418-.138-.799 0-.262.49-.87 1.151-1.426.818-.688 1.33-2.063 1.33-2.655 0-.744.021-1.241-.303-1.77-1.266-1.779-4.605-3.8-5.019-4.11-1.133-.857-2.213-.978-3.431-1.06.63-.57 1.155-.527 1.645-.366-.37-.361-.562-.56-.85-.761-1.031-.706-2.198-.952-3.655-1.041 1.61-.74 2.527-.692 3.906.226l-.35-.301c-.28-.566.066-1.137.252-1.44-.205-.427-.171-.831-.054-1.19.337-.914.625-1.589.989-2.087-.685-1.042-1.634-2.141-1.408-2.588.148-.295.362-.595.805-.678.267-.057 1.72.083 2.433.28 1.528.424 2.634.813 3.5 1.367-.1-.1-.207-.198-.315-.297-.85-.674-1.875-1.354-3.16-2.053 1.56.692 3.431 1.536 4.496 2.071 2.06 1.032 3.674 2.628 7.268 2.419-.932-.194-2.414-.882-3.835-1.894.646.023 2.478.56 5.746-.465M75.137 85.025a21.338 21.338 0 01-2.318-3.006c-1.759 3.075-4.172 7.463-5.446 12.126a75.045 75.045 0 011.941-3.233 69.913 69.913 0 00-2.564 11.52c-.613 4.58-.787 10.552-.183 16.59.101.803.223 1.92.415 3.285a65.015 65.015 0 01-5.615-10.567c-2.998-7.14-7.843-20.908-7.843-32.395-.87-14.39.673-26.31 2.633-37.112-.978.229-1.877.457-2.689.674-6.81 30.438-2.346 57.976 11.962 78.472 2.345 3.395 6.05 7.755 8.483 9.879-6.214-13.743-6.229-33.07 1.224-46.233"></path><path fill="#FFF" d="M129.907 39.914c1.639-1.83 3.265-4.75 3.951-9.95.305-2.277-1.084-3.18-3.544-3.18-6.016-.007-9.633-.328-14.416-1.019-8.01-4.91-15.9-1.992-15.9-1.992-9.659-2.584-18.304 1.845-18.304 1.845-4.509.038-9.63-.216-13.102-.724-1.584-.253-2.572-.483-3.9-.293-2.224.325-2.386 7.376.312 11.532.581.993 1.874 2.556 3.226 3.932a137.343 137.343 0 00-9.312 1.558c-2.547 12.59-3.3 23.412-3.3 32.406 0 16.28 3.656 33.92 11.363 48.278-2.11-3.203-3.944-6.59-5.614-10.566-2.999-7.14-7.844-20.909-7.844-32.397v.001c-.867-14.39.674-26.31 2.633-37.114-6.442 1.514-9.168 2.876-9.168 2.876-5.056 21.236-2.913 40.867 4.407 57.421-8.562-16.563-11.322-36.652-5.841-59.077 0 0 5.892-2.868 20.786-4.904-1.213-1.286-2.298-2.77-2.831-3.653-3.018-4.58-2.313-11.607-.014-11.93 1.373-.188 2.396-.058 4.035.193 3.592.508 7.817 1.107 12.477 1.07 0 0 8.487-4.87 19.496-2.128 0 0 8.41-3.305 16.988 2.41 4.946.689 8.65.464 14.876.47 2.542.002 4.138 1.172 3.981 3.462-.266 3.974-1.79 7.198-3.857 9.91 15.984 2.044 22.265 5.1 22.265 5.1 5.482 22.425 2.723 42.517-5.845 59.078 7.323-16.552 9.464-36.186 4.412-57.422 0 0-2.728-1.362-9.172-2.876 1.96 10.804 3.503 22.723 2.634 37.114 0 11.487-4.843 25.256-7.842 32.396-1.67 3.977-3.503 7.363-5.616 10.566 7.709-14.358 11.363-31.999 11.363-48.278 0-8.994-.754-19.817-3.298-32.406"></path><path fill="#FFD300" d="M145.839 42.907a89.5 89.5 0 00-2.688-.675c1.96 10.803 3.502 22.721 2.634 37.112v-.001c0 11.28-4.667 24.75-7.677 31.997l-.166.4c-2.155 5.134-1.852 3.303.21-2.695-.044-1.002-.443-2.272-.676-2.954-1.288-3.768-3.245-6.688-5.367-8.922a34.925 34.925 0 00-2.637-2.483c-3.685-3.146-5.654-4.869-5.236-10.347l.032-.368a6.14 6.14 0 01.43-1.797c-1.177.892-2.447 1.675-3.739 2.251-.133.565-.613 2.327-1.674 3.554 1.172 3.928 4.11 8.069 5.652 9.945-.82-1.622-1.052-2.608-1.694-4.405 2.377 3.07 5.177 7.409 5.432 11.909-1.504-1.58-3.075-2.91-4.18-3.451 2.09 4.687 1.868 7.692.58 12.19-2.569 8.993-7.041 10.397-12.63 20.033 1.298-1.409 2.441-2.49 3.758-3.31-2.645 2.924-5.111 7.647-5.12 12.088a221.363 221.363 0 006.688-4.707c3.225-2.646 6.237-5.396 8.999-8.311 2.31-2.317 5.172-5.775 7.109-8.58 14.307-20.497 18.776-48.035 11.96-78.473"></path><path fill="#FFF" d="M143.151 42.231c1.96 10.804 3.503 22.722 2.634 37.113 0 11.488-4.843 25.257-7.842 32.396-1.67 3.978-3.503 7.363-5.616 10.566 7.709-14.358 11.363-31.997 11.363-48.276 0-8.995-.754-19.817-3.298-32.407l2.759.608z"></path><path fill="#000" d="M81.665 173.419c.256 0 .74.023 1.111.023h1.47c.292 0 .702 0 .954-.039.01 0 .024.016.024.022-.054.221-.1.72-.123 1.121-.04.032-.182.039-.22.024-.04-.296-.093-.476-.159-.597-.069-.138-.184-.177-.289-.191a9.645 9.645 0 00-1.046-.007c-.039.007-.077.1-.077.128-.007.493 0 1.038 0 1.554 0 .028.033.06.045.06.2 0 .779.006 1.015-.007.16-.01.237-.091.298-.304.024-.075.038-.145.054-.241.03-.017.197-.017.226.005-.005.19-.038.462-.038.721 0 .196.016.515.025.734-.032.023-.2.03-.229.007-.053-.226-.048-.196-.077-.296-.038-.112-.107-.219-.275-.233-.129-.016-.768-.016-.999-.016-.02 0-.045.045-.045.06v1.44c0 .112.061.227.159.249a6.7 6.7 0 00.877.045c.413 0 .504-.037.649-.203.161-.168.307-.454.418-.728a.437.437 0 01.214.069c-.023.143-.19.849-.32 1.097-.038.078-.083.121-.41.121-.665 0-1.387-.038-2.098-.038-.403 0-.906.024-1.31.024a.44.44 0 010-.204c.244-.03.426-.054.534-.086.145-.044.214-.134.214-.384.023-.425.023-1.068.023-1.885 0-.577 0-1.182-.023-1.456-.017-.212-.046-.272-.208-.325a2.483 2.483 0 00-.37-.059c-.024-.04-.01-.181.006-.205m6.297 4.27c.198.137.467.197.703.197.372 0 .646-.233.646-.628 0-.39-.164-.631-.827-1.035-.72-.465-1.175-.82-1.175-1.563 0-.88.73-1.354 1.593-1.354.558 0 .873.098 1.212.12-.054.296-.1.62-.131 1.1-.03.02-.175.027-.208.006-.066-.454-.151-.683-.348-.824a.946.946 0 00-.587-.168c-.41 0-.672.287-.672.66 0 .315.153.544.457.757.323.217.505.324.835.528.547.356.805.696.805 1.22 0 .818-.648 1.432-1.79 1.432-.495 0-.978-.144-1.137-.236-.074-.115-.205-.924-.221-1.173.024-.04.176-.075.208-.054.168.538.356.803.637 1.015m7.004.341c-.297 0-.672-.022-1.15-.022-.71 0-1.069.022-1.306.022-.03-.036-.03-.183 0-.204a3.42 3.42 0 00.473-.07c.185-.043.245-.127.265-.483.033-.75.028-2.286.028-3.445 0-.015-.019-.052-.041-.052a5.648 5.648 0 00-.762 0c-.176.012-.282.09-.381.256a3.86 3.86 0 00-.281.644c-.023.022-.207-.009-.221-.052.06-.304.12-.941.139-1.236 0-.014.043-.052.06-.046.242.083.5.1.684.1h2.706c.388 0 .603-.031.815-.09.025 0 .04.03.047.043-.077.281-.146.797-.175 1.281-.025.022-.209.03-.22.008a3.233 3.233 0 00-.161-.659c-.078-.176-.154-.227-.306-.243a11.235 11.235 0 00-.832-.006.07.07 0 00-.036.06c0 1.059 0 3.043.022 3.551.008.188.046.301.206.364.13.035.183.035.435.075.03.022.02.182-.008.204m7.415 0c-.283 0-.77-.03-1.221-.03-.547 0-.853.03-1.08.03-.023-.03-.031-.19 0-.211.189-.025.25-.033.387-.054.224-.052.243-.258.252-.492.017-.311.017-.757.024-1.475 0-.615 0-1.183-.024-1.386-.01-.13-.054-.26-.19-.28a4.512 4.512 0 00-.352-.062c-.022-.038-.006-.188.017-.21.616-.032 1.182-.23 1.508-.365.022-.01.092.022.092.045a14.8 14.8 0 00-.031 1.198c0 .612 0 1.885.022 2.504.017.273.047.478.245.523.158.029.273.036.374.054.014.02.014.181-.023.211m2.587-3.71c0 .394.213.615.992 1.077.005 0 .02 0 .036-.01a1.15 1.15 0 00.253-.74c0-.487-.26-.925-.725-.925-.335 0-.556.296-.556.597m1.289 2.939c0-.402-.261-.69-1.106-1.198-.008-.014-.03 0-.04.01-.204.218-.335.484-.335.77 0 .486.367 1 .878 1 .358 0 .603-.227.603-.582m.662-2.665c0 .28-.168.553-.747.901-.008.015-.008.03 0 .037.592.378.936.691.936 1.235 0 .665-.631 1.317-1.638 1.317-1.075 0-1.464-.62-1.464-1.144 0-.317.208-.598.924-1 .009 0 .016-.02 0-.03-.412-.287-.763-.634-.763-1.151 0-.37.173-.733.467-.937a1.628 1.628 0 011.012-.327c.738 0 1.273.432 1.273 1.1m2.746-.274c0 .394.213.615.99 1.077.007 0 .024 0 .039-.01a1.15 1.15 0 00.253-.74c0-.487-.261-.925-.726-.925-.336 0-.556.296-.556.597m1.288 2.939c0-.402-.26-.69-1.104-1.198-.01-.014-.032 0-.041.01-.206.218-.334.484-.334.77 0 .486.365 1 .877 1 .359 0 .602-.227.602-.582m.661-2.665c0 .28-.167.553-.745.901-.007.015-.007.03 0 .037.592.378.936.691.936 1.235 0 .665-.633 1.317-1.638 1.317-1.075 0-1.463-.62-1.463-1.144 0-.317.207-.598.925-1 .005 0 .012-.02 0-.03-.413-.287-.764-.634-.764-1.151 0-.37.173-.733.463-.937.26-.204.617-.327 1.015-.327.739 0 1.271.432 1.271 1.1m4.342-1.047c0 .078-.16.492-.367.736a.561.561 0 01-.372.179c-.497 0-.832-.05-.946-.05-.013 0-.06.014-.069.037-.06.134-.096.22-.144.355 0 .009.024.07.048.077.228.106 1.065.453 1.393.643.48.257.792.573.792 1.175 0 .998-1.074 1.618-1.98 1.618-.45 0-.792-.158-.984-.357a.393.393 0 01-.12-.256c0-.121.137-.369.22-.484.018-.018.07-.037.092-.046.306.447.76.796 1.302.796.39 0 .624-.289.624-.653 0-.325-.123-.643-.587-.938-.395-.265-1.135-.567-1.309-.673a.902.902 0 01-.008-.25c.136-.455.55-1.477.753-1.773.078-.098.145-.136.206-.136.124 0 .496.038.9.038.26 0 .327-.02.45-.12.03 0 .106.047.106.082m-40.807-8.087c-.58.904-1.312 1.834-1.865 2.273-.668.53-1.313.596-1.87.596-3.69 0-4.89-3.422-4.89-5.896 0-3.798 1.512-5.588 3.847-5.588.909 0 1.733.154 2.441.553.892.508 1.025 1.214 1.337 2.629.045.154 1 .064 1.11-.112 0-1.192.18-3.07.29-3.842-.844-.021-2.56-.396-4.69-.396-1.822 0-3.245.329-4.467.905-2.491 1.171-3.759 3.51-3.759 6.053 0 4.812 3.09 7.22 8.135 7.22 1.647 0 2.58-.332 3.292-.576.667-.375 1.667-2.186 2-3.157-.178-.289-.643-.596-.911-.662"></path><path fill="#000" d="M49.362 162.389c-.353.198-1.443.266-2.355.266-.111 0-.155-.132-.155-.22 0-1.613 0-4.065.044-4.749 0-.09.089-.263.155-.333.09-.066.489-.106.713-.106 1.598 0 2.71 1.079 2.71 2.913 0 1.347-.487 1.92-1.112 2.229m11.893 5.787c-.578-.177-.623-.619-.645-1.016-.044-.86-.02-3.071-.02-5.101 0-1.9-.024-3.027.02-3.754.022-.4.022-.839.535-.993.355-.113.823-.178 1.31-.244.113-.134.091-.927 0-1.062-.578 0-1.31.067-3.689.067-1.624 0-2.736-.067-3.49-.067-.134.158-.134.908-.045 1.062.468.066.845.11 1.356.266.38.11.555.42.578.882.046.883.046 1.633.046 4.02 0 1.08 0 4.371-.046 4.9-.066.841-.197 1.019-.845 1.149a1.299 1.299 0 01-.492-.01c-.499-.138-.698-.332-1.196-.828-.977-.971-2.925-3.471-3.4-4.373-.035-.065-.04-.143.022-.176 1.49-.64 2.602-1.612 2.602-3.357 0-1.946-1.602-3.535-4.447-3.535-.757 0-2.09.067-4.38.067-.89 0-2.778-.067-3.334-.067-.155.09-.248.863-.089 1.062.49.087 1 .179 1.266.266.402.089.579.352.621.836.047.796.047 2.341.047 4.507 0 1.371-.023 3.864-.068 4.57-.021.597-.176.908-.666 1.017-.289.066-.821.154-1.155.197-.179.112-.091.973.02 1.062.646 0 1.822-.067 3.603-.067 1.846 0 3.088.067 3.467.067.156 0 .201-1.037.065-1.062-.599-.088-.823-.11-1.331-.264-.424-.132-.556-.463-.579-.95a92.834 92.834 0 01-.044-3.069c0-.043.067-.155.11-.155.068 0 .424 0 .645.025.312.018.468.066.647.33.732 1.148 1.532 2.516 2.466 3.665.132.22.547.676 1.179.996 1.103.559 3.336.543 4.581.454.59-.017 1.345-.037 2.464-.037 1.955 0 2.933.043 3.624.067.157-.11.268-.883.177-1.062-.51-.088-1.221-.197-1.49-.285m49.569-.023c-.578-.154-.736-.64-.757-1.171-.132-1.524-.311-6.912-.287-8.546 0-.484.065-.883.575-1.06.314-.11.846-.177 1.491-.307.156-.112.111-1.017 0-1.06-1.11 0-2.09.064-5.335.064-.044.42-.221.884-.423 1.393-.645 1.566-2.446 5.299-3.068 6.446-.044.046-.109.067-.177 0-.666-1.258-2.133-4.35-3.025-6.313-.22-.466-.42-.974-.487-1.526-1.666 0-4.068-.065-5.782-.065-.066.065-.153.927-.086 1.06.731.131 1.378.264 1.776.398.447.177.58.638.557 1.013-.066 1.591-.533 6.715-.733 8.415-.09.818-.333 1.172-.978 1.347-.228.069-.62.123-.986.176a2.4 2.4 0 01-.645 0c-.642-.109-1.004-.17-1.28-.286-.4-.175-.467-.617-.488-1.015-.044-.996-.044-2.784-.044-4.285 0-1.833-.022-2.916.021-4.352.023-.706.09-.99.512-1.147.245-.133.755-.221 1.223-.263.155-.157.155-.907 0-1.06-.82 0-1.467.064-3.425.064-1.822 0-2.401-.065-3.534-.065-.156.11-.177.949-.045 1.06.712.089 1.136.131 1.447.285.31.113.376.51.4.795.022 1.26.022 2.409.022 3.49 0 .044-.09.11-.156.133-.221.045-.8.045-2.401.045-2.18 0-2.513 0-2.713-.045-.042-.046-.065-.064-.112-.176 0-1.238 0-2.342.025-3.27 0-.529.066-.859.511-1.038.222-.088.732-.176 1.156-.218.134-.112.134-.93.02-1.06-.487 0-1.621.064-3.51.064-2.112 0-2.824-.065-3.401-.065-.113.088-.158.973-.047 1.06.402.043.846.109 1.29.243.468.131.533.397.556 1.104.023.662.023 1.942.023 4.129 0 1.988 0 4.042-.023 4.373-.043.773-.2 1.15-.8 1.302-.33.088-.6.155-1.112.243-.155.156-.088.95 0 1.06.38 0 1.513-.066 3.358-.066 2.377 0 3.444.065 3.845.065.134-.109.246-.882.11-1.059-.488-.088-1.111-.198-1.397-.309-.513-.176-.58-.575-.58-1.104-.024-.795-.024-1.942-.024-3.357 0-.02.025-.109.047-.131.089-.046.309-.069 2.689-.069.999 0 2.11 0 2.534.023.066 0 .112.09.112.134 0 1.436.02 2.605-.022 3.665-.024.485-.178.796-.514.905-.354.112-.755.179-1.266.243-.155.177-.131.927.024 1.06.445 0 1.622-.066 3.512-.066 1.979 0 3.09.065 3.601.065h.198c.843 0 1.867-.065 2.757-.065 1.845 0 3 .065 3.534.065.134-.132.199-.948.065-1.059-.621-.088-1.09-.176-1.534-.309-.71-.22-.779-.553-.779-1.19 0-1.548.136-4.639.292-6.936.021-.044.132-.067.155-.044 1.402 3.157 3.245 7.419 3.846 9.275.089.044 1.089.066 1.176 0 .647-1.701 3.16-7.156 4.135-9.41.024-.02.09-.02.112 0-.044 2.609 0 5.413-.044 7.201-.021.84-.132 1.017-.49 1.147-.309.111-.711.154-1.266.266-.089.156-.11.927 0 1.06 1.222 0 2.132-.066 3.38-.066 2.155 0 3.267.065 4.069.065.155-.132.197-.882.087-1.059-.6-.112-1.156-.22-1.467-.309"></path><path fill="#000" d="M121.647 167.933a2.425 2.425 0 01-1.602.595c-.91 0-1.533-.307-2.155-.793-1.513-1.28-2.068-3.756-2.068-5.632 0-2.033.378-3.887 1.624-4.728.421-.308 1.021-.44 1.576-.44.845 0 1.4.243 2.025.75 1.334 1.127 1.933 3.334 1.933 5.655 0 1.897-.312 3.667-1.333 4.593m-1.935-12.256c-2.07 0-3.779.618-5.046 1.501-2.089 1.48-2.689 3.754-2.689 5.587 0 1.701.468 3.643 1.89 5.078 1.221 1.217 2.845 2.011 5.556 2.011 2.224 0 4.467-.862 6.023-2.804.938-1.217 1.379-2.85 1.379-4.506 0-3.666-2.445-6.867-7.113-6.867"></path><path fill="#000" d="M152.654 167.05c-.738.904-1.468 1.3-2.513 1.3-.398 0-1.332-.153-1.735-.55-.177-.176-.356-.485-.377-.728-.068-.641-.046-2.143-.046-4.241 0-1.986 0-4.571.022-5.321 0-.045.093-.22.178-.244.088-.044.447-.088.667-.088.911 0 2.048.196 2.845.795 1.448 1.014 2.2 2.872 2.2 4.77 0 2.163-.509 3.356-1.241 4.306m2.511-9.651c-1.222-.972-2.781-1.392-4.824-1.392-1.78 0-2.243.046-4.136.067-.644 0-2.964-.067-3.456-.067-.532 0-1.276.067-2.898.067-1.691 0-2.691-.067-3.178-.067-.07.046-.112.972 0 1.062.508.065.932.131 1.443.243.757.154.978.551 1.024 1.28.109 1.702.109 3.423.131 6.248-.042 0-.088.025-.13.025-1.38-1.524-4.313-5.213-6.182-7.51-.467-.572-.71-.928-.89-1.326a44.8 44.8 0 01-2.02.045c-1.738 0-2.603-.067-3.36-.067-.065.09-.088.993 0 1.105a5.564 5.564 0 011.533.375c.58.2.758.862.758 1.35 0 2.337-.066 6.801-.201 8.016-.044.595-.244 1.081-.754 1.28-.513.175-.868.242-1.401.332-.07.087-.112.925 0 1.058.953 0 2.246-.066 3.177-.066 1.024 0 2.07.066 3.091.066.133-.198.155-.95.044-1.058-.621-.113-1.024-.18-1.401-.267-.599-.153-.978-.507-1.02-1.503-.046-.947-.091-4.504-.069-6.932 0-.023.046-.111.135-.023 1.976 2.429 6.023 7.752 7.713 9.915.332-.046 2.112-.086 2.467-.022a132.68 132.68 0 01-.042-3.134c-.024-2.915.042-6.097.177-7.84.109-1.106.441-1.214 1.044-1.392.114-.033.282-.06.374-.084.198-.045.688-.037.906.005.23.05.508.09.631.124.598.175.644.442.71 1.06.043 1.036.02 2.073.02 4.503 0 1.745-.02 3.932-.042 4.328-.044.597-.31.93-.847 1.04-.486.087-.71.155-1.308.222-.135.02-.135.838 0 1.058h1.042c2 .022 4.047.086 5.27.086 2.313 0 4.49-.35 6.312-1.786 1.378-1.08 2.49-2.804 2.49-5.435 0-2.052-.888-3.84-2.333-4.99"></path><path fill="#7E5300" d="M120.708 35.487a2.17 2.17 0 00-.069-.19 9.095 9.095 0 00-.267-.013c.198.88-.349 1.78-1.265 2.048-.954.279-1.947-.232-2.216-1.144-.005-.014-.008-.031-.012-.046-.2.195-.375.395-.48.598a2.247 2.247 0 002.788 1.514 2.23 2.23 0 001.521-2.767m-22.73.593c-.222 1.166-1.386 1.934-2.614 1.722-1.236-.214-2.078-1.346-1.872-2.53.01-.053.024-.105.037-.155-.287.01-.552.033-.784.06-.051.146-.095.3-.123.457a2.825 2.825 0 002.313 3.26 2.838 2.838 0 003.32-2.628 5.666 5.666 0 00-.277-.186"></path></g></symbol></defs>
			<use xmlns:xlink="http://www.w3.org/1999/xlink" xlink:href="#icn-aflc-rich"></use>
	</svg>