<svg xmlns:xlink="http://www.w3.org/1999/xlink" xmlns="http://www.w3.org/2000/svg" class="icon club-logo" aria-hidden="true" width="200"  height="200" ><defs><symbol viewBox="0 0 200 200" id="icn-aflc-wb" xmlns="http://www.w3.org/2000/svg"><defs><path id="cya" d="M106.972 113.235H.64V.33h106.333z"></path><path id="cyc" d="M124.55.556H0v33.782h124.55V.556z"></path></defs><g fill="none" fill-rule="evenodd"><path fill="#FFF" d="M141.168 118.039c.597-1.656 1.17-3.35 1.725-5.06m6.787-27.796c1.072-5.971 1.982-12.161 2.75-18.566-33.903-8.001-77.16 1.332-104.528 14.218-7.777 43.563 12.11 79.267 40.53 95.603a99.73 99.73 0 002.296-.959l.857-.375c16.41-7.262 28.72-18.412 37.943-32.896m13.368-29.228c2.783-8.617 5.008-17.902 6.785-27.796m-20.101 56.981c4.593-7.23 8.415-15.286 11.598-24.101"></path><path fill="#FFF" d="M129.53 75.536l.004.015c.013.013.013.01-.005-.015"></path><g transform="translate(45.5 63.21)"><mask id="cyb" fill="#fff"><use xlink:href="#cya"></use></mask><path fill="#0039A6" d="M2.337 17.533C-5.447 61.142 14.46 96.881 42.91 113.237c.778-.312 1.54-.634 2.298-.96C18.3 96.805-.075 62.998 7.29 21.752 31.545 10.332 68.772 1.97 99.765 7.161 76.718 4.778 40.345 10.84 16.18 20.369c-1.45.541-2.963 1.123-4.512 1.742 0 0-1.045 4.426-1.478 11.547.565-.158 1.13-.314 1.695-.47v.002c29.495-8.08 60.58-12.018 92.337-11.306a319.72 319.72 0 002.75-18.583C73.035-4.711 29.733 4.635 2.338 17.533m9.334 40.156c.26 1.628.668 3.271 1.008 4.854 26.555-5.78 55.137-8.659 83.02-7.768.6-1.658 1.17-3.354 1.725-5.065-28.657-1.16-58.547 1.605-85.752 7.98m9.882 27.251c4.36 7.6 10.282 14.844 16.938 20.868a93.383 93.383 0 007.575 6.09c16.425-7.268 28.747-18.43 37.98-32.93-11.95-.072-23.936.577-35.766 1.878-9.03.989-17.967 2.36-26.727 4.094" mask="url(#cyb)"></path></g><path fill="#C60C30" d="M84.214 90.282h-.002a320.558 320.558 0 00-28.523 6.585 99.825 99.825 0 001.485 24.031c12.655-2.962 25.583-5.113 38.715-6.484h.005a326.196 326.196 0 0147.035-1.495c2.788-8.624 5.013-17.919 6.793-27.826a323.769 323.769 0 00-65.508 5.189"></path><path fill="#BBC1DB" d="M117.418 139.239c-.028.037-.05.078-.073.118-.457.742-1.438 1.973-2.46 3.107a312.84 312.84 0 0114.672-.264c4.618-7.252 8.458-15.342 11.65-24.194-19.99-.64-39.735.591-59.135 3.42.013.017.005.014.015.035.708 1.152 1.385 2.133 1.825 2.79.933 1.407.21 2.38.338 3.065.127.634-.25 2.547.27 4.603-.562.754-1.777 1.683-2.39 3.07-1.077 2.428-1.287 4.45-.6 7.52a12.141 12.141 0 00-.08 3.134 309.33 309.33 0 0122.037-2.502l.038-.045c1.902-2.302 2.157-3.659 2.89-6.84.54-2.93 1.06-2.334 2.382-3.963.963-1.185 1.08-2.302.755-4.22.053-.007.105-.007.16-.012 6.12-.556 7.91-1.575 9.58-1.917 3.508-.728 3.19 1.484 3.23 2.055-.067.982-.755 2.917-2.05 5.33 0 0-.904 2.406-3.054 5.71"></path><path fill="#9F0A2B" d="M145.501 102.602c-.325-2.57-.743-4.967-1.593-6.875-1.582-3.563-5.467-7.73-8.79-10.631a322.32 322.32 0 00-62.2 7.466 24.628 24.628 0 00-.592 2.717c.102.287.313.758.557 1.226-.104 1.298.47 4.398.938 5.84a2.379 2.379 0 00-.165 1.623c.235.707 1.48 1.78 2.225 2.142 0 0 .248 5.704 4.782 8.299-.25.827-.407 1.464-.502 2.035 20.547-3.188 41.66-4.38 62.775-3.525a185.729 185.729 0 002.867-9.857 28.863 28.863 0 00-.302-.46"></path><path fill="#06357A" d="M96.778 63.365c-1.398-.76-3.1-1.49-5.338-1.786-2.41.82-4.815 2.252-6.377 3.185-.875 1.87-2.46 6.299-2.505 7.126.505 0 1.355-.032 2.382-.352-.45.428-.862.936-1.367 1.65-1.818.678-4.353 1.682-6.91 3.076-.69.574-1.443 1.545-1.728 2.59-.142.492-.08 1.018.303 1.318.245.204.63.392.99.485l.067.018c-.275 1.553.253 3.699.855 4.708-.195.297-.415.78-.637 1.359-.59 1.527-1.195 3.77-1.418 5.284.103.287.31.758.558 1.226-.108 1.3.467 4.4.935 5.843a2.376 2.376 0 00-.163 1.623c.233.704 1.483 1.776 2.225 2.136 0 0 .25 5.707 4.783 8.304-.403 1.324-.565 2.167-.613 3.015.023.073.053.153.08.223.408 1.15 1.158 2.497 1.91 3.727.708 1.153 1.423 2.197 1.863 2.856.935 1.402.54 2.552.462 3.244-.082.72-.375 2.365.145 4.421-.562.752-1.777 1.683-2.39 3.067-1.08 2.431-1.287 4.454-.6 7.522-.615 4.003.69 7.886 3.89 9.074 1.753.651 3.14.707 3.843.458 1.872.226 3.437-.526 4.472-1.246 1.56-1.001 3.49-1.329 5.52-3.868.79-.986 2.365-1.522 4.27-3.827 1.903-2.305 2.158-3.659 2.89-6.842.54-2.931 1.06-2.335 2.383-3.963.965-1.188 1.08-2.3.752-4.222.055-.006.108-.008.165-.013 6.118-.551 7.908-1.573 9.575-1.918 3.51-.727 3.193 1.485 3.233 2.059-.07.981-.755 2.916-2.053 5.33 0 0-.9 2.405-3.055 5.709-.025.038-.047.08-.072.118-1.01 1.638-4.585 5.702-5.545 5.745-3.715.154-6.528 1.767-8.288 5.476-2.265.677-5.145 3.107-5.605 6.922-.002.028-.29 2.174.983 3.72.362.477 1.122.898 1.57 1.444.582.707 1.542.848 2.12 1.057 1.112.299 2.34.04 3.81-.521 1.812-.743 5.077 1.625 9.445 1.59 4.762-.04 8.585-.13 9.542.833 2.608 2.614 6.215-.076 6.215-.076 1.965-1.474 2.565-3.804 2.765-4.813.878-4.464.225-4.68-.082-7.975-.313-3.299 1.095-6.039 1.66-7.217 2.8-5.865 8.925-10.176 11.982-20.266 2.9-9.572 1.848-19.114-2.635-24.592-.325-2.572-.515-3.025-1.36-4.937-2.027-4.563-7.842-10.121-11.392-12.733-1.605-2.325-4.078-4.683-5.928-5.9a3.494 3.494 0 01-.16-.587l-.645-1.319c-.42-.657-1.025-1.223-1.945-1.998-.65-.495-2.02-1.351-3.06-1.464.375-.539.658-1.475.65-2.089-2.64-2.926-7.03-4.406-9.88-6.986-2.792-.012-6.375.235-9.817.799-1.19.624-2.215 1.31-3.303 2.37-1.087.08-3.225.49-4.422.8"></path><path fill="#FFF" d="M129.551 75.437l.005.015c.01.013.01.01-.005-.015"></path><path fill="#FFF" d="M89.096 67.508c.788-.528 3.713-2.307 5.66-3.143-.68-.397-3.125-.903-4.653-.999-.974.275-2.647 1.057-3.8 1.825.793.453 2.418 1.731 2.793 2.317zm10.248 48.636c.437.035 2.762.277 4.137.642-.547-1.045-1.32-2.403-4.895-3.322-.8-.158-1.262-.022-1.968-.206-2.632-.682-4.334-.242-4.334-.242-3.145.637-5.545-.468-7.405-1.137.14.71.29 1.588.632 2.295 1.917 2.141 3.07 3.998 3.707 4.429 1.253.873 2.01 2.49 2.13 3.037-.844-.906-1.547-1.271-2.692-1.8.075 1.505.15 2.338.425 3.36.19.954-.6 2.783-.737 4.268.77-.67 1.41-.806 1.565-1.588.412-2.622 1.642-4.389 4.887-5.637 2.083-.803 4.415-.797 5.615-.387.445.271 2.125-.559 3.7-.171 0 0-1.038-1.425-3.723-2.283-1.532-.49-4.43-.903-6.38-.858 1.486-.453 3.913-.516 5.336-.4zm-4.885 23.115c.647-.795-.503-1.774-.818-2.4-.555-1.047-1.895-1.875-2.787-.869a1.856 1.856 0 00.377 2.794c2.21 1.391 3.228.475 3.228.475zm-3.333 7.21c1.668-.526 1.513-1.306 1.513-1.306-.14-.443-1.028-.63-1.483-.859-.803-.41-1.77.187-1.695 1.032.075.76.905 1.377 1.665 1.132zm-4.795-79.127c-1.062 1.115-1.445 1.731-1.847 2.743 1.695-.591 2.787-1.26 3.462-1.739-.482-.397-1.07-.848-1.615-1.004zm8.988 69.207c1.207-3.488.522-4.13-2.208-6.11-2.42-1.759-4.852-.354-6.257 2.326-1.068 2.04-.82 4.038.087 5.845.488.971 1.625 2.03 2.983 2.247 1.3.209 3.237.219 1.5-.918a7.082 7.082 0 01-1.06-.559 2.885 2.885 0 01-1.32-2.053 2.92 2.92 0 01.712-2.356c.465-.523 1.055-.802 1.71-.802 1.083 0 2.035.752 2.59 1.582a5.4 5.4 0 01.308.416c.685.999.955.382.955.382zm3.83-56.3c-.563.032-1.073-.353-1.35-.94-.658.59-1.345 1.14-1.898 1.443.9-.066 2.893-.083 3.87-.169 1.965-.234 2.515-1.351 2.54-1.781.02-.436.048-1.168-.495-1.94-.73.095-1 .085-1.805.156-.012.02-.032.047-.052.075.275.312.465.752.497 1.25.07 1.002-.515 1.855-1.307 1.905zm-21.205.704c-.25 1.127.34 2.37.997 2.881.58-.43 1.47-.938 2.165-1.286-.15-.073-.367-.256-.592-.48-.085.463-.36.818-.728.88-.515.086-1.02-.442-1.13-1.177a1.731 1.731 0 01.05-.75 4.882 4.882 0 01-.762-.068zm7.647 15.498s-.362.169-.875.473c-1.552.775-2.547 1.696-3.175 3.063-.037.083-.077.168-.11.254 0 0 2.075 13.276 11.278 9.096 2.144-.526 5.987-.17 8.317-1.68-.332.978-.895 1.039-1.515 1.534 1.503.317 1.995.881 3.125.081 1.308-.926 1.055-.559 2.395.126 1.337.687 3.742 1.975 5.787 1.804 1.043-.209 1.846-.808 2.445-1.389-.69-.13-1.63-.584-2.142-.989-1.137-.878-.907-2.151-1.73-3.865l-.788-.896c-1.83 1.447-3.342 2.096-5.72 2.786.9-1.198 1.693-1.752 2.863-2.502.66-.43 1.575-1.278 2.353-2.038l-.713-2.476c-.44-.345-.87-.72-1.233-1.11-2.757-.993-5.285-1.439-8.01-1.884l-1.09 1.082c-.907-1.233-2.74-2.819-4.76-3.89-.77-.257-1.727-.604-2.595-.738-.124-.981-.742-2.889-1.385-4.076-.347.694-1.15 2.189-1.55 3.905-1.27.068-2.84.292-4.312.727-.485.119-.888.247-1.133.38-.134-.405-.907-1.49-1.632-2.35a22.348 22.348 0 00-.617-.803l2.94 1.274c1.252-.41 2.362-.65 3.152-.786.413-.06.828-.118 1.225-.166.587-1.333 2.13-3.522 2.13-3.522 1.31 1.001 2.252 2.43 2.987 4.511.848-.94 2.048-1.837 3.21-2.327 2.07-.911 5.966-1.777 7.656-1.243.467 2.554 2.49 5.146 3.62 7.486.632 1.004 1.207 2.87 1.207 2.87l-.537-7.166 2.552 8.986s3.568 6.037 6.29 6.669c.808-.232 1.555-.501 2.06-.77 1.05-.65 2.548-2.285 3.43-3.966.118-.302.283-1.065.405-1.898.093-.533.16-1.353.165-1.834.535 1.195.808 2.28 1.073 3.956-.25 1.437-.883 3.188-1.643 4.824 1.438-.725 2.785-4.444 3.413-5.67.702-1.3 2.07-3.885 2.735-6.567.015-.315-.038-.705-.155-1.14-.62-2.14-1.638-4.975-2.323-6.913.713 1.017 1.308 1.915 1.843 2.841.74 1.281 1.367 2.61 2.037 4.389.035 2.317-.017 4.874-.483 7.39.073-.065 3.623-2.924 6.223-7.194 1.465-2.406 3.207-5.908 2.025-10.956-.558-2.376-4.085-6.253-6.053-7.564a6.655 6.655 0 00-.3-.186l-.397-.952c-.105-.138-1.615-2.34-3.133-3.42-.75-.533-2.965-1.673-4.312-1.902l-1.258.066c-1.067-.005-2.77.09-4.397.271-4.165-2.372-7.643-3.64-10.845-4.386-.45.242-.81.403-1.168.567.21-.868.533-1.6 1.21-2.182 0 0 4.61 1.663 7.408 3.188 1.047.086 5.252.1 7.2-.38.28-.241.392-.73.41-1.137-.468-.778-2.233-1.553-4.953-3.118-1.452-.873-2.867-2.01-2.867-2.01s-1.07-.101-2.12-.07c-.798.022-5.28.39-6.13.714-.178.065-.778.307-.853.327-.962.337-1.922.969-3.035 1.983a8.304 8.304 0 01-1.722.782c-2.15.715-5.335 1.533-6.268 1.925-1.447.607-3.982 2.112-3.982 2.112l-3.015 3.84c-.628.792-1.18 1.56-1.5 2.153-2.058.675-4.865 1.925-6.19 2.824-.328.234-.79.886-.583 1.14.23.226.523.407.785.483.533.063.965.078 1.3.048.108-.008.205-.018.298-.03.285.465.675 1.14 1.407 1.353 0 0 .66.033 1.415-.015a9.13 9.13 0 00.855-.075c.658-.34 1.663-1.402 1.945-1.757.398-.493.908-1.306 1.628-2.37.82-1.037 2.467-2.41 4.03-3.55a30.591 30.591 0 014.745-2.2c-1.263.569-5.033 3.825-6.193 5.347-.662.951-.747 1.784-.88 2.459.033.204.358.78 1.035 1.359 1.06-.04 3.738-.889 4.763-1.047 1.977-.69 3.367-2.547 4.317-3.815 1.24-.035 5.613-.13 7.67-.614.73.33 2.473 1.65 3.933 3.294-.895-.62-2.278-1.195-3.498-1.487-.492.08-2.045.193-2.665.357.128 1.68-.54 2.665-1.385 3.644.885-.078 2.42.05 4.235.017 2.943.65 5.22 3.332 5.22 3.332-2.23-2.02-5.947-2.147-5.947-2.147-2.633-.254-6.798.099-9.688.499.668.659 1.763 2.549 2.608 4.152-1.963-2.142-3.245-2.713-5.403-3.662-2.125-.744-4.692-.817-5.785-.795-1.065.03-2.365.247-2.365.247-5.042 1.46-8.08 4.557-8.862 7.325.052.7.547 1.356 1.095 1.85.032 1.107.442 3.407.99 4.675 0 0-.133.116-.295.307-.2.183-.403.37-.5.556-.205.317-.218.908-.098 1.326.035.12.133.382.26.516 0 0 .548.664 1.715.257 0 0 1.558-.884 3.155-1.515.61-.212 1.46-.478 2.298-.612zm17.283-25.966c-.068.02-.143.04-.213.058l.855.44c-4.943.275-8.663 2.607-8.663 2.607 1.64-1.494 3.258-2.496 4.808-3.095 0 0 3.787-.989 7.465-.606-1.788.09-2.698.219-4.252.596zm9.275.35c3.984.994 6.54 1.983 8.1 2.911 1.502 2.202 2.747 4.452 3.432 6.704-3.015-3.991-6.315-7.29-11.532-9.615zm-31.453 14.52c1.693-.851 3.708-1.34 5.86-1.075l.233.42c-1.048.77-2.85 3.251-3.096 3.865-.502.219-2.167.528-2.57.466-.252-.896-.582-2.784-.427-3.677zm47.045 32.694c.532-.161 1-.32 1.38-.468-.04-3.412-1.328-5.516-3.923-7.262-2.622 2.3-4.435 3.832-6.54 4.985-1.107.599-2.367 1.092-4.012 1.507-.9.234-1.72.41-2.523.533 1.743-.508 3.508-1.683 4.815-2.956.533-.519.99-1.05 1.333-1.555-.533.553-1.21.96-1.983 1.22a6.57 6.57 0 01-1.345.292c.295-.176.57-.362.825-.559 1.255-.974 2.05-2.227 2.323-3.9-1.105 1.862-2.733 2.904-4.078 2.947-.022.012-.04.025-.06.037-1.165.816-2.835 1.274-4.042 1.321-3.353.129-4.445.27-4.445.27.387.508 1.99 3.43 2.212 4.688 1.758.712 3.293 2.544 4.025 3.545 4.218-.284 8.685-1.47 12.285-2.491-2.18-.33-4.05.571-6.767.204 2.16-.214 4.072-.78 4.945-1.07 1.637-.563 1.762-2.139-.775-4.106 3.052.45 5.225 1.318 6.35 2.818zm-37.435 24.71c.135 0 .265.016.395.04.072-.165-.21-.382-.833-.417-1.615-.096-3.032-1.25-3.68-3.12-.817 1.65-.29 5.065.973 6.48.807.903 1.987 1.252 2.135 1.059-.62-.38-1.068-1.032-1.138-1.777a2.012 2.012 0 01.518-1.545 2.208 2.208 0 011.63-.72zm17.645-16.955c.448.25 1.103.879 1.548.738 0 0 .725-.312.21-1.993-.238-.77-1.213-1.105-1.876-.73-.734.415-.67 1.555.118 1.985zm-8.975-.027c-1.115.75-.483 2.199.473 2.898.577.4 1.382 1.681 2.252 1.138 0 0 1.04-.886-.028-3.281a1.83 1.83 0 00-2.697-.755zm7.802-2.678c.398-.324.91-.503 1.445-.503.115 0 .225.008.335.02-2.515-2.003-6.525-1.872-7.652-.896a4.111 4.111 0 00-.37-.138c-.795-.254-4.168-.795-6.215.986-2.152 1.877-3.617 4.864-.857 7.013 1.875 1.46 3.667 2.446 5.732.675.14-.119-.615-.695-1.192-1.54-.618-.66-.983-1.492-.968-2.265.015-.765.385-1.432 1.042-1.875a2.867 2.867 0 011.62-.503 2.89 2.89 0 012.1.903c.163.126.315.275.463.456 1.915 2.335 1.395-.295.81-1.548a4.45 4.45 0 00-1.135-1.522c.645.08 1.447.616 1.895 1.248.468.664.825 1.525 1.435 2.126.688.675.995.504 1.088.068a2.195 2.195 0 01-.28-.745c-.135-.757.127-1.492.705-1.96zm6.598 21.246s-3.4.075-5.175 3.412c0 0-.175.38-.357.991-.105.02-.21.04-.31.066-3.513.883-5.208 3.945-5.256 5.838-.015.981.08 2.181.665 2.637.003-.003.005-.005.008-.005a2.362 2.362 0 01.023-.99c.164-.701.627-1.295 1.242-1.592.27-.128.56-.199.858-.199.587 0 1.162.27 1.572.732.213.242.367.524.463.828.26-.068.385-.435.257-.93-.353-1.387-.505-2.59.09-4.387-.13 1.606.007 3.772 1.627 5.116 0 0 .528.322.763.146a7.637 7.637 0 01-.305-1.339 2.896 2.896 0 01.688-2.3 2.897 2.897 0 012.19-1.004c.03 0 .06.003.092.003.79.025 1.458.39 1.873 1.029.54.828.605 2.068.172 3.158a4.293 4.293 0 00-.16.569c.537.058 1.15-.02 1.71-.468 0 0 2.345-1.452 1.888-7.967 0 0-.47-4.039-4.618-3.344zm-.915 8.563c-1.188-.035-2.035 1.021-1.888 2.088.366 2.597 1.716 2.794 1.716 2.794 1.02-.01 1.027-1.528 1.305-2.172.437-1.1.202-2.667-1.133-2.71zm-7.92 3.087c-.642.413-.805 1.435-.242 2.008 1.224 1.251 1.842.755 1.842.755.33-.324.09-1.205.082-1.718-.004-.904-.974-1.5-1.682-1.045zm1.43-20.661c.385-2.476 3.153-7.69 0-4.298-1.813 1.952-3.535 2.496-5.615 3.915-2.915 1.978-1.065 4.26-1.565 5.755-.215.644-.057.307-.825 1.309-1.34 1.746-3.557 2.133-2.522 2.77 1.06.647 1.222.018 2.15-.174.595-.125 1.355-.621 1.58-1.27.385-1.097 1.08-2.854 3.17-3.503 2.095-.65 3.245-2.028 3.627-4.504zm43.578-23.838c-.023-1.942.014-2.523-.59-5.118-1.356-5.823-5.503-11.698-9.81-16.2 2.452 1.208 4.142 2.471 6.034 5.274-.377-3.993-4.72-10.032-8.595-12.843 1 2.015 1.315 4.094 1.373 5.943.035 1.712-.275 3.823-.56 5.073-.655 2.5-1.343 5.272-3.453 7.303-1.595 1.213-3.32 2.833-4.86 3.837l-2.552 1.973c-1.615 1.366-2.818 2.501-3.373 3.903 1.578-1.356 4.768-4.399 8.093-5.237-.705.637-1.678 1.709-3.785 3.372.832.214 1.477.77 2.08 1.752 1.03 1.683 1.29 4.119.92 6.482 1.74-.881 4.377-5.09 4.795-8.473.21-1.69.418-2.79.418-2.79s.177.694.317 2.586c.283 3.785-1.142 7.96-2.73 10.551-.815 1.337-2.282 1.88-2.922 2.763-.648.906-.438 1.558-.628 3.058-.313 2.413-2.505 4.24-1.288 4.154.818-.063 2.528-.007 3.263.76-1.515-.47-5.173.632-7 3.49-.515.81-1.69 2.859-1.69 2.859s-1.403 2.612-4.058 4.997c-1.822 1.638-1.467 1.757-1.1 1.855.063.017.115.027.17.045 2.285-1.115 3.995-2.499 4.88-3.56.515-.615.838-.889.838-.889s-.16.428-.585 1.115c-.833 1.339-1.495 2.57-3.675 4.308 6.182-1.215 10.717 3.372 11.362 7.796 1.338.35 2.608.956 3.318 2.083 1.495-2.974.662-6.502.492-9.235-.14-2.24.48-5.47 2.1-8.807-.417 1.802-.675 3.558-.735 5.068.955-3.078 4.508-6.455 7.03-9.182 2.743-2.778 4.608-7.225 5.223-10.665.782-4.36.907-8.454-1.538-15.347 1.505 1.918 2.363 3.868 2.82 5.946zm-26.556 43.073c-1.272-.423-2.02.97-1.977 2.156.042.702-.465 2.131.495 2.489 0 0 1.332.282 2.552-2.041.5-.954.063-2.235-1.07-2.604zm7.895-1.243c-1.047-.675-2.042-.904-2.672-.846l-.008-.393c-.057-2.118-1.89-6.416-6.555-6.378-1.995.017-2.575 1.852-2.77 3.258-.282 2.006-.335 4.323-.26 4.905.088.681-.025 1.726.643 2.282.32.264.817.453.872.058.065-.765.203-1.709.643-2.207.445-.503 1.045-.911 1.692-.911.193 0 .393.023.593.073.835.201 1.605.825 1.985 1.595.387.773.415 1.794.085 2.572-.168.39-.343.725-.523 1.02.003.107.028.175.083.19.77.114 2.005-.488 2.49-1.255.577-.919.867-2.023.977-3.307.748.894.478 3.032.353 3.747-.09.521-.253 1.507.027 2.101.23.498.76.64 1.008.49-.003-.022-.005-.047-.01-.064a2.255 2.255 0 01.355-1.774 2.1 2.1 0 011.472-.901c.303-.038.605-.003.895.103.643.229 1.035.775 1.27 1.452.113.32.15.646.128.966.197.118.357-.098.482-.516.873-2.944-1.49-5.126-3.255-6.26zm1.19 5.558c-.745-.397-1.662.28-1.59 1.18.038.511-.132 1.412.225 1.706 0 0 .658.446 1.775-.908.513-.617.263-1.62-.41-1.978zm-33.545-67.45c.713.455 1.808 1.356 2.515 2.292.108-.159.288-.337.38-.606-.5-.418-1.685-1.772-2.137-2.461-.915.143-2.68.463-4.118.89-.397.159-.897.46-1.117.607.52.45 1.742 1.177 3.292 1.542.605-.88.965-1.726 1.185-2.264zm-.275 4.376c.943.09 3.858.48 6.125.885-.747-.523-1.752-2.023-2.222-2.745-.435.543-.775 1.06-1.36 1.58-.295-.652-1.248-1.754-2.283-2.315-.205.632-.592 1.296-.912 1.852-.935-.272-2.198-.926-2.855-1.381a1.52 1.52 0 00-.535.272c.867.435 2.262 1.162 3.425 2.3l.617-.448z"></path><g transform="translate(38 23.954)"><mask id="cyd" fill="#fff"><use xlink:href="#cyc"></use></mask><path fill="#0039A6" d="M10.89 23.72c1.598-.713 2.438-2.11 2.438-3.823 0-2.106-1.285-4.849-7.697-4.849-1.443 0-3.223.025-5.63.131v18.45c1.805.106 3.272.184 5.417.184 5.473 0 8.748-1.845 8.748-5.587 0-2.556-1.548-4.033-3.275-4.506zm-5.364-4.112a2.97 2.97 0 01.967-.028c.628.08 1.52.317 1.52 1.4 0 .895-.682 1.265-1.572 1.423-.235.023-.525.05-.915-.027v-2.768zm1.045 9.67c-.42.028-.81 0-1.045-.025v-3.294a3.45 3.45 0 01.94-.053c.995.078 1.755.634 1.755 1.714 0 1.16-.76 1.58-1.65 1.658zm18.85-2.607c0 1.555-.888 2.476-2.09 2.476-1.205 0-2.098-.896-2.098-2.448v-11.52h-5.577v11.334c0 5.536 4.165 7.67 7.777 7.67 4.005 0 7.565-2.61 7.565-7.829V15.18h-5.577v11.492zm57.105-16.92c.34.05.642.033.877.018l.848 2.876h3.857l-1.522-4.29c.745-.75 1.2-1.822 1.2-3.183 0-2.71-1.845-4.43-5.108-4.515-.997-.032-2.69 0-3.755.068v11.92h3.603V9.751zm0-6.13a1.9 1.9 0 01.607.033c.473.103 1.033.478 1.033 1.518 0 .817-.408 1.379-.965 1.55a1.942 1.942 0 01-.675.05v-3.15zM49.33 9.667h-4.565V7.98h3.23V5.34h-3.23V3.705h4.277V.725H41.16v11.92h8.17v-2.98zm12.772 2.98h3.588V3.721h3.097V.725h-9.762v2.997h3.077v8.923zm15.653-2.98h-4.57V7.98h3.232V5.34h-3.232V3.705h4.28V.725h-7.883v11.92h8.173v-2.98zm5.897 5.146c-4.817 0-8.822 3.794-8.822 9.776 0 5.956 3.977 9.75 8.875 9.75 5.027 0 8.77-4.003 8.77-9.8 0-6.037-4.108-9.726-8.823-9.726zm0 14.836c-1.935 0-3.22-2.081-3.22-5.086 0-3.085 1.285-5.088 3.248-5.088 1.962 0 3.22 2.031 3.22 5.088 0 2.98-1.31 5.086-3.248 5.086zm-46.23-17.003l3.16-11.92h-3.417l-1.64 7.323L33.63.725h-2.655L29.098 8.03 27.441.725h-3.503l3.4 11.92h3.198l1.777-7.254 1.808 7.254h3.302zm61.885 0V.725h-3.605v6.218L92.406.725h-3.333v11.92h3.6V6.601l3.32 6.044h3.315zm21.028 9.545c-1.598-.473-3.038-.368-3.038-1.475 0-.818.76-1.185 1.808-1.185 1.205 0 2.46.473 3.51 1.08l.677-4.349c-1.097-.632-2.72-1.346-4.842-1.346-3.193 0-6.835 1.61-6.835 6.011 0 3.189 1.885 4.9 3.797 5.561 1.705.58 3.458.396 3.458 1.5 0 .738-.733 1.266-1.888 1.291-1.437.028-2.982-.71-4.292-1.605l-1.233 4.426c1.625.976 3.668 1.82 5.945 1.82 3.588 0 7.148-2.057 7.148-6.3 0-3.399-2.278-4.848-4.215-5.43zM102.66 27.04h2.805v1.897a3.653 3.653 0 01-2.07.632c-2.198 0-4.083-1.87-4.083-5.06 0-3.083 1.833-5.244 4.213-5.3 1.285-.022 2.305.556 3.01 1.319l1.65-4.401c-1.28-.738-3.035-1.422-5.08-1.422-5.105 0-9.373 4.162-9.373 9.882 0 5.692 4.06 9.594 9.453 9.594 3.037 0 5.132-1.212 6.702-2.347v-8.958l-7.227-.028v4.192zM38.566 15.18H32.99v18.45h11.442v-4.613h-5.867V15.18zm12.805 0h-5.578v18.45h11.445v-4.613h-5.867V15.18zm12.595-.078c-2.07-.028-3.878.025-5.368.078v18.45c1.205.078 2.198.13 3.403.13 7.957 0 11.572-3.187 11.572-9.302 0-6.27-3.482-9.278-9.607-9.356zM65.09 29.07c-.315.078-.63.078-.918.05v-9.38c.26-.025.523-.053.813-.025 1.415.158 3.01 1.29 3.01 4.665 0 3.163-1.49 4.426-2.905 4.69zM55.996 5.255c-1.03-.305-1.96-.24-1.96-.954 0-.526.492-.765 1.167-.765.778 0 1.59.307 2.265.697l.443-2.808c-.713-.408-1.76-.87-3.13-.87-2.065 0-4.415 1.04-4.415 3.882 0 2.06 1.215 3.168 2.452 3.593 1.098.375 2.233.257 2.233.971 0 .476-.475.818-1.22.833-.93.018-1.928-.458-2.773-1.036l-.795 2.86c1.048.632 2.368 1.176 3.84 1.176 2.315 0 4.618-1.329 4.618-4.072 0-2.196-1.473-3.13-2.725-3.507z" mask="url(#cyd)"></path></g></g></symbol></defs>
			<use xmlns:xlink="http://www.w3.org/1999/xlink" xlink:href="#icn-aflc-wb"></use>
	</svg>